<svg xmlns="http://www.w3.org/2000/svg" width="970pt" height="404pt" viewBox="0 0 970.33 404">
    <g class="graph">
        <path fill="#fff" d="M0 404V0h970.33v404z"/>
        <g class="node" transform="translate(4 400)">
            <ellipse cx="488" cy="-378" fill="none" stroke="#000" rx="51.86" ry="18"/>
            <text x="488" y="-372.95" font-family="Times,serif" font-size="14" text-anchor="middle">:app-nanda</text>
        </g>
        <g class="node" transform="translate(4 400)">
            <ellipse cx="404" cy="-18" fill="none" stroke="#000" rx="65.17" ry="18"/>
            <text x="404" y="-12.95" font-family="Times,serif" font-size="14" text-anchor="middle">:core:common</text>
        </g>
        <g stroke="#000" class="edge">
            <path fill="none" d="M441.61 26.89C316.93 37.91 4 74.56 4 165v74c0 70.24 220.11 114.15 335.39 132.34"/>
            <path d="m339.7 367.84 9.35 5-10.42 1.92z"/>
        </g>
        <g class="node" transform="translate(4 400)">
            <ellipse cx="310" cy="-234" fill="none" stroke="#000" rx="96.39" ry="18"/>
            <text x="310" y="-228.95" font-family="Times,serif" font-size="14" text-anchor="middle">:core:common-android</text>
        </g>
        <g stroke="#000" class="edge">
            <path fill="none" d="M471.39 38.91C457.87 49.38 439.82 63.43 424 76c-27.44 21.79-58.45 46.92-80.53 64.91"/>
            <path d="m345.72 143.59-9.96 3.61 5.54-9.03z"/>
        </g>
        <g class="node" transform="translate(4 400)">
            <ellipse cx="112" cy="-234" fill="none" stroke="#000" rx="84.11" ry="18"/>
            <text x="112" y="-228.95" font-family="Times,serif" font-size="14" text-anchor="middle">:core:compose-core</text>
        </g>
        <g stroke="#000" class="edge">
            <path fill="none" d="M457.97 35.85c-66.39 25.07-213.46 80.62-291.33 110.03"/>
            <path d="m168.13 149.05-10.59.26 8.12-6.81z"/>
        </g>
        <g class="node" transform="translate(4 400)">
            <ellipse cx="671" cy="-162" fill="none" stroke="#000" rx="47.26" ry="18"/>
            <text x="671" y="-156.95" font-family="Times,serif" font-size="14" text-anchor="middle">:core:data</text>
        </g>
        <g stroke="#000" class="edge">
            <path fill="none" d="M537.56 30.97C629.46 48.12 831.53 91.56 869 148c35.77 53.88-67.4 75.66-136.7 84.07"/>
            <path d="m732.91 235.52-10.33-2.34 9.54-4.62z"/>
        </g>
        <g class="node" transform="translate(4 400)">
            <ellipse cx="636" cy="-234" fill="none" stroke="#000" rx="60.05" ry="18"/>
            <text x="636" y="-228.95" font-family="Times,serif" font-size="14" text-anchor="middle">:core:domain</text>
        </g>
        <g stroke="#000" class="edge">
            <path fill="none" d="M541.65 27.73C573.73 33.6 613.38 46.71 635 76c12.65 17.14 13.14 41.57 10.9 60.51"/>
            <path d="m649.38 136.9-4.98 9.35-1.94-10.41z"/>
        </g>
        <g class="node" transform="translate(4 400)">
            <ellipse cx="785" cy="-234" fill="none" stroke="#000" rx="70.8" ry="18"/>
            <text x="785" y="-228.95" font-family="Times,serif" font-size="14" text-anchor="middle">:core:navigation</text>
        </g>
        <g stroke="#000" class="edge">
            <path fill="none" d="M533.45 33.27C566.9 42.33 614.69 57.03 654 76c38.28 18.47 78.5 46.22 104.98 65.82"/>
            <path d="m760.97 138.93 5.9 8.8-10.1-3.19z"/>
        </g>
        <g class="node" transform="translate(4 400)">
            <ellipse cx="434" cy="-162" fill="none" stroke="#000" rx="37.53" ry="18"/>
            <text x="434" y="-156.95" font-family="Times,serif" font-size="14" text-anchor="middle">:shared</text>
        </g>
        <g stroke="#000" class="edge">
            <path fill="none" d="M478.14 39.56C470.6 49.49 461.85 62.74 457 76c-16.2 44.3-19.33 99.6-19.56 132.51"/>
            <path d="m440.94 208.43-3.48 10.01-3.52-9.99z"/>
        </g>
        <g class="node" transform="translate(4 400)">
            <ellipse cx="542" cy="-306" fill="none" stroke="#000" rx="80.01" ry="18"/>
            <text x="542" y="-300.95" font-family="Times,serif" font-size="14" text-anchor="middle">:features:ui-setting</text>
        </g>
        <g stroke="red" stroke-width="2" class="edge">
            <path fill="none" d="M504.8 39.59c6.29 8.16 14.03 18.19 21.09 27.34"/>
            <path fill="red" d="m527.73 63.59 3.34 10.06-8.88-5.78z"/>
        </g>
        <g stroke="#000" class="edge">
            <path fill="none" d="M321.53 184.15c16.23 36.94 54.6 124.3 74.32 169.18"/>
            <path d="m399 351.82.82 10.56-7.22-7.75z"/>
        </g>
        <g stroke="#000" class="edge">
            <path fill="none" d="M343.39 183.59c18.33 10.35 41.98 23.7 61.05 34.47"/>
            <path d="m405.92 214.87 6.98 7.96-10.42-1.87z"/>
        </g>
        <g stroke="#000" class="edge">
            <path fill="none" d="M138.91 183.79c51.96 38.08 178.81 131.04 237.87 174.33"/>
            <path d="m378.78 355.24 5.99 8.74-10.13-3.09z"/>
        </g>
        <g stroke="#000" class="edge">
            <path fill="none" d="M636.77 249.02C606.57 257.84 564 272.36 530 292c-21.58 12.47-23.07 21.04-43 36-14.17 10.63-30.33 21.66-44.33 30.88"/>
            <path d="m444.93 361.59-10.29 2.54 6.46-8.4z"/>
        </g>
        <g class="node" transform="translate(4 400)">
            <ellipse cx="741" cy="-90" fill="none" stroke="#000" rx="63.63" ry="18"/>
            <text x="741" y="-84.95" font-family="Times,serif" font-size="14" text-anchor="middle">:core:database</text>
        </g>
        <g stroke="red" stroke-width="2" class="edge">
            <path fill="none" d="m691.24 255.24 29.03 29.03"/>
            <path fill="red" d="m721.63 280.68 4.6 9.55-9.55-4.6z"/>
        </g>
        <g class="node" transform="translate(4 400)">
            <ellipse cx="884" cy="-90" fill="none" stroke="#000" rx="61.59" ry="18"/>
            <text x="884" y="-84.95" font-family="Times,serif" font-size="14" text-anchor="middle">:core:data-api</text>
        </g>
        <g stroke="#000" class="edge">
            <path fill="none" d="M709.7 250.4c34.69 11.41 88.42 29.06 127.83 42.01"/>
            <path d="m838.4 289.01 8.4 6.45-10.59.2z"/>
        </g>
        <g class="node" transform="translate(4 400)">
            <ellipse cx="812" cy="-18" fill="none" stroke="#000" rx="55.45" ry="18"/>
            <text x="812" y="-12.95" font-family="Times,serif" font-size="14" text-anchor="middle">:core:model</text>
        </g>
        <g stroke="#000" class="edge">
            <path fill="none" d="M722.17 240.76c72.8 3.83 207.27 15.65 236.83 51.24 10.22 12.31 9.14 22.87 0 36-17.9 25.73-49.82 38.99-78.97 45.82"/>
            <path d="m881.01 377.19-10.5-1.36 9.06-5.49z"/>
        </g>
        <g class="node" transform="translate(4 400)">
            <ellipse cx="597" cy="-90" fill="none" stroke="#000" rx="62.1" ry="18"/>
            <text x="597" y="-84.95" font-family="Times,serif" font-size="14" text-anchor="middle">:core:network</text>
        </g>
        <g stroke="#000" class="edge">
            <path fill="none" d="M657.84 255.24c-9.21 8.7-20.74 19.61-31.01 29.33"/>
            <path d="m629.35 287-9.67 4.33 4.86-9.42z"/>
        </g>
        <g stroke="red" stroke-width="2" class="edge">
            <path fill="none" d="M648.65 184.3c3.82 7.63 8.39 16.78 12.65 25.3"/>
            <path fill="red" d="m663.75 206.68 1.34 10.51-7.6-7.38z"/>
        </g>
        <g stroke="#000" class="edge">
            <path fill="none" d="M540.62 112.37C531.07 142.38 509.8 205.58 485 256c-17.5 35.58-42.17 74.08-58.83 98.81"/>
            <path d="m429.15 356.65-8.52 6.3 2.74-10.24z"/>
        </g>
        <g stroke="#000" class="edge">
            <path fill="none" d="M499.61 109 374.1 146.87"/>
            <path d="m375.15 150.21-10.59-.47 8.57-6.24z"/>
        </g>
        <g stroke="#000" class="edge">
            <path fill="none" d="M480.69 104.78C412.74 115.07 303.3 131.97 209 148c-6.43 1.09-13.1 2.26-19.78 3.44"/>
            <path d="m189.94 154.87-10.46-1.69 9.23-5.2z"/>
        </g>
        <g stroke="#000" class="edge">
            <path fill="none" d="M546.8 112.28c1.75 19.43 7.21 50.99 24.2 71.72 14.48 17.67 36.38 30.05 56.35 38.38"/>
            <path d="m628.42 219.04 8.05 6.9-10.59-.37z"/>
        </g>
        <g stroke="red" stroke-width="2" class="edge">
            <path fill="none" d="M568.28 111.59c12.26 9.13 27.66 20.6 41.05 30.57"/>
            <path fill="red" d="m609.85 138.18 5.93 8.78-10.11-3.16z"/>
        </g>
        <g stroke="#000" class="edge">
            <path fill="none" d="M594.01 108.83c39.87 11.48 96.65 27.84 138.66 39.94"/>
            <path d="m733.46 145.36 8.64 6.13-10.58.6z"/>
        </g>
        <g stroke="#000" class="edge">
            <path fill="none" d="M530.61 111.8c-9.17 10.23-20.88 23.7-30.61 36.2-16.03 20.59-32.88 44.97-44.95 63"/>
            <path d="m457.99 212.9-8.46 6.39 2.63-10.27z"/>
        </g>
        <g stroke="red" stroke-width="2" class="edge">
            <path fill="none" d="M761.83 327.59c8.75 8.63 19.62 19.35 29.32 28.91"/>
            <path fill="red" d="m792.48 352.89 4.66 9.51-9.58-4.52z"/>
        </g>
        <g stroke="#000" class="edge">
            <path fill="none" d="M870.94 327.59c-8.97 8.72-20.13 19.56-30.04 29.2"/>
            <path d="m843.64 359.01-9.61 4.46 4.73-9.48z"/>
        </g>
        <g stroke="#000" class="edge">
            <path fill="none" d="M563.33 324.66c-30.36 11.01-73.27 26.58-106.3 38.56"/>
            <path d="m458.25 366.5-10.59.12 8.21-6.7z"/>
        </g>
        <g stroke="#000" class="edge">
            <path fill="none" d="M641.19 324.08c35.62 11.6 87.74 28.57 125.79 40.96"/>
            <path d="m767.95 361.68 8.43 6.42-10.6.23z"/>
        </g>
    </g>
</svg>
