<svg xmlns="http://www.w3.org/2000/svg" width="1128" height="332pt" viewBox="0 0 846.27 332">
    <g class="graph">
        <path fill="#fff" d="M0 332V0h846.27v332z"/>
        <g class="node" transform="translate(4 328)">
            <ellipse cx="569.17" cy="-306" fill="none" stroke="#000" rx="51.86" ry="18"/>
            <text x="569.17" y="-300.95" font-family="Times,serif" font-size="14" text-anchor="middle">:app-nanda</text>
        </g>
        <g class="node" transform="translate(4 328)">
            <ellipse cx="317.17" cy="-162" fill="none" stroke="#000" rx="96.39" ry="18"/>
            <text x="317.17" y="-156.95" font-family="Times,serif" font-size="14" text-anchor="middle">:core:common-android</text>
        </g>
        <g stroke="#000" class="edge">
            <path fill="none" d="M523.79 28.02C463.2 35.19 365.41 50.42 340.17 76c-15.53 15.74-19.76 40.87-20.4 60.42"/>
            <path d="m323.27 136.22-3.51 10-3.49-10z"/>
        </g>
        <g class="node" transform="translate(4 328)">
            <ellipse cx="535.17" cy="-162" fill="none" stroke="#000" rx="47.26" ry="18"/>
            <text x="535.17" y="-156.95" font-family="Times,serif" font-size="14" text-anchor="middle">:core:data</text>
        </g>
        <g stroke="#000" class="edge">
            <path fill="none" d="M563.28 40.09C557.9 50.2 551.65 63.45 548.17 76c-5.47 19.7-7.69 42.67-8.56 60.34"/>
            <path d="m543.11 136.24-3.86 9.87-3.13-10.12z"/>
        </g>
        <g class="node" transform="translate(4 328)">
            <ellipse cx="613.17" cy="-234" fill="none" stroke="#000" rx="60.05" ry="18"/>
            <text x="613.17" y="-228.95" font-family="Times,serif" font-size="14" text-anchor="middle">:core:domain</text>
        </g>
        <g stroke="red" stroke-width="2" class="edge">
            <path fill="none" d="M583.82 39.95c5.03 7.99 11.14 17.72 16.76 26.65"/>
            <path fill="red" d="m602.65 63.32 2.36 10.33-8.29-6.61z"/>
        </g>
        <g class="node" transform="translate(4 328)">
            <ellipse cx="691.17" cy="-162" fill="none" stroke="#000" rx="70.8" ry="18"/>
            <text x="691.17" y="-156.95" font-family="Times,serif" font-size="14" text-anchor="middle">:core:navigation</text>
        </g>
        <g stroke="#000" class="edge">
            <path fill="none" d="M616.51 32.18C641 39.71 669.88 53.02 686.17 76c12.23 17.25 13.99 41.33 12.97 60.1"/>
            <path d="m702.63 136.37-4.36 9.66-2.62-10.27z"/>
        </g>
        <g class="node" transform="translate(4 328)">
            <ellipse cx="421.17" cy="-234" fill="none" stroke="#000" rx="76.43" ry="18"/>
            <text x="421.17" y="-228.95" font-family="Times,serif" font-size="14" text-anchor="middle">:feature:ui-setting</text>
        </g>
        <g stroke="#000" class="edge">
            <path fill="none" d="M543.22 37.17c-21.48 10.16-50.76 24-74.78 35.36"/>
            <path d="m470.07 75.64-10.54 1.11 7.55-7.44z"/>
        </g>
        <g class="node" transform="translate(4 328)">
            <ellipse cx="768.17" cy="-234" fill="none" stroke="#000" rx="38.56" ry="18"/>
            <text x="768.17" y="-228.95" font-family="Times,serif" font-size="14" text-anchor="middle">:widget</text>
        </g>
        <g stroke="#000" class="edge">
            <path fill="none" d="M608.75 35.51c34.44 12.12 86.62 30.47 122.71 43.17"/>
            <path d="m732.4 75.3 8.27 6.62-10.59-.02z"/>
        </g>
        <g class="node" transform="translate(4 328)">
            <ellipse cx="65.17" cy="-90" fill="none" stroke="#000" rx="65.17" ry="18"/>
            <text x="65.17" y="-84.95" font-family="Times,serif" font-size="14" text-anchor="middle">:core:common</text>
        </g>
        <g stroke="#000" class="edge">
            <path fill="none" d="M268.96 181.5c-42.18 11.72-101.38 28.16-144.38 40.11"/>
            <path d="m125.77 224.91-10.57-.69 8.69-6.05z"/>
        </g>
        <g class="node" transform="translate(4 328)">
            <ellipse cx="232.17" cy="-90" fill="none" stroke="#000" rx="84.11" ry="18"/>
            <text x="232.17" y="-84.95" font-family="Times,serif" font-size="14" text-anchor="middle">:core:compose-core</text>
        </g>
        <g stroke="#000" class="edge">
            <path fill="none" d="M300.59 183.95c-10.65 8.77-23.82 19.62-35.48 29.22"/>
            <path d="m267.67 215.59-9.94 3.66 5.49-9.06z"/>
        </g>
        <g class="node" transform="translate(4 328)">
            <ellipse cx="372.17" cy="-90" fill="none" stroke="#000" rx="37.53" ry="18"/>
            <text x="372.17" y="-84.95" font-family="Times,serif" font-size="14" text-anchor="middle">:shared</text>
        </g>
        <g stroke="#000" class="edge">
            <path fill="none" d="M334.77 184.3c6.51 8.3 14.44 18.39 21.61 27.51"/>
            <path d="m359.12 209.64 3.43 10.03-8.93-5.71z"/>
        </g>
        <g class="node" transform="translate(4 328)">
            <ellipse cx="491.17" cy="-90" fill="none" stroke="#000" rx="63.63" ry="18"/>
            <text x="491.17" y="-84.95" font-family="Times,serif" font-size="14" text-anchor="middle">:core:database</text>
        </g>
        <g stroke="red" stroke-width="2" class="edge">
            <path fill="none" d="M528.52 183.95c-5.03 7.99-11.14 17.72-16.76 26.65"/>
            <path fill="red" d="m515.62 211.04-8.29 6.61 2.36-10.33z"/>
        </g>
        <g class="node" transform="translate(4 328)">
            <ellipse cx="634.17" cy="-90" fill="none" stroke="#000" rx="61.59" ry="18"/>
            <text x="634.17" y="-84.95" font-family="Times,serif" font-size="14" text-anchor="middle">:core:data-api</text>
        </g>
        <g stroke="#000" class="edge">
            <path fill="none" d="M560.65 182.19c13.25 9.37 30.49 21.56 45.35 32.06"/>
            <path d="m607.97 211.36 6.15 8.63-10.19-2.91z"/>
        </g>
        <g class="node" transform="translate(4 328)">
            <ellipse cx="776.17" cy="-90" fill="none" stroke="#000" rx="62.1" ry="18"/>
            <text x="776.17" y="-84.95" font-family="Times,serif" font-size="14" text-anchor="middle">:core:network</text>
        </g>
        <g stroke="#000" class="edge">
            <path fill="none" d="M576.04 177.71c40.19 11.67 104.9 30.47 150.67 43.76"/>
            <path d="m727.54 218.07 8.63 6.15-10.58.57z"/>
        </g>
        <g stroke="red" stroke-width="2" class="edge">
            <path fill="none" d="M598.69 111.59c-9.96 8.93-22.4 20.1-33.34 29.91"/>
            <path fill="red" d="m569.02 142.92-9.78 4.07 5.1-9.28z"/>
        </g>
        <g stroke="#000" class="edge">
            <path fill="none" d="M400.79 111.41c-13.5 9.08-30.49 20.52-45.3 30.49"/>
            <path d="m357.63 144.68-10.25 2.68 6.34-8.49z"/>
        </g>
        <g stroke="#000" class="edge">
            <path fill="none" d="M451.61 111.24c16.06 9.85 36.7 22.53 53.92 33.1"/>
            <path d="m507.22 141.28 6.69 8.21-10.35-2.25z"/>
        </g>
        <g stroke="#000" class="edge">
            <path fill="none" d="M475.32 108c45.56 11.81 112.8 29.25 160.91 41.72"/>
            <path d="m636.83 146.26 8.81 5.9-10.56.88z"/>
        </g>
        <g class="node" transform="translate(4 328)">
            <ellipse cx="562.17" cy="-18" fill="none" stroke="#000" rx="55.45" ry="18"/>
            <text x="562.17" y="-12.95" font-family="Times,serif" font-size="14" text-anchor="middle">:core:model</text>
        </g>
        <g stroke="red" stroke-width="2" class="edge">
            <path fill="none" d="M512 255.59c8.75 8.63 19.62 19.35 29.32 28.91"/>
            <path fill="red" d="m542.65 280.89 4.66 9.51-9.58-4.52z"/>
        </g>
        <g stroke="#000" class="edge">
            <path fill="none" d="M621.11 255.59c-8.97 8.72-20.13 19.56-30.04 29.2"/>
            <path d="m593.81 287.01-9.61 4.46 4.73-9.48z"/>
        </g>
    </g>
</svg>
