<?xml version="1.0" encoding="UTF-8" standalone="no"?>
<!DOCTYPE svg PUBLIC "-//W3C//DTD SVG 1.1//EN"
 "http://www.w3.org/Graphics/SVG/1.1/DTD/svg11.dtd">
<!-- Generated by graphviz version 12.0.0 (20240704.0754)
 -->
<!-- Title: G Pages: 1 -->
<svg width="868pt" height="404pt"
 viewBox="0.00 0.00 867.59 404.00" xmlns="http://www.w3.org/2000/svg" xmlns:xlink="http://www.w3.org/1999/xlink">
<g id="graph0" class="graph" transform="scale(1 1) rotate(0) translate(4 400)">
<title>G</title>
<polygon fill="white" stroke="none" points="-4,4 -4,-400 863.59,-400 863.59,4 -4,4"/>
<!-- :app&#45;nanda -->
<g id="node1" class="node">
<title>:app&#45;nanda</title>
<ellipse fill="none" stroke="black" cx="420" cy="-378" rx="51.86" ry="18"/>
<text text-anchor="middle" x="420" y="-372.95" font-family="Times,serif" font-size="14.00">:app&#45;nanda</text>
</g>
<!-- :core:common -->
<g id="node2" class="node">
<title>:core:common</title>
<ellipse fill="none" stroke="black" cx="424" cy="-18" rx="65.17" ry="18"/>
<text text-anchor="middle" x="424" y="-12.95" font-family="Times,serif" font-size="14.00">:core:common</text>
</g>
<!-- :app&#45;nanda&#45;&gt;:core:common -->
<g id="edge1" class="edge">
<title>:app&#45;nanda&#45;&gt;:core:common</title>
<path fill="none" stroke="black" d="M371.82,-371.09C261.5,-356.21 0,-312.74 0,-235 0,-235 0,-235 0,-161 0,-87.21 233.85,-44.7 354.21,-27.71"/>
<polygon fill="black" stroke="black" points="354.57,-31.2 363.99,-26.35 353.6,-24.26 354.57,-31.2"/>
</g>
<!-- :core:common&#45;android -->
<g id="node3" class="node">
<title>:core:common&#45;android</title>
<ellipse fill="none" stroke="black" cx="310" cy="-234" rx="96.39" ry="18"/>
<text text-anchor="middle" x="310" y="-228.95" font-family="Times,serif" font-size="14.00">:core:common&#45;android</text>
</g>
<!-- :app&#45;nanda&#45;&gt;:core:common&#45;android -->
<g id="edge2" class="edge">
<title>:app&#45;nanda&#45;&gt;:core:common&#45;android</title>
<path fill="none" stroke="black" d="M406.95,-360.15C387.95,-335.63 352.5,-289.87 330.14,-261"/>
<polygon fill="black" stroke="black" points="333.19,-259.23 324.3,-253.46 327.66,-263.51 333.19,-259.23"/>
</g>
<!-- :core:compose&#45;core -->
<g id="node4" class="node">
<title>:core:compose&#45;core</title>
<ellipse fill="none" stroke="black" cx="112" cy="-234" rx="84.11" ry="18"/>
<text text-anchor="middle" x="112" y="-228.95" font-family="Times,serif" font-size="14.00">:core:compose&#45;core</text>
</g>
<!-- :app&#45;nanda&#45;&gt;:core:compose&#45;core -->
<g id="edge3" class="edge">
<title>:app&#45;nanda&#45;&gt;:core:compose&#45;core</title>
<path fill="none" stroke="black" d="M389.62,-363C335,-337.81 219.96,-284.77 156.45,-255.49"/>
<polygon fill="black" stroke="black" points="158.27,-252.48 147.72,-251.47 155.33,-258.83 158.27,-252.48"/>
</g>
<!-- :core:data -->
<g id="node5" class="node">
<title>:core:data</title>
<ellipse fill="none" stroke="black" cx="636" cy="-162" rx="47.26" ry="18"/>
<text text-anchor="middle" x="636" y="-156.95" font-family="Times,serif" font-size="14.00">:core:data</text>
</g>
<!-- :app&#45;nanda&#45;&gt;:core:data -->
<g id="edge4" class="edge">
<title>:app&#45;nanda&#45;&gt;:core:data</title>
<path fill="none" stroke="black" d="M470.53,-373.2C517.07,-367.83 586.61,-354.92 639,-324 687.45,-295.41 729.87,-266.46 705,-216 698.31,-202.42 686.28,-191.35 674.12,-182.91"/>
<polygon fill="black" stroke="black" points="676.03,-179.97 665.72,-177.52 672.25,-185.86 676.03,-179.97"/>
</g>
<!-- :shared -->
<g id="node6" class="node">
<title>:shared</title>
<ellipse fill="none" stroke="black" cx="434" cy="-162" rx="37.53" ry="18"/>
<text text-anchor="middle" x="434" y="-156.95" font-family="Times,serif" font-size="14.00">:shared</text>
</g>
<!-- :app&#45;nanda&#45;&gt;:shared -->
<g id="edge5" class="edge">
<title>:app&#45;nanda&#45;&gt;:shared</title>
<path fill="none" stroke="black" d="M421.12,-359.85C423.52,-323.14 429.18,-236.66 432.13,-191.53"/>
<polygon fill="black" stroke="black" points="435.61,-191.95 432.77,-181.74 428.63,-191.49 435.61,-191.95"/>
</g>
<!-- :core:domain -->
<g id="node7" class="node">
<title>:core:domain</title>
<ellipse fill="none" stroke="black" cx="636" cy="-234" rx="60.05" ry="18"/>
<text text-anchor="middle" x="636" y="-228.95" font-family="Times,serif" font-size="14.00">:core:domain</text>
</g>
<!-- :app&#45;nanda&#45;&gt;:core:domain -->
<g id="edge6" class="edge">
<title>:app&#45;nanda&#45;&gt;:core:domain</title>
<path fill="none" stroke="black" d="M471.9,-377.26C516.62,-374.56 579.7,-363.31 617,-324 632.13,-308.05 636.43,-283.15 637.2,-263.74"/>
<polygon fill="black" stroke="black" points="640.69,-264.03 637.27,-254.01 633.69,-263.98 640.69,-264.03"/>
</g>
<!-- :features:ui&#45;setting -->
<g id="node8" class="node">
<title>:features:ui&#45;setting</title>
<ellipse fill="none" stroke="black" cx="528" cy="-306" rx="80.01" ry="18"/>
<text text-anchor="middle" x="528" y="-300.95" font-family="Times,serif" font-size="14.00">:features:ui&#45;setting</text>
</g>
<!-- :app&#45;nanda&#45;&gt;:features:ui&#45;setting -->
<g id="edge7" class="edge">
<title>:app&#45;nanda&#45;&gt;:features:ui&#45;setting</title>
<path fill="none" stroke="red" stroke-width="2" d="M443.7,-361.64C458.34,-352.15 477.37,-339.82 493.64,-329.27"/>
<polygon fill="red" stroke="red" stroke-width="2" points="493.82,-333.32 500.31,-324.95 490.01,-327.45 493.82,-333.32"/>
</g>
<!-- :core:common&#45;android&#45;&gt;:core:common -->
<g id="edge8" class="edge">
<title>:core:common&#45;android&#45;&gt;:core:common</title>
<path fill="none" stroke="black" d="M319.14,-215.85C338.86,-178.83 385.55,-91.18 409.41,-46.39"/>
<polygon fill="black" stroke="black" points="412.5,-48.04 414.11,-37.57 406.32,-44.75 412.5,-48.04"/>
</g>
<!-- :core:common&#45;android&#45;&gt;:shared -->
<g id="edge9" class="edge">
<title>:core:common&#45;android&#45;&gt;:shared</title>
<path fill="none" stroke="black" d="M339.39,-216.41C357.72,-206.06 381.37,-192.71 400.44,-181.94"/>
<polygon fill="black" stroke="black" points="401.92,-185.13 408.9,-177.17 398.48,-179.04 401.92,-185.13"/>
</g>
<!-- :core:compose&#45;core&#45;&gt;:core:common -->
<g id="edge10" class="edge">
<title>:core:compose&#45;core&#45;&gt;:core:common</title>
<path fill="none" stroke="black" d="M136.22,-216.39C191.67,-178.35 327.89,-84.92 390.96,-41.66"/>
<polygon fill="black" stroke="black" points="392.92,-44.56 399.19,-36.02 388.96,-38.79 392.92,-44.56"/>
</g>
<!-- :core:data&#45;&gt;:core:common -->
<g id="edge11" class="edge">
<title>:core:data&#45;&gt;:core:common</title>
<path fill="none" stroke="black" d="M614.64,-145.53C600.42,-135.12 581.41,-120.98 565,-108 545.45,-92.54 542.62,-86 522,-72 504.34,-60.01 483.7,-48.51 465.92,-39.31"/>
<polygon fill="black" stroke="black" points="467.68,-36.27 457.18,-34.85 464.5,-42.51 467.68,-36.27"/>
</g>
<!-- :core:database -->
<g id="node9" class="node">
<title>:core:database</title>
<ellipse fill="none" stroke="black" cx="780" cy="-90" rx="63.63" ry="18"/>
<text text-anchor="middle" x="780" y="-84.95" font-family="Times,serif" font-size="14.00">:core:database</text>
</g>
<!-- :core:data&#45;&gt;:core:database -->
<g id="edge12" class="edge">
<title>:core:data&#45;&gt;:core:database</title>
<path fill="none" stroke="red" stroke-width="2" d="M664.45,-147.17C685.66,-136.86 714.93,-122.63 738.71,-111.07"/>
<polygon fill="red" stroke="red" stroke-width="2" points="738.68,-114.98 746.14,-107.46 735.62,-108.68 738.68,-114.98"/>
</g>
<!-- :core:model -->
<g id="node10" class="node">
<title>:core:model</title>
<ellipse fill="none" stroke="black" cx="780" cy="-18" rx="55.45" ry="18"/>
<text text-anchor="middle" x="780" y="-12.95" font-family="Times,serif" font-size="14.00">:core:model</text>
</g>
<!-- :core:data&#45;&gt;:core:model -->
<g id="edge13" class="edge">
<title>:core:data&#45;&gt;:core:model</title>
<path fill="none" stroke="black" d="M681.13,-156.46C738.33,-149.66 832.04,-134.69 853,-108 862.88,-95.42 860.27,-86.25 853,-72 846.03,-58.32 833.69,-47.35 821.13,-39.02"/>
<polygon fill="black" stroke="black" points="823.2,-36.18 812.84,-33.95 819.55,-42.15 823.2,-36.18"/>
</g>
<!-- :core:network -->
<g id="node11" class="node">
<title>:core:network</title>
<ellipse fill="none" stroke="black" cx="636" cy="-90" rx="62.1" ry="18"/>
<text text-anchor="middle" x="636" y="-84.95" font-family="Times,serif" font-size="14.00">:core:network</text>
</g>
<!-- :core:data&#45;&gt;:core:network -->
<g id="edge14" class="edge">
<title>:core:data&#45;&gt;:core:network</title>
<path fill="none" stroke="black" d="M636,-143.7C636,-136.41 636,-127.73 636,-119.54"/>
<polygon fill="black" stroke="black" points="639.5,-119.62 636,-109.62 632.5,-119.62 639.5,-119.62"/>
</g>
<!-- :core:domain&#45;&gt;:core:data -->
<g id="edge18" class="edge">
<title>:core:domain&#45;&gt;:core:data</title>
<path fill="none" stroke="red" stroke-width="2" d="M636,-215.7C636,-208.41 636,-199.73 636,-191.54"/>
<polygon fill="red" stroke="red" stroke-width="2" points="639.5,-193.13 636,-183.13 632.5,-193.13 639.5,-193.13"/>
</g>
<!-- :features:ui&#45;setting&#45;&gt;:core:common -->
<g id="edge19" class="edge">
<title>:features:ui&#45;setting&#45;&gt;:core:common</title>
<path fill="none" stroke="black" d="M523.85,-287.82C516.48,-258.09 500.08,-195.31 481,-144 468.19,-109.53 450.13,-71.24 437.8,-46.23"/>
<polygon fill="black" stroke="black" points="441,-44.81 433.41,-37.41 434.73,-47.93 441,-44.81"/>
</g>
<!-- :features:ui&#45;setting&#45;&gt;:core:common&#45;android -->
<g id="edge20" class="edge">
<title>:features:ui&#45;setting&#45;&gt;:core:common&#45;android</title>
<path fill="none" stroke="black" d="M483.36,-290.67C449.94,-279.94 403.96,-265.17 367.74,-253.54"/>
<polygon fill="black" stroke="black" points="368.87,-250.23 358.28,-250.5 366.73,-256.89 368.87,-250.23"/>
</g>
<!-- :features:ui&#45;setting&#45;&gt;:core:compose&#45;core -->
<g id="edge21" class="edge">
<title>:features:ui&#45;setting&#45;&gt;:core:compose&#45;core</title>
<path fill="none" stroke="black" d="M463.9,-294.83C398.68,-284.41 294.72,-267.56 205,-252 198.58,-250.89 191.91,-249.71 185.22,-248.51"/>
<polygon fill="black" stroke="black" points="185.95,-245.09 175.49,-246.76 184.72,-251.98 185.95,-245.09"/>
</g>
<!-- :features:ui&#45;setting&#45;&gt;:core:data -->
<g id="edge22" class="edge">
<title>:features:ui&#45;setting&#45;&gt;:core:data</title>
<path fill="none" stroke="black" d="M532.77,-287.56C538.6,-268.55 549.84,-237.91 567,-216 576.55,-203.8 589.53,-192.87 601.65,-184.15"/>
<polygon fill="black" stroke="black" points="603.6,-187.05 609.86,-178.5 599.64,-181.28 603.6,-187.05"/>
</g>
<!-- :features:ui&#45;setting&#45;&gt;:shared -->
<g id="edge24" class="edge">
<title>:features:ui&#45;setting&#45;&gt;:shared</title>
<path fill="none" stroke="black" d="M516.66,-287.87C500.32,-263.19 470.04,-217.45 451.02,-188.71"/>
<polygon fill="black" stroke="black" points="454.07,-186.98 445.63,-180.57 448.23,-190.84 454.07,-186.98"/>
</g>
<!-- :features:ui&#45;setting&#45;&gt;:core:domain -->
<g id="edge23" class="edge">
<title>:features:ui&#45;setting&#45;&gt;:core:domain</title>
<path fill="none" stroke="red" stroke-width="2" d="M553.32,-288.59C567.88,-279.15 586.36,-267.17 602.15,-256.94"/>
<polygon fill="red" stroke="red" stroke-width="2" points="602.55,-260.85 609.04,-252.47 598.75,-254.98 602.55,-260.85"/>
</g>
<!-- :core:database&#45;&gt;:core:model -->
<g id="edge15" class="edge">
<title>:core:database&#45;&gt;:core:model</title>
<path fill="none" stroke="red" stroke-width="2" d="M780,-71.7C780,-64.41 780,-55.73 780,-47.54"/>
<polygon fill="red" stroke="red" stroke-width="2" points="783.5,-49.13 780,-39.13 776.5,-49.13 783.5,-49.13"/>
</g>
<!-- :core:network&#45;&gt;:core:common -->
<g id="edge16" class="edge">
<title>:core:network&#45;&gt;:core:common</title>
<path fill="none" stroke="black" d="M596.12,-75.83C561.95,-64.55 512.52,-48.23 475.39,-35.97"/>
<polygon fill="black" stroke="black" points="476.81,-32.75 466.22,-32.94 474.62,-39.4 476.81,-32.75"/>
</g>
<!-- :core:network&#45;&gt;:core:model -->
<g id="edge17" class="edge">
<title>:core:network&#45;&gt;:core:model</title>
<path fill="none" stroke="black" d="M666.89,-73.98C688.25,-63.6 716.86,-49.69 739.96,-38.46"/>
<polygon fill="black" stroke="black" points="741.32,-41.69 748.78,-34.17 738.26,-35.4 741.32,-41.69"/>
</g>
</g>
</svg>
