<svg xmlns="http://www.w3.org/2000/svg" width="1176" height="404pt" viewBox="0 0 882.13 404">
    <g class="graph">
        <path fill="#fff" d="M0 404V0h882.13v404z"/>
        <g class="node" transform="translate(4 400)">
            <ellipse cx="418" cy="-378" fill="none" stroke="#000" rx="51.86" ry="18"/>
            <text x="418" y="-372.95" font-family="Times,serif" font-size="14" text-anchor="middle">:app-nanda</text>
        </g>
        <g class="node" transform="translate(4 400)">
            <ellipse cx="475" cy="-18" fill="none" stroke="#000" rx="65.17" ry="18"/>
            <text x="475" y="-12.95" font-family="Times,serif" font-size="14" text-anchor="middle">:core:common</text>
        </g>
        <g stroke="#000" class="edge">
            <path fill="none" d="M371.75 27.17C291.61 34.46 139 51.15 91 76c-49.12 25.43-87 33.68-87 89v74c0 82.9 268.96 121.44 402.1 135.44"/>
            <path d="m406.29 370.95 9.59 4.5-10.3 2.46z"/>
        </g>
        <g class="node" transform="translate(4 400)">
            <ellipse cx="348" cy="-234" fill="none" stroke="#000" rx="96.39" ry="18"/>
            <text x="348" y="-228.95" font-family="Times,serif" font-size="14" text-anchor="middle">:core:common-android</text>
        </g>
        <g stroke="#000" class="edge">
            <path fill="none" d="M413.56 40.13c-11.93 24.2-33.85 68.66-48.06 97.48"/>
            <path d="m368.7 139.03-7.56 7.42 1.29-10.51z"/>
        </g>
        <g class="node" transform="translate(4 400)">
            <ellipse cx="150" cy="-234" fill="none" stroke="#000" rx="84.11" ry="18"/>
            <text x="150" y="-228.95" font-family="Times,serif" font-size="14" text-anchor="middle">:core:compose-core</text>
        </g>
        <g stroke="#000" class="edge">
            <path fill="none" d="M394.33 37.66c-47.49 25.17-144.72 76.68-199.84 105.89"/>
            <path d="m196.19 146.61-10.47 1.58 7.2-7.77z"/>
        </g>
        <g class="node" transform="translate(4 400)">
            <ellipse cx="636" cy="-162" fill="none" stroke="#000" rx="47.26" ry="18"/>
            <text x="636" y="-156.95" font-family="Times,serif" font-size="14" text-anchor="middle">:core:data</text>
        </g>
        <g stroke="#000" class="edge">
            <path fill="none" d="M470.51 28.95C576.36 43.07 822.37 82.41 869 148c44.8 63.02-88.67 81.42-170.41 86.79"/>
            <path d="m698.88 238.27-10.19-2.89 9.77-4.09z"/>
        </g>
        <g class="node" transform="translate(4 400)">
            <ellipse cx="636" cy="-234" fill="none" stroke="#000" rx="60.05" ry="18"/>
            <text x="636" y="-228.95" font-family="Times,serif" font-size="14" text-anchor="middle">:core:domain</text>
        </g>
        <g stroke="#000" class="edge">
            <path fill="none" d="M468.29 30.51C501.68 37.74 546.42 51.35 579 76c21.3 16.12 37.8 41.89 48.23 61.57"/>
            <path d="m630.32 135.92 1.4 10.5-7.64-7.34z"/>
        </g>
        <g class="node" transform="translate(4 400)">
            <ellipse cx="785" cy="-234" fill="none" stroke="#000" rx="70.8" ry="18"/>
            <text x="785" y="-228.95" font-family="Times,serif" font-size="14" text-anchor="middle">:core:navigation</text>
        </g>
        <g stroke="#000" class="edge">
            <path fill="none" d="M464.44 32.78C502.61 42.12 559.9 57.49 608 76c50.86 19.57 106.78 48.24 142.81 67.71"/>
            <path d="m752.43 140.61 7.11 7.86-10.45-1.71z"/>
        </g>
        <g class="node" transform="translate(4 400)">
            <ellipse cx="348" cy="-162" fill="none" stroke="#000" rx="37.53" ry="18"/>
            <text x="348" y="-156.95" font-family="Times,serif" font-size="14" text-anchor="middle">:shared</text>
        </g>
        <g stroke="#000" class="edge">
            <path fill="none" d="M369.87 23.24C287.82 26.8 130.71 47.23 61 148c-9.1 13.16-10.25 23.71 0 36 30.25 36.26 167.22 47.77 241.97 51.38"/>
            <path d="m303.06 231.88 9.83 3.95-10.15 3.05z"/>
        </g>
        <g class="node" transform="translate(4 400)">
            <ellipse cx="486" cy="-306" fill="none" stroke="#000" rx="80.01" ry="18"/>
            <text x="486" y="-300.95" font-family="Times,serif" font-size="14" text-anchor="middle">:features:ui-setting</text>
        </g>
        <g stroke="red" stroke-width="2" class="edge">
            <path fill="none" d="M438.12 39.59c8.17 8.42 18.28 18.83 27.4 28.21"/>
            <path fill="red" d="m466.96 64.26 4.46 9.61-9.48-4.73z"/>
        </g>
        <g stroke="#000" class="edge">
            <path fill="none" d="M369.35 184.18c9.47 9.93 20.99 22.97 29.65 35.82 29.63 43.94 55.15 100.42 68.98 133.48"/>
            <path d="m471.05 351.76.58 10.58-7.05-7.91z"/>
        </g>
        <g stroke="#000" class="edge">
            <path fill="none" d="M352 184.3v24.16"/>
            <path d="m355.5 208.38-3.5 10-3.5-10z"/>
        </g>
        <g stroke="#000" class="edge">
            <path fill="none" d="M179.23 183.61c58.02 38.21 200.94 132.31 266.24 175.31"/>
            <path d="m447.2 355.87 6.43 8.42-10.28-2.57z"/>
        </g>
        <g stroke="#000" class="edge">
            <path fill="none" d="M617.96 254.25C603.62 264.46 584.74 278.46 569 292c-23.83 20.51-49.14 45.89-66.83 64.3"/>
            <path d="m505.09 358.31-9.43 4.82 4.37-9.65z"/>
        </g>
        <g class="node" transform="translate(4 400)">
            <ellipse cx="780" cy="-90" fill="none" stroke="#000" rx="63.63" ry="18"/>
            <text x="780" y="-84.95" font-family="Times,serif" font-size="14" text-anchor="middle">:core:database</text>
        </g>
        <g stroke="red" stroke-width="2" class="edge">
            <path fill="none" d="m668.45 252.83 74.26 36.1"/>
            <path fill="red" d="m742.68 285.02 7.46 7.52-10.52-1.22z"/>
        </g>
        <g class="node" transform="translate(4 400)">
            <ellipse cx="780" cy="-18" fill="none" stroke="#000" rx="55.45" ry="18"/>
            <text x="780" y="-12.95" font-family="Times,serif" font-size="14" text-anchor="middle">:core:model</text>
        </g>
        <g stroke="#000" class="edge">
            <path fill="none" d="M685.13 243.54c57.2 6.8 150.91 21.77 171.87 48.46 9.88 12.58 7.27 21.75 0 36-6.97 13.68-19.31 24.65-31.87 32.98"/>
            <path d="m827.2 363.82-10.36 2.23 6.71-8.2z"/>
        </g>
        <g class="node" transform="translate(4 400)">
            <ellipse cx="636" cy="-90" fill="none" stroke="#000" rx="62.1" ry="18"/>
            <text x="636" y="-84.95" font-family="Times,serif" font-size="14" text-anchor="middle">:core:network</text>
        </g>
        <g stroke="#000" class="edge">
            <path fill="none" d="M640 256.3v24.16"/>
            <path d="m643.5 280.38-3.5 10-3.5-10z"/>
        </g>
        <g stroke="red" stroke-width="2" class="edge">
            <path fill="none" d="M640 184.3v24.16"/>
            <path fill="red" d="m643.5 206.87-3.5 10-3.5-10z"/>
        </g>
        <g stroke="#000" class="edge">
            <path fill="none" d="M489.33 112.46c-1.84 47.78-6.96 181.03-9.23 239.93"/>
            <path d="m483.6 352.4-3.88 9.86-3.11-10.13z"/>
        </g>
        <g stroke="#000" class="edge">
            <path fill="none" d="M458.69 110.88c-19.05 9.67-43.63 22.13-64.39 32.66"/>
            <path d="m396 146.61-10.5 1.4 7.33-7.65z"/>
        </g>
        <g stroke="#000" class="edge">
            <path fill="none" d="M432.62 106.95c-57.7 12.02-146.74 30.57-208.57 43.46"/>
            <path d="m224.82 153.82-10.5-1.39 9.07-5.46z"/>
        </g>
        <g stroke="#000" class="edge">
            <path fill="none" d="M503.81 111.9c15.5 18.54 41.82 48.76 67.19 72.1 11.87 10.92 25.84 21.95 38.1 31.1"/>
            <path d="m610.87 212.06 5.98 8.74-10.13-3.1z"/>
        </g>
        <g stroke="red" stroke-width="2" class="edge">
            <path fill="none" d="M523.66 110.71c22.02 10.28 50.96 23.78 74.47 34.75"/>
            <path fill="red" d="m598.17 141.62 7.59 7.4-10.55-1.06z"/>
        </g>
        <g stroke="#000" class="edge">
            <path fill="none" d="M544.15 107.68c51.53 12.06 129.01 30.2 182.96 42.83"/>
            <path d="m727.83 147.09 8.94 5.68-10.53 1.13z"/>
        </g>
        <g stroke="#000" class="edge">
            <path fill="none" d="M487.46 112.35c-3.67 19.51-12.12 51.13-30.46 71.65-16.68 18.67-41.48 31.62-62.78 40.04"/>
            <path d="m395.47 227.31-10.59.2 8.15-6.77z"/>
        </g>
        <g stroke="red" stroke-width="2" class="edge">
            <path fill="none" d="M784 328.3v24.16"/>
            <path fill="red" d="m787.5 350.87-3.5 10-3.5-10z"/>
        </g>
        <g stroke="#000" class="edge">
            <path fill="none" d="M606.64 325.5c-24.12 10.49-56.97 24.77-83.3 36.22"/>
            <path d="m524.82 364.89-10.56.78 7.77-7.2z"/>
        </g>
        <g stroke="#000" class="edge">
            <path fill="none" d="M670.89 326.02c21.36 10.38 49.97 24.29 73.07 35.52"/>
            <path d="m745.32 358.31 7.46 7.52-10.52-1.23z"/>
        </g>
    </g>
</svg>
