<svg xmlns="http://www.w3.org/2000/svg" width="1128" height="332pt" viewBox="0 0 846 332">
    <g class="graph" transform="translate(4 328)">
        <title>G</title>
        <path fill="#fff" d="M-4 4v-332h845.62V4z"/>
        <g class="node">
            <title>:app-nanda</title>
            <ellipse cx="537.51" cy="-306" fill="none" stroke="#000" rx="51.86" ry="18"/>
            <text xml:space="preserve" x="537.51" y="-300.95" font-family="Times,serif" font-size="14" text-anchor="middle">:app-nanda</text>
        </g>
        <g class="node">
            <title>:core:common-android</title>
            <ellipse cx="414.51" cy="-162" fill="none" stroke="#000" rx="96.39" ry="18"/>
            <text xml:space="preserve" x="414.51" y="-156.95" font-family="Times,serif" font-size="14" text-anchor="middle">:core:common-android</text>
        </g>
        <g class="edge">
            <title>:app-nanda-&gt;:core:common-android</title>
            <path fill="none" stroke="#000" d="M533.45-287.59c-5.21 19.28-15.8 50.41-33.94 71.59-10.75 12.54-25.21 23.07-39.16 31.35"/>
            <path stroke="#000" d="m462.09-181.61-10.43 1.85 7-7.95z"/>
        </g>
        <g class="node">
            <title>:core:data</title>
            <ellipse cx="252.51" cy="-162" fill="none" stroke="#000" rx="47.26" ry="18"/>
            <text xml:space="preserve" x="252.51" y="-156.95" font-family="Times,serif" font-size="14" text-anchor="middle">:core:data</text>
        </g>
        <g class="edge">
            <title>:app-nanda-&gt;:core:data</title>
            <path fill="none" stroke="#000" d="M487.58-300.78c-44.32 5.64-109.41 18.71-158.07 48.78-25.43 15.71-46.94 42.53-60.71 62.63"/>
            <path stroke="#000" d="m271.78-187.52-8.44 6.41 2.6-10.27z"/>
        </g>
        <g class="node">
            <title>:core:domain</title>
            <ellipse cx="644.51" cy="-234" fill="none" stroke="#000" rx="60.05" ry="18"/>
            <text xml:space="preserve" x="644.51" y="-228.95" font-family="Times,serif" font-size="14" text-anchor="middle">:core:domain</text>
        </g>
        <g class="edge">
            <title>:app-nanda-&gt;:core:domain</title>
            <path fill="none" stroke="#000" d="M560.99-289.64c14.71 9.62 33.89 22.17 50.16 32.82"/>
            <path stroke="#000" d="m612.62-260.04 6.45 8.4-10.28-2.55z"/>
        </g>
        <g class="node">
            <title>:core:navigation</title>
            <ellipse cx="599.51" cy="-162" fill="none" stroke="#000" rx="70.8" ry="18"/>
            <text xml:space="preserve" x="599.51" y="-156.95" font-family="Times,serif" font-size="14" text-anchor="middle">:core:navigation</text>
        </g>
        <g class="edge">
            <title>:app-nanda-&gt;:core:navigation</title>
            <path fill="none" stroke="#000" d="M544.68-287.89c7.56 17.95 19.87 46.98 30.83 71.89 3.67 8.36 7.75 17.42 11.48 25.65"/>
            <path stroke="#000" d="m590.05-192.07.95 10.55-7.32-7.65z"/>
        </g>
        <g class="node">
            <title>:feature:ui-setting</title>
            <ellipse cx="414.51" cy="-234" fill="none" stroke="#000" rx="76.43" ry="18"/>
            <text xml:space="preserve" x="414.51" y="-228.95" font-family="Times,serif" font-size="14" text-anchor="middle">:feature:ui-setting</text>
        </g>
        <g class="edge">
            <title>:app-nanda-&gt;:feature:ui-setting</title>
            <path fill="none" stroke="red" stroke-width="2" d="M511.42-290.15c-17.09 9.72-39.73 22.61-58.82 33.47"/>
            <path fill="red" stroke="red" stroke-width="2" d="m455.75-254.44-10.42 1.9 6.96-7.99z"/>
        </g>
        <g class="node">
            <title>:widget</title>
            <ellipse cx="761.51" cy="-234" fill="none" stroke="#000" rx="38.56" ry="18"/>
            <text xml:space="preserve" x="761.51" y="-228.95" font-family="Times,serif" font-size="14" text-anchor="middle">:widget</text>
        </g>
        <g class="edge">
            <title>:app-nanda-&gt;:widget</title>
            <path fill="none" stroke="#000" d="M576.47-293.85c35.78 10.38 90.18 26.51 137.04 41.85 2.39.78 4.84 1.6 7.31 2.44"/>
            <path stroke="#000" d="m721.88-252.9 8.31 6.57-10.59.05z"/>
        </g>
        <g class="node">
            <title>:core:common</title>
            <ellipse cx="406.51" cy="-90" fill="none" stroke="#000" rx="65.17" ry="18"/>
            <text xml:space="preserve" x="406.51" y="-84.95" font-family="Times,serif" font-size="14" text-anchor="middle">:core:common</text>
        </g>
        <g class="edge">
            <title>:core:common-android-&gt;:core:common</title>
            <path fill="none" stroke="#000" d="M412.53-143.7c-.83 7.29-1.82 15.97-2.76 24.16"/>
            <path stroke="#000" d="m413.25-119.15-4.62 9.54-2.34-10.33z"/>
        </g>
        <g class="node">
            <title>:core:compose-core</title>
            <ellipse cx="753.51" cy="-90" fill="none" stroke="#000" rx="84.11" ry="18"/>
            <text xml:space="preserve" x="753.51" y="-84.95" font-family="Times,serif" font-size="14" text-anchor="middle">:core:compose-core</text>
        </g>
        <g class="edge">
            <title>:core:common-android-&gt;:core:compose-core</title>
            <path fill="none" stroke="#000" d="M477.48-148c58.49 12.08 145.45 30.04 206.08 42.56"/>
            <path stroke="#000" d="m684-108.93 9.08 5.45-10.5 1.41z"/>
        </g>
        <g class="node">
            <title>:shared</title>
            <ellipse cx="69.51" cy="-18" fill="none" stroke="#000" rx="37.53" ry="18"/>
            <text xml:space="preserve" x="69.51" y="-12.95" font-family="Times,serif" font-size="14" text-anchor="middle">:shared</text>
        </g>
        <g class="edge">
            <title>:core:common-android-&gt;:shared</title>
            <path fill="none" stroke="#000" d="M445.52-144.58c13.38 8.89 27.62 21.21 34.99 36.58 6.92 14.43 10.74 24.14 0 36-54.58 60.24-284.73 18.04-364 36-2.74.62-5.54 1.36-8.34 2.17"/>
            <path stroke="#000" d="m109.53-30.59-10.59-.28 8.45-6.39z"/>
        </g>
        <g class="node">
            <title>:core:data-api</title>
            <ellipse cx="589.51" cy="-90" fill="none" stroke="#000" rx="61.59" ry="18"/>
            <text xml:space="preserve" x="589.51" y="-84.95" font-family="Times,serif" font-size="14" text-anchor="middle">:core:data-api</text>
        </g>
        <g class="edge">
            <title>:core:common-android-&gt;:core:data-api</title>
            <path fill="none" stroke="red" stroke-width="2" d="M453.78-145.29c26.6 10.64 61.85 24.74 89.76 35.9"/>
            <path fill="red" stroke="red" stroke-width="2" d="m543.43-113.2 7.99 6.96-10.59-.46z"/>
        </g>
        <g class="node">
            <title>:core:network</title>
            <ellipse cx="261.51" cy="-90" fill="none" stroke="#000" rx="62.1" ry="18"/>
            <text xml:space="preserve" x="261.51" y="-84.95" font-family="Times,serif" font-size="14" text-anchor="middle">:core:network</text>
        </g>
        <g class="edge">
            <title>:core:common-android-&gt;:core:network</title>
            <path fill="none" stroke="#000" d="M379.41-144.94c-22.34 10.22-51.42 23.53-75.11 34.36"/>
            <path stroke="#000" d="m305.76-107.4-10.55.98 7.64-7.34z"/>
        </g>
        <g class="edge">
            <title>:core:data-&gt;:core:common</title>
            <path fill="none" stroke="#000" d="M281.84-147.67c23.01 10.46 55.38 25.18 81.37 36.99"/>
            <path stroke="#000" d="m364.52-113.93 7.65 7.32-10.55-.95z"/>
        </g>
        <g class="edge">
            <title>:core:data-&gt;:shared</title>
            <path fill="none" stroke="#000" d="M206.07-157.78C141.87-152.25 31.11-138.46 6.51-108c-10.05 12.45-6.75 21.49 0 36 6.33 13.6 18.06 24.95 29.69 33.62"/>
            <path stroke="#000" d="m37.93-41.44 6.23 8.57-10.21-2.81z"/>
        </g>
        <g class="edge">
            <title>:core:data-&gt;:core:data-api</title>
            <path fill="none" stroke="#000" d="M288.23-149.73c7.02 2.04 14.35 4.05 21.28 5.73 73.35 17.83 158.73 33.23 215.74 42.77"/>
            <path stroke="#000" d="m525.48-104.74 9.29 5.09-10.44 1.81z"/>
        </g>
        <g class="edge">
            <title>:core:data-&gt;:core:network</title>
            <path fill="none" stroke="#000" d="M254.73-143.7c.95 7.38 2.08 16.18 3.15 24.45"/>
            <path stroke="#000" d="m261.31-119.97-2.19 10.36-4.75-9.47z"/>
        </g>
        <g class="node">
            <title>:core:model</title>
            <ellipse cx="180.51" cy="-18" fill="none" stroke="#000" rx="55.45" ry="18"/>
            <text xml:space="preserve" x="180.51" y="-12.95" font-family="Times,serif" font-size="14" text-anchor="middle">:core:model</text>
        </g>
        <g class="edge">
            <title>:core:data-&gt;:core:model</title>
            <path fill="none" stroke="#000" d="M227.56-146.29c-13.3 9.23-28.62 22.4-37.05 38.29-9.82 18.5-12.07 42.18-12 60.46"/>
            <path stroke="#000" d="m182-47.76-3.2 10.1-3.8-9.9z"/>
        </g>
        <g class="node">
            <title>:core:database</title>
            <ellipse cx="79.51" cy="-90" fill="none" stroke="#000" rx="63.63" ry="18"/>
            <text xml:space="preserve" x="79.51" y="-84.95" font-family="Times,serif" font-size="14" text-anchor="middle">:core:database</text>
        </g>
        <g class="edge">
            <title>:core:data-&gt;:core:database</title>
            <path fill="none" stroke="#000" d="M221.18-148.32c-26.74 10.82-65.55 26.52-95.8 38.76"/>
            <path stroke="#000" d="m127.06-106.47-10.58.51 7.96-7z"/>
        </g>
        <g class="edge">
            <title>:core:domain-&gt;:core:data-api</title>
            <path fill="none" stroke="#000" d="M659.79-216.27c14.84 18.39 33.31 48.49 19.72 72.27-8.86 15.5-24.21 26.91-39.76 35.09"/>
            <path stroke="#000" d="m641.47-105.85-10.53 1.2 7.48-7.5z"/>
        </g>
        <g class="edge">
            <title>:feature:ui-setting-&gt;:core:common-android</title>
            <path fill="none" stroke="red" stroke-width="2" d="M414.51-215.7v24.16"/>
            <path fill="red" stroke="red" stroke-width="2" d="m418.01-193.13-3.5 10-3.5-10z"/>
        </g>
        <g class="edge">
            <title>:feature:ui-setting-&gt;:core:data</title>
            <path fill="none" stroke="#000" d="M378.96-217.64c-25.22 10.9-59.12 25.54-85.47 36.93"/>
            <path stroke="#000" d="m295.03-177.56-10.57.75 7.79-7.18z"/>
        </g>
        <g class="edge">
            <title>:feature:ui-setting-&gt;:core:navigation</title>
            <path fill="none" stroke="#000" d="M453.74-218.15c28.25 10.68 66.54 25.17 96.79 36.62"/>
            <path stroke="#000" d="m551.75-184.81 8.12 6.81-10.6-.27z"/>
        </g>
        <g class="edge">
            <title>:core:data-api-&gt;:core:model</title>
            <path fill="none" stroke="red" stroke-width="2" d="M542.57-78.02c-9.59 2.11-19.63 4.22-29.06 6.02-94.31 18.03-204.46 34.71-271.44 44.37"/>
            <path fill="red" stroke="red" stroke-width="2" d="m244.28-24.41-10.4-2.04 9.4-4.89z"/>
        </g>
        <g class="edge">
            <title>:core:database-&gt;:shared</title>
            <path fill="none" stroke="#000" d="M77.04-71.7c-1.06 7.38-2.31 16.18-3.5 24.45"/>
            <path stroke="#000" d="m77.04-47.01-4.87 9.41L70.11-48z"/>
        </g>
        <g class="edge">
            <title>:core:database-&gt;:core:model</title>
            <path fill="none" stroke="#000" d="M102.68-72.94c13.57 9.4 30.9 21.42 45.77 31.72"/>
            <path stroke="#000" d="m150.32-44.18 6.23 8.57-10.21-2.82z"/>
        </g>
    </g>
</svg>
