<svg xmlns="http://www.w3.org/2000/svg" width="869pt" height="332pt" viewBox="0 0 869 332">
    <g class="graph" transform="translate(4 328)">
        <title>G</title>
        <path fill="#fff" d="M-4 4v-332h868.66V4z"/>
        <g class="node">
            <title>:app-nanda</title>
            <ellipse cx="574.11" cy="-306" fill="none" stroke="#000" rx="51.86" ry="18"/>
            <text xml:space="preserve" x="574.11" y="-300.95" font-family="Times,serif" font-size="14" text-anchor="middle">:app-nanda</text>
        </g>
        <g class="node">
            <title>:core:common-android</title>
            <ellipse cx="371.11" cy="-162" fill="none" stroke="#000" rx="96.39" ry="18"/>
            <text xml:space="preserve" x="371.11" y="-156.95" font-family="Times,serif" font-size="14" text-anchor="middle">:core:common-android</text>
        </g>
        <g class="edge">
            <title>:app-nanda-&gt;:core:common-android</title>
            <path fill="none" stroke="#000" d="M526.51-298.59c-33.81 6.67-78.52 20.07-109.4 46.59-18.64 16.01-30.72 41.45-37.8 61.04"/>
            <path stroke="#000" d="m382.69-190.02-6.5 8.37-.14-10.59z"/>
        </g>
        <g class="node">
            <title>:core:data</title>
            <ellipse cx="576.11" cy="-162" fill="none" stroke="#000" rx="47.26" ry="18"/>
            <text xml:space="preserve" x="576.11" y="-156.95" font-family="Times,serif" font-size="14" text-anchor="middle">:core:data</text>
        </g>
        <g class="edge">
            <title>:app-nanda-&gt;:core:data</title>
            <path fill="none" stroke="#000" d="M523.97-301.14c-33.16 5.46-74.35 18.45-95.86 49.14-9.19 13.1-9.21 22.92 0 36 20.38 28.95 58.1 42.17 90.36 48.16"/>
            <path stroke="#000" d="m518.82-171.33 9.3 5.08-10.44 1.83z"/>
        </g>
        <g class="node">
            <title>:core:domain</title>
            <ellipse cx="497.11" cy="-234" fill="none" stroke="#000" rx="60.05" ry="18"/>
            <text xml:space="preserve" x="497.11" y="-228.95" font-family="Times,serif" font-size="14" text-anchor="middle">:core:domain</text>
        </g>
        <g class="edge">
            <title>:app-nanda-&gt;:core:domain</title>
            <path fill="none" stroke="red" stroke-width="2" d="M556.25-288.76c-9.68 8.79-21.82 19.83-32.58 29.62"/>
            <path fill="red" stroke="red" stroke-width="2" d="m527.4-257.81-9.76 4.14 5.05-9.32z"/>
        </g>
        <g class="node">
            <title>:core:navigation</title>
            <ellipse cx="733.11" cy="-162" fill="none" stroke="#000" rx="70.8" ry="18"/>
            <text xml:space="preserve" x="733.11" y="-156.95" font-family="Times,serif" font-size="14" text-anchor="middle">:core:navigation</text>
        </g>
        <g class="edge">
            <title>:app-nanda-&gt;:core:navigation</title>
            <path fill="none" stroke="#000" d="M625.64-303.25c37.32 4.29 85.46 16.75 110.47 51.25 12.55 17.31 10.66 41.89 6.28 60.84"/>
            <path stroke="#000" d="m745.81-190.42-5.98 8.75-.78-10.57z"/>
        </g>
        <g class="node">
            <title>:feature:ui-setting</title>
            <ellipse cx="651.11" cy="-234" fill="none" stroke="#000" rx="76.43" ry="18"/>
            <text xml:space="preserve" x="651.11" y="-228.95" font-family="Times,serif" font-size="14" text-anchor="middle">:feature:ui-setting</text>
        </g>
        <g class="edge">
            <title>:app-nanda-&gt;:feature:ui-setting</title>
            <path fill="none" stroke="#000" d="M591.97-288.76c9.6 8.73 21.64 19.67 32.34 29.4"/>
            <path stroke="#000" d="m626.38-262.21 5.04 9.31-9.75-4.13z"/>
        </g>
        <g class="node">
            <title>:widget</title>
            <ellipse cx="822.11" cy="-234" fill="none" stroke="#000" rx="38.56" ry="18"/>
            <text xml:space="preserve" x="822.11" y="-228.95" font-family="Times,serif" font-size="14" text-anchor="middle">:widget</text>
        </g>
        <g class="edge">
            <title>:app-nanda-&gt;:widget</title>
            <path fill="none" stroke="#000" d="M614.97-294.47c39.56 10.34 101.16 26.78 154.14 42.47 3.68 1.09 7.49 2.25 11.3 3.43"/>
            <path stroke="#000" d="m781.14-252.01 8.49 6.34-10.59.34z"/>
        </g>
        <g class="node">
            <title>:core:common</title>
            <ellipse cx="289.11" cy="-90" fill="none" stroke="#000" rx="65.17" ry="18"/>
            <text xml:space="preserve" x="289.11" y="-84.95" font-family="Times,serif" font-size="14" text-anchor="middle">:core:common</text>
        </g>
        <g class="edge">
            <title>:core:common-android-&gt;:core:common</title>
            <path fill="none" stroke="#000" d="M351.26-144.05c-10.25 8.74-22.93 19.56-34.15 29.15"/>
            <path stroke="#000" d="m319.52-112.36-9.88 3.83 5.34-9.15z"/>
        </g>
        <g class="node">
            <title>:core:compose-core</title>
            <ellipse cx="84.11" cy="-90" fill="none" stroke="#000" rx="84.11" ry="18"/>
            <text xml:space="preserve" x="84.11" y="-84.95" font-family="Times,serif" font-size="14" text-anchor="middle">:core:compose-core</text>
        </g>
        <g class="edge">
            <title>:core:common-android-&gt;:core:compose-core</title>
            <path fill="none" stroke="#000" d="M314.06-147.09c-47.57 11.61-115.34 28.14-164.99 40.25"/>
            <path stroke="#000" d="m150.14-103.5-10.54-1.03 8.89-5.77z"/>
        </g>
        <g class="node">
            <title>:shared</title>
            <ellipse cx="656.11" cy="-18" fill="none" stroke="#000" rx="37.53" ry="18"/>
            <text xml:space="preserve" x="656.11" y="-12.95" font-family="Times,serif" font-size="14" text-anchor="middle">:shared</text>
        </g>
        <g class="edge">
            <title>:core:common-android-&gt;:shared</title>
            <path fill="none" stroke="#000" d="M306.45-148.26c-56.31 13.9-124.19 39.23-91.34 76.26 25.7 28.98 282.73 45.12 392.12 50.72"/>
            <path stroke="#000" d="m607.26-24.78 9.81 3.99-10.16 3z"/>
        </g>
        <g class="node">
            <title>:core:data-api</title>
            <ellipse cx="576.11" cy="-90" fill="none" stroke="#000" rx="61.59" ry="18"/>
            <text xml:space="preserve" x="576.11" y="-84.95" font-family="Times,serif" font-size="14" text-anchor="middle">:core:data-api</text>
        </g>
        <g class="edge">
            <title>:core:common-android-&gt;:core:data-api</title>
            <path fill="none" stroke="#000" d="m416.1-145.64 110.46 37.72"/>
            <path stroke="#000" d="m527.33-111.35 8.33 6.54-10.59.08z"/>
        </g>
        <g class="node">
            <title>:core:network</title>
            <ellipse cx="434.11" cy="-90" fill="none" stroke="#000" rx="62.1" ry="18"/>
            <text xml:space="preserve" x="434.11" y="-84.95" font-family="Times,serif" font-size="14" text-anchor="middle">:core:network</text>
        </g>
        <g class="edge">
            <title>:core:common-android-&gt;:core:network</title>
            <path fill="none" stroke="#000" d="M386.36-144.05c7.5 8.34 16.71 18.56 25.02 27.8"/>
            <path stroke="#000" d="m413.9-118.69 4.08 9.78-9.29-5.1z"/>
        </g>
        <g class="edge">
            <title>:core:data-&gt;:core:common</title>
            <path fill="none" stroke="#000" d="M537.1-151.49c-48.85 11.92-132.99 32.44-189.55 46.24"/>
            <path stroke="#000" d="m348.64-101.92-10.55-1.03 8.89-5.77z"/>
        </g>
        <g class="edge">
            <title>:core:data-&gt;:shared</title>
            <path fill="none" stroke="#000" d="M604.33-147.35c15.33 8.97 33.08 22.22 42.78 39.35 10.3 18.21 12.26 41.89 11.79 60.25"/>
            <path stroke="#000" d="m662.4-47.6-4.03 9.8-2.96-10.17z"/>
        </g>
        <g class="edge">
            <title>:core:data-&gt;:core:data-api</title>
            <path fill="none" stroke="red" stroke-width="2" d="M576.11-143.7v24.16"/>
            <path fill="red" stroke="red" stroke-width="2" d="m579.61-121.13-3.5 10-3.5-10z"/>
        </g>
        <g class="edge">
            <title>:core:data-&gt;:core:network</title>
            <path fill="none" stroke="#000" d="M548.05-147.17c-20.98 10.34-49.97 24.64-73.47 36.22"/>
            <path stroke="#000" d="m476.44-107.96-10.52 1.28 7.42-7.56z"/>
        </g>
        <g class="node">
            <title>:core:model</title>
            <ellipse cx="767.11" cy="-18" fill="none" stroke="#000" rx="55.45" ry="18"/>
            <text xml:space="preserve" x="767.11" y="-12.95" font-family="Times,serif" font-size="14" text-anchor="middle">:core:model</text>
        </g>
        <g class="edge">
            <title>:core:data-&gt;:core:model</title>
            <path fill="none" stroke="#000" d="M616.04-152.04c11.92 2.63 25.01 5.49 37.07 8.04 78.96 16.7 126.89-26.47 178 36 10.13 12.38 6.81 21.52 0 36-5.9 12.55-16.39 23.14-27.19 31.48"/>
            <path stroke="#000" d="m806.27-37.9-10.17 2.97 6.1-8.66z"/>
        </g>
        <g class="node">
            <title>:core:database</title>
            <ellipse cx="758.11" cy="-90" fill="none" stroke="#000" rx="63.63" ry="18"/>
            <text xml:space="preserve" x="758.11" y="-84.95" font-family="Times,serif" font-size="14" text-anchor="middle">:core:database</text>
        </g>
        <g class="edge">
            <title>:core:data-&gt;:core:database</title>
            <path fill="none" stroke="#000" d="M608.65-148.49c28.47 10.96 70.19 27 102.33 39.36"/>
            <path stroke="#000" d="m711.98-112.49 8.08 6.86-10.59-.33z"/>
        </g>
        <g class="edge">
            <title>:core:domain-&gt;:core:data</title>
            <path fill="none" stroke="red" stroke-width="2" d="M515.83-216.41c10.08 8.93 22.68 20.1 33.76 29.91"/>
            <path fill="red" stroke="red" stroke-width="2" d="m550.63-190.25 5.17 9.25-9.81-4.01z"/>
        </g>
        <g class="edge">
            <title>:feature:ui-setting-&gt;:core:common-android</title>
            <path fill="none" stroke="#000" d="M600.08-220.24c-45.46 11.36-112.29 28.07-162.03 40.51"/>
            <path stroke="#000" d="m439.09-176.39-10.55-.97 8.85-5.82z"/>
        </g>
        <g class="edge">
            <title>:feature:ui-setting-&gt;:core:data</title>
            <path fill="none" stroke="#000" d="M632.95-216.05c-9.41 8.78-21.07 19.66-31.37 29.28"/>
            <path stroke="#000" d="m604.13-184.36-9.7 4.26 4.92-9.38z"/>
        </g>
        <g class="edge">
            <title>:feature:ui-setting-&gt;:core:navigation</title>
            <path fill="none" stroke="#000" d="M670.54-216.41c10.24 8.74 22.99 19.62 34.3 29.28"/>
            <path stroke="#000" d="m707.05-189.85 5.33 9.15-9.88-3.83z"/>
        </g>
        <g class="edge">
            <title>:core:data-api-&gt;:core:model</title>
            <path fill="none" stroke="red" stroke-width="2" d="M613.39-75.34c30.62 11.23 74.17 27.19 107.1 39.25"/>
            <path fill="red" stroke="red" stroke-width="2" d="m720.19-39.92 8.18 6.72-10.59-.15z"/>
        </g>
        <g class="edge">
            <title>:core:database-&gt;:shared</title>
            <path fill="none" stroke="#000" d="M734.71-72.94c-14.42 9.89-33.05 22.68-48.55 33.32"/>
            <path stroke="#000" d="m688.45-36.95-10.23 2.77 6.27-8.54z"/>
        </g>
        <g class="edge">
            <title>:core:database-&gt;:core:model</title>
            <path fill="none" stroke="#000" d="M760.33-71.7c.95 7.38 2.08 16.18 3.14 24.45"/>
            <path stroke="#000" d="m766.91-47.97-2.2 10.36-4.74-9.47z"/>
        </g>
    </g>
</svg>
