<svg xmlns="http://www.w3.org/2000/svg" width="868pt" height="404pt" viewBox="0 0 867.59 404">
    <g class="graph">
        <path fill="#fff" d="M0 404V0h867.59v404z"/>
        <g class="node" transform="translate(4 400)">
            <ellipse cx="420" cy="-378" fill="none" stroke="#000" rx="51.86" ry="18"/>
            <text x="420" y="-372.95" font-family="Times,serif" font-size="14" text-anchor="middle">:app-nanda</text>
        </g>
        <g class="node" transform="translate(4 400)">
            <ellipse cx="424" cy="-18" fill="none" stroke="#000" rx="65.17" ry="18"/>
            <text x="424" y="-12.95" font-family="Times,serif" font-size="14" text-anchor="middle">:core:common</text>
        </g>
        <g stroke="#000" class="edge">
            <path fill="none" d="M375.82 28.91C265.5 43.79 4 87.26 4 165v74c0 73.79 233.85 116.3 354.21 133.29"/>
            <path d="m358.57 368.8 9.42 4.85-10.39 2.09z"/>
        </g>
        <g class="node" transform="translate(4 400)">
            <ellipse cx="310" cy="-234" fill="none" stroke="#000" rx="96.39" ry="18"/>
            <text x="310" y="-228.95" font-family="Times,serif" font-size="14" text-anchor="middle">:core:common-android</text>
        </g>
        <g stroke="#000" class="edge">
            <path fill="none" d="M410.95 39.85c-19 24.52-54.45 70.28-76.81 99.15"/>
            <path d="m337.19 140.77-8.89 5.77 3.36-10.05z"/>
        </g>
        <g class="node" transform="translate(4 400)">
            <ellipse cx="112" cy="-234" fill="none" stroke="#000" rx="84.11" ry="18"/>
            <text x="112" y="-228.95" font-family="Times,serif" font-size="14" text-anchor="middle">:core:compose-core</text>
        </g>
        <g stroke="#000" class="edge">
            <path fill="none" d="M393.62 37C339 62.19 223.96 115.23 160.45 144.51"/>
            <path d="m162.27 147.52-10.55 1.01 7.61-7.36z"/>
        </g>
        <g class="node" transform="translate(4 400)">
            <ellipse cx="636" cy="-162" fill="none" stroke="#000" rx="47.26" ry="18"/>
            <text x="636" y="-156.95" font-family="Times,serif" font-size="14" text-anchor="middle">:core:data</text>
        </g>
        <g stroke="#000" class="edge">
            <path fill="none" d="M474.53 26.8C521.07 32.17 590.61 45.08 643 76c48.45 28.59 90.87 57.54 66 108-6.69 13.58-18.72 24.65-30.88 33.09"/>
            <path d="m680.03 220.03-10.31 2.45 6.53-8.34z"/>
        </g>
        <g class="node" transform="translate(4 400)">
            <ellipse cx="434" cy="-162" fill="none" stroke="#000" rx="37.53" ry="18"/>
            <text x="434" y="-156.95" font-family="Times,serif" font-size="14" text-anchor="middle">:shared</text>
        </g>
        <g stroke="#000" class="edge">
            <path fill="none" d="M425.12 40.15c2.4 36.71 8.06 123.19 11.01 168.32"/>
            <path d="m439.61 208.05-2.84 10.21-4.14-9.75z"/>
        </g>
        <g class="node" transform="translate(4 400)">
            <ellipse cx="636" cy="-234" fill="none" stroke="#000" rx="60.05" ry="18"/>
            <text x="636" y="-228.95" font-family="Times,serif" font-size="14" text-anchor="middle">:core:domain</text>
        </g>
        <g stroke="#000" class="edge">
            <path fill="none" d="M475.9 22.74C520.62 25.44 583.7 36.69 621 76c15.13 15.95 19.43 40.85 20.2 60.26"/>
            <path d="m644.69 135.97-3.42 10.02-3.58-9.97z"/>
        </g>
        <g class="node" transform="translate(4 400)">
            <ellipse cx="528" cy="-306" fill="none" stroke="#000" rx="80.01" ry="18"/>
            <text x="528" y="-300.95" font-family="Times,serif" font-size="14" text-anchor="middle">:features:ui-setting</text>
        </g>
        <g stroke="red" stroke-width="2" class="edge">
            <path fill="none" d="M447.7 38.36c14.64 9.49 33.67 21.82 49.94 32.37"/>
            <path fill="red" d="m497.82 66.68 6.49 8.37-10.3-2.5z"/>
        </g>
        <g stroke="#000" class="edge">
            <path fill="none" d="m323.14 184.15 90.27 169.46"/>
            <path d="m416.5 351.96 1.61 10.47-7.79-7.18z"/>
        </g>
        <g stroke="#000" class="edge">
            <path fill="none" d="M343.39 183.59c18.33 10.35 41.98 23.7 61.05 34.47"/>
            <path d="m405.92 214.87 6.98 7.96-10.42-1.87z"/>
        </g>
        <g stroke="#000" class="edge">
            <path fill="none" d="M140.22 183.61c55.45 38.04 191.67 131.47 254.74 174.73"/>
            <path d="m396.92 355.44 6.27 8.54-10.23-2.77z"/>
        </g>
        <g stroke="#000" class="edge">
            <path fill="none" d="M618.64 254.47C604.42 264.88 585.41 279.02 569 292c-19.55 15.46-22.38 22-43 36-17.66 11.99-38.3 23.49-56.08 32.69"/>
            <path d="m471.68 363.73-10.5 1.42 7.32-7.66z"/>
        </g>
        <g class="node" transform="translate(4 400)">
            <ellipse cx="780" cy="-90" fill="none" stroke="#000" rx="63.63" ry="18"/>
            <text x="780" y="-84.95" font-family="Times,serif" font-size="14" text-anchor="middle">:core:database</text>
        </g>
        <g stroke="red" stroke-width="2" class="edge">
            <path fill="none" d="m668.45 252.83 74.26 36.1"/>
            <path fill="red" d="m742.68 285.02 7.46 7.52-10.52-1.22z"/>
        </g>
        <g class="node" transform="translate(4 400)">
            <ellipse cx="780" cy="-18" fill="none" stroke="#000" rx="55.45" ry="18"/>
            <text x="780" y="-12.95" font-family="Times,serif" font-size="14" text-anchor="middle">:core:model</text>
        </g>
        <g stroke="#000" class="edge">
            <path fill="none" d="M685.13 243.54c57.2 6.8 150.91 21.77 171.87 48.46 9.88 12.58 7.27 21.75 0 36-6.97 13.68-19.31 24.65-31.87 32.98"/>
            <path d="m827.2 363.82-10.36 2.23 6.71-8.2z"/>
        </g>
        <g class="node" transform="translate(4 400)">
            <ellipse cx="636" cy="-90" fill="none" stroke="#000" rx="62.1" ry="18"/>
            <text x="636" y="-84.95" font-family="Times,serif" font-size="14" text-anchor="middle">:core:network</text>
        </g>
        <g stroke="#000" class="edge">
            <path fill="none" d="M640 256.3v24.16"/>
            <path d="m643.5 280.38-3.5 10-3.5-10z"/>
        </g>
        <g stroke="red" stroke-width="2" class="edge">
            <path fill="none" d="M640 184.3v24.16"/>
            <path fill="red" d="m643.5 206.87-3.5 10-3.5-10z"/>
        </g>
        <g stroke="#000" class="edge">
            <path fill="none" d="M527.85 112.18C520.48 141.91 504.08 204.69 485 256c-12.81 34.47-30.87 72.76-43.2 97.77"/>
            <path d="m445 355.19-7.59 7.4 1.32-10.52z"/>
        </g>
        <g stroke="#000" class="edge">
            <path fill="none" d="M487.36 109.33c-33.42 10.73-79.4 25.5-115.62 37.13"/>
            <path d="m372.87 149.77-10.59-.27 8.45-6.39z"/>
        </g>
        <g stroke="#000" class="edge">
            <path fill="none" d="M467.9 105.17C402.68 115.59 298.72 132.44 209 148c-6.42 1.11-13.09 2.29-19.78 3.49"/>
            <path d="m189.95 154.91-10.46-1.67 9.23-5.22z"/>
        </g>
        <g stroke="#000" class="edge">
            <path fill="none" d="M536.77 112.44c5.83 19.01 17.07 49.65 34.23 71.56 9.55 12.2 22.53 23.13 34.65 31.85"/>
            <path d="m607.6 212.95 6.26 8.55-10.22-2.78z"/>
        </g>
        <g stroke="#000" class="edge">
            <path fill="none" d="M520.66 112.13c-16.34 24.68-46.62 70.42-65.64 99.16"/>
            <path d="m458.07 213.02-8.44 6.41 2.6-10.27z"/>
        </g>
        <g stroke="red" stroke-width="2" class="edge">
            <path fill="none" d="M557.32 111.41c14.56 9.44 33.04 21.42 48.83 31.65"/>
            <path fill="red" d="m606.55 139.15 6.49 8.38-10.29-2.51z"/>
        </g>
        <g stroke="red" stroke-width="2" class="edge">
            <path fill="none" d="M784 328.3v24.16"/>
            <path fill="red" d="m787.5 350.87-3.5 10-3.5-10z"/>
        </g>
        <g stroke="#000" class="edge">
            <path fill="none" d="M600.12 324.17c-34.17 11.28-83.6 27.6-120.73 39.86"/>
            <path d="m480.81 367.25-10.59-.19 8.4-6.46z"/>
        </g>
        <g stroke="#000" class="edge">
            <path fill="none" d="M670.89 326.02c21.36 10.38 49.97 24.29 73.07 35.52"/>
            <path d="m745.32 358.31 7.46 7.52-10.52-1.23z"/>
        </g>
    </g>
</svg>
