<?xml version="1.0" encoding="UTF-8" standalone="no"?>
<!DOCTYPE svg PUBLIC "-//W3C//DTD SVG 1.1//EN"
 "http://www.w3.org/Graphics/SVG/1.1/DTD/svg11.dtd">
<!-- Generated by graphviz version 10.0.1 (20240210.2158)
 -->
<!-- Title: G Pages: 1 -->
<svg width="793pt" height="404pt"
 viewBox="0.00 0.00 793.14 404.00" xmlns="http://www.w3.org/2000/svg" xmlns:xlink="http://www.w3.org/1999/xlink">
<g id="graph0" class="graph" transform="scale(1 1) rotate(0) translate(4 400)">
<title>G</title>
<polygon fill="white" stroke="none" points="-4,4 -4,-400 789.14,-400 789.14,4 -4,4"/>
<!-- :app&#45;nanda -->
<g id="node1" class="node">
<title>:app&#45;nanda</title>
<ellipse fill="none" stroke="black" cx="380" cy="-378" rx="51.86" ry="18"/>
<text text-anchor="middle" x="380" y="-372.95" font-family="Times,serif" font-size="14.00">:app&#45;nanda</text>
</g>
<!-- :core:common -->
<g id="node2" class="node">
<title>:core:common</title>
<ellipse fill="none" stroke="black" cx="394" cy="-18" rx="65.17" ry="18"/>
<text text-anchor="middle" x="394" y="-12.95" font-family="Times,serif" font-size="14.00">:core:common</text>
</g>
<!-- :app&#45;nanda&#45;&gt;:core:common -->
<g id="edge1" class="edge">
<title>:app&#45;nanda&#45;&gt;:core:common</title>
<path fill="none" stroke="black" d="M333.4,-369.7C231.93,-352.48 0,-305.43 0,-235 0,-235 0,-235 0,-161 0,-92.46 213.68,-47.86 326.31,-29.11"/>
<polygon fill="black" stroke="black" points="326.75,-32.59 336.06,-27.51 325.62,-25.68 326.75,-32.59"/>
</g>
<!-- :core:common&#45;android -->
<g id="node3" class="node">
<title>:core:common&#45;android</title>
<ellipse fill="none" stroke="black" cx="310" cy="-234" rx="96.39" ry="18"/>
<text text-anchor="middle" x="310" y="-228.95" font-family="Times,serif" font-size="14.00">:core:common&#45;android</text>
</g>
<!-- :app&#45;nanda&#45;&gt;:core:common&#45;android -->
<g id="edge2" class="edge">
<title>:app&#45;nanda&#45;&gt;:core:common&#45;android</title>
<path fill="none" stroke="black" d="M367.71,-360.37C360.53,-350.19 351.61,-336.72 345,-324 334.76,-304.3 325.67,-280.9 319.32,-263.04"/>
<polygon fill="black" stroke="black" points="322.64,-261.93 316.06,-253.62 316.03,-264.22 322.64,-261.93"/>
</g>
<!-- :core:compose&#45;core -->
<g id="node4" class="node">
<title>:core:compose&#45;core</title>
<ellipse fill="none" stroke="black" cx="112" cy="-234" rx="84.11" ry="18"/>
<text text-anchor="middle" x="112" y="-228.95" font-family="Times,serif" font-size="14.00">:core:compose&#45;core</text>
</g>
<!-- :app&#45;nanda&#45;&gt;:core:compose&#45;core -->
<g id="edge3" class="edge">
<title>:app&#45;nanda&#45;&gt;:core:compose&#45;core</title>
<path fill="none" stroke="black" d="M352.33,-362.34C304.84,-337.17 207.61,-285.66 152.49,-256.45"/>
<polygon fill="black" stroke="black" points="154.19,-253.39 143.72,-251.81 150.92,-259.58 154.19,-253.39"/>
</g>
<!-- :core:data -->
<g id="node5" class="node">
<title>:core:data</title>
<ellipse fill="none" stroke="black" cx="654" cy="-162" rx="47.26" ry="18"/>
<text text-anchor="middle" x="654" y="-156.95" font-family="Times,serif" font-size="14.00">:core:data</text>
</g>
<!-- :app&#45;nanda&#45;&gt;:core:data -->
<g id="edge4" class="edge">
<title>:app&#45;nanda&#45;&gt;:core:data</title>
<path fill="none" stroke="black" d="M431.84,-376.16C511.2,-371.67 660.2,-349.89 723,-252 731.64,-238.53 730.07,-230.35 723,-216 716.31,-202.42 704.28,-191.35 692.12,-182.91"/>
<polygon fill="black" stroke="black" points="694.03,-179.97 683.72,-177.52 690.25,-185.86 694.03,-179.97"/>
</g>
<!-- :core:domain -->
<g id="node6" class="node">
<title>:core:domain</title>
<ellipse fill="none" stroke="black" cx="654" cy="-234" rx="60.05" ry="18"/>
<text text-anchor="middle" x="654" y="-228.95" font-family="Times,serif" font-size="14.00">:core:domain</text>
</g>
<!-- :app&#45;nanda&#45;&gt;:core:domain -->
<g id="edge5" class="edge">
<title>:app&#45;nanda&#45;&gt;:core:domain</title>
<path fill="none" stroke="black" d="M418.4,-365.57C447.81,-356.15 488.99,-341.53 523,-324 560,-304.93 599.06,-277.29 624.8,-257.88"/>
<polygon fill="black" stroke="black" points="626.61,-260.9 632.44,-252.05 622.37,-255.33 626.61,-260.9"/>
</g>
<!-- :features:ui&#45;setting -->
<g id="node7" class="node">
<title>:features:ui&#45;setting</title>
<ellipse fill="none" stroke="black" cx="434" cy="-306" rx="80.01" ry="18"/>
<text text-anchor="middle" x="434" y="-300.95" font-family="Times,serif" font-size="14.00">:features:ui&#45;setting</text>
</g>
<!-- :app&#45;nanda&#45;&gt;:features:ui&#45;setting -->
<g id="edge6" class="edge">
<title>:app&#45;nanda&#45;&gt;:features:ui&#45;setting</title>
<path fill="none" stroke="red" stroke-width="2" d="M392.8,-360.41C399.09,-352.25 406.83,-342.22 413.89,-333.07"/>
<polygon fill="red" stroke="red" stroke-width="2" points="415.73,-336.41 419.07,-326.35 410.19,-332.13 415.73,-336.41"/>
</g>
<!-- :core:common&#45;android&#45;&gt;:core:common -->
<g id="edge7" class="edge">
<title>:core:common&#45;android&#45;&gt;:core:common</title>
<path fill="none" stroke="black" d="M316.73,-215.85C331.23,-178.91 365.52,-91.55 383.14,-46.67"/>
<polygon fill="black" stroke="black" points="386.29,-48.23 386.68,-37.64 379.77,-45.67 386.29,-48.23"/>
</g>
<!-- :core:compose&#45;core&#45;&gt;:core:common -->
<g id="edge8" class="edge">
<title>:core:compose&#45;core&#45;&gt;:core:common</title>
<path fill="none" stroke="black" d="M134.13,-216.21C184.19,-178.22 306.21,-85.62 363.43,-42.2"/>
<polygon fill="black" stroke="black" points="365.31,-45.17 371.16,-36.34 361.07,-39.59 365.31,-45.17"/>
</g>
<!-- :core:data&#45;&gt;:core:common -->
<g id="edge9" class="edge">
<title>:core:data&#45;&gt;:core:common</title>
<path fill="none" stroke="black" d="M612.79,-152.76C578.56,-144.74 529.42,-130.43 491,-108 482.93,-103.29 445.6,-68.29 419.67,-43.61"/>
<polygon fill="black" stroke="black" points="422.12,-41.11 412.47,-36.74 417.29,-46.18 422.12,-41.11"/>
</g>
<!-- :core:database -->
<g id="node8" class="node">
<title>:core:database</title>
<ellipse fill="none" stroke="black" cx="706" cy="-90" rx="63.63" ry="18"/>
<text text-anchor="middle" x="706" y="-84.95" font-family="Times,serif" font-size="14.00">:core:database</text>
</g>
<!-- :core:data&#45;&gt;:core:database -->
<g id="edge10" class="edge">
<title>:core:data&#45;&gt;:core:database</title>
<path fill="none" stroke="red" stroke-width="2" d="M666.32,-144.41C672.39,-136.25 679.84,-126.22 686.64,-117.07"/>
<polygon fill="red" stroke="red" stroke-width="2" points="688.45,-120.5 691.6,-110.39 682.83,-116.33 688.45,-120.5"/>
</g>
<!-- :core:model -->
<g id="node9" class="node">
<title>:core:model</title>
<ellipse fill="none" stroke="black" cx="706" cy="-18" rx="55.45" ry="18"/>
<text text-anchor="middle" x="706" y="-12.95" font-family="Times,serif" font-size="14.00">:core:model</text>
</g>
<!-- :core:data&#45;&gt;:core:model -->
<g id="edge11" class="edge">
<title>:core:data&#45;&gt;:core:model</title>
<path fill="none" stroke="black" d="M697.74,-154.89C726.12,-148.4 761.04,-135.12 779,-108 787.83,-94.66 786.27,-86.25 779,-72 772.03,-58.32 759.69,-47.35 747.13,-39.02"/>
<polygon fill="black" stroke="black" points="749.2,-36.18 738.84,-33.95 745.55,-42.15 749.2,-36.18"/>
</g>
<!-- :core:network -->
<g id="node10" class="node">
<title>:core:network</title>
<ellipse fill="none" stroke="black" cx="562" cy="-90" rx="62.1" ry="18"/>
<text text-anchor="middle" x="562" y="-84.95" font-family="Times,serif" font-size="14.00">:core:network</text>
</g>
<!-- :core:data&#45;&gt;:core:network -->
<g id="edge12" class="edge">
<title>:core:data&#45;&gt;:core:network</title>
<path fill="none" stroke="black" d="M633.58,-145.46C621.45,-136.24 605.84,-124.36 592.3,-114.05"/>
<polygon fill="black" stroke="black" points="594.6,-111.41 584.52,-108.14 590.36,-116.98 594.6,-111.41"/>
</g>
<!-- :core:domain&#45;&gt;:core:data -->
<g id="edge16" class="edge">
<title>:core:domain&#45;&gt;:core:data</title>
<path fill="none" stroke="red" stroke-width="2" d="M654,-215.7C654,-208.41 654,-199.73 654,-191.54"/>
<polygon fill="red" stroke="red" stroke-width="2" points="657.5,-193.13 654,-183.13 650.5,-193.13 657.5,-193.13"/>
</g>
<!-- :features:ui&#45;setting&#45;&gt;:core:common -->
<g id="edge17" class="edge">
<title>:features:ui&#45;setting&#45;&gt;:core:common</title>
<path fill="none" stroke="black" d="M431.56,-287.54C424.88,-239.76 406.24,-106.51 398,-47.61"/>
<polygon fill="black" stroke="black" points="401.47,-47.15 396.62,-37.73 394.54,-48.12 401.47,-47.15"/>
</g>
<!-- :features:ui&#45;setting&#45;&gt;:core:common&#45;android -->
<g id="edge18" class="edge">
<title>:features:ui&#45;setting&#45;&gt;:core:common&#45;android</title>
<path fill="none" stroke="black" d="M405.24,-288.76C388.54,-279.33 367.26,-267.33 349.06,-257.05"/>
<polygon fill="black" stroke="black" points="350.78,-254 340.35,-252.13 347.34,-260.1 350.78,-254"/>
</g>
<!-- :features:ui&#45;setting&#45;&gt;:core:compose&#45;core -->
<g id="edge19" class="edge">
<title>:features:ui&#45;setting&#45;&gt;:core:compose&#45;core</title>
<path fill="none" stroke="black" d="M377.91,-292.81C323.07,-280.88 239.45,-262.71 180.66,-249.93"/>
<polygon fill="black" stroke="black" points="181.61,-246.55 171.09,-247.85 180.12,-253.39 181.61,-246.55"/>
</g>
<!-- :features:ui&#45;setting&#45;&gt;:core:data -->
<g id="edge20" class="edge">
<title>:features:ui&#45;setting&#45;&gt;:core:data</title>
<path fill="none" stroke="black" d="M473.84,-290C496.28,-280.67 524.26,-267.5 547,-252 566.22,-238.89 567.31,-231.11 585,-216 597.36,-205.45 611.51,-194.41 623.78,-185.15"/>
<polygon fill="black" stroke="black" points="625.6,-188.15 631.51,-179.36 621.41,-182.55 625.6,-188.15"/>
</g>
<!-- :features:ui&#45;setting&#45;&gt;:core:domain -->
<g id="edge21" class="edge">
<title>:features:ui&#45;setting&#45;&gt;:core:domain</title>
<path fill="none" stroke="red" stroke-width="2" d="M478.79,-290.75C514.92,-279.25 565.75,-263.08 603.36,-251.11"/>
<polygon fill="red" stroke="red" stroke-width="2" points="602.73,-254.99 611.2,-248.62 600.61,-248.32 602.73,-254.99"/>
</g>
<!-- :shared -->
<g id="node11" class="node">
<title>:shared</title>
<ellipse fill="none" stroke="black" cx="500" cy="-234" rx="37.53" ry="18"/>
<text text-anchor="middle" x="500" y="-228.95" font-family="Times,serif" font-size="14.00">:shared</text>
</g>
<!-- :features:ui&#45;setting&#45;&gt;:shared -->
<g id="edge22" class="edge">
<title>:features:ui&#45;setting&#45;&gt;:shared</title>
<path fill="none" stroke="black" d="M449.98,-288.05C458.16,-279.38 468.25,-268.67 477.23,-259.15"/>
<polygon fill="black" stroke="black" points="479.72,-261.61 484.04,-251.93 474.63,-256.81 479.72,-261.61"/>
</g>
<!-- :core:database&#45;&gt;:core:model -->
<g id="edge13" class="edge">
<title>:core:database&#45;&gt;:core:model</title>
<path fill="none" stroke="red" stroke-width="2" d="M706,-71.7C706,-64.41 706,-55.73 706,-47.54"/>
<polygon fill="red" stroke="red" stroke-width="2" points="709.5,-49.13 706,-39.13 702.5,-49.13 709.5,-49.13"/>
</g>
<!-- :core:network&#45;&gt;:core:common -->
<g id="edge14" class="edge">
<title>:core:network&#45;&gt;:core:common</title>
<path fill="none" stroke="black" d="M527.6,-74.67C502.06,-64.03 467,-49.41 439.2,-37.83"/>
<polygon fill="black" stroke="black" points="440.91,-34.75 430.33,-34.14 438.22,-41.21 440.91,-34.75"/>
</g>
<!-- :core:network&#45;&gt;:core:model -->
<g id="edge15" class="edge">
<title>:core:network&#45;&gt;:core:model</title>
<path fill="none" stroke="black" d="M592.89,-73.98C614.25,-63.6 642.86,-49.69 665.96,-38.46"/>
<polygon fill="black" stroke="black" points="667.32,-41.69 674.78,-34.17 664.26,-35.4 667.32,-41.69"/>
</g>
</g>
</svg>
