<?xml version="1.0" encoding="UTF-8" standalone="no"?>
<!DOCTYPE svg PUBLIC "-//W3C//DTD SVG 1.1//EN"
 "http://www.w3.org/Graphics/SVG/1.1/DTD/svg11.dtd">
<!-- Generated by graphviz version 10.0.1 (20240210.2158)
 -->
<!-- Title: G Pages: 1 -->
<svg width="732pt" height="332pt"
 viewBox="0.00 0.00 731.51 332.00" xmlns="http://www.w3.org/2000/svg" xmlns:xlink="http://www.w3.org/1999/xlink">
<g id="graph0" class="graph" transform="scale(1 1) rotate(0) translate(4 328)">
<title>G</title>
<polygon fill="white" stroke="none" points="-4,4 -4,-328 727.51,-328 727.51,4 -4,4"/>
<!-- :app&#45;nanda -->
<g id="node1" class="node">
<title>:app&#45;nanda</title>
<ellipse fill="none" stroke="black" cx="374.04" cy="-306" rx="51.86" ry="18"/>
<text text-anchor="middle" x="374.04" y="-300.95" font-family="Times,serif" font-size="14.00">:app&#45;nanda</text>
</g>
<!-- :core:common -->
<g id="node2" class="node">
<title>:core:common</title>
<ellipse fill="none" stroke="black" cx="316.04" cy="-18" rx="65.17" ry="18"/>
<text text-anchor="middle" x="316.04" y="-12.95" font-family="Times,serif" font-size="14.00">:core:common</text>
</g>
<!-- :app&#45;nanda&#45;&gt;:core:common -->
<g id="edge1" class="edge">
<title>:app&#45;nanda&#45;&gt;:core:common</title>
<path fill="none" stroke="black" d="M322.07,-304.65C240.23,-300.94 83.42,-280.31 13.04,-180 -50.65,-89.22 138.52,-45.33 246.47,-28.14"/>
<polygon fill="black" stroke="black" points="246.77,-31.64 256.12,-26.65 245.7,-24.72 246.77,-31.64"/>
</g>
<!-- :core:common&#45;android -->
<g id="node3" class="node">
<title>:core:common&#45;android</title>
<ellipse fill="none" stroke="black" cx="118.04" cy="-162" rx="96.39" ry="18"/>
<text text-anchor="middle" x="118.04" y="-156.95" font-family="Times,serif" font-size="14.00">:core:common&#45;android</text>
</g>
<!-- :app&#45;nanda&#45;&gt;:core:common&#45;android -->
<g id="edge2" class="edge">
<title>:app&#45;nanda&#45;&gt;:core:common&#45;android</title>
<path fill="none" stroke="black" d="M347.61,-290.34C302.58,-265.36 210.74,-214.42 157.89,-185.1"/>
<polygon fill="black" stroke="black" points="159.63,-182.07 149.18,-180.28 156.23,-188.19 159.63,-182.07"/>
</g>
<!-- :core:compose&#45;core -->
<g id="node4" class="node">
<title>:core:compose&#45;core</title>
<ellipse fill="none" stroke="black" cx="316.04" cy="-162" rx="84.11" ry="18"/>
<text text-anchor="middle" x="316.04" y="-156.95" font-family="Times,serif" font-size="14.00">:core:compose&#45;core</text>
</g>
<!-- :app&#45;nanda&#45;&gt;:core:compose&#45;core -->
<g id="edge3" class="edge">
<title>:app&#45;nanda&#45;&gt;:core:compose&#45;core</title>
<path fill="none" stroke="black" d="M360.84,-288.17C353.52,-278.15 344.77,-264.9 339.04,-252 330.41,-232.59 324.54,-209.31 320.89,-191.43"/>
<polygon fill="black" stroke="black" points="324.36,-190.94 319.04,-181.78 317.49,-192.26 324.36,-190.94"/>
</g>
<!-- :core:data -->
<g id="node5" class="node">
<title>:core:data</title>
<ellipse fill="none" stroke="black" cx="604.04" cy="-90" rx="47.26" ry="18"/>
<text text-anchor="middle" x="604.04" y="-84.95" font-family="Times,serif" font-size="14.00">:core:data</text>
</g>
<!-- :app&#45;nanda&#45;&gt;:core:data -->
<g id="edge4" class="edge">
<title>:app&#45;nanda&#45;&gt;:core:data</title>
<path fill="none" stroke="black" d="M425.88,-304.16C505.24,-299.67 654.24,-277.89 717.04,-180 725.68,-166.53 725.62,-157.5 717.04,-144 703.61,-122.86 679.27,-110.01 656.61,-102.26"/>
<polygon fill="black" stroke="black" points="657.71,-98.94 647.12,-99.31 655.63,-105.63 657.71,-98.94"/>
</g>
<!-- :core:domain -->
<g id="node6" class="node">
<title>:core:domain</title>
<ellipse fill="none" stroke="black" cx="648.04" cy="-162" rx="60.05" ry="18"/>
<text text-anchor="middle" x="648.04" y="-156.95" font-family="Times,serif" font-size="14.00">:core:domain</text>
</g>
<!-- :app&#45;nanda&#45;&gt;:core:domain -->
<g id="edge5" class="edge">
<title>:app&#45;nanda&#45;&gt;:core:domain</title>
<path fill="none" stroke="black" d="M412.44,-293.57C441.86,-284.15 483.03,-269.53 517.04,-252 554.05,-232.93 593.1,-205.29 618.84,-185.88"/>
<polygon fill="black" stroke="black" points="620.65,-188.9 626.49,-180.05 616.41,-183.33 620.65,-188.9"/>
</g>
<!-- :features:ui&#45;setting -->
<g id="node7" class="node">
<title>:features:ui&#45;setting</title>
<ellipse fill="none" stroke="black" cx="428.04" cy="-234" rx="80.01" ry="18"/>
<text text-anchor="middle" x="428.04" y="-228.95" font-family="Times,serif" font-size="14.00">:features:ui&#45;setting</text>
</g>
<!-- :app&#45;nanda&#45;&gt;:features:ui&#45;setting -->
<g id="edge6" class="edge">
<title>:app&#45;nanda&#45;&gt;:features:ui&#45;setting</title>
<path fill="none" stroke="red" stroke-width="2" d="M386.84,-288.41C393.13,-280.25 400.87,-270.22 407.93,-261.07"/>
<polygon fill="red" stroke="red" stroke-width="2" points="409.77,-264.41 413.11,-254.35 404.23,-260.13 409.77,-264.41"/>
</g>
<!-- :core:common&#45;android&#45;&gt;:core:common -->
<g id="edge7" class="edge">
<title>:core:common&#45;android&#45;&gt;:core:common</title>
<path fill="none" stroke="black" d="M141.53,-144.15C177.02,-118.7 244.38,-70.39 284.23,-41.81"/>
<polygon fill="black" stroke="black" points="286.18,-44.72 292.26,-36.05 282.1,-39.04 286.18,-44.72"/>
</g>
<!-- :core:compose&#45;core&#45;&gt;:core:common -->
<g id="edge8" class="edge">
<title>:core:compose&#45;core&#45;&gt;:core:common</title>
<path fill="none" stroke="black" d="M316.04,-143.59C316.04,-119.61 316.04,-76.14 316.04,-47.42"/>
<polygon fill="black" stroke="black" points="319.54,-47.62 316.04,-37.62 312.54,-47.62 319.54,-47.62"/>
</g>
<!-- :core:data&#45;&gt;:core:common -->
<g id="edge9" class="edge">
<title>:core:data&#45;&gt;:core:common</title>
<path fill="none" stroke="red" stroke-width="2" d="M564.9,-79.49C515.88,-67.57 431.44,-47.05 374.68,-33.25"/>
<polygon fill="red" stroke="red" stroke-width="2" points="377.21,-30.26 366.66,-31.3 375.55,-37.07 377.21,-30.26"/>
</g>
<!-- :core:domain&#45;&gt;:core:data -->
<g id="edge10" class="edge">
<title>:core:domain&#45;&gt;:core:data</title>
<path fill="none" stroke="red" stroke-width="2" d="M637.39,-144.05C632.36,-136.06 626.25,-126.33 620.63,-117.4"/>
<polygon fill="red" stroke="red" stroke-width="2" points="624.49,-116.96 616.2,-110.35 618.56,-120.68 624.49,-116.96"/>
</g>
<!-- :features:ui&#45;setting&#45;&gt;:core:common -->
<g id="edge11" class="edge">
<title>:features:ui&#45;setting&#45;&gt;:core:common</title>
<path fill="none" stroke="black" d="M426.54,-215.59C424.46,-197.13 419.66,-167.46 409.04,-144 391.73,-105.76 361.24,-67.95 339.9,-44.1"/>
<polygon fill="black" stroke="black" points="342.56,-41.82 333.24,-36.79 337.39,-46.54 342.56,-41.82"/>
</g>
<!-- :features:ui&#45;setting&#45;&gt;:core:common&#45;android -->
<g id="edge12" class="edge">
<title>:features:ui&#45;setting&#45;&gt;:core:common&#45;android</title>
<path fill="none" stroke="black" d="M372.98,-220.57C321.6,-208.96 244.67,-191.59 188.77,-178.97"/>
<polygon fill="black" stroke="black" points="189.88,-175.63 179.36,-176.85 188.34,-182.46 189.88,-175.63"/>
</g>
<!-- :features:ui&#45;setting&#45;&gt;:core:compose&#45;core -->
<g id="edge13" class="edge">
<title>:features:ui&#45;setting&#45;&gt;:core:compose&#45;core</title>
<path fill="none" stroke="black" d="M401.78,-216.59C387,-207.35 368.33,-195.68 352.19,-185.59"/>
<polygon fill="black" stroke="black" points="354.14,-182.69 343.81,-180.35 350.43,-188.62 354.14,-182.69"/>
</g>
<!-- :features:ui&#45;setting&#45;&gt;:core:data -->
<g id="edge14" class="edge">
<title>:features:ui&#45;setting&#45;&gt;:core:data</title>
<path fill="none" stroke="black" d="M471.84,-218.58C494.15,-209.8 520.77,-196.96 541.04,-180 561.62,-162.78 578.73,-137.34 589.89,-118.07"/>
<polygon fill="black" stroke="black" points="592.91,-119.84 594.73,-109.41 586.8,-116.43 592.91,-119.84"/>
</g>
<!-- :features:ui&#45;setting&#45;&gt;:core:domain -->
<g id="edge15" class="edge">
<title>:features:ui&#45;setting&#45;&gt;:core:domain</title>
<path fill="none" stroke="red" stroke-width="2" d="M472.83,-218.75C508.96,-207.25 559.79,-191.08 597.4,-179.11"/>
<polygon fill="red" stroke="red" stroke-width="2" points="596.77,-182.99 605.24,-176.62 594.65,-176.32 596.77,-182.99"/>
</g>
<!-- :shared -->
<g id="node8" class="node">
<title>:shared</title>
<ellipse fill="none" stroke="black" cx="494.04" cy="-162" rx="37.53" ry="18"/>
<text text-anchor="middle" x="494.04" y="-156.95" font-family="Times,serif" font-size="14.00">:shared</text>
</g>
<!-- :features:ui&#45;setting&#45;&gt;:shared -->
<g id="edge16" class="edge">
<title>:features:ui&#45;setting&#45;&gt;:shared</title>
<path fill="none" stroke="black" d="M444.02,-216.05C452.2,-207.38 462.3,-196.67 471.27,-187.15"/>
<polygon fill="black" stroke="black" points="473.76,-189.61 478.08,-179.93 468.67,-184.81 473.76,-189.61"/>
</g>
</g>
</svg>
