<svg xmlns="http://www.w3.org/2000/svg" width="845pt" height="332pt" viewBox="0 0 845 332">
    <g class="graph" transform="translate(4 328)">
        <title>G</title>
        <path fill="#fff" d="M-4 4v-332h844.69V4z"/>
        <g class="node">
            <title>:app-nanda</title>
            <ellipse cx="432.59" cy="-306" fill="none" stroke="#000" rx="51.86" ry="18"/>
            <text xml:space="preserve" x="432.59" y="-300.95" font-family="Times,serif" font-size="14" text-anchor="middle">:app-nanda</text>
        </g>
        <g class="node">
            <title>:core:common-android</title>
            <ellipse cx="545.59" cy="-162" fill="none" stroke="#000" rx="96.39" ry="18"/>
            <text xml:space="preserve" x="545.59" y="-156.95" font-family="Times,serif" font-size="14" text-anchor="middle">:core:common-android</text>
        </g>
        <g class="edge">
            <title>:app-nanda-&gt;:core:common-android</title>
            <path fill="none" stroke="#000" d="M441.76-288.1c10.43 18.54 28.53 48.77 47.83 72.1 8.15 9.85 18.01 19.72 27.17 28.23"/>
            <path stroke="#000" d="m519.07-190.39 5.06 9.31-9.76-4.13z"/>
        </g>
        <g class="node">
            <title>:core:data</title>
            <ellipse cx="224.59" cy="-162" fill="none" stroke="#000" rx="47.26" ry="18"/>
            <text xml:space="preserve" x="224.59" y="-156.95" font-family="Times,serif" font-size="14" text-anchor="middle">:core:data</text>
        </g>
        <g class="edge">
            <title>:app-nanda-&gt;:core:data</title>
            <path fill="none" stroke="#000" d="M380.63-304.47c-42.79 3.33-101.94 15.08-137.04 52.47-14.98 15.95-19.31 40.68-20.13 60.03"/>
            <path stroke="#000" d="m226.96-191.94-3.61 9.97-3.39-10.04z"/>
        </g>
        <g class="node">
            <title>:core:domain</title>
            <ellipse cx="90.59" cy="-162" fill="none" stroke="#000" rx="60.05" ry="18"/>
            <text xml:space="preserve" x="90.59" y="-156.95" font-family="Times,serif" font-size="14" text-anchor="middle">:core:domain</text>
        </g>
        <g class="edge">
            <title>:app-nanda-&gt;:core:domain</title>
            <path fill="none" stroke="#000" d="M385.59-297.94c-43.61 7.66-109.62 22.09-163 45.94-38.66 17.27-78.32 45.74-103.94 65.82"/>
            <path stroke="#000" d="m121.07-183.62-10.01 3.48 5.65-8.96z"/>
        </g>
        <g class="node">
            <title>:core:navigation</title>
            <ellipse cx="360.59" cy="-162" fill="none" stroke="#000" rx="70.8" ry="18"/>
            <text xml:space="preserve" x="360.59" y="-156.95" font-family="Times,serif" font-size="14" text-anchor="middle">:core:navigation</text>
        </g>
        <g class="edge">
            <title>:app-nanda-&gt;:core:navigation</title>
            <path fill="none" stroke="#000" d="M431.78-287.6c-1.5 18.71-5.82 48.83-18.19 71.6-5.78 10.63-14.36 20.53-22.93 28.83"/>
            <path stroke="#000" d="m393.05-184.61-9.75 4.16 5.03-9.33z"/>
        </g>
        <g class="node">
            <title>:feature:ui-setting</title>
            <ellipse cx="328.59" cy="-234" fill="none" stroke="#000" rx="76.43" ry="18"/>
            <text xml:space="preserve" x="328.59" y="-228.95" font-family="Times,serif" font-size="14" text-anchor="middle">:feature:ui-setting</text>
        </g>
        <g class="edge">
            <title>:app-nanda-&gt;:feature:ui-setting</title>
            <path fill="none" stroke="red" stroke-width="2" d="M409.51-289.46c-13.88 9.33-31.78 21.39-47.22 31.78"/>
            <path fill="red" stroke="red" stroke-width="2" d="m365.81-255.84-10.25 2.68 6.35-8.48z"/>
        </g>
        <g class="node">
            <title>:feature:ui-web</title>
            <ellipse cx="565.59" cy="-234" fill="none" stroke="#000" rx="67.22" ry="18"/>
            <text xml:space="preserve" x="565.59" y="-228.95" font-family="Times,serif" font-size="14" text-anchor="middle">:feature:ui-web</text>
        </g>
        <g class="edge">
            <title>:app-nanda-&gt;:feature:ui-web</title>
            <path fill="none" stroke="#000" d="M460.14-290.5c19.1 10.05 44.8 23.58 66.05 34.77"/>
            <path stroke="#000" d="m527.66-258.92 7.22 7.76-10.48-1.56z"/>
        </g>
        <g class="node">
            <title>:widget</title>
            <ellipse cx="689.59" cy="-234" fill="none" stroke="#000" rx="38.56" ry="18"/>
            <text xml:space="preserve" x="689.59" y="-228.95" font-family="Times,serif" font-size="14" text-anchor="middle">:widget</text>
        </g>
        <g class="edge">
            <title>:app-nanda-&gt;:widget</title>
            <path fill="none" stroke="#000" d="M475.33-295.38c42.47 9.85 109.3 26.11 166.26 43.38 2.53.77 5.13 1.59 7.74 2.44"/>
            <path stroke="#000" d="m650.24-252.95 8.35 6.52-10.59.11z"/>
        </g>
        <g class="node">
            <title>:core:common</title>
            <ellipse cx="405.59" cy="-90" fill="none" stroke="#000" rx="65.17" ry="18"/>
            <text xml:space="preserve" x="405.59" y="-84.95" font-family="Times,serif" font-size="14" text-anchor="middle">:core:common</text>
        </g>
        <g class="edge">
            <title>:core:common-android-&gt;:core:common</title>
            <path fill="none" stroke="#000" d="M513.12-144.76c-20 9.99-45.79 22.89-67.1 33.54"/>
            <path stroke="#000" d="m447.83-108.21-10.51 1.34 7.38-7.6z"/>
        </g>
        <g class="node">
            <title>:core:compose-core</title>
            <ellipse cx="752.59" cy="-90" fill="none" stroke="#000" rx="84.11" ry="18"/>
            <text xml:space="preserve" x="752.59" y="-84.95" font-family="Times,serif" font-size="14" text-anchor="middle">:core:compose-core</text>
        </g>
        <g class="edge">
            <title>:core:common-android-&gt;:core:compose-core</title>
            <path fill="none" stroke="red" stroke-width="2" d="M590.76-145.72c31.66 10.7 74.15 25.07 107.64 36.4"/>
            <path fill="red" stroke="red" stroke-width="2" d="m697.71-113.25 8.35 6.52-10.59.11z"/>
        </g>
        <g class="node">
            <title>:shared</title>
            <ellipse cx="312.59" cy="-18" fill="none" stroke="#000" rx="37.53" ry="18"/>
            <text xml:space="preserve" x="312.59" y="-12.95" font-family="Times,serif" font-size="14" text-anchor="middle">:shared</text>
        </g>
        <g class="edge">
            <title>:core:common-android-&gt;:shared</title>
            <path fill="none" stroke="#000" d="M582.37-144.95c15.02 8.62 30.81 20.83 39.22 36.95 7.4 14.19 10.31 23.77 0 36-32.69 38.77-181.5 49.18-260.07 51.97"/>
            <path stroke="#000" d="m362.08-16.54-10.11-3.17 9.88-3.83z"/>
        </g>
        <g class="node">
            <title>:core:data-api</title>
            <ellipse cx="77.59" cy="-90" fill="none" stroke="#000" rx="61.59" ry="18"/>
            <text xml:space="preserve" x="77.59" y="-84.95" font-family="Times,serif" font-size="14" text-anchor="middle">:core:data-api</text>
        </g>
        <g class="edge">
            <title>:core:common-android-&gt;:core:data-api</title>
            <path fill="none" stroke="#000" d="M475.61-149.29c-11.68 1.85-23.69 3.68-35.02 5.29-129.9 18.49-163.93 12.48-293 36-4.64.84-9.43 1.81-14.22 2.84"/>
            <path stroke="#000" d="m134.23-101.77-10.52-1.22 8.99-5.61z"/>
        </g>
        <g class="node">
            <title>:core:network</title>
            <ellipse cx="550.59" cy="-90" fill="none" stroke="#000" rx="62.1" ry="18"/>
            <text xml:space="preserve" x="550.59" y="-84.95" font-family="Times,serif" font-size="14" text-anchor="middle">:core:network</text>
        </g>
        <g class="edge">
            <title>:core:common-android-&gt;:core:network</title>
            <path fill="none" stroke="#000" d="M546.82-143.7c.52 7.29 1.14 15.97 1.73 24.16"/>
            <path stroke="#000" d="m552.04-119.84-2.78 10.23-4.21-9.73z"/>
        </g>
        <g class="edge">
            <title>:core:data-&gt;:core:common</title>
            <path fill="none" stroke="#000" d="M256.95-148.49c28.23 10.92 69.54 26.9 101.46 39.24"/>
            <path stroke="#000" d="m359.36-112.63 8.06 6.87-10.59-.34z"/>
        </g>
        <g class="edge">
            <title>:core:data-&gt;:shared</title>
            <path fill="none" stroke="#000" d="M251.35-146.76c14.67 9.16 31.92 22.41 42.24 38.76 11.41 18.08 16.07 41.92 17.92 60.38"/>
            <path stroke="#000" d="m314.98-48.13-2.73 10.23-4.25-9.7z"/>
        </g>
        <g class="edge">
            <title>:core:data-&gt;:core:data-api</title>
            <path fill="none" stroke="#000" d="M195.9-147.34c-21.94 10.45-52.48 24.99-77.04 36.68"/>
            <path stroke="#000" d="m120.65-107.63-10.54 1.14 7.53-7.46z"/>
        </g>
        <g class="edge">
            <title>:core:data-&gt;:core:network</title>
            <path fill="none" stroke="#000" d="M259.97-149.58c6.8 2 13.9 3.96 20.62 5.58 87.37 21.09 111.04 17.53 199 36 4.53.95 9.22 1.98 13.93 3.04"/>
            <path stroke="#000" d="m494.02-108.43 8.96 5.65-10.53 1.17z"/>
        </g>
        <g class="node">
            <title>:core:model</title>
            <ellipse cx="77.59" cy="-18" fill="none" stroke="#000" rx="55.45" ry="18"/>
            <text xml:space="preserve" x="77.59" y="-12.95" font-family="Times,serif" font-size="14" text-anchor="middle">:core:model</text>
        </g>
        <g class="edge">
            <title>:core:data-&gt;:core:model</title>
            <path fill="none" stroke="#000" d="M186.48-150.86c-8.82 2.29-18.18 4.69-26.89 6.86-67.8 16.84-109.63-18.76-153 36-9.94 12.54-7.17 21.7 0 36C13.28-58.65 25.1-47.81 37.2-39.49"/>
            <path stroke="#000" d="m39.03-42.48 6.57 8.31-10.32-2.4z"/>
        </g>
        <g class="node">
            <title>:core:database</title>
            <ellipse cx="220.59" cy="-90" fill="none" stroke="#000" rx="63.63" ry="18"/>
            <text xml:space="preserve" x="220.59" y="-84.95" font-family="Times,serif" font-size="14" text-anchor="middle">:core:database</text>
        </g>
        <g class="edge">
            <title>:core:data-&gt;:core:database</title>
            <path fill="none" stroke="#000" d="M223.6-143.7c-.42 7.29-.91 15.97-1.38 24.16"/>
            <path stroke="#000" d="m225.72-119.4-4.07 9.78-2.92-10.18z"/>
        </g>
        <g class="edge">
            <title>:core:domain-&gt;:core:data-api</title>
            <path fill="none" stroke="#000" d="M87.37-143.7c-1.37 7.38-3 16.18-4.54 24.45"/>
            <path stroke="#000" d="m86.31-118.79-5.27 9.2-1.62-10.47z"/>
        </g>
        <g class="edge">
            <title>:feature:ui-setting-&gt;:core:common-android</title>
            <path fill="none" stroke="red" stroke-width="2" d="M372.5-218.83c33.22 10.71 79.14 25.53 115.34 37.2"/>
            <path fill="red" stroke="red" stroke-width="2" d="m487.41-185.44 8.44 6.4-10.59.26z"/>
        </g>
        <g class="edge">
            <title>:feature:ui-setting-&gt;:core:data</title>
            <path fill="none" stroke="#000" d="M304.2-216.59c-14.32 9.64-32.57 21.93-47.99 32.3"/>
            <path stroke="#000" d="m258.55-181.64-10.25 2.68 6.34-8.49z"/>
        </g>
        <g class="edge">
            <title>:feature:ui-setting-&gt;:core:navigation</title>
            <path fill="none" stroke="#000" d="M336.5-215.7c3.48 7.63 7.67 16.78 11.56 25.3"/>
            <path stroke="#000" d="m351.16-192.03.98 10.55-7.34-7.64z"/>
        </g>
        <g class="node">
            <title>:core:component</title>
            <ellipse cx="752.59" cy="-18" fill="none" stroke="#000" rx="73.36" ry="18"/>
            <text xml:space="preserve" x="752.59" y="-12.95" font-family="Times,serif" font-size="14" text-anchor="middle">:core:component</text>
        </g>
        <g class="edge">
            <title>:core:compose-core-&gt;:core:component</title>
            <path fill="none" stroke="red" stroke-width="2" d="M752.59-71.7v24.16"/>
            <path fill="red" stroke="red" stroke-width="2" d="m756.09-49.13-3.5 10-3.5-10z"/>
        </g>
        <g class="edge">
            <title>:core:data-api-&gt;:core:model</title>
            <path fill="none" stroke="#000" d="M77.59-71.7v24.16"/>
            <path stroke="#000" d="m81.09-47.62-3.5 10-3.5-10z"/>
        </g>
        <g class="edge">
            <title>:core:database-&gt;:shared</title>
            <path fill="none" stroke="#000" d="M241.93-72.76c12.59 9.58 28.68 21.82 42.33 32.21"/>
            <path stroke="#000" d="m286.2-43.47 5.84 8.84-10.08-3.27z"/>
        </g>
        <g class="edge">
            <title>:core:database-&gt;:core:model</title>
            <path fill="none" stroke="#000" d="M189.56-73.81c-21.23 10.39-49.55 24.26-72.4 35.44"/>
            <path stroke="#000" d="m118.97-35.36-10.52 1.25 7.44-7.54z"/>
        </g>
    </g>
</svg>
