<svg xmlns="http://www.w3.org/2000/svg" width="419pt" height="188pt" viewBox="0 0 418.73 188">
    <g class="graph">
        <path fill="#fff" d="M0 188V0h418.73v188z"/>
        <g class="node" transform="translate(4 184)">
            <ellipse cx="206.63" cy="-162" fill="none" stroke="#000" rx="47.26" ry="18"/>
            <text x="206.63" y="-156.95" font-family="Times,serif" font-size="14" text-anchor="middle">:core:data</text>
        </g>
        <g class="node" transform="translate(4 184)">
            <ellipse cx="63.63" cy="-90" fill="none" stroke="#000" rx="63.63" ry="18"/>
            <text x="63.63" y="-84.95" font-family="Times,serif" font-size="14" text-anchor="middle">:core:database</text>
        </g>
        <g stroke="red" stroke-width="2" class="edge">
            <path fill="none" d="M182.38 36.83c-21.06 10.31-50.13 24.54-73.74 36.1"/>
            <path fill="red" d="m111.79 75.28-10.52 1.25 7.45-7.54z"/>
        </g>
        <g class="node" transform="translate(4 184)">
            <ellipse cx="206.63" cy="-90" fill="none" stroke="#000" rx="61.59" ry="18"/>
            <text x="206.63" y="-84.95" font-family="Times,serif" font-size="14" text-anchor="middle">:core:data-api</text>
        </g>
        <g stroke="#000" class="edge">
            <path fill="none" d="M210.63 40.3v24.16"/>
            <path d="m214.13 64.38-3.5 10-3.5-10z"/>
        </g>
        <g class="node" transform="translate(4 184)">
            <ellipse cx="348.63" cy="-90" fill="none" stroke="#000" rx="62.1" ry="18"/>
            <text x="348.63" y="-84.95" font-family="Times,serif" font-size="14" text-anchor="middle">:core:network</text>
        </g>
        <g stroke="#000" class="edge">
            <path fill="none" d="M238.69 36.83c20.98 10.34 49.98 24.64 73.47 36.22"/>
            <path d="m313.4 69.76 7.42 7.56-10.51-1.28z"/>
        </g>
        <g class="node" transform="translate(4 184)">
            <ellipse cx="134.63" cy="-18" fill="none" stroke="#000" rx="55.45" ry="18"/>
            <text x="134.63" y="-12.95" font-family="Times,serif" font-size="14" text-anchor="middle">:core:model</text>
        </g>
        <g stroke="red" stroke-width="2" class="edge">
            <path fill="none" d="M84.46 111.59c8.75 8.63 19.63 19.35 29.33 28.91"/>
            <path fill="red" d="m115.11 136.89 4.66 9.51-9.57-4.52z"/>
        </g>
        <g stroke="#000" class="edge">
            <path fill="none" d="M193.57 111.59c-8.96 8.72-20.12 19.56-30.04 29.2"/>
            <path d="m166.27 143.01-9.61 4.46 4.73-9.48z"/>
        </g>
    </g>
</svg>
