<svg xmlns="http://www.w3.org/2000/svg" width="970pt" height="404pt" viewBox="0 0 970.33 404">
    <g class="graph">
        <path fill="#fff" d="M0 404V0h970.33v404z"/>
        <g class="node" transform="translate(4 400)">
            <ellipse cx="434" cy="-378" fill="none" stroke="#000" rx="65.68" ry="18"/>
            <text x="434" y="-372.95" font-family="Times,serif" font-size="14" text-anchor="middle">:app-my-grade</text>
        </g>
        <g class="node" transform="translate(4 400)">
            <ellipse cx="422" cy="-18" fill="none" stroke="#000" rx="65.17" ry="18"/>
            <text x="422" y="-12.95" font-family="Times,serif" font-size="14" text-anchor="middle">:core:common</text>
        </g>
        <g stroke="#000" class="edge">
            <path fill="none" d="M378.56 29.82C259.7 45.13 4 87.11 4 165v74c0 73.39 232.15 116.03 352.08 133.16"/>
            <path d="m356.41 368.67 9.41 4.86-10.39 2.07z"/>
        </g>
        <g class="node" transform="translate(4 400)">
            <ellipse cx="310" cy="-234" fill="none" stroke="#000" rx="96.39" ry="18"/>
            <text x="310" y="-228.95" font-family="Times,serif" font-size="14" text-anchor="middle">:core:common-android</text>
        </g>
        <g stroke="#000" class="edge">
            <path fill="none" d="M423.29 39.85c-21.51 24.63-61.72 70.68-86.91 99.52"/>
            <path d="m339.29 141.36-9.22 5.23 3.95-9.83z"/>
        </g>
        <g class="node" transform="translate(4 400)">
            <ellipse cx="112" cy="-234" fill="none" stroke="#000" rx="84.11" ry="18"/>
            <text x="112" y="-228.95" font-family="Times,serif" font-size="14" text-anchor="middle">:core:compose-core</text>
        </g>
        <g stroke="#000" class="edge">
            <path fill="none" d="M404.45 37.79c-57.98 25.57-177.01 78.07-242.59 106.99"/>
            <path d="m163.37 147.93-10.56.84 7.74-7.24z"/>
        </g>
        <g class="node" transform="translate(4 400)">
            <ellipse cx="671" cy="-162" fill="none" stroke="#000" rx="47.26" ry="18"/>
            <text x="671" y="-156.95" font-family="Times,serif" font-size="14" text-anchor="middle">:core:data</text>
        </g>
        <g stroke="#000" class="edge">
            <path fill="none" d="M496.1 30.82C603.53 46.64 826.23 86.29 869 148c36.89 53.23-67.01 75.26-136.66 83.88"/>
            <path d="m732.9 235.34-10.34-2.32 9.53-4.63z"/>
        </g>
        <g class="node" transform="translate(4 400)">
            <ellipse cx="785" cy="-234" fill="none" stroke="#000" rx="70.8" ry="18"/>
            <text x="785" y="-228.95" font-family="Times,serif" font-size="14" text-anchor="middle">:core:navigation</text>
        </g>
        <g stroke="#000" class="edge">
            <path fill="none" d="M488.39 33.8C527.07 42.89 581.42 57.37 627 76c45.7 18.67 94.98 47.05 127.03 66.72"/>
            <path d="m755.87 139.73 6.65 8.25-10.34-2.3z"/>
        </g>
        <g class="node" transform="translate(4 400)">
            <ellipse cx="434" cy="-162" fill="none" stroke="#000" rx="37.53" ry="18"/>
            <text x="434" y="-156.95" font-family="Times,serif" font-size="14" text-anchor="middle">:shared</text>
        </g>
        <g stroke="#000" class="edge">
            <path fill="none" d="M438 40.15v168.32"/>
            <path d="m441.5 208.25-3.5 10-3.5-10z"/>
        </g>
        <g class="node" transform="translate(4 400)">
            <ellipse cx="538" cy="-306" fill="none" stroke="#000" rx="76.43" ry="18"/>
            <text x="538" y="-300.95" font-family="Times,serif" font-size="14" text-anchor="middle">:feature:ui-setting</text>
        </g>
        <g stroke="red" stroke-width="2" class="edge">
            <path fill="none" d="M461.86 39.06c13.68 9.2 31.07 20.91 46.15 31.06"/>
            <path fill="red" d="m508.68 66.35 6.34 8.49-10.25-2.68z"/>
        </g>
        <g stroke="#000" class="edge">
            <path fill="none" d="M322.98 184.15c19.37 37.02 65.24 124.67 88.69 169.46"/>
            <path d="m414.74 351.94 1.54 10.49-7.74-7.24z"/>
        </g>
        <g stroke="#000" class="edge">
            <path fill="none" d="M343.39 183.59c18.33 10.35 41.98 23.7 61.05 34.47"/>
            <path d="m405.92 214.87 6.98 7.96-10.42-1.87z"/>
        </g>
        <g stroke="#000" class="edge">
            <path fill="none" d="M140.07 183.61c55.09 38.04 190.44 131.47 253.1 174.73"/>
            <path d="m395.1 355.41 6.24 8.57-10.22-2.8z"/>
        </g>
        <g stroke="#000" class="edge">
            <path fill="none" d="M636.71 248.92C606.48 257.69 563.9 272.18 530 292c-4.28 2.5-47.11 39.5-76.45 65"/>
            <path d="m455.92 359.58-9.85 3.92 5.25-9.2z"/>
        </g>
        <g class="node" transform="translate(4 400)">
            <ellipse cx="741" cy="-90" fill="none" stroke="#000" rx="63.63" ry="18"/>
            <text x="741" y="-84.95" font-family="Times,serif" font-size="14" text-anchor="middle">:core:database</text>
        </g>
        <g stroke="red" stroke-width="2" class="edge">
            <path fill="none" d="m691.24 255.24 29.03 29.03"/>
            <path fill="red" d="m721.63 280.68 4.6 9.55-9.55-4.6z"/>
        </g>
        <g class="node" transform="translate(4 400)">
            <ellipse cx="884" cy="-90" fill="none" stroke="#000" rx="61.59" ry="18"/>
            <text x="884" y="-84.95" font-family="Times,serif" font-size="14" text-anchor="middle">:core:data-api</text>
        </g>
        <g stroke="#000" class="edge">
            <path fill="none" d="M709.7 250.4c34.69 11.41 88.42 29.06 127.83 42.01"/>
            <path d="m838.4 289.01 8.4 6.45-10.59.2z"/>
        </g>
        <g class="node" transform="translate(4 400)">
            <ellipse cx="812" cy="-18" fill="none" stroke="#000" rx="55.45" ry="18"/>
            <text x="812" y="-12.95" font-family="Times,serif" font-size="14" text-anchor="middle">:core:model</text>
        </g>
        <g stroke="#000" class="edge">
            <path fill="none" d="M722.17 240.76c72.8 3.83 207.27 15.65 236.83 51.24 10.22 12.31 9.14 22.87 0 36-17.9 25.73-49.82 38.99-78.97 45.82"/>
            <path d="m881.01 377.19-10.5-1.36 9.06-5.49z"/>
        </g>
        <g class="node" transform="translate(4 400)">
            <ellipse cx="597" cy="-90" fill="none" stroke="#000" rx="62.1" ry="18"/>
            <text x="597" y="-84.95" font-family="Times,serif" font-size="14" text-anchor="middle">:core:network</text>
        </g>
        <g stroke="#000" class="edge">
            <path fill="none" d="M657.84 255.24c-9.21 8.7-20.74 19.61-31.01 29.33"/>
            <path d="m629.35 287-9.67 4.33 4.86-9.42z"/>
        </g>
        <g stroke="#000" class="edge">
            <path fill="none" d="M536.56 112.13C527.02 141.79 506.23 204.45 485 256c-14.09 34.21-32.61 72.56-45.11 97.65"/>
            <path d="m443.06 355.13-7.61 7.37 1.35-10.5z"/>
        </g>
        <g stroke="#000" class="edge">
            <path fill="none" d="m496.68 108.91-123.34 37.87"/>
            <path d="m374.82 149.99-10.59-.41 8.53-6.28z"/>
        </g>
        <g stroke="#000" class="edge">
            <path fill="none" d="M479.02 104.58C412 114.88 302.91 131.95 209 148c-6.43 1.1-13.1 2.27-19.78 3.45"/>
            <path d="m189.95 154.88-10.46-1.68 9.22-5.21z"/>
        </g>
        <g stroke="#000" class="edge">
            <path fill="none" d="M543.68 112.31c2.72 19.47 9.69 51.06 27.32 71.69 14.84 17.37 36.78 29.72 56.69 38.1"/>
            <path d="m628.75 218.76 8.02 6.92-10.59-.41z"/>
        </g>
        <g stroke="#000" class="edge">
            <path fill="none" d="M589.62 108.5c40.76 11.55 99.5 28.19 142.67 40.43"/>
            <path d="m733.07 145.51 8.67 6.1-10.58.64z"/>
        </g>
        <g stroke="#000" class="edge">
            <path fill="none" d="M528.11 111.98c-8.32 10.3-19 23.77-28.11 36.02-15.47 20.81-32.24 44.99-44.44 62.89"/>
            <path d="m458.49 212.82-8.51 6.31 2.71-10.24z"/>
        </g>
        <g class="node" transform="translate(4 400)">
            <ellipse cx="636" cy="-234" fill="none" stroke="#000" rx="60.05" ry="18"/>
            <text x="636" y="-228.95" font-family="Times,serif" font-size="14" text-anchor="middle">:core:domain</text>
        </g>
        <g stroke="red" stroke-width="2" class="edge">
            <path fill="none" d="M565.22 111.59c12.88 9.2 29.08 20.77 43.1 30.78"/>
            <path fill="red" d="m609.05 138.59 6.1 8.66-10.17-2.96z"/>
        </g>
        <g stroke="red" stroke-width="2" class="edge">
            <path fill="none" d="M761.83 327.59c8.75 8.63 19.62 19.35 29.32 28.91"/>
            <path fill="red" d="m792.48 352.89 4.66 9.51-9.58-4.52z"/>
        </g>
        <g stroke="#000" class="edge">
            <path fill="none" d="M870.94 327.59c-8.97 8.72-20.13 19.56-30.04 29.2"/>
            <path d="m843.64 359.01-9.61 4.46 4.73-9.48z"/>
        </g>
        <g stroke="#000" class="edge">
            <path fill="none" d="M565.59 325.17c-26.87 10.74-64.03 25.61-93.25 37.3"/>
            <path d="m473.95 365.59-10.58.46 7.98-6.96z"/>
        </g>
        <g stroke="#000" class="edge">
            <path fill="none" d="M641.19 324.08c35.62 11.6 87.74 28.57 125.79 40.96"/>
            <path d="m767.95 361.68 8.43 6.42-10.6.23z"/>
        </g>
        <g stroke="red" stroke-width="2" class="edge">
            <path fill="none" d="M648.65 184.3c3.82 7.63 8.39 16.78 12.65 25.3"/>
            <path fill="red" d="m663.75 206.68 1.34 10.51-7.6-7.38z"/>
        </g>
    </g>
</svg>
