<svg xmlns="http://www.w3.org/2000/svg" width="1128" height="332pt" viewBox="0 0 846.27 332">
    <g class="graph">
        <path fill="#fff" d="M0 332V0h846.27v332z"/>
        <g class="node" transform="translate(4 328)">
            <ellipse cx="528.17" cy="-306" fill="none" stroke="#000" rx="65.68" ry="18"/>
            <text x="528.17" y="-300.95" font-family="Times,serif" font-size="14" text-anchor="middle">:app-my-grade</text>
        </g>
        <g class="node" transform="translate(4 328)">
            <ellipse cx="350.17" cy="-162" fill="none" stroke="#000" rx="96.39" ry="18"/>
            <text x="350.17" y="-156.95" font-family="Times,serif" font-size="14" text-anchor="middle">:core:common-android</text>
        </g>
        <g stroke="#000" class="edge">
            <path fill="none" d="M499.83 37.87C480.69 47.43 456.5 60.86 437.17 76c-23.73 18.59-46.78 44.1-62.55 63.04"/>
            <path d="m377.49 141.06-9.04 5.52 3.62-9.95z"/>
        </g>
        <g class="node" transform="translate(4 328)">
            <ellipse cx="512.17" cy="-162" fill="none" stroke="#000" rx="47.26" ry="18"/>
            <text x="512.17" y="-156.95" font-family="Times,serif" font-size="14" text-anchor="middle">:core:data</text>
        </g>
        <g stroke="#000" class="edge">
            <path fill="none" d="M493.38 36.96c-17.42 8.43-36.25 21.1-46.21 39.04-7.76 13.99-7.07 21.65 0 36 6.69 13.58 18.72 24.65 30.88 33.09"/>
            <path d="m479.92 142.14 6.53 8.34-10.31-2.45z"/>
        </g>
        <g class="node" transform="translate(4 328)">
            <ellipse cx="648.17" cy="-162" fill="none" stroke="#000" rx="70.8" ry="18"/>
            <text x="648.17" y="-156.95" font-family="Times,serif" font-size="14" text-anchor="middle">:core:navigation</text>
        </g>
        <g stroke="#000" class="edge">
            <path fill="none" d="M566.08 37.74c17.25 8.94 37.41 21.82 51.09 38.26 14.53 17.46 23.53 41.68 28.75 60.45"/>
            <path d="m649.31 135.57-.91 10.55-5.87-8.82z"/>
        </g>
        <g class="node" transform="translate(4 328)">
            <ellipse cx="528.17" cy="-234" fill="none" stroke="#000" rx="76.43" ry="18"/>
            <text x="528.17" y="-228.95" font-family="Times,serif" font-size="14" text-anchor="middle">:feature:ui-setting</text>
        </g>
        <g stroke="red" stroke-width="2" class="edge">
            <path fill="none" d="M532.17 40.3v24.16"/>
            <path fill="red" d="m535.67 62.87-3.5 10-3.5-10z"/>
        </g>
        <g class="node" transform="translate(4 328)">
            <ellipse cx="699.17" cy="-234" fill="none" stroke="#000" rx="38.56" ry="18"/>
            <text x="699.17" y="-228.95" font-family="Times,serif" font-size="14" text-anchor="middle">:widget</text>
        </g>
        <g stroke="#000" class="edge">
            <path fill="none" d="M567.6 37.5c28.19 11.54 67.6 27.68 96.66 39.57"/>
            <path d="m665.52 73.81 7.93 7.02-10.58-.55z"/>
        </g>
        <g class="node" transform="translate(4 328)">
            <ellipse cx="65.17" cy="-90" fill="none" stroke="#000" rx="65.17" ry="18"/>
            <text x="65.17" y="-84.95" font-family="Times,serif" font-size="14" text-anchor="middle">:core:common</text>
        </g>
        <g stroke="#000" class="edge">
            <path fill="none" d="M297.52 180.91c-49.2 12.09-120.16 29.52-169.89 41.73"/>
            <path d="m128.75 225.97-10.55-1.01 8.88-5.79z"/>
        </g>
        <g class="node" transform="translate(4 328)">
            <ellipse cx="232.17" cy="-90" fill="none" stroke="#000" rx="84.11" ry="18"/>
            <text x="232.17" y="-84.95" font-family="Times,serif" font-size="14" text-anchor="middle">:core:compose-core</text>
        </g>
        <g stroke="#000" class="edge">
            <path fill="none" d="M326.21 183.59c-15.73 9.33-35.56 21.09-52.61 31.21"/>
            <path d="m275.62 217.67-10.38 2.09 6.81-8.11z"/>
        </g>
        <g class="node" transform="translate(4 328)">
            <ellipse cx="372.17" cy="-90" fill="none" stroke="#000" rx="37.53" ry="18"/>
            <text x="372.17" y="-84.95" font-family="Times,serif" font-size="14" text-anchor="middle">:shared</text>
        </g>
        <g stroke="#000" class="edge">
            <path fill="none" d="M359.61 184.3c2.34 7.46 5.14 16.38 7.77 24.73"/>
            <path d="m370.68 207.86-.34 10.59-6.34-8.49z"/>
        </g>
        <g class="node" transform="translate(4 328)">
            <ellipse cx="491.17" cy="-90" fill="none" stroke="#000" rx="63.63" ry="18"/>
            <text x="491.17" y="-84.95" font-family="Times,serif" font-size="14" text-anchor="middle">:core:database</text>
        </g>
        <g stroke="red" stroke-width="2" class="edge">
            <path fill="none" d="M510.98 184.3c-2.24 7.46-4.91 16.38-7.42 24.73"/>
            <path fill="red" d="m507.4 208.42-6.23 8.58-.48-10.59z"/>
        </g>
        <g class="node" transform="translate(4 328)">
            <ellipse cx="634.17" cy="-90" fill="none" stroke="#000" rx="61.59" ry="18"/>
            <text x="634.17" y="-84.95" font-family="Times,serif" font-size="14" text-anchor="middle">:core:data-api</text>
        </g>
        <g stroke="#000" class="edge">
            <path fill="none" d="M541.45 181.5c17.35 9.96 40.66 23.34 60.05 34.46"/>
            <path d="m602.99 212.78 6.93 8.01-10.42-1.94z"/>
        </g>
        <g class="node" transform="translate(4 328)">
            <ellipse cx="776.17" cy="-90" fill="none" stroke="#000" rx="62.1" ry="18"/>
            <text x="776.17" y="-84.95" font-family="Times,serif" font-size="14" text-anchor="middle">:core:network</text>
        </g>
        <g stroke="#000" class="edge">
            <path fill="none" d="M551.95 178.12c6.7 2.01 13.66 4.05 20.22 5.88 50.63 14.13 108.62 28.78 150.49 39.09"/>
            <path d="m723.4 219.67 8.88 5.78-10.55 1.01z"/>
        </g>
        <g stroke="#000" class="edge">
            <path fill="none" d="M493.98 110.02c-26.08 10.26-60.93 23.96-89.31 35.12"/>
            <path d="m406.14 148.32-10.59.41 8.03-6.92z"/>
        </g>
        <g stroke="red" stroke-width="2" class="edge">
            <path fill="none" d="M528.22 112.3c-1.69 7.38-3.7 16.18-5.59 24.45"/>
            <path fill="red" d="m526.39 135.98-5.64 8.96-1.18-10.52z"/>
        </g>
        <g stroke="#000" class="edge">
            <path fill="none" d="M560 111.24c16.48 9.61 37.54 21.89 55.38 32.3"/>
            <path d="m616.72 140.27 6.88 8.06-10.41-2.01z"/>
        </g>
        <g class="node" transform="translate(4 328)">
            <ellipse cx="562.17" cy="-18" fill="none" stroke="#000" rx="55.45" ry="18"/>
            <text x="562.17" y="-12.95" font-family="Times,serif" font-size="14" text-anchor="middle">:core:model</text>
        </g>
        <g stroke="red" stroke-width="2" class="edge">
            <path fill="none" d="M512 255.59c8.75 8.63 19.62 19.35 29.32 28.91"/>
            <path fill="red" d="m542.65 280.89 4.66 9.51-9.58-4.52z"/>
        </g>
        <g stroke="#000" class="edge">
            <path fill="none" d="M621.11 255.59c-8.97 8.72-20.13 19.56-30.04 29.2"/>
            <path d="m593.81 287.01-9.61 4.46 4.73-9.48z"/>
        </g>
    </g>
</svg>
