<?xml version="1.0" encoding="UTF-8" standalone="no"?>
<!DOCTYPE svg PUBLIC "-//W3C//DTD SVG 1.1//EN"
 "http://www.w3.org/Graphics/SVG/1.1/DTD/svg11.dtd">
<!-- Generated by graphviz version 10.0.1 (20240210.2158)
 -->
<!-- Title: G Pages: 1 -->
<svg width="792pt" height="404pt"
 viewBox="0.00 0.00 792.50 404.00" xmlns="http://www.w3.org/2000/svg" xmlns:xlink="http://www.w3.org/1999/xlink">
<g id="graph0" class="graph" transform="scale(1 1) rotate(0) translate(4 400)">
<title>G</title>
<polygon fill="white" stroke="none" points="-4,4 -4,-400 788.5,-400 788.5,4 -4,4"/>
<!-- :app&#45;my&#45;grade -->
<g id="node1" class="node">
<title>:app&#45;my&#45;grade</title>
<ellipse fill="none" stroke="black" cx="322" cy="-378" rx="65.68" ry="18"/>
<text text-anchor="middle" x="322" y="-372.95" font-family="Times,serif" font-size="14.00">:app&#45;my&#45;grade</text>
</g>
<!-- :core:common -->
<g id="node2" class="node">
<title>:core:common</title>
<ellipse fill="none" stroke="black" cx="397" cy="-18" rx="65.17" ry="18"/>
<text text-anchor="middle" x="397" y="-12.95" font-family="Times,serif" font-size="14.00">:core:common</text>
</g>
<!-- :app&#45;my&#45;grade&#45;&gt;:core:common -->
<g id="edge1" class="edge">
<title>:app&#45;my&#45;grade&#45;&gt;:core:common</title>
<path fill="none" stroke="black" d="M256.45,-376.12C162.3,-370.99 0,-346.04 0,-235 0,-235 0,-235 0,-161 0,-92 215.3,-47.62 328.8,-29.01"/>
<polygon fill="black" stroke="black" points="329.31,-32.48 338.63,-27.43 328.2,-25.57 329.31,-32.48"/>
</g>
<!-- :core:common&#45;android -->
<g id="node3" class="node">
<title>:core:common&#45;android</title>
<ellipse fill="none" stroke="black" cx="124" cy="-234" rx="96.39" ry="18"/>
<text text-anchor="middle" x="124" y="-228.95" font-family="Times,serif" font-size="14.00">:core:common&#45;android</text>
</g>
<!-- :app&#45;my&#45;grade&#45;&gt;:core:common&#45;android -->
<g id="edge2" class="edge">
<title>:app&#45;my&#45;grade&#45;&gt;:core:common&#45;android</title>
<path fill="none" stroke="black" d="M299.29,-360.71C264.21,-335.55 196.71,-287.15 156.48,-258.3"/>
<polygon fill="black" stroke="black" points="158.76,-255.62 148.6,-252.64 154.68,-261.31 158.76,-255.62"/>
</g>
<!-- :core:compose&#45;core -->
<g id="node4" class="node">
<title>:core:compose&#45;core</title>
<ellipse fill="none" stroke="black" cx="322" cy="-234" rx="84.11" ry="18"/>
<text text-anchor="middle" x="322" y="-228.95" font-family="Times,serif" font-size="14.00">:core:compose&#45;core</text>
</g>
<!-- :app&#45;my&#45;grade&#45;&gt;:core:compose&#45;core -->
<g id="edge3" class="edge">
<title>:app&#45;my&#45;grade&#45;&gt;:core:compose&#45;core</title>
<path fill="none" stroke="black" d="M322,-359.59C322,-335.61 322,-292.14 322,-263.42"/>
<polygon fill="black" stroke="black" points="325.5,-263.62 322,-253.62 318.5,-263.62 325.5,-263.62"/>
</g>
<!-- :core:data -->
<g id="node5" class="node">
<title>:core:data</title>
<ellipse fill="none" stroke="black" cx="704" cy="-162" rx="47.26" ry="18"/>
<text text-anchor="middle" x="704" y="-156.95" font-family="Times,serif" font-size="14.00">:core:data</text>
</g>
<!-- :app&#45;my&#45;grade&#45;&gt;:core:data -->
<g id="edge4" class="edge">
<title>:app&#45;my&#45;grade&#45;&gt;:core:data</title>
<path fill="none" stroke="black" d="M376.67,-367.66C473.85,-349.78 670.03,-307.53 708,-252 720.07,-234.34 717.94,-209.79 713.42,-190.94"/>
<polygon fill="black" stroke="black" points="716.85,-190.22 710.81,-181.52 710.1,-192.09 716.85,-190.22"/>
</g>
<!-- :features:ui&#45;setting -->
<g id="node6" class="node">
<title>:features:ui&#45;setting</title>
<ellipse fill="none" stroke="black" cx="434" cy="-306" rx="80.01" ry="18"/>
<text text-anchor="middle" x="434" y="-300.95" font-family="Times,serif" font-size="14.00">:features:ui&#45;setting</text>
</g>
<!-- :app&#45;my&#45;grade&#45;&gt;:features:ui&#45;setting -->
<g id="edge5" class="edge">
<title>:app&#45;my&#45;grade&#45;&gt;:features:ui&#45;setting</title>
<path fill="none" stroke="red" stroke-width="2" d="M347.41,-361.12C362.52,-351.67 381.91,-339.56 398.51,-329.18"/>
<polygon fill="red" stroke="red" stroke-width="2" points="398.72,-333.18 405.34,-324.91 395.01,-327.24 398.72,-333.18"/>
</g>
<!-- :core:common&#45;android&#45;&gt;:core:common -->
<g id="edge6" class="edge">
<title>:core:common&#45;android&#45;&gt;:core:common</title>
<path fill="none" stroke="black" d="M145.42,-216.21C193.78,-178.3 311.52,-86 367.06,-42.47"/>
<polygon fill="black" stroke="black" points="369.15,-45.28 374.86,-36.35 364.83,-39.77 369.15,-45.28"/>
</g>
<!-- :core:compose&#45;core&#45;&gt;:core:common -->
<g id="edge7" class="edge">
<title>:core:compose&#45;core&#45;&gt;:core:common</title>
<path fill="none" stroke="black" d="M328.01,-215.85C340.93,-178.99 371.44,-91.92 387.2,-46.96"/>
<polygon fill="black" stroke="black" points="390.46,-48.26 390.46,-37.66 383.85,-45.94 390.46,-48.26"/>
</g>
<!-- :core:data&#45;&gt;:core:common -->
<g id="edge8" class="edge">
<title>:core:data&#45;&gt;:core:common</title>
<path fill="none" stroke="black" d="M658.75,-156.53C613.88,-150.58 544.31,-137.19 491,-108 475.29,-99.4 442.69,-66.99 420.33,-43.77"/>
<polygon fill="black" stroke="black" points="423.09,-41.59 413.65,-36.78 418.03,-46.43 423.09,-41.59"/>
</g>
<!-- :core:database -->
<g id="node7" class="node">
<title>:core:database</title>
<ellipse fill="none" stroke="black" cx="706" cy="-90" rx="63.63" ry="18"/>
<text text-anchor="middle" x="706" y="-84.95" font-family="Times,serif" font-size="14.00">:core:database</text>
</g>
<!-- :core:data&#45;&gt;:core:database -->
<g id="edge9" class="edge">
<title>:core:data&#45;&gt;:core:database</title>
<path fill="none" stroke="red" stroke-width="2" d="M704.49,-143.7C704.7,-136.41 704.95,-127.73 705.18,-119.54"/>
<polygon fill="red" stroke="red" stroke-width="2" points="708.64,-121.23 705.42,-111.13 701.64,-121.03 708.64,-121.23"/>
</g>
<!-- :core:model -->
<g id="node8" class="node">
<title>:core:model</title>
<ellipse fill="none" stroke="black" cx="706" cy="-18" rx="55.45" ry="18"/>
<text text-anchor="middle" x="706" y="-12.95" font-family="Times,serif" font-size="14.00">:core:model</text>
</g>
<!-- :core:data&#45;&gt;:core:model -->
<g id="edge10" class="edge">
<title>:core:data&#45;&gt;:core:model</title>
<path fill="none" stroke="black" d="M734.85,-147.89C751.16,-139.17 769.69,-125.98 779,-108 786.36,-93.79 786.27,-86.25 779,-72 772.03,-58.32 759.69,-47.35 747.13,-39.02"/>
<polygon fill="black" stroke="black" points="749.2,-36.18 738.84,-33.95 745.55,-42.15 749.2,-36.18"/>
</g>
<!-- :core:network -->
<g id="node9" class="node">
<title>:core:network</title>
<ellipse fill="none" stroke="black" cx="562" cy="-90" rx="62.1" ry="18"/>
<text text-anchor="middle" x="562" y="-84.95" font-family="Times,serif" font-size="14.00">:core:network</text>
</g>
<!-- :core:data&#45;&gt;:core:network -->
<g id="edge11" class="edge">
<title>:core:data&#45;&gt;:core:network</title>
<path fill="none" stroke="black" d="M675.95,-147.17C654.96,-136.83 625.97,-122.53 602.48,-110.95"/>
<polygon fill="black" stroke="black" points="604.33,-107.96 593.81,-106.68 601.23,-114.24 604.33,-107.96"/>
</g>
<!-- :features:ui&#45;setting&#45;&gt;:core:common -->
<g id="edge15" class="edge">
<title>:features:ui&#45;setting&#45;&gt;:core:common</title>
<path fill="none" stroke="black" d="M431.74,-287.54C425.56,-239.76 408.32,-106.51 400.7,-47.61"/>
<polygon fill="black" stroke="black" points="404.18,-47.2 399.42,-37.73 397.24,-48.1 404.18,-47.2"/>
</g>
<!-- :features:ui&#45;setting&#45;&gt;:core:common&#45;android -->
<g id="edge16" class="edge">
<title>:features:ui&#45;setting&#45;&gt;:core:common&#45;android</title>
<path fill="none" stroke="black" d="M378.94,-292.57C327.55,-280.96 250.63,-263.59 194.73,-250.97"/>
<polygon fill="black" stroke="black" points="195.84,-247.63 185.32,-248.85 194.3,-254.46 195.84,-247.63"/>
</g>
<!-- :features:ui&#45;setting&#45;&gt;:core:compose&#45;core -->
<g id="edge17" class="edge">
<title>:features:ui&#45;setting&#45;&gt;:core:compose&#45;core</title>
<path fill="none" stroke="black" d="M407.74,-288.59C392.96,-279.35 374.29,-267.68 358.15,-257.59"/>
<polygon fill="black" stroke="black" points="360.1,-254.69 349.77,-252.35 356.39,-260.62 360.1,-254.69"/>
</g>
<!-- :features:ui&#45;setting&#45;&gt;:core:data -->
<g id="edge18" class="edge">
<title>:features:ui&#45;setting&#45;&gt;:core:data</title>
<path fill="none" stroke="black" d="M507.1,-298.36C572.02,-290.94 660.33,-276.62 685,-252 700.65,-236.38 704.87,-211.24 705.48,-191.66"/>
<polygon fill="black" stroke="black" points="708.98,-191.82 705.46,-181.83 701.98,-191.84 708.98,-191.82"/>
</g>
<!-- :core:domain -->
<g id="node10" class="node">
<title>:core:domain</title>
<ellipse fill="none" stroke="black" cx="616" cy="-234" rx="60.05" ry="18"/>
<text text-anchor="middle" x="616" y="-228.95" font-family="Times,serif" font-size="14.00">:core:domain</text>
</g>
<!-- :features:ui&#45;setting&#45;&gt;:core:domain -->
<g id="edge19" class="edge">
<title>:features:ui&#45;setting&#45;&gt;:core:domain</title>
<path fill="none" stroke="red" stroke-width="2" d="M473.04,-289.98C501.32,-279.11 539.67,-264.36 569.53,-252.87"/>
<polygon fill="red" stroke="red" stroke-width="2" points="569.21,-256.75 577.29,-249.89 566.7,-250.21 569.21,-256.75"/>
</g>
<!-- :shared -->
<g id="node11" class="node">
<title>:shared</title>
<ellipse fill="none" stroke="black" cx="500" cy="-234" rx="37.53" ry="18"/>
<text text-anchor="middle" x="500" y="-228.95" font-family="Times,serif" font-size="14.00">:shared</text>
</g>
<!-- :features:ui&#45;setting&#45;&gt;:shared -->
<g id="edge20" class="edge">
<title>:features:ui&#45;setting&#45;&gt;:shared</title>
<path fill="none" stroke="black" d="M449.98,-288.05C458.16,-279.38 468.25,-268.67 477.23,-259.15"/>
<polygon fill="black" stroke="black" points="479.72,-261.61 484.04,-251.93 474.63,-256.81 479.72,-261.61"/>
</g>
<!-- :core:database&#45;&gt;:core:model -->
<g id="edge12" class="edge">
<title>:core:database&#45;&gt;:core:model</title>
<path fill="none" stroke="red" stroke-width="2" d="M706,-71.7C706,-64.41 706,-55.73 706,-47.54"/>
<polygon fill="red" stroke="red" stroke-width="2" points="709.5,-49.13 706,-39.13 702.5,-49.13 709.5,-49.13"/>
</g>
<!-- :core:network&#45;&gt;:core:common -->
<g id="edge13" class="edge">
<title>:core:network&#45;&gt;:core:common</title>
<path fill="none" stroke="black" d="M528.21,-74.67C503.32,-64.11 469.22,-49.64 442.02,-38.1"/>
<polygon fill="black" stroke="black" points="443.56,-34.95 432.99,-34.27 440.83,-41.4 443.56,-34.95"/>
</g>
<!-- :core:network&#45;&gt;:core:model -->
<g id="edge14" class="edge">
<title>:core:network&#45;&gt;:core:model</title>
<path fill="none" stroke="black" d="M592.89,-73.98C614.25,-63.6 642.86,-49.69 665.96,-38.46"/>
<polygon fill="black" stroke="black" points="667.32,-41.69 674.78,-34.17 664.26,-35.4 667.32,-41.69"/>
</g>
<!-- :core:domain&#45;&gt;:core:data -->
<g id="edge21" class="edge">
<title>:core:domain&#45;&gt;:core:data</title>
<path fill="none" stroke="red" stroke-width="2" d="M636.41,-216.76C648.01,-207.53 662.72,-195.83 675.46,-185.7"/>
<polygon fill="red" stroke="red" stroke-width="2" points="676.29,-189.51 681.94,-180.55 671.93,-184.04 676.29,-189.51"/>
</g>
</g>
</svg>
