<?xml version="1.0" encoding="UTF-8" standalone="no"?>
<!DOCTYPE svg PUBLIC "-//W3C//DTD SVG 1.1//EN"
 "http://www.w3.org/Graphics/SVG/1.1/DTD/svg11.dtd">
<!-- Generated by graphviz version 12.0.0 (20240704.0754)
 -->
<!-- Title: G Pages: 1 -->
<svg width="744pt" height="404pt"
 viewBox="0.00 0.00 743.63 404.00" xmlns="http://www.w3.org/2000/svg" xmlns:xlink="http://www.w3.org/1999/xlink">
<g id="graph0" class="graph" transform="scale(1 1) rotate(0) translate(4 400)">
<title>G</title>
<polygon fill="white" stroke="none" points="-4,4 -4,-400 739.63,-400 739.63,4 -4,4"/>
<!-- :app&#45;my&#45;grade -->
<g id="node1" class="node">
<title>:app&#45;my&#45;grade</title>
<ellipse fill="none" stroke="black" cx="270" cy="-378" rx="65.68" ry="18"/>
<text text-anchor="middle" x="270" y="-372.95" font-family="Times,serif" font-size="14.00">:app&#45;my&#45;grade</text>
</g>
<!-- :core:common -->
<g id="node2" class="node">
<title>:core:common</title>
<ellipse fill="none" stroke="black" cx="343" cy="-18" rx="65.17" ry="18"/>
<text text-anchor="middle" x="343" y="-12.95" font-family="Times,serif" font-size="14.00">:core:common</text>
</g>
<!-- :app&#45;my&#45;grade&#45;&gt;:core:common -->
<g id="edge1" class="edge">
<title>:app&#45;my&#45;grade&#45;&gt;:core:common</title>
<path fill="none" stroke="black" d="M208.39,-371.51C128.71,-360.65 0,-328.61 0,-235 0,-235 0,-235 0,-161 0,-101.04 181.22,-53.22 280.21,-31.57"/>
<polygon fill="black" stroke="black" points="280.76,-35.04 289.8,-29.51 279.29,-28.19 280.76,-35.04"/>
</g>
<!-- :core:common&#45;android -->
<g id="node3" class="node">
<title>:core:common&#45;android</title>
<ellipse fill="none" stroke="black" cx="162" cy="-234" rx="96.39" ry="18"/>
<text text-anchor="middle" x="162" y="-228.95" font-family="Times,serif" font-size="14.00">:core:common&#45;android</text>
</g>
<!-- :app&#45;my&#45;grade&#45;&gt;:core:common&#45;android -->
<g id="edge2" class="edge">
<title>:app&#45;my&#45;grade&#45;&gt;:core:common&#45;android</title>
<path fill="none" stroke="black" d="M256.97,-359.87C238.32,-335.35 203.86,-290.03 181.97,-261.26"/>
<polygon fill="black" stroke="black" points="184.83,-259.23 175.99,-253.39 179.26,-263.47 184.83,-259.23"/>
</g>
<!-- :core:compose&#45;core -->
<g id="node4" class="node">
<title>:core:compose&#45;core</title>
<ellipse fill="none" stroke="black" cx="474" cy="-234" rx="84.11" ry="18"/>
<text text-anchor="middle" x="474" y="-228.95" font-family="Times,serif" font-size="14.00">:core:compose&#45;core</text>
</g>
<!-- :app&#45;my&#45;grade&#45;&gt;:core:compose&#45;core -->
<g id="edge3" class="edge">
<title>:app&#45;my&#45;grade&#45;&gt;:core:compose&#45;core</title>
<path fill="none" stroke="black" d="M320.78,-366.32C349.97,-358.3 386.07,-345.01 413,-324 434.06,-307.57 450.59,-281.83 461.09,-262.25"/>
<polygon fill="black" stroke="black" points="464.16,-263.95 465.61,-253.45 457.93,-260.75 464.16,-263.95"/>
</g>
<!-- :core:data -->
<g id="node5" class="node">
<title>:core:data</title>
<ellipse fill="none" stroke="black" cx="580" cy="-162" rx="47.26" ry="18"/>
<text text-anchor="middle" x="580" y="-156.95" font-family="Times,serif" font-size="14.00">:core:data</text>
</g>
<!-- :app&#45;my&#45;grade&#45;&gt;:core:data -->
<g id="edge4" class="edge">
<title>:app&#45;my&#45;grade&#45;&gt;:core:data</title>
<path fill="none" stroke="black" d="M327.78,-369.02C435.31,-352.86 659.38,-312.57 705,-252 714.63,-239.22 713.83,-229.34 705,-216 689.29,-192.27 660.59,-179.13 634.65,-171.88"/>
<polygon fill="black" stroke="black" points="635.76,-168.55 625.21,-169.49 634.04,-175.34 635.76,-168.55"/>
</g>
<!-- :shared -->
<g id="node6" class="node">
<title>:shared</title>
<ellipse fill="none" stroke="black" cx="162" cy="-162" rx="37.53" ry="18"/>
<text text-anchor="middle" x="162" y="-156.95" font-family="Times,serif" font-size="14.00">:shared</text>
</g>
<!-- :app&#45;my&#45;grade&#45;&gt;:shared -->
<g id="edge5" class="edge">
<title>:app&#45;my&#45;grade&#45;&gt;:shared</title>
<path fill="none" stroke="black" d="M224.03,-364.86C172.86,-348.6 92.69,-314.32 57,-252 49.05,-238.12 48.61,-229.63 57,-216 70.18,-194.58 94.99,-181.5 117.19,-173.7"/>
<polygon fill="black" stroke="black" points="118.25,-177.03 126.7,-170.64 116.11,-170.37 118.25,-177.03"/>
</g>
<!-- :features:ui&#45;setting -->
<g id="node7" class="node">
<title>:features:ui&#45;setting</title>
<ellipse fill="none" stroke="black" cx="324" cy="-306" rx="80.01" ry="18"/>
<text text-anchor="middle" x="324" y="-300.95" font-family="Times,serif" font-size="14.00">:features:ui&#45;setting</text>
</g>
<!-- :app&#45;my&#45;grade&#45;&gt;:features:ui&#45;setting -->
<g id="edge6" class="edge">
<title>:app&#45;my&#45;grade&#45;&gt;:features:ui&#45;setting</title>
<path fill="none" stroke="red" stroke-width="2" d="M283.07,-360.05C289.37,-351.89 297.07,-341.91 304.08,-332.82"/>
<polygon fill="red" stroke="red" stroke-width="2" points="305.86,-336.24 309.2,-326.19 300.32,-331.97 305.86,-336.24"/>
</g>
<!-- :core:common&#45;android&#45;&gt;:core:common -->
<g id="edge7" class="edge">
<title>:core:common&#45;android&#45;&gt;:core:common</title>
<path fill="none" stroke="black" d="M177.38,-215.93C186.62,-205.6 198.58,-192.13 209,-180 249.55,-132.8 295.76,-76.77 321.95,-44.8"/>
<polygon fill="black" stroke="black" points="324.51,-47.19 328.13,-37.24 319.09,-42.76 324.51,-47.19"/>
</g>
<!-- :core:common&#45;android&#45;&gt;:shared -->
<g id="edge8" class="edge">
<title>:core:common&#45;android&#45;&gt;:shared</title>
<path fill="none" stroke="black" d="M162,-215.7C162,-208.41 162,-199.73 162,-191.54"/>
<polygon fill="black" stroke="black" points="165.5,-191.62 162,-181.62 158.5,-191.62 165.5,-191.62"/>
</g>
<!-- :core:compose&#45;core&#45;&gt;:core:common -->
<g id="edge9" class="edge">
<title>:core:compose&#45;core&#45;&gt;:core:common</title>
<path fill="none" stroke="black" d="M458.09,-215.96C437.24,-192.93 400.57,-149.9 377,-108 366.16,-88.72 357.36,-65.3 351.44,-47.33"/>
<polygon fill="black" stroke="black" points="354.79,-46.31 348.43,-37.84 348.12,-48.43 354.79,-46.31"/>
</g>
<!-- :core:data&#45;&gt;:core:common -->
<g id="edge10" class="edge">
<title>:core:data&#45;&gt;:core:common</title>
<path fill="none" stroke="black" d="M537.52,-153.62C503.32,-146.19 455.16,-132.27 419,-108 394.61,-91.63 373.53,-65.37 359.8,-45.6"/>
<polygon fill="black" stroke="black" points="362.82,-43.82 354.33,-37.48 357.01,-47.73 362.82,-43.82"/>
</g>
<!-- :core:database -->
<g id="node8" class="node">
<title>:core:database</title>
<ellipse fill="none" stroke="black" cx="672" cy="-90" rx="63.63" ry="18"/>
<text text-anchor="middle" x="672" y="-84.95" font-family="Times,serif" font-size="14.00">:core:database</text>
</g>
<!-- :core:data&#45;&gt;:core:database -->
<g id="edge11" class="edge">
<title>:core:data&#45;&gt;:core:database</title>
<path fill="none" stroke="red" stroke-width="2" d="M600.42,-145.46C612.55,-136.24 628.16,-124.36 641.7,-114.05"/>
<polygon fill="red" stroke="red" stroke-width="2" points="642.43,-117.9 648.27,-109.05 638.19,-112.32 642.43,-117.9"/>
</g>
<!-- :core:model -->
<g id="node9" class="node">
<title>:core:model</title>
<ellipse fill="none" stroke="black" cx="580" cy="-18" rx="55.45" ry="18"/>
<text text-anchor="middle" x="580" y="-12.95" font-family="Times,serif" font-size="14.00">:core:model</text>
</g>
<!-- :core:data&#45;&gt;:core:model -->
<g id="edge12" class="edge">
<title>:core:data&#45;&gt;:core:model</title>
<path fill="none" stroke="black" d="M580,-143.59C580,-119.61 580,-76.14 580,-47.42"/>
<polygon fill="black" stroke="black" points="583.5,-47.62 580,-37.62 576.5,-47.62 583.5,-47.62"/>
</g>
<!-- :core:network -->
<g id="node10" class="node">
<title>:core:network</title>
<ellipse fill="none" stroke="black" cx="490" cy="-90" rx="62.1" ry="18"/>
<text text-anchor="middle" x="490" y="-84.95" font-family="Times,serif" font-size="14.00">:core:network</text>
</g>
<!-- :core:data&#45;&gt;:core:network -->
<g id="edge13" class="edge">
<title>:core:data&#45;&gt;:core:network</title>
<path fill="none" stroke="black" d="M560.03,-145.46C548.16,-136.24 532.89,-124.36 519.64,-114.05"/>
<polygon fill="black" stroke="black" points="522.09,-111.53 512.05,-108.15 517.8,-117.05 522.09,-111.53"/>
</g>
<!-- :features:ui&#45;setting&#45;&gt;:core:common -->
<g id="edge17" class="edge">
<title>:features:ui&#45;setting&#45;&gt;:core:common</title>
<path fill="none" stroke="black" d="M325.16,-287.54C328.33,-239.76 337.19,-106.51 341.1,-47.61"/>
<polygon fill="black" stroke="black" points="344.58,-47.95 341.75,-37.74 337.6,-47.49 344.58,-47.95"/>
</g>
<!-- :features:ui&#45;setting&#45;&gt;:core:common&#45;android -->
<g id="edge18" class="edge">
<title>:features:ui&#45;setting&#45;&gt;:core:common&#45;android</title>
<path fill="none" stroke="black" d="M288.05,-289.46C264.88,-279.46 234.51,-266.33 209.39,-255.48"/>
<polygon fill="black" stroke="black" points="210.93,-252.33 200.37,-251.58 208.16,-258.76 210.93,-252.33"/>
</g>
<!-- :features:ui&#45;setting&#45;&gt;:core:compose&#45;core -->
<g id="edge19" class="edge">
<title>:features:ui&#45;setting&#45;&gt;:core:compose&#45;core</title>
<path fill="none" stroke="black" d="M357.66,-289.29C378.94,-279.36 406.66,-266.42 429.71,-255.67"/>
<polygon fill="black" stroke="black" points="430.98,-258.94 438.56,-251.54 428.02,-252.6 430.98,-258.94"/>
</g>
<!-- :features:ui&#45;setting&#45;&gt;:core:data -->
<g id="edge20" class="edge">
<title>:features:ui&#45;setting&#45;&gt;:core:data</title>
<path fill="none" stroke="black" d="M330.45,-287.84C338.94,-267.61 355.81,-234.4 381,-216 422.39,-185.77 479.83,-172.78 522.36,-167.2"/>
<polygon fill="black" stroke="black" points="522.65,-170.69 532.16,-166.02 521.81,-163.74 522.65,-170.69"/>
</g>
<!-- :features:ui&#45;setting&#45;&gt;:shared -->
<g id="edge22" class="edge">
<title>:features:ui&#45;setting&#45;&gt;:shared</title>
<path fill="none" stroke="black" d="M316.37,-287.65C307.07,-268.15 289.75,-236.53 267,-216 248.41,-199.22 223.54,-186.36 202.67,-177.51"/>
<polygon fill="black" stroke="black" points="204.16,-174.33 193.58,-173.81 201.52,-180.82 204.16,-174.33"/>
</g>
<!-- :core:domain -->
<g id="node11" class="node">
<title>:core:domain</title>
<ellipse fill="none" stroke="black" cx="636" cy="-234" rx="60.05" ry="18"/>
<text text-anchor="middle" x="636" y="-228.95" font-family="Times,serif" font-size="14.00">:core:domain</text>
</g>
<!-- :features:ui&#45;setting&#45;&gt;:core:domain -->
<g id="edge21" class="edge">
<title>:features:ui&#45;setting&#45;&gt;:core:domain</title>
<path fill="none" stroke="red" stroke-width="2" d="M381.05,-293.01C430.36,-282.54 503.49,-266.75 567,-252 571.27,-251.01 575.69,-249.96 580.13,-248.9"/>
<polygon fill="red" stroke="red" stroke-width="2" points="579.29,-252.7 588.19,-246.95 577.65,-245.9 579.29,-252.7"/>
</g>
<!-- :core:database&#45;&gt;:core:model -->
<g id="edge14" class="edge">
<title>:core:database&#45;&gt;:core:model</title>
<path fill="none" stroke="red" stroke-width="2" d="M650.66,-72.76C638.5,-63.51 623.07,-51.77 609.74,-41.63"/>
<polygon fill="red" stroke="red" stroke-width="2" points="613.39,-40.01 603.31,-36.74 609.15,-45.58 613.39,-40.01"/>
</g>
<!-- :core:network&#45;&gt;:core:common -->
<g id="edge15" class="edge">
<title>:core:network&#45;&gt;:core:common</title>
<path fill="none" stroke="black" d="M458.83,-74.15C437.34,-63.92 408.53,-50.2 385.02,-39.01"/>
<polygon fill="black" stroke="black" points="386.54,-35.86 376,-34.72 383.53,-42.18 386.54,-35.86"/>
</g>
<!-- :core:network&#45;&gt;:core:model -->
<g id="edge16" class="edge">
<title>:core:network&#45;&gt;:core:model</title>
<path fill="none" stroke="black" d="M510.87,-72.76C522.57,-63.66 537.36,-52.16 550.26,-42.13"/>
<polygon fill="black" stroke="black" points="552.3,-44.98 558.04,-36.08 548,-39.45 552.3,-44.98"/>
</g>
<!-- :core:domain&#45;&gt;:core:data -->
<g id="edge23" class="edge">
<title>:core:domain&#45;&gt;:core:data</title>
<path fill="none" stroke="red" stroke-width="2" d="M622.44,-216.05C615.74,-207.68 607.52,-197.4 600.11,-188.13"/>
<polygon fill="red" stroke="red" stroke-width="2" points="603.92,-187.29 594.94,-181.67 598.45,-191.67 603.92,-187.29"/>
</g>
</g>
</svg>
