<svg xmlns="http://www.w3.org/2000/svg" width="1128" height="332pt" viewBox="0 0 846.21 332">
    <g class="graph">
        <path fill="#fff" d="M0 332V0h846.21v332z"/>
        <g class="node" transform="translate(4 328)">
            <ellipse cx="423.11" cy="-306" fill="none" stroke="#000" rx="65.68" ry="18"/>
            <text x="423.11" y="-300.95" font-family="Times,serif" font-size="14" text-anchor="middle">:app-my-grade</text>
        </g>
        <g class="node" transform="translate(4 328)">
            <ellipse cx="267.11" cy="-162" fill="none" stroke="#000" rx="96.39" ry="18"/>
            <text x="267.11" y="-156.95" font-family="Times,serif" font-size="14" text-anchor="middle">:core:common-android</text>
        </g>
        <g stroke="#000" class="edge">
            <path fill="none" d="M371.07 31.72c-28.19 7.24-60.61 20.41-80.96 44.28-14.2 16.65-18.59 41.32-19.64 60.47"/>
            <path d="m273.97 136.41-3.74 9.92-3.26-10.08z"/>
        </g>
        <g class="node" transform="translate(4 328)">
            <ellipse cx="84.11" cy="-90" fill="none" stroke="#000" rx="84.11" ry="18"/>
            <text x="84.11" y="-84.95" font-family="Times,serif" font-size="14" text-anchor="middle">:core:compose-core</text>
        </g>
        <g stroke="#000" class="edge">
            <path fill="none" d="M370.4 31.52C302.35 44.69 189.17 76.37 123.11 148c-15.57 16.88-24.53 41.49-29.48 60.56"/>
            <path d="m97.08 209.19-5.69 8.94-1.13-10.54z"/>
        </g>
        <g class="node" transform="translate(4 328)">
            <ellipse cx="475.11" cy="-162" fill="none" stroke="#000" rx="47.26" ry="18"/>
            <text x="475.11" y="-156.95" font-family="Times,serif" font-size="14" text-anchor="middle">:core:data</text>
        </g>
        <g stroke="#000" class="edge">
            <path fill="none" d="M439.71 39.85c6.95 10.03 15.2 23.28 20.4 36.15 7.83 19.4 12.64 42.55 15.46 60.37"/>
            <path d="m479.04 135.86-2.03 10.39-4.9-9.39z"/>
        </g>
        <g class="node" transform="translate(4 328)">
            <ellipse cx="611.11" cy="-162" fill="none" stroke="#000" rx="70.8" ry="18"/>
            <text x="611.11" y="-156.95" font-family="Times,serif" font-size="14" text-anchor="middle">:core:navigation</text>
        </g>
        <g stroke="#000" class="edge">
            <path fill="none" d="M446.36 39.64C467.8 57.96 503.72 88 536.11 112c14.23 10.55 30.4 21.56 44.39 30.8"/>
            <path d="m582.07 139.64 6.45 8.41-10.28-2.55z"/>
        </g>
        <g class="node" transform="translate(4 328)">
            <ellipse cx="371.11" cy="-234" fill="none" stroke="#000" rx="76.43" ry="18"/>
            <text x="371.11" y="-228.95" font-family="Times,serif" font-size="14" text-anchor="middle">:feature:ui-setting</text>
        </g>
        <g stroke="red" stroke-width="2" class="edge">
            <path fill="none" d="M414.52 39.95c-6.07 8.16-13.48 18.14-20.23 27.23"/>
            <path fill="red" d="m398.16 67.84-8.78 5.94 3.16-10.11z"/>
        </g>
        <g class="node" transform="translate(4 328)">
            <ellipse cx="580.11" cy="-234" fill="none" stroke="#000" rx="38.56" ry="18"/>
            <text x="580.11" y="-228.95" font-family="Times,serif" font-size="14" text-anchor="middle">:widget</text>
        </g>
        <g stroke="#000" class="edge">
            <path fill="none" d="M460.4 37.85c25.24 11.25 59.93 26.72 86.16 38.41"/>
            <path d="m547.78 72.97 7.7 7.27-10.55-.88z"/>
        </g>
        <g stroke="#000" class="edge">
            <path fill="none" d="M230.04 182.71c-27.01 10.33-62.53 23.92-91.29 34.92"/>
            <path d="m140.1 220.86-10.59.3 8.09-6.84z"/>
        </g>
        <g class="node" transform="translate(4 328)">
            <ellipse cx="251.11" cy="-90" fill="none" stroke="#000" rx="65.17" ry="18"/>
            <text x="251.11" y="-84.95" font-family="Times,serif" font-size="14" text-anchor="middle">:core:common</text>
        </g>
        <g stroke="#000" class="edge">
            <path fill="none" d="M267.15 184.3c-1.68 7.38-3.69 16.18-5.59 24.45"/>
            <path d="m264.99 209.45-5.64 8.97-1.18-10.53z"/>
        </g>
        <g class="node" transform="translate(4 328)">
            <ellipse cx="372.11" cy="-90" fill="none" stroke="#000" rx="37.53" ry="18"/>
            <text x="372.11" y="-84.95" font-family="Times,serif" font-size="14" text-anchor="middle">:shared</text>
        </g>
        <g stroke="#000" class="edge">
            <path fill="none" d="M296.26 183.77c14.77 9.84 33.55 22.36 49.18 32.79"/>
            <path d="m347.07 213.43 6.38 8.46-10.26-2.63z"/>
        </g>
        <g class="node" transform="translate(4 328)">
            <ellipse cx="491.11" cy="-90" fill="none" stroke="#000" rx="63.63" ry="18"/>
            <text x="491.11" y="-84.95" font-family="Times,serif" font-size="14" text-anchor="middle">:core:database</text>
        </g>
        <g stroke="red" stroke-width="2" class="edge">
            <path fill="none" d="M483.06 184.3c1.69 7.38 3.7 16.18 5.59 24.45"/>
            <path fill="red" d="m491.71 206.42-1.19 10.52-5.64-8.96z"/>
        </g>
        <g class="node" transform="translate(4 328)">
            <ellipse cx="634.11" cy="-90" fill="none" stroke="#000" rx="61.59" ry="18"/>
            <text x="634.11" y="-84.95" font-family="Times,serif" font-size="14" text-anchor="middle">:core:data-api</text>
        </g>
        <g stroke="#000" class="edge">
            <path fill="none" d="M509.01 180.17c24.15 10.63 58.45 25.73 85.63 37.69"/>
            <path d="m595.91 214.6 7.75 7.23-10.57-.82z"/>
        </g>
        <g class="node" transform="translate(4 328)">
            <ellipse cx="776.11" cy="-90" fill="none" stroke="#000" rx="62.1" ry="18"/>
            <text x="776.11" y="-84.95" font-family="Times,serif" font-size="14" text-anchor="middle">:core:network</text>
        </g>
        <g stroke="#000" class="edge">
            <path fill="none" d="M514.52 178.28c6.8 2.02 13.89 4.01 20.59 5.72 76.53 19.49 96.92 18.8 174 36 4.33.97 8.8 1.99 13.3 3.03"/>
            <path d="m723.15 219.61 8.94 5.68-10.54 1.13z"/>
        </g>
        <g stroke="#000" class="edge">
            <path fill="none" d="M350.72 111.41c-13.49 9.08-30.48 20.52-45.3 30.49"/>
            <path d="m307.57 144.68-10.25 2.68 6.34-8.49z"/>
        </g>
        <g stroke="#000" class="edge">
            <path fill="none" d="M306.13 101.93c-42.82 6.77-97.57 20.06-140.02 46.07-25.48 15.61-47.18 42.21-61.18 62.27"/>
            <path d="m107.85 212.2-8.49 6.34 2.69-10.25z"/>
        </g>
        <g stroke="red" stroke-width="2" class="edge">
            <path fill="none" d="M399.49 111.41c14.32 9.64 32.57 21.93 47.99 32.3"/>
            <path fill="red" d="m447.8 139.71 6.34 8.49-10.25-2.68z"/>
        </g>
        <g stroke="#000" class="edge">
            <path fill="none" d="M421.95 108.66c39.32 11.47 95.59 27.88 137.26 40.04"/>
            <path d="m559.93 145.26 8.62 6.16-10.58.56z"/>
        </g>
        <g class="node" transform="translate(4 328)">
            <ellipse cx="562.11" cy="-18" fill="none" stroke="#000" rx="55.45" ry="18"/>
            <text x="562.11" y="-12.95" font-family="Times,serif" font-size="14" text-anchor="middle">:core:model</text>
        </g>
        <g stroke="red" stroke-width="2" class="edge">
            <path fill="none" d="M511.93 255.59c8.76 8.63 19.63 19.35 29.33 28.91"/>
            <path fill="red" d="m542.58 280.89 4.67 9.51-9.58-4.52z"/>
        </g>
        <g stroke="#000" class="edge">
            <path fill="none" d="M621.04 255.59c-8.96 8.72-20.12 19.56-30.03 29.2"/>
            <path d="m593.74 287.01-9.61 4.46 4.73-9.48z"/>
        </g>
    </g>
</svg>
