<svg xmlns="http://www.w3.org/2000/svg" width="1128" height="332pt" viewBox="0 0 846 332">
    <g class="graph" transform="translate(4 328)">
        <title>G</title>
        <path fill="#fff" d="M-4 4v-332h845.72V4z"/>
        <g class="node">
            <title>:app-my-grade</title>
            <ellipse cx="592.11" cy="-306" fill="none" stroke="#000" rx="65.68" ry="18"/>
            <text xml:space="preserve" x="592.11" y="-300.95" font-family="Times,serif" font-size="14" text-anchor="middle">:app-my-grade</text>
        </g>
        <g class="node">
            <title>:core:common-android</title>
            <ellipse cx="414.11" cy="-162" fill="none" stroke="#000" rx="96.39" ry="18"/>
            <text xml:space="preserve" x="414.11" y="-156.95" font-family="Times,serif" font-size="14" text-anchor="middle">:core:common-android</text>
        </g>
        <g class="edge">
            <title>:app-my-grade-&gt;:core:common-android</title>
            <path fill="none" stroke="#000" d="M559.77-290.13c-19.14 9.56-43.34 22.99-62.66 38.13-23.73 18.59-46.79 44.1-62.55 63.04"/>
            <path stroke="#000" d="m437.43-186.94-9.04 5.52 3.62-9.95z"/>
        </g>
        <g class="node">
            <title>:core:data</title>
            <ellipse cx="576.11" cy="-162" fill="none" stroke="#000" rx="47.26" ry="18"/>
            <text xml:space="preserve" x="576.11" y="-156.95" font-family="Times,serif" font-size="14" text-anchor="middle">:core:data</text>
        </g>
        <g class="edge">
            <title>:app-my-grade-&gt;:core:data</title>
            <path fill="none" stroke="#000" d="M553.32-291.04c-17.42 8.43-36.26 21.1-46.21 39.04-7.77 13.99-7.08 21.65 0 36 6.69 13.58 18.71 24.65 30.87 33.09"/>
            <path stroke="#000" d="m539.86-185.86 6.53 8.34-10.31-2.45z"/>
        </g>
        <g class="node">
            <title>:core:navigation</title>
            <ellipse cx="712.11" cy="-162" fill="none" stroke="#000" rx="70.8" ry="18"/>
            <text xml:space="preserve" x="712.11" y="-156.95" font-family="Times,serif" font-size="14" text-anchor="middle">:core:navigation</text>
        </g>
        <g class="edge">
            <title>:app-my-grade-&gt;:core:navigation</title>
            <path fill="none" stroke="#000" d="M626.02-290.26c17.25 8.94 37.41 21.82 51.09 38.26 14.53 17.46 23.52 41.68 28.75 60.45"/>
            <path stroke="#000" d="m709.25-192.43-.92 10.55-5.86-8.82z"/>
        </g>
        <g class="node">
            <title>:feature:ui-setting</title>
            <ellipse cx="592.11" cy="-234" fill="none" stroke="#000" rx="76.43" ry="18"/>
            <text xml:space="preserve" x="592.11" y="-228.95" font-family="Times,serif" font-size="14" text-anchor="middle">:feature:ui-setting</text>
        </g>
        <g class="edge">
            <title>:app-my-grade-&gt;:feature:ui-setting</title>
            <path fill="none" stroke="red" stroke-width="2" d="M592.11-287.7v24.16"/>
            <path fill="red" stroke="red" stroke-width="2" d="m595.61-265.13-3.5 10-3.5-10z"/>
        </g>
        <g class="node">
            <title>:widget</title>
            <ellipse cx="763.11" cy="-234" fill="none" stroke="#000" rx="38.56" ry="18"/>
            <text xml:space="preserve" x="763.11" y="-228.95" font-family="Times,serif" font-size="14" text-anchor="middle">:widget</text>
        </g>
        <g class="edge">
            <title>:app-my-grade-&gt;:widget</title>
            <path fill="none" stroke="#000" d="M627.54-290.5c28.19 11.54 67.6 27.68 96.66 39.57"/>
            <path stroke="#000" d="m725.46-254.19 7.93 7.02-10.58-.55z"/>
        </g>
        <g class="node">
            <title>:core:common</title>
            <ellipse cx="289.11" cy="-90" fill="none" stroke="#000" rx="65.17" ry="18"/>
            <text xml:space="preserve" x="289.11" y="-84.95" font-family="Times,serif" font-size="14" text-anchor="middle">:core:common</text>
        </g>
        <g class="edge">
            <title>:core:common-android-&gt;:core:common</title>
            <path fill="none" stroke="#000" d="M384.48-144.41c-17.3 9.69-39.29 22.01-57.8 32.37"/>
            <path stroke="#000" d="m328.56-109.08-10.43 1.83 7.01-7.94z"/>
        </g>
        <g class="node">
            <title>:core:compose-core</title>
            <ellipse cx="84.11" cy="-90" fill="none" stroke="#000" rx="84.11" ry="18"/>
            <text xml:space="preserve" x="84.11" y="-84.95" font-family="Times,serif" font-size="14" text-anchor="middle">:core:compose-core</text>
        </g>
        <g class="edge">
            <title>:core:common-android-&gt;:core:compose-core</title>
            <path fill="none" stroke="#000" d="M352.04-147.83c-56.57 12-140.01 29.69-198.71 42.15"/>
            <path stroke="#000" d="m154.29-102.31-10.51-1.35 9.06-5.5z"/>
        </g>
        <g class="node">
            <title>:shared</title>
            <ellipse cx="656.11" cy="-18" fill="none" stroke="#000" rx="37.53" ry="18"/>
            <text xml:space="preserve" x="656.11" y="-12.95" font-family="Times,serif" font-size="14" text-anchor="middle">:shared</text>
        </g>
        <g class="edge">
            <title>:core:common-android-&gt;:shared</title>
            <path fill="none" stroke="#000" d="M333.52-151.85C262.16-140.59 175.05-117.16 215.11-72c25.7 28.98 282.73 45.12 392.12 50.72"/>
            <path stroke="#000" d="m607.26-24.78 9.81 3.99-10.16 3z"/>
        </g>
        <g class="node">
            <title>:core:data-api</title>
            <ellipse cx="576.11" cy="-90" fill="none" stroke="#000" rx="61.59" ry="18"/>
            <text xml:space="preserve" x="576.11" y="-84.95" font-family="Times,serif" font-size="14" text-anchor="middle">:core:data-api</text>
        </g>
        <g class="edge">
            <title>:core:common-android-&gt;:core:data-api</title>
            <path fill="none" stroke="red" stroke-width="2" d="M451.27-144.94c24.12 10.42 55.64 24.04 80.98 34.99"/>
            <path fill="red" stroke="red" stroke-width="2" d="m532.12-113.82 7.79 7.18-10.56-.75z"/>
        </g>
        <g class="node">
            <title>:core:network</title>
            <ellipse cx="434.11" cy="-90" fill="none" stroke="#000" rx="62.1" ry="18"/>
            <text xml:space="preserve" x="434.11" y="-84.95" font-family="Times,serif" font-size="14" text-anchor="middle">:core:network</text>
        </g>
        <g class="edge">
            <title>:core:common-android-&gt;:core:network</title>
            <path fill="none" stroke="#000" d="M419.05-143.7c2.13 7.46 4.68 16.38 7.07 24.73"/>
            <path stroke="#000" d="m429.42-120.14-.62 10.58-6.11-8.65z"/>
        </g>
        <g class="edge">
            <title>:core:data-&gt;:core:common</title>
            <path fill="none" stroke="#000" d="M540.33-149.95c-7.02 2.06-14.33 4.13-21.22 5.95-4.2 1.11-103.46 23.94-170.2 39.27"/>
            <path stroke="#000" d="m350.09-101.41-10.53-1.18 8.97-5.65z"/>
        </g>
        <g class="edge">
            <title>:core:data-&gt;:shared</title>
            <path fill="none" stroke="#000" d="M604.33-147.35c15.33 8.97 33.08 22.22 42.78 39.35 10.3 18.21 12.26 41.89 11.79 60.25"/>
            <path stroke="#000" d="m662.4-47.6-4.03 9.8-2.96-10.17z"/>
        </g>
        <g class="edge">
            <title>:core:data-&gt;:core:data-api</title>
            <path fill="none" stroke="#000" d="M576.11-143.7v24.16"/>
            <path stroke="#000" d="m579.61-119.62-3.5 10-3.5-10z"/>
        </g>
        <g class="edge">
            <title>:core:data-&gt;:core:network</title>
            <path fill="none" stroke="#000" d="M548.05-147.17c-20.98 10.34-49.97 24.64-73.47 36.22"/>
            <path stroke="#000" d="m476.44-107.96-10.52 1.28 7.42-7.56z"/>
        </g>
        <g class="node">
            <title>:core:model</title>
            <ellipse cx="767.11" cy="-18" fill="none" stroke="#000" rx="55.45" ry="18"/>
            <text xml:space="preserve" x="767.11" y="-12.95" font-family="Times,serif" font-size="14" text-anchor="middle">:core:model</text>
        </g>
        <g class="edge">
            <title>:core:data-&gt;:core:model</title>
            <path fill="none" stroke="#000" d="M611.49-149.58c6.8 2 13.9 3.96 20.62 5.58 43.68 10.54 170.19 1.51 199 36 10.25 12.28 6.81 21.52 0 36-5.9 12.55-16.39 23.14-27.19 31.48"/>
            <path stroke="#000" d="m806.27-37.9-10.17 2.97 6.1-8.66z"/>
        </g>
        <g class="node">
            <title>:core:database</title>
            <ellipse cx="758.11" cy="-90" fill="none" stroke="#000" rx="63.63" ry="18"/>
            <text xml:space="preserve" x="758.11" y="-84.95" font-family="Times,serif" font-size="14" text-anchor="middle">:core:database</text>
        </g>
        <g class="edge">
            <title>:core:data-&gt;:core:database</title>
            <path fill="none" stroke="#000" d="M608.65-148.49c28.47 10.96 70.19 27 102.33 39.36"/>
            <path stroke="#000" d="m711.98-112.49 8.08 6.86-10.59-.33z"/>
        </g>
        <g class="edge">
            <title>:feature:ui-setting-&gt;:core:common-android</title>
            <path fill="none" stroke="red" stroke-width="2" d="m553.92-217.98-89.31 35.12"/>
            <path fill="red" stroke="red" stroke-width="2" d="m467.49-180.23-10.59.4 8.02-6.92z"/>
        </g>
        <g class="edge">
            <title>:feature:ui-setting-&gt;:core:data</title>
            <path fill="none" stroke="#000" d="M588.15-215.7c-1.68 7.38-3.69 16.18-5.59 24.45"/>
            <path stroke="#000" d="m585.99-190.55-5.64 8.97-1.18-10.53z"/>
        </g>
        <g class="edge">
            <title>:feature:ui-setting-&gt;:core:navigation</title>
            <path fill="none" stroke="#000" d="M619.94-216.76c16.47 9.61 37.54 21.89 55.37 32.3"/>
            <path stroke="#000" d="m676.66-187.73 6.87 8.06-10.4-2.01z"/>
        </g>
        <g class="edge">
            <title>:core:data-api-&gt;:core:model</title>
            <path fill="none" stroke="red" stroke-width="2" d="M613.39-75.34c30.62 11.23 74.17 27.19 107.1 39.25"/>
            <path fill="red" stroke="red" stroke-width="2" d="m720.19-39.92 8.18 6.72-10.59-.15z"/>
        </g>
        <g class="edge">
            <title>:core:database-&gt;:shared</title>
            <path fill="none" stroke="#000" d="M734.71-72.94c-14.42 9.89-33.05 22.68-48.55 33.32"/>
            <path stroke="#000" d="m688.45-36.95-10.23 2.77 6.27-8.54z"/>
        </g>
        <g class="edge">
            <title>:core:database-&gt;:core:model</title>
            <path fill="none" stroke="#000" d="M760.33-71.7c.95 7.38 2.08 16.18 3.14 24.45"/>
            <path stroke="#000" d="m766.91-47.97-2.2 10.36-4.74-9.47z"/>
        </g>
    </g>
</svg>
