<svg xmlns="http://www.w3.org/2000/svg" width="1160" height="332pt" viewBox="0 0 869.52 332">
    <g class="graph">
        <path fill="#fff" d="M0 332V0h869.52v332z"/>
        <g class="node" transform="translate(4 328)">
            <ellipse cx="418.11" cy="-306" fill="none" stroke="#000" rx="65.68" ry="18"/>
            <text x="418.11" y="-300.95" font-family="Times,serif" font-size="14" text-anchor="middle">:app-my-grade</text>
        </g>
        <g class="node" transform="translate(4 328)">
            <ellipse cx="251.11" cy="-90" fill="none" stroke="#000" rx="65.17" ry="18"/>
            <text x="251.11" y="-84.95" font-family="Times,serif" font-size="14" text-anchor="middle">:core:common</text>
        </g>
        <g stroke="#000" class="edge">
            <path fill="none" d="M358.4 26.79C282.66 35.2 159.99 62.12 108.11 148c-8.28 13.69-9.2 22.91 0 36 10.56 15.04 51.12 29 86.96 38.82"/>
            <path d="m195.78 219.39 8.76 5.95-10.56.81z"/>
        </g>
        <g class="node" transform="translate(4 328)">
            <ellipse cx="209.11" cy="-162" fill="none" stroke="#000" rx="96.39" ry="18"/>
            <text x="209.11" y="-156.95" font-family="Times,serif" font-size="14" text-anchor="middle">:core:common-android</text>
        </g>
        <g stroke="#000" class="edge">
            <path fill="none" d="M374.36 34.78C346.54 43.21 311.8 56.55 285.11 76c-22.98 16.75-42.76 42.57-55.74 62.1"/>
            <path d="m232.39 139.87-8.35 6.51 2.46-10.3z"/>
        </g>
        <g class="node" transform="translate(4 328)">
            <ellipse cx="84.11" cy="-90" fill="none" stroke="#000" rx="84.11" ry="18"/>
            <text x="84.11" y="-84.95" font-family="Times,serif" font-size="14" text-anchor="middle">:core:compose-core</text>
        </g>
        <g stroke="#000" class="edge">
            <path fill="none" d="M360 28.25C286.9 35.49 171.02 50.6 136.11 76c-41.51 30.19-48.63 94.94-49.03 132.48"/>
            <path d="m90.57 208.09-3.43 10.03-3.56-9.98z"/>
        </g>
        <g class="node" transform="translate(4 328)">
            <ellipse cx="644.11" cy="-162" fill="none" stroke="#000" rx="47.26" ry="18"/>
            <text x="644.11" y="-156.95" font-family="Times,serif" font-size="14" text-anchor="middle">:core:data</text>
        </g>
        <g stroke="#000" class="edge">
            <path fill="none" d="M478.33 31.56c34.06 7.36 76.93 20.71 108.78 44.44 21.54 16.05 38.09 42.06 48.48 61.82"/>
            <path d="m638.69 136.2 1.36 10.51-7.61-7.38z"/>
        </g>
        <g class="node" transform="translate(4 328)">
            <ellipse cx="470.11" cy="-162" fill="none" stroke="#000" rx="70.8" ry="18"/>
            <text x="470.11" y="-156.95" font-family="Times,serif" font-size="14" text-anchor="middle">:core:navigation</text>
        </g>
        <g stroke="#000" class="edge">
            <path fill="none" d="M434.71 39.85c6.95 10.03 15.2 23.28 20.4 36.15 7.83 19.4 12.64 42.55 15.46 60.37"/>
            <path d="m474.04 135.86-2.03 10.39-4.9-9.39z"/>
        </g>
        <g class="node" transform="translate(4 328)">
            <ellipse cx="372.11" cy="-90" fill="none" stroke="#000" rx="37.53" ry="18"/>
            <text x="372.11" y="-84.95" font-family="Times,serif" font-size="14" text-anchor="middle">:shared</text>
        </g>
        <g stroke="#000" class="edge">
            <path fill="none" d="M451.76 38.44c50.5 28.3 143.87 90.63 102.35 145.56-35.38 46.8-70.94 18.72-127 36-3.33 1.03-6.77 2.11-10.22 3.22"/>
            <path d="m418 226.54-10.59-.22 8.41-6.43z"/>
        </g>
        <g class="node" transform="translate(4 328)">
            <ellipse cx="366.11" cy="-234" fill="none" stroke="#000" rx="76.43" ry="18"/>
            <text x="366.11" y="-228.95" font-family="Times,serif" font-size="14" text-anchor="middle">:feature:ui-setting</text>
        </g>
        <g stroke="red" stroke-width="2" class="edge">
            <path fill="none" d="M409.52 39.95c-6.07 8.16-13.48 18.14-20.23 27.23"/>
            <path fill="red" d="m393.16 67.84-8.78 5.94 3.16-10.11z"/>
        </g>
        <g class="node" transform="translate(4 328)">
            <ellipse cx="674.11" cy="-234" fill="none" stroke="#000" rx="38.56" ry="18"/>
            <text x="674.11" y="-228.95" font-family="Times,serif" font-size="14" text-anchor="middle">:widget</text>
        </g>
        <g stroke="#000" class="edge">
            <path fill="none" d="M469.89 34.69C511.16 44.97 572.29 60.65 625.11 76c3.73 1.08 7.6 2.25 11.46 3.44"/>
            <path d="m637.43 76.04 8.49 6.33-10.59.35z"/>
        </g>
        <g stroke="#000" class="edge">
            <path fill="none" d="M223.49 184.3c4.68 7.8 10.31 17.19 15.52 25.87"/>
            <path d="m241.92 208.22 2.15 10.38-8.15-6.78z"/>
        </g>
        <g stroke="#000" class="edge">
            <path fill="none" d="M183.48 183.59c-16.85 9.44-38.17 21.38-56.37 31.57"/>
            <path d="m128.84 218.2-10.43 1.83 7.01-7.94z"/>
        </g>
        <g stroke="#000" class="edge">
            <path fill="none" d="M250.5 183.06c26.35 11.32 61.51 26.41 87.93 37.76"/>
            <path d="m339.6 217.51 7.81 7.17-10.57-.73z"/>
        </g>
        <g stroke="#000" class="edge">
            <path fill="none" d="M606.49 174.71c-16.32 2.98-35.22 6.36-52.38 9.29-99.84 17.01-125.6 16.65-225 36-4.87.95-9.89 1.98-14.94 3.06"/>
            <path d="m315.17 226.42-10.52-1.28 9.02-5.56z"/>
        </g>
        <g class="node" transform="translate(4 328)">
            <ellipse cx="496.11" cy="-90" fill="none" stroke="#000" rx="63.63" ry="18"/>
            <text x="496.11" y="-84.95" font-family="Times,serif" font-size="14" text-anchor="middle">:core:database</text>
        </g>
        <g stroke="red" stroke-width="2" class="edge">
            <path fill="none" d="M619.22 180.66c-22.01 10.41-52.63 24.89-77.31 36.57"/>
            <path fill="red" d="m545.01 219.63-10.53 1.11 7.54-7.44z"/>
        </g>
        <g class="node" transform="translate(4 328)">
            <ellipse cx="639.11" cy="-90" fill="none" stroke="#000" rx="61.59" ry="18"/>
            <text x="639.11" y="-84.95" font-family="Times,serif" font-size="14" text-anchor="middle">:core:data-api</text>
        </g>
        <g stroke="#000" class="edge">
            <path fill="none" d="M646.87 184.3c-.52 7.29-1.14 15.97-1.72 24.16"/>
            <path d="m648.64 208.66-4.2 9.73-2.78-10.23z"/>
        </g>
        <g class="node" transform="translate(4 328)">
            <ellipse cx="639.11" cy="-18" fill="none" stroke="#000" rx="55.45" ry="18"/>
            <text x="639.11" y="-12.95" font-family="Times,serif" font-size="14" text-anchor="middle">:core:model</text>
        </g>
        <g stroke="#000" class="edge">
            <path fill="none" d="M694.56 170.24c74.24 6.97 206.9 27.74 161.55 85.76-18.36 23.49-93.85 38.06-149.77 45.85"/>
            <path d="m706.96 305.29-10.38-2.13 9.45-4.8z"/>
        </g>
        <g class="node" transform="translate(4 328)">
            <ellipse cx="781.11" cy="-90" fill="none" stroke="#000" rx="62.1" ry="18"/>
            <text x="781.11" y="-84.95" font-family="Times,serif" font-size="14" text-anchor="middle">:core:network</text>
        </g>
        <g stroke="#000" class="edge">
            <path fill="none" d="M675.5 181c19.96 10.19 47.29 24.16 69.67 35.6"/>
            <path d="m746.73 213.46 7.31 7.67-10.5-1.44z"/>
        </g>
        <g stroke="#000" class="edge">
            <path fill="none" d="M362.28 112.18c-9.05 18.79-25.15 49.24-44.17 71.82-9.05 10.74-20.43 21.04-31.02 29.66"/>
            <path d="m289.28 216.39-10.02 3.44 5.69-8.94z"/>
        </g>
        <g stroke="#000" class="edge">
            <path fill="none" d="M335.65 110.36c-22.33 9.96-51.69 23.05-76.07 33.92"/>
            <path d="m261.06 147.45-10.56.88 7.71-7.27z"/>
        </g>
        <g stroke="#000" class="edge">
            <path fill="none" d="M298.72 100.78c-68.07 7-164.04 21.21-190.61 47.22-15.84 15.5-20.34 40.66-21.16 60.27"/>
            <path d="m90.45 208.16-3.6 9.96-3.4-10.03z"/>
        </g>
        <g stroke="red" stroke-width="2" class="edge">
            <path fill="none" d="M421.1 107.84c50.56 12.73 127.53 32.11 177.56 44.71"/>
            <path fill="red" d="m597.74 148.71 8.85 5.83-10.56.96z"/>
        </g>
        <g stroke="#000" class="edge">
            <path fill="none" d="M394.49 111.41c13.69 9.22 30.98 20.85 45.95 30.93"/>
            <path d="m442.28 139.36 6.34 8.49-10.25-2.68z"/>
        </g>
        <g stroke="#000" class="edge">
            <path fill="none" d="M370.84 112.41c1.02 23.98 2.85 67.45 4.07 96.17"/>
            <path d="m378.39 208.24-3.07 10.14-3.92-9.85z"/>
        </g>
        <g stroke="red" stroke-width="2" class="edge">
            <path fill="none" d="M531.14 254.19c21.22 10.39 49.55 24.26 72.4 35.44"/>
            <path fill="red" d="m603.44 285.69 7.45 7.54-10.52-1.26z"/>
        </g>
        <g stroke="#000" class="edge">
            <path fill="none" d="M643.11 256.3v24.16"/>
            <path d="m646.61 280.38-3.5 10-3.5-10z"/>
        </g>
    </g>
</svg>
