<svg xmlns="http://www.w3.org/2000/svg" width="992" height="404pt" viewBox="0 0 743.63 404">
    <g class="graph">
        <path fill="#fff" d="M0 404V0h743.63v404z"/>
        <g class="node" transform="translate(4 400)">
            <ellipse cx="270" cy="-378" fill="none" stroke="#000" rx="65.68" ry="18"/>
            <text x="270" y="-372.95" font-family="Times,serif" font-size="14" text-anchor="middle">:app-my-grade</text>
        </g>
        <g class="node" transform="translate(4 400)">
            <ellipse cx="343" cy="-18" fill="none" stroke="#000" rx="65.17" ry="18"/>
            <text x="343" y="-12.95" font-family="Times,serif" font-size="14" text-anchor="middle">:core:common</text>
        </g>
        <g stroke="#000" class="edge">
            <path fill="none" d="M212.39 28.49C132.71 39.35 4 71.39 4 165v74c0 59.96 181.22 107.78 280.21 129.43"/>
            <path d="m284.76 364.96 9.04 5.53-10.51 1.32z"/>
        </g>
        <g class="node" transform="translate(4 400)">
            <ellipse cx="162" cy="-234" fill="none" stroke="#000" rx="96.39" ry="18"/>
            <text x="162" y="-228.95" font-family="Times,serif" font-size="14" text-anchor="middle">:core:common-android</text>
        </g>
        <g stroke="#000" class="edge">
            <path fill="none" d="M260.97 40.13c-18.65 24.52-53.11 69.84-75 98.61"/>
            <path d="m188.83 140.77-8.84 5.84 3.27-10.08z"/>
        </g>
        <g class="node" transform="translate(4 400)">
            <ellipse cx="474" cy="-234" fill="none" stroke="#000" rx="84.11" ry="18"/>
            <text x="474" y="-228.95" font-family="Times,serif" font-size="14" text-anchor="middle">:core:compose-core</text>
        </g>
        <g stroke="#000" class="edge">
            <path fill="none" d="M324.78 33.68C353.97 41.7 390.07 54.99 417 76c21.06 16.43 37.59 42.17 48.09 61.75"/>
            <path d="m468.16 136.05 1.45 10.5-7.68-7.3z"/>
        </g>
        <g class="node" transform="translate(4 400)">
            <ellipse cx="580" cy="-162" fill="none" stroke="#000" rx="47.26" ry="18"/>
            <text x="580" y="-156.95" font-family="Times,serif" font-size="14" text-anchor="middle">:core:data</text>
        </g>
        <g stroke="#000" class="edge">
            <path fill="none" d="M331.78 30.98C439.31 47.14 663.38 87.43 709 148c9.63 12.78 8.83 22.66 0 36-15.71 23.73-44.41 36.87-70.35 44.12"/>
            <path d="m639.76 231.45-10.55-.94 8.83-5.85z"/>
        </g>
        <g class="node" transform="translate(4 400)">
            <ellipse cx="162" cy="-162" fill="none" stroke="#000" rx="37.53" ry="18"/>
            <text x="162" y="-156.95" font-family="Times,serif" font-size="14" text-anchor="middle">:shared</text>
        </g>
        <g stroke="#000" class="edge">
            <path fill="none" d="M228.03 35.14C176.86 51.4 96.69 85.68 61 148c-7.95 13.88-8.39 22.37 0 36 13.18 21.42 37.99 34.5 60.19 42.3"/>
            <path d="m122.25 222.97 8.45 6.39-10.59.27z"/>
        </g>
        <g class="node" transform="translate(4 400)">
            <ellipse cx="324" cy="-306" fill="none" stroke="#000" rx="80.01" ry="18"/>
            <text x="324" y="-300.95" font-family="Times,serif" font-size="14" text-anchor="middle">:features:ui-setting</text>
        </g>
        <g stroke="red" stroke-width="2" class="edge">
            <path fill="none" d="M287.07 39.95c6.3 8.16 14 18.14 21.01 27.23"/>
            <path fill="red" d="m309.86 63.76 3.34 10.05-8.88-5.78z"/>
        </g>
        <g stroke="#000" class="edge">
            <path fill="none" d="M181.38 184.07c9.24 10.33 21.2 23.8 31.62 35.93 40.55 47.2 86.76 103.23 112.95 135.2"/>
            <path d="m328.51 352.81 3.62 9.95-9.04-5.52z"/>
        </g>
        <g stroke="#000" class="edge">
            <path fill="none" d="M166 184.3v24.16"/>
            <path d="m169.5 208.38-3.5 10-3.5-10z"/>
        </g>
        <g stroke="#000" class="edge">
            <path fill="none" d="M462.09 184.04C441.24 207.07 404.57 250.1 381 292c-10.84 19.28-19.64 42.7-25.56 60.67"/>
            <path d="m358.79 353.69-6.36 8.47-.31-10.59z"/>
        </g>
        <g stroke="#000" class="edge">
            <path fill="none" d="M541.52 246.38c-34.2 7.43-82.36 21.35-118.52 45.62-24.39 16.37-45.47 42.63-59.2 62.4"/>
            <path d="m366.82 356.18-8.49 6.34 2.68-10.25z"/>
        </g>
        <g class="node" transform="translate(4 400)">
            <ellipse cx="672" cy="-90" fill="none" stroke="#000" rx="63.63" ry="18"/>
            <text x="672" y="-84.95" font-family="Times,serif" font-size="14" text-anchor="middle">:core:database</text>
        </g>
        <g stroke="red" stroke-width="2" class="edge">
            <path fill="none" d="M604.42 254.54c12.13 9.22 27.74 21.1 41.28 31.41"/>
            <path fill="red" d="m646.43 282.1 5.84 8.85-10.08-3.27z"/>
        </g>
        <g class="node" transform="translate(4 400)">
            <ellipse cx="580" cy="-18" fill="none" stroke="#000" rx="55.45" ry="18"/>
            <text x="580" y="-12.95" font-family="Times,serif" font-size="14" text-anchor="middle">:core:model</text>
        </g>
        <g stroke="#000" class="edge">
            <path fill="none" d="M584 256.41v96.17"/>
            <path d="m587.5 352.38-3.5 10-3.5-10z"/>
        </g>
        <g class="node" transform="translate(4 400)">
            <ellipse cx="490" cy="-90" fill="none" stroke="#000" rx="62.1" ry="18"/>
            <text x="490" y="-84.95" font-family="Times,serif" font-size="14" text-anchor="middle">:core:network</text>
        </g>
        <g stroke="#000" class="edge">
            <path fill="none" d="M564.03 254.54c-11.87 9.22-27.14 21.1-40.39 31.41"/>
            <path d="m526.09 288.47-10.04 3.38 5.75-8.9z"/>
        </g>
        <g stroke="#000" class="edge">
            <path fill="none" d="M329.16 112.46c3.17 47.78 12.03 181.03 15.94 239.93"/>
            <path d="m348.58 352.05-2.83 10.21-4.15-9.75z"/>
        </g>
        <g stroke="#000" class="edge">
            <path fill="none" d="M292.05 110.54c-23.17 10-53.54 23.13-78.66 33.98"/>
            <path d="m214.93 147.67-10.56.75 7.79-7.18z"/>
        </g>
        <g stroke="#000" class="edge">
            <path fill="none" d="M361.66 110.71c21.28 9.93 49 22.87 72.05 33.62"/>
            <path d="m434.98 141.06 7.58 7.4-10.54-1.06z"/>
        </g>
        <g stroke="#000" class="edge">
            <path fill="none" d="M334.45 112.16c8.49 20.23 25.36 53.44 50.55 71.84 41.39 30.23 98.83 43.22 141.36 48.8"/>
            <path d="m526.65 229.31 9.51 4.67-10.35 2.28z"/>
        </g>
        <g stroke="#000" class="edge">
            <path fill="none" d="M320.37 112.35c-9.3 19.5-26.62 51.12-49.37 71.65-18.59 16.78-43.46 29.64-64.33 38.49"/>
            <path d="m208.16 225.67-10.58.52 7.94-7.01z"/>
        </g>
        <g class="node" transform="translate(4 400)">
            <ellipse cx="636" cy="-234" fill="none" stroke="#000" rx="60.05" ry="18"/>
            <text x="636" y="-228.95" font-family="Times,serif" font-size="14" text-anchor="middle">:core:domain</text>
        </g>
        <g stroke="red" stroke-width="2" class="edge">
            <path fill="none" d="M385.05 106.99C434.36 117.46 507.49 133.25 571 148c4.27.99 8.69 2.04 13.13 3.1"/>
            <path fill="red" d="m583.29 147.3 8.9 5.75-10.54 1.05z"/>
        </g>
        <g stroke="red" stroke-width="2" class="edge">
            <path fill="none" d="m654.66 327.24-40.92 31.13"/>
            <path fill="red" d="m617.39 359.99-10.08 3.27 5.84-8.84z"/>
        </g>
        <g stroke="#000" class="edge">
            <path fill="none" d="M462.83 325.85c-21.49 10.23-50.3 23.95-73.81 35.14"/>
            <path d="M390.54 364.14 380 365.28l7.53-7.46z"/>
        </g>
        <g stroke="#000" class="edge">
            <path fill="none" d="M514.87 327.24c11.7 9.1 26.49 20.6 39.39 30.63"/>
            <path d="m556.3 355.02 5.74 8.9-10.04-3.37z"/>
        </g>
        <g stroke="red" stroke-width="2" class="edge">
            <path fill="none" d="M626.44 183.95c-6.7 8.37-14.92 18.65-22.33 27.92"/>
            <path fill="red" d="m607.92 212.71-8.98 5.62 3.51-10z"/>
        </g>
    </g>
</svg>
