<svg xmlns="http://www.w3.org/2000/svg" width="881pt" height="404pt" viewBox="0 0 880.62 404">
    <g class="graph">
        <path fill="#fff" d="M0 404V0h880.62v404z"/>
        <g class="node" transform="translate(4 400)">
            <ellipse cx="434" cy="-378" fill="none" stroke="#000" rx="65.68" ry="18"/>
            <text x="434" y="-372.95" font-family="Times,serif" font-size="14" text-anchor="middle">:app-my-grade</text>
        </g>
        <g class="node" transform="translate(4 400)">
            <ellipse cx="425" cy="-18" fill="none" stroke="#000" rx="65.17" ry="18"/>
            <text x="425" y="-12.95" font-family="Times,serif" font-size="14" text-anchor="middle">:core:common</text>
        </g>
        <g stroke="#000" class="edge">
            <path fill="none" d="M378.56 29.82C259.7 45.13 4 87.11 4 165v74c0 73.95 234.4 116.38 355.04 133.32"/>
            <path d="m359.42 368.84 9.43 4.83-10.38 2.1z"/>
        </g>
        <g class="node" transform="translate(4 400)">
            <ellipse cx="310" cy="-234" fill="none" stroke="#000" rx="96.39" ry="18"/>
            <text x="310" y="-228.95" font-family="Times,serif" font-size="14" text-anchor="middle">:core:common-android</text>
        </g>
        <g stroke="#000" class="edge">
            <path fill="none" d="M423.29 39.85c-21.51 24.63-61.72 70.68-86.91 99.52"/>
            <path d="m339.29 141.36-9.22 5.23 3.95-9.83z"/>
        </g>
        <g class="node" transform="translate(4 400)">
            <ellipse cx="112" cy="-234" fill="none" stroke="#000" rx="84.11" ry="18"/>
            <text x="112" y="-228.95" font-family="Times,serif" font-size="14" text-anchor="middle">:core:compose-core</text>
        </g>
        <g stroke="#000" class="edge">
            <path fill="none" d="M404.45 37.79c-57.98 25.57-177.01 78.07-242.59 106.99"/>
            <path d="m163.37 147.93-10.56.84 7.74-7.24z"/>
        </g>
        <g class="node" transform="translate(4 400)">
            <ellipse cx="686" cy="-162" fill="none" stroke="#000" rx="47.26" ry="18"/>
            <text x="686" y="-156.95" font-family="Times,serif" font-size="14" text-anchor="middle">:core:data</text>
        </g>
        <g stroke="#000" class="edge">
            <path fill="none" d="M496.16 30.78C603.69 46.53 826.56 86.06 869 148c33.68 49.15-58.33 72.41-122.59 82.39"/>
            <path d="m747.07 233.83-10.4-2 9.38-4.92z"/>
        </g>
        <g class="node" transform="translate(4 400)">
            <ellipse cx="785" cy="-234" fill="none" stroke="#000" rx="70.8" ry="18"/>
            <text x="785" y="-228.95" font-family="Times,serif" font-size="14" text-anchor="middle">:core:navigation</text>
        </g>
        <g stroke="#000" class="edge">
            <path fill="none" d="M490.24 33.15C530.67 41.92 587.57 56.31 635 76c43.88 18.21 90.64 46.68 120.97 66.5"/>
            <path d="m757.53 139.34 6.42 8.43-10.27-2.59z"/>
        </g>
        <g class="node" transform="translate(4 400)">
            <ellipse cx="434" cy="-162" fill="none" stroke="#000" rx="37.53" ry="18"/>
            <text x="434" y="-156.95" font-family="Times,serif" font-size="14" text-anchor="middle">:shared</text>
        </g>
        <g stroke="#000" class="edge">
            <path fill="none" d="M438 40.15v168.32"/>
            <path d="m441.5 208.25-3.5 10-3.5-10z"/>
        </g>
        <g class="node" transform="translate(4 400)">
            <ellipse cx="542" cy="-306" fill="none" stroke="#000" rx="80.01" ry="18"/>
            <text x="542" y="-300.95" font-family="Times,serif" font-size="14" text-anchor="middle">:features:ui-setting</text>
        </g>
        <g stroke="red" stroke-width="2" class="edge">
            <path fill="none" d="M462.78 39.06c14.33 9.29 32.6 21.13 48.37 31.35"/>
            <path fill="red" d="m511.56 66.51 6.49 8.37-10.3-2.5z"/>
        </g>
        <g stroke="#000" class="edge">
            <path fill="none" d="M323.22 184.15c19.93 37.1 67.19 125.04 91.22 169.75"/>
            <path d="m417.37 351.97 1.65 10.46-7.81-7.15z"/>
        </g>
        <g stroke="#000" class="edge">
            <path fill="none" d="M343.39 183.59c18.33 10.35 41.98 23.7 61.05 34.47"/>
            <path d="m405.92 214.87 6.98 7.96-10.42-1.87z"/>
        </g>
        <g stroke="#000" class="edge">
            <path fill="none" d="M140.3 183.61c55.63 38.04 192.28 131.47 255.56 174.73"/>
            <path d="m397.83 355.45 6.28 8.53-10.23-2.75z"/>
        </g>
        <g stroke="#000" class="edge">
            <path fill="none" d="M656.43 251.05C631.88 260.55 598.24 275 571 292c-21.14 13.2-22.35 22.04-43 36-17.82 12.04-38.68 23.55-56.63 32.75"/>
            <path d="m473.03 363.83-10.51 1.37 7.36-7.62z"/>
        </g>
        <g class="node" transform="translate(4 400)">
            <ellipse cx="782" cy="-90" fill="none" stroke="#000" rx="63.63" ry="18"/>
            <text x="782" y="-84.95" font-family="Times,serif" font-size="14" text-anchor="middle">:core:database</text>
        </g>
        <g stroke="red" stroke-width="2" class="edge">
            <path fill="none" d="M711.31 254.54c12.77 9.31 29.25 21.33 43.48 31.7"/>
            <path fill="red" d="m755.29 282.28 6.02 8.71-10.14-3.06z"/>
        </g>
        <g class="node" transform="translate(4 400)">
            <ellipse cx="782" cy="-18" fill="none" stroke="#000" rx="55.45" ry="18"/>
            <text x="782" y="-12.95" font-family="Times,serif" font-size="14" text-anchor="middle">:core:model</text>
        </g>
        <g stroke="#000" class="edge">
            <path fill="none" d="M737.31 239.48c39.63 3.23 94.02 14.85 121.69 52.52 9.47 12.9 7.27 21.75 0 36-6.97 13.68-19.31 24.65-31.87 32.98"/>
            <path d="m829.2 363.82-10.36 2.23 6.71-8.2z"/>
        </g>
        <g class="node" transform="translate(4 400)">
            <ellipse cx="638" cy="-90" fill="none" stroke="#000" rx="62.1" ry="18"/>
            <text x="638" y="-84.95" font-family="Times,serif" font-size="14" text-anchor="middle">:core:network</text>
        </g>
        <g stroke="#000" class="edge">
            <path fill="none" d="M678.62 255.59c-5.53 8.07-12.32 17.98-18.55 27.06"/>
            <path d="m663.02 284.53-8.54 6.27 2.77-10.23z"/>
        </g>
        <g stroke="#000" class="edge">
            <path fill="none" d="M539.92 112.05C529.29 141.58 506.45 204.06 485 256c-14 33.89-31.45 72.3-43.11 97.49"/>
            <path d="m445.14 354.78-7.38 7.6 1.04-10.55z"/>
        </g>
        <g stroke="#000" class="edge">
            <path fill="none" d="M499.61 109 374.1 146.87"/>
            <path d="m375.15 150.21-10.59-.47 8.57-6.24z"/>
        </g>
        <g stroke="#000" class="edge">
            <path fill="none" d="M480.69 104.78C412.74 115.07 303.3 131.97 209 148c-6.43 1.09-13.1 2.26-19.78 3.44"/>
            <path d="m189.94 154.87-10.46-1.69 9.23-5.2z"/>
        </g>
        <g stroke="#000" class="edge">
            <path fill="none" d="M603.56 106.91c24.14 7.81 50.48 20.55 67.44 41.09 13.84 16.77 18.29 41.24 19.45 60.27"/>
            <path d="m693.94 207.97-3.19 10.1-3.81-9.88z"/>
        </g>
        <g stroke="#000" class="edge">
            <path fill="none" d="M594.01 108.83c39.87 11.48 96.65 27.84 138.66 39.94"/>
            <path d="m733.46 145.36 8.64 6.13-10.58.6z"/>
        </g>
        <g stroke="#000" class="edge">
            <path fill="none" d="M530.61 111.8c-9.17 10.23-20.88 23.7-30.61 36.2-16.03 20.59-32.88 44.97-44.95 63"/>
            <path d="m457.99 212.9-8.46 6.39 2.63-10.27z"/>
        </g>
        <g class="node" transform="translate(4 400)">
            <ellipse cx="598" cy="-234" fill="none" stroke="#000" rx="60.05" ry="18"/>
            <text x="598" y="-228.95" font-family="Times,serif" font-size="14" text-anchor="middle">:core:domain</text>
        </g>
        <g stroke="red" stroke-width="2" class="edge">
            <path fill="none" d="M559.56 111.95c6.6 8.25 14.68 18.35 22.01 27.51"/>
            <path fill="red" d="m583.16 135.85 3.52 10-8.98-5.63z"/>
        </g>
        <g stroke="red" stroke-width="2" class="edge">
            <path fill="none" d="M786 328.3v24.16"/>
            <path fill="red" d="m789.5 350.87-3.5 10-3.5-10z"/>
        </g>
        <g stroke="#000" class="edge">
            <path fill="none" d="M601.94 324.17c-34.44 11.31-84.32 27.71-121.66 39.98"/>
            <path d="m481.64 367.38-10.59-.2 8.4-6.45z"/>
        </g>
        <g stroke="#000" class="edge">
            <path fill="none" d="M672.89 326.02c21.36 10.38 49.97 24.29 73.07 35.52"/>
            <path d="m747.32 358.31 7.46 7.52-10.52-1.23z"/>
        </g>
        <g stroke="red" stroke-width="2" class="edge">
            <path fill="none" d="M622.41 183.24c11.6 9.23 26.31 20.93 39.05 31.06"/>
            <path fill="red" d="m662.29 210.49 5.65 8.96-10.01-3.49z"/>
        </g>
    </g>
</svg>
