<?xml version="1.0" encoding="UTF-8" standalone="no"?>
<!DOCTYPE svg PUBLIC "-//W3C//DTD SVG 1.1//EN"
 "http://www.w3.org/Graphics/SVG/1.1/DTD/svg11.dtd">
<!-- Generated by graphviz version 10.0.1 (20240210.2158)
 -->
<!-- Title: G Pages: 1 -->
<svg width="731pt" height="332pt"
 viewBox="0.00 0.00 731.04 332.00" xmlns="http://www.w3.org/2000/svg" xmlns:xlink="http://www.w3.org/1999/xlink">
<g id="graph0" class="graph" transform="scale(1 1) rotate(0) translate(4 328)">
<title>G</title>
<polygon fill="white" stroke="none" points="-4,4 -4,-328 727.04,-328 727.04,4 -4,4"/>
<!-- :app&#45;my&#45;grade -->
<g id="node1" class="node">
<title>:app&#45;my&#45;grade</title>
<ellipse fill="none" stroke="black" cx="315.33" cy="-306" rx="65.68" ry="18"/>
<text text-anchor="middle" x="315.33" y="-300.95" font-family="Times,serif" font-size="14.00">:app&#45;my&#45;grade</text>
</g>
<!-- :core:common -->
<g id="node2" class="node">
<title>:core:common</title>
<ellipse fill="none" stroke="black" cx="315.33" cy="-18" rx="65.17" ry="18"/>
<text text-anchor="middle" x="315.33" y="-12.95" font-family="Times,serif" font-size="14.00">:core:common</text>
</g>
<!-- :app&#45;my&#45;grade&#45;&gt;:core:common -->
<g id="edge1" class="edge">
<title>:app&#45;my&#45;grade&#45;&gt;:core:common</title>
<path fill="none" stroke="black" d="M253.62,-299.33C181.76,-289.05 66.06,-260.28 12.33,-180 -49.26,-87.96 138.42,-44.69 245.8,-27.9"/>
<polygon fill="black" stroke="black" points="246.03,-31.4 255.39,-26.44 244.97,-24.48 246.03,-31.4"/>
</g>
<!-- :core:common&#45;android -->
<g id="node3" class="node">
<title>:core:common&#45;android</title>
<ellipse fill="none" stroke="black" cx="117.33" cy="-162" rx="96.39" ry="18"/>
<text text-anchor="middle" x="117.33" y="-156.95" font-family="Times,serif" font-size="14.00">:core:common&#45;android</text>
</g>
<!-- :app&#45;my&#45;grade&#45;&gt;:core:common&#45;android -->
<g id="edge2" class="edge">
<title>:app&#45;my&#45;grade&#45;&gt;:core:common&#45;android</title>
<path fill="none" stroke="black" d="M292.62,-288.71C257.54,-263.55 190.05,-215.15 149.82,-186.3"/>
<polygon fill="black" stroke="black" points="152.1,-183.62 141.93,-180.64 148.02,-189.31 152.1,-183.62"/>
</g>
<!-- :core:compose&#45;core -->
<g id="node4" class="node">
<title>:core:compose&#45;core</title>
<ellipse fill="none" stroke="black" cx="315.33" cy="-162" rx="84.11" ry="18"/>
<text text-anchor="middle" x="315.33" y="-156.95" font-family="Times,serif" font-size="14.00">:core:compose&#45;core</text>
</g>
<!-- :app&#45;my&#45;grade&#45;&gt;:core:compose&#45;core -->
<g id="edge3" class="edge">
<title>:app&#45;my&#45;grade&#45;&gt;:core:compose&#45;core</title>
<path fill="none" stroke="black" d="M315.33,-287.59C315.33,-263.61 315.33,-220.14 315.33,-191.42"/>
<polygon fill="black" stroke="black" points="318.83,-191.62 315.33,-181.62 311.83,-191.62 318.83,-191.62"/>
</g>
<!-- :core:data -->
<g id="node5" class="node">
<title>:core:data</title>
<ellipse fill="none" stroke="black" cx="603.33" cy="-90" rx="47.26" ry="18"/>
<text text-anchor="middle" x="603.33" y="-84.95" font-family="Times,serif" font-size="14.00">:core:data</text>
</g>
<!-- :app&#45;my&#45;grade&#45;&gt;:core:data -->
<g id="edge4" class="edge">
<title>:app&#45;my&#45;grade&#45;&gt;:core:data</title>
<path fill="none" stroke="black" d="M370.83,-296.14C471.18,-278.84 676.13,-237.2 716.33,-180 725.53,-166.91 724.92,-157.5 716.33,-144 702.9,-122.86 678.56,-110.01 655.9,-102.26"/>
<polygon fill="black" stroke="black" points="657,-98.94 646.42,-99.31 654.92,-105.63 657,-98.94"/>
</g>
<!-- :features:ui&#45;setting -->
<g id="node6" class="node">
<title>:features:ui&#45;setting</title>
<ellipse fill="none" stroke="black" cx="427.33" cy="-234" rx="80.01" ry="18"/>
<text text-anchor="middle" x="427.33" y="-228.95" font-family="Times,serif" font-size="14.00">:features:ui&#45;setting</text>
</g>
<!-- :app&#45;my&#45;grade&#45;&gt;:features:ui&#45;setting -->
<g id="edge5" class="edge">
<title>:app&#45;my&#45;grade&#45;&gt;:features:ui&#45;setting</title>
<path fill="none" stroke="red" stroke-width="2" d="M340.75,-289.12C355.85,-279.67 375.24,-267.56 391.84,-257.18"/>
<polygon fill="red" stroke="red" stroke-width="2" points="392.05,-261.18 398.68,-252.91 388.34,-255.24 392.05,-261.18"/>
</g>
<!-- :core:common&#45;android&#45;&gt;:core:common -->
<g id="edge6" class="edge">
<title>:core:common&#45;android&#45;&gt;:core:common</title>
<path fill="none" stroke="black" d="M140.82,-144.15C176.31,-118.7 243.67,-70.39 283.52,-41.81"/>
<polygon fill="black" stroke="black" points="285.47,-44.72 291.56,-36.05 281.39,-39.04 285.47,-44.72"/>
</g>
<!-- :core:compose&#45;core&#45;&gt;:core:common -->
<g id="edge7" class="edge">
<title>:core:compose&#45;core&#45;&gt;:core:common</title>
<path fill="none" stroke="black" d="M315.33,-143.59C315.33,-119.61 315.33,-76.14 315.33,-47.42"/>
<polygon fill="black" stroke="black" points="318.83,-47.62 315.33,-37.62 311.83,-47.62 318.83,-47.62"/>
</g>
<!-- :core:data&#45;&gt;:core:common -->
<g id="edge8" class="edge">
<title>:core:data&#45;&gt;:core:common</title>
<path fill="none" stroke="red" stroke-width="2" d="M564.19,-79.49C515.17,-67.57 430.73,-47.05 373.98,-33.25"/>
<polygon fill="red" stroke="red" stroke-width="2" points="376.5,-30.26 365.96,-31.3 374.85,-37.07 376.5,-30.26"/>
</g>
<!-- :features:ui&#45;setting&#45;&gt;:core:common -->
<g id="edge9" class="edge">
<title>:features:ui&#45;setting&#45;&gt;:core:common</title>
<path fill="none" stroke="black" d="M425.84,-215.59C423.75,-197.13 418.95,-167.46 408.33,-144 391.03,-105.76 360.53,-67.95 339.19,-44.1"/>
<polygon fill="black" stroke="black" points="341.85,-41.82 332.53,-36.79 336.68,-46.54 341.85,-41.82"/>
</g>
<!-- :features:ui&#45;setting&#45;&gt;:core:common&#45;android -->
<g id="edge10" class="edge">
<title>:features:ui&#45;setting&#45;&gt;:core:common&#45;android</title>
<path fill="none" stroke="black" d="M372.27,-220.57C320.89,-208.96 243.97,-191.59 188.06,-178.97"/>
<polygon fill="black" stroke="black" points="189.18,-175.63 178.65,-176.85 187.63,-182.46 189.18,-175.63"/>
</g>
<!-- :features:ui&#45;setting&#45;&gt;:core:compose&#45;core -->
<g id="edge11" class="edge">
<title>:features:ui&#45;setting&#45;&gt;:core:compose&#45;core</title>
<path fill="none" stroke="black" d="M401.07,-216.59C386.3,-207.35 367.63,-195.68 351.48,-185.59"/>
<polygon fill="black" stroke="black" points="353.43,-182.69 343.1,-180.35 349.72,-188.62 353.43,-182.69"/>
</g>
<!-- :features:ui&#45;setting&#45;&gt;:core:data -->
<g id="edge12" class="edge">
<title>:features:ui&#45;setting&#45;&gt;:core:data</title>
<path fill="none" stroke="black" d="M471.14,-218.58C493.44,-209.8 520.06,-196.96 540.33,-180 560.91,-162.78 578.02,-137.34 589.19,-118.07"/>
<polygon fill="black" stroke="black" points="592.2,-119.84 594.03,-109.41 586.09,-116.43 592.2,-119.84"/>
</g>
<!-- :core:domain -->
<g id="node7" class="node">
<title>:core:domain</title>
<ellipse fill="none" stroke="black" cx="647.33" cy="-162" rx="60.05" ry="18"/>
<text text-anchor="middle" x="647.33" y="-156.95" font-family="Times,serif" font-size="14.00">:core:domain</text>
</g>
<!-- :features:ui&#45;setting&#45;&gt;:core:domain -->
<g id="edge13" class="edge">
<title>:features:ui&#45;setting&#45;&gt;:core:domain</title>
<path fill="none" stroke="red" stroke-width="2" d="M472.12,-218.75C508.25,-207.25 559.08,-191.08 596.69,-179.11"/>
<polygon fill="red" stroke="red" stroke-width="2" points="596.06,-182.99 604.53,-176.62 593.94,-176.32 596.06,-182.99"/>
</g>
<!-- :shared -->
<g id="node8" class="node">
<title>:shared</title>
<ellipse fill="none" stroke="black" cx="493.33" cy="-162" rx="37.53" ry="18"/>
<text text-anchor="middle" x="493.33" y="-156.95" font-family="Times,serif" font-size="14.00">:shared</text>
</g>
<!-- :features:ui&#45;setting&#45;&gt;:shared -->
<g id="edge14" class="edge">
<title>:features:ui&#45;setting&#45;&gt;:shared</title>
<path fill="none" stroke="black" d="M443.31,-216.05C451.49,-207.38 461.59,-196.67 470.57,-187.15"/>
<polygon fill="black" stroke="black" points="473.06,-189.61 477.37,-179.93 467.96,-184.81 473.06,-189.61"/>
</g>
<!-- :core:domain&#45;&gt;:core:data -->
<g id="edge15" class="edge">
<title>:core:domain&#45;&gt;:core:data</title>
<path fill="none" stroke="red" stroke-width="2" d="M636.68,-144.05C631.66,-136.06 625.54,-126.33 619.93,-117.4"/>
<polygon fill="red" stroke="red" stroke-width="2" points="623.78,-116.96 615.5,-110.35 617.86,-120.68 623.78,-116.96"/>
</g>
</g>
</svg>
