<svg xmlns="http://www.w3.org/2000/svg" width="1200" height="404pt" viewBox="0 0 900.29 404">
    <g class="graph">
        <path fill="#fff" d="M0 404V0h900.29v404z"/>
        <g class="node" transform="translate(4 400)">
            <ellipse cx="418" cy="-378" fill="none" stroke="#000" rx="55.96" ry="18"/>
            <text x="418" y="-372.95" font-family="Times,serif" font-size="14" text-anchor="middle">:app-cnubus</text>
        </g>
        <g class="node" transform="translate(4 400)">
            <ellipse cx="462" cy="-18" fill="none" stroke="#000" rx="65.17" ry="18"/>
            <text x="462" y="-12.95" font-family="Times,serif" font-size="14" text-anchor="middle">:core:common</text>
        </g>
        <g stroke="#000" class="edge">
            <path fill="none" d="M370.74 29.41C259.13 44.8 4 88.36 4 165v74c0 80.54 259.76 120.13 389.72 134.91"/>
            <path d="m394.07 370.42 9.55 4.59-10.32 2.37z"/>
        </g>
        <g class="node" transform="translate(4 400)">
            <ellipse cx="124" cy="-234" fill="none" stroke="#000" rx="96.39" ry="18"/>
            <text x="124" y="-228.95" font-family="Times,serif" font-size="14" text-anchor="middle">:core:common-android</text>
        </g>
        <g stroke="#000" class="edge">
            <path fill="none" d="M373.51 31.44C335.21 39.39 281.19 53.5 238 76c-32.36 16.86-64.2 44.12-85.23 64.03"/>
            <path d="m155.44 142.32-9.63 4.43 4.77-9.47z"/>
        </g>
        <g class="node" transform="translate(4 400)">
            <ellipse cx="360" cy="-234" fill="none" stroke="#000" rx="84.11" ry="18"/>
            <text x="360" y="-228.95" font-family="Times,serif" font-size="14" text-anchor="middle">:core:compose-core</text>
        </g>
        <g stroke="#000" class="edge">
            <path fill="none" d="M408.8 39.83C401.48 49.85 392.73 63.1 387 76c-8.63 19.41-14.5 42.69-18.15 60.57"/>
            <path d="m372.32 137.06-5.32 9.16-1.56-10.48z"/>
        </g>
        <g class="node" transform="translate(4 400)">
            <ellipse cx="636" cy="-162" fill="none" stroke="#000" rx="47.26" ry="18"/>
            <text x="636" y="-156.95" font-family="Times,serif" font-size="14" text-anchor="middle">:core:data</text>
        </g>
        <g stroke="#000" class="edge">
            <path fill="none" d="M475.73 27.47C545.37 36.6 663.3 64.28 709 148c7.67 14.04 7.07 21.65 0 36-6.69 13.58-18.72 24.65-30.88 33.09"/>
            <path d="m680.03 220.03-10.31 2.45 6.53-8.34z"/>
        </g>
        <g class="node" transform="translate(4 400)">
            <ellipse cx="248" cy="-162" fill="none" stroke="#000" rx="37.53" ry="18"/>
            <text x="248" y="-156.95" font-family="Times,serif" font-size="14" text-anchor="middle">:shared</text>
        </g>
        <g stroke="#000" class="edge">
            <path fill="none" d="M394.3 38.02C359.74 58.27 301.51 97.65 271 148c-11.03 18.2-15.71 41.89-17.67 60.25"/>
            <path d="m256.82 208.52-4.32 9.68-2.66-10.25z"/>
        </g>
        <g class="node" transform="translate(4 400)">
            <ellipse cx="636" cy="-234" fill="none" stroke="#000" rx="60.05" ry="18"/>
            <text x="636" y="-228.95" font-family="Times,serif" font-size="14" text-anchor="middle">:core:domain</text>
        </g>
        <g stroke="#000" class="edge">
            <path fill="none" d="M466.74 33.19C496.46 41.43 535.33 55.14 565 76c23.9 16.8 44.72 43.01 58.33 62.64"/>
            <path d="m626.07 136.45 2.67 10.25-8.49-6.35z"/>
        </g>
        <g class="node" transform="translate(4 400)">
            <ellipse cx="822" cy="-306" fill="none" stroke="#000" rx="70.29" ry="18"/>
            <text x="822" y="-300.95" font-family="Times,serif" font-size="14" text-anchor="middle">:features:ui-labs</text>
        </g>
        <g stroke="#000" class="edge">
            <path fill="none" d="M471.71 30.67C534.71 40.52 646.6 58.45 742 76c6.37 1.17 13.01 2.44 19.64 3.73"/>
            <path d="m762.11 76.26 9.14 5.37-10.49 1.5z"/>
        </g>
        <g class="node" transform="translate(4 400)">
            <ellipse cx="472" cy="-306" fill="none" stroke="#000" rx="80.01" ry="18"/>
            <text x="472" y="-300.95" font-family="Times,serif" font-size="14" text-anchor="middle">:features:ui-setting</text>
        </g>
        <g stroke="red" stroke-width="2" class="edge">
            <path fill="none" d="M435.07 39.95c6.3 8.16 14 18.14 21.01 27.23"/>
            <path fill="red" d="m457.86 63.76 3.34 10.05-8.88-5.78z"/>
        </g>
        <g stroke="#000" class="edge">
            <path fill="none" d="M139.62 184.28c13.76 19.45 38.26 51.01 65.38 71.72 65.7 50.16 154.76 87.48 210.01 107.74"/>
            <path d="m415.96 360.36 8.21 6.69-10.59-.1z"/>
        </g>
        <g stroke="#000" class="edge">
            <path fill="none" d="M157.39 183.59c18.33 10.35 41.98 23.7 61.05 34.47"/>
            <path d="m219.92 214.87 6.98 7.96-10.42-1.87z"/>
        </g>
        <g stroke="#000" class="edge">
            <path fill="none" d="M372.17 184.15c17.65 37.02 59.43 124.67 80.78 169.46"/>
            <path d="m455.99 351.87 1.15 10.53-7.47-7.52z"/>
        </g>
        <g stroke="#000" class="edge">
            <path fill="none" d="M618.57 254.38C604.33 264.76 585.31 278.9 569 292c-14.58 11.72-50.53 42.99-75.83 65.14"/>
            <path d="m495.68 359.59-9.83 3.96 5.22-9.22z"/>
        </g>
        <g class="node" transform="translate(4 400)">
            <ellipse cx="780" cy="-90" fill="none" stroke="#000" rx="63.63" ry="18"/>
            <text x="780" y="-84.95" font-family="Times,serif" font-size="14" text-anchor="middle">:core:database</text>
        </g>
        <g stroke="red" stroke-width="2" class="edge">
            <path fill="none" d="m668.45 252.83 74.26 36.1"/>
            <path fill="red" d="m742.68 285.02 7.46 7.52-10.52-1.22z"/>
        </g>
        <g class="node" transform="translate(4 400)">
            <ellipse cx="780" cy="-18" fill="none" stroke="#000" rx="55.45" ry="18"/>
            <text x="780" y="-12.95" font-family="Times,serif" font-size="14" text-anchor="middle">:core:model</text>
        </g>
        <g stroke="#000" class="edge">
            <path fill="none" d="M685.13 243.54c57.2 6.8 150.91 21.77 171.87 48.46 9.88 12.58 7.27 21.75 0 36-6.97 13.68-19.31 24.65-31.87 32.98"/>
            <path d="m827.2 363.82-10.36 2.23 6.71-8.2z"/>
        </g>
        <g class="node" transform="translate(4 400)">
            <ellipse cx="636" cy="-90" fill="none" stroke="#000" rx="62.1" ry="18"/>
            <text x="636" y="-84.95" font-family="Times,serif" font-size="14" text-anchor="middle">:core:network</text>
        </g>
        <g stroke="#000" class="edge">
            <path fill="none" d="M640 256.3v24.16"/>
            <path d="m643.5 280.38-3.5 10-3.5-10z"/>
        </g>
        <g stroke="red" stroke-width="2" class="edge">
            <path fill="none" d="M640 184.3v24.16"/>
            <path fill="red" d="m643.5 206.87-3.5 10-3.5-10z"/>
        </g>
        <g stroke="#000" class="edge">
            <path fill="none" d="M477.22 112.18c.67 10.36 1.44 23.84 1.78 35.82 2.09 73.85-5.39 160.72-9.87 204.58"/>
            <path d="m472.64 352.68-4.53 9.58-2.44-10.31z"/>
        </g>
        <g stroke="#000" class="edge">
            <path fill="none" d="M417.75 106.72c-58.95 11.86-150.36 30.24-214.71 43.19"/>
            <path d="m203.73 153.34-10.5-1.46 9.12-5.41z"/>
        </g>
        <g stroke="#000" class="edge">
            <path fill="none" d="m449.74 111.41-49.59 31"/>
            <path d="m402.1 145.31-10.33 2.34 6.62-8.27z"/>
        </g>
        <g stroke="#000" class="edge">
            <path fill="none" d="M493.04 111.93c18.66 18.3 49.71 48.08 77.96 72.07 12.39 10.52 26.55 21.55 38.81 30.82"/>
            <path d="m611.63 211.81 5.9 8.8-10.1-3.2z"/>
        </g>
        <g stroke="#000" class="edge">
            <path fill="none" d="M477.31 112.17c.53 19.94-1.84 52.55-20.31 71.83-21.5 22.44-104.04 38.36-157.6 46.58"/>
            <path d="m300.02 234.03-10.41-1.99 9.38-4.94z"/>
        </g>
        <g stroke="red" stroke-width="2" class="edge">
            <path fill="none" d="M511.99 110.36c24.7 10.54 57.62 24.6 83.9 35.81"/>
            <path fill="red" d="m595.72 142.3 7.83 7.14-10.57-.71z"/>
        </g>
        <g stroke="red" stroke-width="2" class="edge">
            <path fill="none" d="M784 328.3v24.16"/>
            <path fill="red" d="m787.5 350.87-3.5 10-3.5-10z"/>
        </g>
        <g stroke="#000" class="edge">
            <path fill="none" d="M604.79 325.17c-26.71 10.74-63.66 25.61-92.72 37.3"/>
            <path d="m513.74 365.57-10.58.48 7.97-6.98z"/>
        </g>
        <g stroke="#000" class="edge">
            <path fill="none" d="M670.89 326.02c21.36 10.38 49.97 24.29 73.07 35.52"/>
            <path d="m745.32 358.31 7.46 7.52-10.52-1.23z"/>
        </g>
    </g>
</svg>
