<svg xmlns="http://www.w3.org/2000/svg" width="1308" height="404pt" viewBox="0 0 981.31 404">
    <g class="graph">
        <path fill="#fff" d="M0 404V0h981.31v404z"/>
        <g class="node" transform="translate(4 400)">
            <ellipse cx="491" cy="-378" fill="none" stroke="#000" rx="55.96" ry="18"/>
            <text x="491" y="-372.95" font-family="Times,serif" font-size="14" text-anchor="middle">:app-cnubus</text>
        </g>
        <g class="node" transform="translate(4 400)">
            <ellipse cx="434" cy="-18" fill="none" stroke="#000" rx="65.17" ry="18"/>
            <text x="434" y="-12.95" font-family="Times,serif" font-size="14" text-anchor="middle">:core:common</text>
        </g>
        <g stroke="#000" class="edge">
            <path fill="none" d="M440.73 26.8C349.32 33.81 168.96 50.43 111 76 54.41 100.97 4 103.14 4 165v74c0 75.53 240.45 117.3 363.4 133.71"/>
            <path d="m367.6 369.21 9.46 4.77-10.37 2.17z"/>
        </g>
        <g class="node" transform="translate(4 400)">
            <ellipse cx="162" cy="-234" fill="none" stroke="#000" rx="96.39" ry="18"/>
            <text x="162" y="-228.95" font-family="Times,serif" font-size="14" text-anchor="middle">:core:common-android</text>
        </g>
        <g stroke="#000" class="edge">
            <path fill="none" d="M462.55 37c-58.32 25.18-181.09 78.17-248.95 107.46"/>
            <path d="m215.16 147.6-10.57.74 7.79-7.17z"/>
        </g>
        <g class="node" transform="translate(4 400)">
            <ellipse cx="360" cy="-234" fill="none" stroke="#000" rx="84.11" ry="18"/>
            <text x="360" y="-228.95" font-family="Times,serif" font-size="14" text-anchor="middle">:core:compose-core</text>
        </g>
        <g stroke="#000" class="edge">
            <path fill="none" d="M461.68 36.93C443.38 45.92 421.35 59.09 406 76c-15.89 17.49-26.86 42.06-33.6 60.95"/>
            <path d="m375.72 138.06-6.5 8.37-.14-10.59z"/>
        </g>
        <g class="node" transform="translate(4 400)">
            <ellipse cx="694" cy="-162" fill="none" stroke="#000" rx="47.26" ry="18"/>
            <text x="694" y="-156.95" font-family="Times,serif" font-size="14" text-anchor="middle">:core:data</text>
        </g>
        <g stroke="#000" class="edge">
            <path fill="none" d="M549.37 26.86C629.39 33.37 774.15 48.59 818 76c33.25 20.78 39.11 34.63 51 72 4.85 15.25 9.49 23.12 0 36-25.59 34.73-73.7 47.38-112.39 51.68"/>
            <path d="m757.25 239.14-10.28-2.56 9.63-4.41z"/>
        </g>
        <g class="node" transform="translate(4 400)">
            <ellipse cx="785" cy="-234" fill="none" stroke="#000" rx="70.8" ry="18"/>
            <text x="785" y="-228.95" font-family="Times,serif" font-size="14" text-anchor="middle">:core:navigation</text>
        </g>
        <g stroke="#000" class="edge">
            <path fill="none" d="M529.78 36.41C553.59 46.15 585.52 60.33 612 76c22.95 13.58 24.81 22.83 48 36 24.28 13.79 52.87 25.92 76.95 35.07"/>
            <path d="m738.1 143.77 8.15 6.77-10.59-.21z"/>
        </g>
        <g class="node" transform="translate(4 400)">
            <ellipse cx="228" cy="-162" fill="none" stroke="#000" rx="37.53" ry="18"/>
            <text x="228" y="-156.95" font-family="Times,serif" font-size="14" text-anchor="middle">:shared</text>
        </g>
        <g stroke="#000" class="edge">
            <path fill="none" d="M444.13 29.86C339.6 45.13 106.63 85.57 61 148c-35.23 48.2 61.68 72.44 123.67 82.71"/>
            <path d="m184.98 227.22 9.33 5.01-10.43 1.9z"/>
        </g>
        <g class="node" transform="translate(4 400)">
            <ellipse cx="636" cy="-234" fill="none" stroke="#000" rx="60.05" ry="18"/>
            <text x="636" y="-228.95" font-family="Times,serif" font-size="14" text-anchor="middle">:core:domain</text>
        </g>
        <g stroke="#000" class="edge">
            <path fill="none" d="M526.72 37.23C544.93 46.47 567.4 59.8 584 76c18.33 17.88 33.38 42.88 43.25 61.84"/>
            <path d="m630.28 136.07 1.35 10.51-7.61-7.37z"/>
        </g>
        <g class="node" transform="translate(4 400)">
            <ellipse cx="735" cy="-306" fill="none" stroke="#000" rx="70.29" ry="18"/>
            <text x="735" y="-300.95" font-family="Times,serif" font-size="14" text-anchor="middle">:features:ui-labs</text>
        </g>
        <g stroke="#000" class="edge">
            <path fill="none" d="M535.84 34.72c40.15 11.51 101.75 29.19 146.6 42.05"/>
            <path d="m683.36 73.4 8.64 6.12-10.57.6z"/>
        </g>
        <g class="node" transform="translate(4 400)">
            <ellipse cx="491" cy="-306" fill="none" stroke="#000" rx="80.01" ry="18"/>
            <text x="491" y="-300.95" font-family="Times,serif" font-size="14" text-anchor="middle">:features:ui-setting</text>
        </g>
        <g stroke="red" stroke-width="2" class="edge">
            <path fill="none" d="M495 40.3v24.16"/>
            <path fill="red" d="m498.5 62.87-3.5 10-3.5-10z"/>
        </g>
        <g stroke="#000" class="edge">
            <path fill="none" d="M165.42 184.24c.23 19.41 3.38 50.93 19.58 71.76 47.76 61.4 133.59 94.72 191.9 111.17"/>
            <path d="m377.63 363.74 8.72 6.01-10.56.74z"/>
        </g>
        <g stroke="#000" class="edge">
            <path fill="none" d="M181.98 183.95c8.18 8.67 18.27 19.38 27.25 28.9"/>
            <path d="m211.72 210.39 4.32 9.68-9.41-4.88z"/>
        </g>
        <g stroke="#000" class="edge">
            <path fill="none" d="M369.93 184.15c12.75 36.86 42.85 123.93 58.4 168.89"/>
            <path d="m431.59 351.74-.04 10.6-6.58-8.31z"/>
        </g>
        <g stroke="#000" class="edge">
            <path fill="none" d="M657.82 247.98C624.98 256.37 578.09 270.81 541 292c-4.28 2.44-46.68 39.46-75.73 64.98"/>
            <path d="m467.7 359.51-9.82 3.97 5.2-9.23z"/>
        </g>
        <g class="node" transform="translate(4 400)">
            <ellipse cx="752" cy="-90" fill="none" stroke="#000" rx="63.63" ry="18"/>
            <text x="752" y="-84.95" font-family="Times,serif" font-size="14" text-anchor="middle">:core:database</text>
        </g>
        <g stroke="red" stroke-width="2" class="edge">
            <path fill="none" d="M711.75 255.59c6.83 8.25 15.24 18.4 22.89 27.63"/>
            <path fill="red" d="m736.33 279.78 3.69 9.93-9.08-5.46z"/>
        </g>
        <g class="node" transform="translate(4 400)">
            <ellipse cx="895" cy="-90" fill="none" stroke="#000" rx="61.59" ry="18"/>
            <text x="895" y="-84.95" font-family="Times,serif" font-size="14" text-anchor="middle">:core:data-api</text>
        </g>
        <g stroke="#000" class="edge">
            <path fill="none" d="M732.1 250.87c32.41 11.29 81.52 28.39 118.08 41.13"/>
            <path d="m850.89 288.54 8.29 6.59-10.59.02z"/>
        </g>
        <g class="node" transform="translate(4 400)">
            <ellipse cx="823" cy="-18" fill="none" stroke="#000" rx="55.45" ry="18"/>
            <text x="823" y="-12.95" font-family="Times,serif" font-size="14" text-anchor="middle">:core:model</text>
        </g>
        <g stroke="#000" class="edge">
            <path fill="none" d="M744.91 241.18c70.13 4.36 197.1 16.85 225.09 50.82 10.17 12.35 9.14 22.87 0 36-17.9 25.73-49.82 38.99-78.97 45.82"/>
            <path d="m892.01 377.19-10.5-1.36 9.06-5.49z"/>
        </g>
        <g class="node" transform="translate(4 400)">
            <ellipse cx="608" cy="-90" fill="none" stroke="#000" rx="62.1" ry="18"/>
            <text x="608" y="-84.95" font-family="Times,serif" font-size="14" text-anchor="middle">:core:network</text>
        </g>
        <g stroke="#000" class="edge">
            <path fill="none" d="M678.49 254.88c-11.17 9.09-25.38 20.66-37.8 30.77"/>
            <path d="m643.17 288.14-9.96 3.6 5.54-9.03z"/>
        </g>
        <g stroke="red" stroke-width="2" class="edge">
            <path fill="none" d="M654.04 183.95c6.94 8.37 15.45 18.65 23.13 27.92"/>
            <path fill="red" d="m678.87 208.43 3.69 9.93-9.08-5.47z"/>
        </g>
        <g stroke="#000" class="edge">
            <path fill="none" d="M492.84 112.46c-2.31 17.99-6.28 46.82-10.84 71.54-11.18 60.59-27.75 130.87-37.04 168.96"/>
            <path d="m448.47 353.35-5.79 8.88-1.01-10.55z"/>
        </g>
        <g stroke="#000" class="edge">
            <path fill="none" d="M438.44 107.03c-55.17 11.74-139.35 29.65-199.53 42.46"/>
            <path d="m239.96 152.84-10.51-1.34 9.05-5.5z"/>
        </g>
        <g stroke="#000" class="edge">
            <path fill="none" d="m464.95 111.06-60.45 32.3"/>
            <path d="m406.17 146.43-10.47 1.63 7.17-7.8z"/>
        </g>
        <g stroke="#000" class="edge">
            <path fill="none" d="M505.99 112.19C519.3 131.85 543.41 163.9 571 184c23.72 17.28 53.91 30.18 78.91 38.92"/>
            <path d="m650.83 219.54 8.36 6.51-10.6.13z"/>
        </g>
        <g stroke="#000" class="edge">
            <path fill="none" d="M548.58 107.76c50.56 12.04 126.31 30.07 179.22 42.67"/>
            <path d="m728.34 146.96 8.92 5.72-10.54 1.09z"/>
        </g>
        <g stroke="#000" class="edge">
            <path fill="none" d="M492.42 112.16C488.44 132.4 478.86 165.62 457 184c-26.56 22.34-119.95 38.69-177.73 46.94"/>
            <path d="m280.11 234.36-10.39-2.09 9.42-4.84z"/>
        </g>
        <g stroke="red" stroke-width="2" class="edge">
            <path fill="none" d="M527.9 110.88c21.07 10.17 48.56 23.45 71.05 34.3"/>
            <path fill="red" d="m599 141.32 7.48 7.5-10.52-1.2z"/>
        </g>
        <g stroke="red" stroke-width="2" class="edge">
            <path fill="none" d="M772.83 327.59c8.75 8.63 19.62 19.35 29.32 28.91"/>
            <path fill="red" d="m803.48 352.89 4.66 9.51-9.58-4.52z"/>
        </g>
        <g stroke="#000" class="edge">
            <path fill="none" d="M881.94 327.59c-8.97 8.72-20.13 19.56-30.04 29.2"/>
            <path d="m854.64 359.01-9.61 4.46 4.73-9.48z"/>
        </g>
        <g stroke="#000" class="edge">
            <path fill="none" d="M576.79 325.17c-26.71 10.74-63.66 25.61-92.72 37.3"/>
            <path d="m485.74 365.57-10.58.48 7.97-6.98z"/>
        </g>
        <g stroke="#000" class="edge">
            <path fill="none" d="M652.19 324.08c35.62 11.6 87.74 28.57 125.79 40.96"/>
            <path d="m778.95 361.68 8.43 6.42-10.6.23z"/>
        </g>
    </g>
</svg>
