<svg xmlns="http://www.w3.org/2000/svg" width="1172" height="404pt" viewBox="0 0 878.87 404">
    <g class="graph">
        <path fill="#fff" d="M0 404V0h878.87v404z"/>
        <g class="node" transform="translate(4 400)">
            <ellipse cx="491" cy="-378" fill="none" stroke="#000" rx="55.96" ry="18"/>
            <text x="491" y="-372.95" font-family="Times,serif" font-size="14" text-anchor="middle">:app-cnubus</text>
        </g>
        <g class="node" transform="translate(4 400)">
            <ellipse cx="463" cy="-18" fill="none" stroke="#000" rx="65.17" ry="18"/>
            <text x="463" y="-12.95" font-family="Times,serif" font-size="14" text-anchor="middle">:core:common</text>
        </g>
        <g stroke="#000" class="edge">
            <path fill="none" d="M440.73 26.8C349.32 33.81 168.96 50.43 111 76 54.41 100.97 4 103.14 4 165v74c0 80.7 260.32 120.21 390.57 134.94"/>
            <path d="m394.94 370.46 9.55 4.58-10.32 2.37z"/>
        </g>
        <g class="node" transform="translate(4 400)">
            <ellipse cx="162" cy="-234" fill="none" stroke="#000" rx="96.39" ry="18"/>
            <text x="162" y="-228.95" font-family="Times,serif" font-size="14" text-anchor="middle">:core:common-android</text>
        </g>
        <g stroke="#000" class="edge">
            <path fill="none" d="M462.55 37c-58.32 25.18-181.09 78.17-248.95 107.46"/>
            <path d="m215.16 147.6-10.57.74 7.79-7.17z"/>
        </g>
        <g class="node" transform="translate(4 400)">
            <ellipse cx="360" cy="-234" fill="none" stroke="#000" rx="84.11" ry="18"/>
            <text x="360" y="-228.95" font-family="Times,serif" font-size="14" text-anchor="middle">:core:compose-core</text>
        </g>
        <g stroke="#000" class="edge">
            <path fill="none" d="M461.68 36.93C443.38 45.92 421.35 59.09 406 76c-15.89 17.49-26.86 42.06-33.6 60.95"/>
            <path d="m375.72 138.06-6.5 8.37-.14-10.59z"/>
        </g>
        <g class="node" transform="translate(4 400)">
            <ellipse cx="637" cy="-162" fill="none" stroke="#000" rx="47.26" ry="18"/>
            <text x="637" y="-156.95" font-family="Times,serif" font-size="14" text-anchor="middle">:core:data</text>
        </g>
        <g stroke="#000" class="edge">
            <path fill="none" d="M549.37 26.86C629.39 33.37 774.15 48.59 818 76c33.25 20.78 39.11 34.63 51 72 4.85 15.25 9.95 23.47 0 36-20.95 26.38-110.42 40.82-170.85 47.72"/>
            <path d="m698.68 235.19-10.32-2.39 9.56-4.57z"/>
        </g>
        <g class="node" transform="translate(4 400)">
            <ellipse cx="785" cy="-234" fill="none" stroke="#000" rx="70.8" ry="18"/>
            <text x="785" y="-228.95" font-family="Times,serif" font-size="14" text-anchor="middle">:core:navigation</text>
        </g>
        <g stroke="#000" class="edge">
            <path fill="none" d="M529.78 36.41C553.59 46.15 585.52 60.33 612 76c22.95 13.58 24.81 22.83 48 36 24.28 13.79 52.87 25.92 76.95 35.07"/>
            <path d="m738.1 143.77 8.15 6.77-10.59-.21z"/>
        </g>
        <g class="node" transform="translate(4 400)">
            <ellipse cx="228" cy="-162" fill="none" stroke="#000" rx="37.53" ry="18"/>
            <text x="228" y="-156.95" font-family="Times,serif" font-size="14" text-anchor="middle">:shared</text>
        </g>
        <g stroke="#000" class="edge">
            <path fill="none" d="M444.13 29.86C339.6 45.13 106.63 85.57 61 148c-35.23 48.2 61.68 72.44 123.67 82.71"/>
            <path d="m184.98 227.22 9.33 5.01-10.43 1.9z"/>
        </g>
        <g class="node" transform="translate(4 400)">
            <ellipse cx="636" cy="-234" fill="none" stroke="#000" rx="60.05" ry="18"/>
            <text x="636" y="-228.95" font-family="Times,serif" font-size="14" text-anchor="middle">:core:domain</text>
        </g>
        <g stroke="#000" class="edge">
            <path fill="none" d="M526.72 37.23C544.93 46.47 567.4 59.8 584 76c18.33 17.88 33.38 42.88 43.25 61.84"/>
            <path d="m630.28 136.07 1.35 10.51-7.61-7.37z"/>
        </g>
        <g class="node" transform="translate(4 400)">
            <ellipse cx="735" cy="-306" fill="none" stroke="#000" rx="70.29" ry="18"/>
            <text x="735" y="-300.95" font-family="Times,serif" font-size="14" text-anchor="middle">:features:ui-labs</text>
        </g>
        <g stroke="#000" class="edge">
            <path fill="none" d="M535.84 34.72c40.15 11.51 101.75 29.19 146.6 42.05"/>
            <path d="m683.36 73.4 8.64 6.12-10.57.6z"/>
        </g>
        <g class="node" transform="translate(4 400)">
            <ellipse cx="491" cy="-306" fill="none" stroke="#000" rx="80.01" ry="18"/>
            <text x="491" y="-300.95" font-family="Times,serif" font-size="14" text-anchor="middle">:features:ui-setting</text>
        </g>
        <g stroke="red" stroke-width="2" class="edge">
            <path fill="none" d="M495 40.3v24.16"/>
            <path fill="red" d="m498.5 62.87-3.5 10-3.5-10z"/>
        </g>
        <g stroke="#000" class="edge">
            <path fill="none" d="M165.26 184.36c.09 19.52 3.11 51.16 19.74 71.64 54.16 66.71 151.23 98.91 216.12 113.64"/>
            <path d="m401.55 366.15 9.02 5.55-10.51 1.29z"/>
        </g>
        <g stroke="#000" class="edge">
            <path fill="none" d="M181.98 183.95c8.18 8.67 18.27 19.38 27.25 28.9"/>
            <path d="m211.72 210.39 4.32 9.68-9.41-4.88z"/>
        </g>
        <g stroke="#000" class="edge">
            <path fill="none" d="m372.25 184.15 81.57 169.46"/>
            <path d="m456.87 351.88 1.18 10.52-7.49-7.49z"/>
        </g>
        <g stroke="#000" class="edge">
            <path fill="none" d="M619.57 254.38C605.33 264.76 586.31 278.9 570 292c-14.58 11.72-50.53 42.99-75.83 65.14"/>
            <path d="m496.68 359.59-9.83 3.96 5.22-9.22z"/>
        </g>
        <g class="node" transform="translate(4 400)">
            <ellipse cx="781" cy="-90" fill="none" stroke="#000" rx="63.63" ry="18"/>
            <text x="781" y="-84.95" font-family="Times,serif" font-size="14" text-anchor="middle">:core:database</text>
        </g>
        <g stroke="red" stroke-width="2" class="edge">
            <path fill="none" d="m669.45 252.83 74.26 36.1"/>
            <path fill="red" d="m743.68 285.02 7.46 7.52-10.52-1.22z"/>
        </g>
        <g class="node" transform="translate(4 400)">
            <ellipse cx="781" cy="-18" fill="none" stroke="#000" rx="55.45" ry="18"/>
            <text x="781" y="-12.95" font-family="Times,serif" font-size="14" text-anchor="middle">:core:model</text>
        </g>
        <g stroke="#000" class="edge">
            <path fill="none" d="M686.13 243.54c57.2 6.8 150.91 21.77 171.87 48.46 9.88 12.58 7.27 21.75 0 36-6.97 13.68-19.31 24.65-31.87 32.98"/>
            <path d="m828.2 363.82-10.36 2.23 6.71-8.2z"/>
        </g>
        <g class="node" transform="translate(4 400)">
            <ellipse cx="637" cy="-90" fill="none" stroke="#000" rx="62.1" ry="18"/>
            <text x="637" y="-84.95" font-family="Times,serif" font-size="14" text-anchor="middle">:core:network</text>
        </g>
        <g stroke="#000" class="edge">
            <path fill="none" d="M641 256.3v24.16"/>
            <path d="m644.5 280.38-3.5 10-3.5-10z"/>
        </g>
        <g stroke="red" stroke-width="2" class="edge">
            <path fill="none" d="M640.25 184.3c.1 7.29.23 15.97.34 24.16"/>
            <path fill="red" d="m644.07 206.82-3.36 10.05-3.64-9.95z"/>
        </g>
        <g stroke="#000" class="edge">
            <path fill="none" d="M493.29 112.46c-4.68 47.78-17.72 181.03-23.49 239.93"/>
            <path d="m473.29 352.65-4.46 9.61-2.5-10.29z"/>
        </g>
        <g stroke="#000" class="edge">
            <path fill="none" d="M438.44 107.03c-55.17 11.74-139.35 29.65-199.53 42.46"/>
            <path d="m239.96 152.84-10.51-1.34 9.05-5.5z"/>
        </g>
        <g stroke="#000" class="edge">
            <path fill="none" d="m464.95 111.06-60.45 32.3"/>
            <path d="m406.17 146.43-10.47 1.63 7.17-7.8z"/>
        </g>
        <g stroke="#000" class="edge">
            <path fill="none" d="M507.74 112.02C522.09 130.68 546.61 161 571 184c11.84 11.17 25.98 22.24 38.45 31.35"/>
            <path d="m611.27 212.35 6.08 8.68-10.16-2.99z"/>
        </g>
        <g stroke="#000" class="edge">
            <path fill="none" d="M548.58 107.76c50.56 12.04 126.31 30.07 179.22 42.67"/>
            <path d="m728.34 146.96 8.92 5.72-10.54 1.09z"/>
        </g>
        <g stroke="#000" class="edge">
            <path fill="none" d="M492.42 112.16C488.44 132.4 478.86 165.62 457 184c-26.56 22.34-119.95 38.69-177.73 46.94"/>
            <path d="m280.11 234.36-10.39-2.09 9.42-4.84z"/>
        </g>
        <g stroke="red" stroke-width="2" class="edge">
            <path fill="none" d="M527.9 110.88c21.07 10.17 48.56 23.45 71.05 34.3"/>
            <path fill="red" d="m599 141.32 7.48 7.5-10.52-1.2z"/>
        </g>
        <g stroke="red" stroke-width="2" class="edge">
            <path fill="none" d="M785 328.3v24.16"/>
            <path fill="red" d="m788.5 350.87-3.5 10-3.5-10z"/>
        </g>
        <g stroke="#000" class="edge">
            <path fill="none" d="M605.79 325.17c-26.71 10.74-63.66 25.61-92.72 37.3"/>
            <path d="m514.74 365.57-10.58.48 7.97-6.98z"/>
        </g>
        <g stroke="#000" class="edge">
            <path fill="none" d="M671.89 326.02c21.36 10.38 49.97 24.29 73.07 35.52"/>
            <path d="m746.32 358.31 7.46 7.52-10.52-1.23z"/>
        </g>
    </g>
</svg>
