<svg xmlns="http://www.w3.org/2000/svg" width="1184" height="332pt" viewBox="0 0 888.19 332">
    <g class="graph">
        <path fill="#fff" d="M0 332V0h888.19v332z"/>
        <g class="node" transform="translate(4 328)">
            <ellipse cx="518.63" cy="-306" fill="none" stroke="#000" rx="55.96" ry="18"/>
            <text x="518.63" y="-300.95" font-family="Times,serif" font-size="14" text-anchor="middle">:app-cnubus</text>
        </g>
        <g class="node" transform="translate(4 328)">
            <ellipse cx="518.63" cy="-162" fill="none" stroke="#000" rx="96.39" ry="18"/>
            <text x="518.63" y="-156.95" font-family="Times,serif" font-size="14" text-anchor="middle">:core:common-android</text>
        </g>
        <g stroke="#000" class="edge">
            <path fill="none" d="M486.05 35.91C468.04 44.33 448.01 57.3 437.63 76c-7.76 13.99-7.76 22.01 0 36 7.54 13.58 20.17 24.14 33.41 32.13"/>
            <path d="m472.36 140.85 7.05 7.91-10.44-1.78z"/>
        </g>
        <g class="node" transform="translate(4 328)">
            <ellipse cx="322.63" cy="-162" fill="none" stroke="#000" rx="47.26" ry="18"/>
            <text x="322.63" y="-156.95" font-family="Times,serif" font-size="14" text-anchor="middle">:core:data</text>
        </g>
        <g stroke="#000" class="edge">
            <path fill="none" d="M492.98 37.46c-19.25 9.88-44.53 23.82-65.35 38.54-27.92 19.75-56.92 46-76.65 64.87"/>
            <path d="m353.58 143.23-9.62 4.44 4.75-9.47z"/>
        </g>
        <g class="node" transform="translate(4 328)">
            <ellipse cx="738.63" cy="-162" fill="none" stroke="#000" rx="70.8" ry="18"/>
            <text x="738.63" y="-156.95" font-family="Times,serif" font-size="14" text-anchor="middle">:core:navigation</text>
        </g>
        <g stroke="#000" class="edge">
            <path fill="none" d="M576.49 27.37C639.21 33.71 737.13 47.91 759.63 76c13.88 17.32 7.3 42.59-1.41 61.77"/>
            <path d="m761.4 139.24-7.59 7.4 1.32-10.52z"/>
        </g>
        <g class="node" transform="translate(4 328)">
            <ellipse cx="288.63" cy="-234" fill="none" stroke="#000" rx="60.05" ry="18"/>
            <text x="288.63" y="-228.95" font-family="Times,serif" font-size="14" text-anchor="middle">:core:domain</text>
        </g>
        <g stroke="red" stroke-width="2" class="edge">
            <path fill="none" d="M482.83 35.11c-38.35 11.68-96.59 29.4-138.51 42.16"/>
            <path fill="red" d="m346.98 80.12-10.59-.44 8.55-6.26z"/>
        </g>
        <g class="node" transform="translate(4 328)">
            <ellipse cx="679.63" cy="-234" fill="none" stroke="#000" rx="66.71" ry="18"/>
            <text x="679.63" y="-228.95" font-family="Times,serif" font-size="14" text-anchor="middle">:feature:ui-labs</text>
        </g>
        <g stroke="#000" class="edge">
            <path fill="none" d="M554.83 37c24.22 10.53 57.7 25.09 84.46 36.72"/>
            <path d="m640.39 70.38 7.77 7.2-10.56-.78z"/>
        </g>
        <g class="node" transform="translate(4 328)">
            <ellipse cx="518.63" cy="-234" fill="none" stroke="#000" rx="76.43" ry="18"/>
            <text x="518.63" y="-228.95" font-family="Times,serif" font-size="14" text-anchor="middle">:feature:ui-setting</text>
        </g>
        <g stroke="#000" class="edge">
            <path fill="none" d="M522.63 40.3v24.16"/>
            <path d="m526.13 64.38-3.5 10-3.5-10z"/>
        </g>
        <g class="node" transform="translate(4 328)">
            <ellipse cx="841.63" cy="-234" fill="none" stroke="#000" rx="38.56" ry="18"/>
            <text x="841.63" y="-228.95" font-family="Times,serif" font-size="14" text-anchor="middle">:widget</text>
        </g>
        <g stroke="#000" class="edge">
            <path fill="none" d="M571.8 30.88C626.21 40 716.31 56.34 792.63 76c3.82.98 7.76 2.08 11.69 3.24"/>
            <path d="m805.28 75.87 8.54 6.28-10.59.41z"/>
        </g>
        <g class="node" transform="translate(4 328)">
            <ellipse cx="493.63" cy="-90" fill="none" stroke="#000" rx="65.17" ry="18"/>
            <text x="493.63" y="-84.95" font-family="Times,serif" font-size="14" text-anchor="middle">:core:common</text>
        </g>
        <g stroke="#000" class="edge">
            <path fill="none" d="M516.46 184.3c-2.7 7.55-5.93 16.58-8.94 25.02"/>
            <path d="m510.91 210.23-6.66 8.24.07-10.59z"/>
        </g>
        <g class="node" transform="translate(4 328)">
            <ellipse cx="660.63" cy="-90" fill="none" stroke="#000" rx="84.11" ry="18"/>
            <text x="660.63" y="-84.95" font-family="Times,serif" font-size="14" text-anchor="middle">:core:compose-core</text>
        </g>
        <g stroke="#000" class="edge">
            <path fill="none" d="M555.57 183.24c19.85 9.78 45.35 22.35 66.7 32.87"/>
            <path d="m623.59 212.86 7.42 7.56-10.52-1.28z"/>
        </g>
        <g class="node" transform="translate(4 328)">
            <ellipse cx="800.63" cy="-90" fill="none" stroke="#000" rx="37.53" ry="18"/>
            <text x="800.63" y="-84.95" font-family="Times,serif" font-size="14" text-anchor="middle">:shared</text>
        </g>
        <g stroke="#000" class="edge">
            <path fill="none" d="M588.54 179.56c47.42 9.6 112.69 23.95 169.09 40.44 2.53.74 5.13 1.54 7.73 2.38"/>
            <path d="m766.21 218.98 8.35 6.53-10.6.1z"/>
        </g>
        <g class="node" transform="translate(4 328)">
            <ellipse cx="63.63" cy="-90" fill="none" stroke="#000" rx="63.63" ry="18"/>
            <text x="63.63" y="-84.95" font-family="Times,serif" font-size="14" text-anchor="middle">:core:database</text>
        </g>
        <g stroke="red" stroke-width="2" class="edge">
            <path fill="none" d="M288.97 177.18c-43.56 11.77-115.7 31.27-165.72 44.79"/>
            <path fill="red" d="m125.79 224.91-10.57-.77 8.74-5.99z"/>
        </g>
        <g class="node" transform="translate(4 328)">
            <ellipse cx="206.63" cy="-90" fill="none" stroke="#000" rx="61.59" ry="18"/>
            <text x="206.63" y="-84.95" font-family="Times,serif" font-size="14" text-anchor="middle">:core:data-api</text>
        </g>
        <g stroke="#000" class="edge">
            <path fill="none" d="M302.03 181.85c-16.27 9.82-37.86 22.85-55.98 33.78"/>
            <path d="m248.07 218.5-10.37 2.17 6.76-8.17z"/>
        </g>
        <g class="node" transform="translate(4 328)">
            <ellipse cx="348.63" cy="-90" fill="none" stroke="#000" rx="62.1" ry="18"/>
            <text x="348.63" y="-84.95" font-family="Times,serif" font-size="14" text-anchor="middle">:core:network</text>
        </g>
        <g stroke="#000" class="edge">
            <path fill="none" d="M333.06 184.3c2.8 7.55 6.16 16.58 9.29 25.02"/>
            <path d="m345.55 207.88.2 10.6-6.76-8.16z"/>
        </g>
        <g stroke="red" stroke-width="2" class="edge">
            <path fill="none" d="M301.04 112.3c3.7 7.63 8.15 16.78 12.29 25.3"/>
            <path fill="red" d="m315.78 134.65 1.22 10.52-7.51-7.46z"/>
        </g>
        <g stroke="#000" class="edge">
            <path fill="none" d="M522.63 112.3v24.16"/>
            <path d="m526.13 136.38-3.5 10-3.5-10z"/>
        </g>
        <g stroke="#000" class="edge">
            <path fill="none" d="M482.02 109.5c-32.33 11.55-77.54 27.7-110.86 39.6"/>
            <path d="m372.37 152.38-10.6.07 8.24-6.66z"/>
        </g>
        <g stroke="#000" class="edge">
            <path fill="none" d="M566.89 109.08c35.17 11.19 84.52 26.89 121.97 38.81"/>
            <path d="m689.66 144.47 8.47 6.37-10.59.3z"/>
        </g>
        <g class="node" transform="translate(4 328)">
            <ellipse cx="134.63" cy="-18" fill="none" stroke="#000" rx="55.45" ry="18"/>
            <text x="134.63" y="-12.95" font-family="Times,serif" font-size="14" text-anchor="middle">:core:model</text>
        </g>
        <g stroke="red" stroke-width="2" class="edge">
            <path fill="none" d="M84.46 255.59c8.75 8.63 19.63 19.35 29.33 28.91"/>
            <path fill="red" d="m115.11 280.89 4.66 9.51-9.57-4.52z"/>
        </g>
        <g stroke="#000" class="edge">
            <path fill="none" d="M193.57 255.59c-8.96 8.72-20.12 19.56-30.04 29.2"/>
            <path d="m166.27 287.01-9.61 4.46 4.73-9.48z"/>
        </g>
    </g>
</svg>
