<?xml version="1.0" encoding="UTF-8" standalone="no"?>
<!DOCTYPE svg PUBLIC "-//W3C//DTD SVG 1.1//EN"
 "http://www.w3.org/Graphics/SVG/1.1/DTD/svg11.dtd">
<!-- Generated by graphviz version 10.0.1 (20240210.2158)
 -->
<!-- Title: G Pages: 1 -->
<svg width="918pt" height="404pt"
 viewBox="0.00 0.00 918.29 404.00" xmlns="http://www.w3.org/2000/svg" xmlns:xlink="http://www.w3.org/1999/xlink">
<g id="graph0" class="graph" transform="scale(1 1) rotate(0) translate(4 400)">
<title>G</title>
<polygon fill="white" stroke="none" points="-4,4 -4,-400 914.29,-400 914.29,4 -4,4"/>
<!-- :app&#45;cnubus -->
<g id="node1" class="node">
<title>:app&#45;cnubus</title>
<ellipse fill="none" stroke="black" cx="462" cy="-378" rx="55.96" ry="18"/>
<text text-anchor="middle" x="462" y="-372.95" font-family="Times,serif" font-size="14.00">:app&#45;cnubus</text>
</g>
<!-- :core:common -->
<g id="node2" class="node">
<title>:core:common</title>
<ellipse fill="none" stroke="black" cx="394" cy="-18" rx="65.17" ry="18"/>
<text text-anchor="middle" x="394" y="-12.95" font-family="Times,serif" font-size="14.00">:core:common</text>
</g>
<!-- :app&#45;cnubus&#45;&gt;:core:common -->
<g id="edge1" class="edge">
<title>:app&#45;cnubus&#45;&gt;:core:common</title>
<path fill="none" stroke="black" d="M409,-372.02C287.65,-359.17 0,-319.75 0,-235 0,-235 0,-235 0,-161 0,-92.46 213.68,-47.86 326.31,-29.11"/>
<polygon fill="black" stroke="black" points="326.75,-32.59 336.06,-27.51 325.62,-25.68 326.75,-32.59"/>
</g>
<!-- :core:common&#45;android -->
<g id="node3" class="node">
<title>:core:common&#45;android</title>
<ellipse fill="none" stroke="black" cx="310" cy="-234" rx="96.39" ry="18"/>
<text text-anchor="middle" x="310" y="-228.95" font-family="Times,serif" font-size="14.00">:core:common&#45;android</text>
</g>
<!-- :app&#45;cnubus&#45;&gt;:core:common&#45;android -->
<g id="edge2" class="edge">
<title>:app&#45;cnubus&#45;&gt;:core:common&#45;android</title>
<path fill="none" stroke="black" d="M431.02,-362.65C412.85,-353.29 390.17,-339.87 373,-324 353.53,-306 336.5,-281.06 325.08,-262.16"/>
<polygon fill="black" stroke="black" points="328.17,-260.52 320.09,-253.66 322.14,-264.06 328.17,-260.52"/>
</g>
<!-- :core:compose&#45;core -->
<g id="node4" class="node">
<title>:core:compose&#45;core</title>
<ellipse fill="none" stroke="black" cx="112" cy="-234" rx="84.11" ry="18"/>
<text text-anchor="middle" x="112" y="-228.95" font-family="Times,serif" font-size="14.00">:core:compose&#45;core</text>
</g>
<!-- :app&#45;cnubus&#45;&gt;:core:compose&#45;core -->
<g id="edge3" class="edge">
<title>:app&#45;cnubus&#45;&gt;:core:compose&#45;core</title>
<path fill="none" stroke="black" d="M428.12,-363.26C365.79,-337.97 232.72,-283.98 160.71,-254.76"/>
<polygon fill="black" stroke="black" points="162.1,-251.55 151.52,-251.03 159.47,-258.04 162.1,-251.55"/>
</g>
<!-- :core:data -->
<g id="node5" class="node">
<title>:core:data</title>
<ellipse fill="none" stroke="black" cx="654" cy="-162" rx="47.26" ry="18"/>
<text text-anchor="middle" x="654" y="-156.95" font-family="Times,serif" font-size="14.00">:core:data</text>
</g>
<!-- :app&#45;cnubus&#45;&gt;:core:data -->
<g id="edge4" class="edge">
<title>:app&#45;cnubus&#45;&gt;:core:data</title>
<path fill="none" stroke="black" d="M512.07,-369.61C574.36,-357.41 677.99,-326.5 723,-252 731.27,-238.31 730.07,-230.35 723,-216 716.31,-202.42 704.28,-191.35 692.12,-182.91"/>
<polygon fill="black" stroke="black" points="694.03,-179.97 683.72,-177.52 690.25,-185.86 694.03,-179.97"/>
</g>
<!-- :core:domain -->
<g id="node6" class="node">
<title>:core:domain</title>
<ellipse fill="none" stroke="black" cx="654" cy="-234" rx="60.05" ry="18"/>
<text text-anchor="middle" x="654" y="-228.95" font-family="Times,serif" font-size="14.00">:core:domain</text>
</g>
<!-- :app&#45;cnubus&#45;&gt;:core:domain -->
<g id="edge5" class="edge">
<title>:app&#45;cnubus&#45;&gt;:core:domain</title>
<path fill="none" stroke="black" d="M490.06,-361.97C507.99,-351.96 531.46,-338.1 551,-324 578.88,-303.89 608.34,-277.89 628.57,-259.2"/>
<polygon fill="black" stroke="black" points="630.88,-261.83 635.81,-252.45 626.11,-256.71 630.88,-261.83"/>
</g>
<!-- :features:ui&#45;labs -->
<g id="node7" class="node">
<title>:features:ui&#45;labs</title>
<ellipse fill="none" stroke="black" cx="840" cy="-306" rx="70.29" ry="18"/>
<text text-anchor="middle" x="840" y="-300.95" font-family="Times,serif" font-size="14.00">:features:ui&#45;labs</text>
</g>
<!-- :app&#45;cnubus&#45;&gt;:features:ui&#45;labs -->
<g id="edge6" class="edge">
<title>:app&#45;cnubus&#45;&gt;:features:ui&#45;labs</title>
<path fill="none" stroke="black" d="M510.44,-368.59C568.76,-358.4 669.66,-340.52 756,-324 762.37,-322.78 769,-321.49 775.62,-320.17"/>
<polygon fill="black" stroke="black" points="776.1,-323.65 785.23,-318.26 774.73,-316.78 776.1,-323.65"/>
</g>
<!-- :features:ui&#45;setting -->
<g id="node8" class="node">
<title>:features:ui&#45;setting</title>
<ellipse fill="none" stroke="black" cx="462" cy="-306" rx="80.01" ry="18"/>
<text text-anchor="middle" x="462" y="-300.95" font-family="Times,serif" font-size="14.00">:features:ui&#45;setting</text>
</g>
<!-- :app&#45;cnubus&#45;&gt;:features:ui&#45;setting -->
<g id="edge7" class="edge">
<title>:app&#45;cnubus&#45;&gt;:features:ui&#45;setting</title>
<path fill="none" stroke="red" stroke-width="2" d="M462,-359.7C462,-352.41 462,-343.73 462,-335.54"/>
<polygon fill="red" stroke="red" stroke-width="2" points="465.5,-337.13 462,-327.13 458.5,-337.13 465.5,-337.13"/>
</g>
<!-- :core:common&#45;android&#45;&gt;:core:common -->
<g id="edge8" class="edge">
<title>:core:common&#45;android&#45;&gt;:core:common</title>
<path fill="none" stroke="black" d="M316.73,-215.85C331.23,-178.91 365.52,-91.55 383.14,-46.67"/>
<polygon fill="black" stroke="black" points="386.29,-48.23 386.68,-37.64 379.77,-45.67 386.29,-48.23"/>
</g>
<!-- :core:compose&#45;core&#45;&gt;:core:common -->
<g id="edge9" class="edge">
<title>:core:compose&#45;core&#45;&gt;:core:common</title>
<path fill="none" stroke="black" d="M134.13,-216.21C184.19,-178.22 306.21,-85.62 363.43,-42.2"/>
<polygon fill="black" stroke="black" points="365.31,-45.17 371.16,-36.34 361.07,-39.59 365.31,-45.17"/>
</g>
<!-- :core:data&#45;&gt;:core:common -->
<g id="edge10" class="edge">
<title>:core:data&#45;&gt;:core:common</title>
<path fill="none" stroke="black" d="M612.79,-152.76C578.56,-144.74 529.42,-130.43 491,-108 482.93,-103.29 445.6,-68.29 419.67,-43.61"/>
<polygon fill="black" stroke="black" points="422.12,-41.11 412.47,-36.74 417.29,-46.18 422.12,-41.11"/>
</g>
<!-- :core:database -->
<g id="node9" class="node">
<title>:core:database</title>
<ellipse fill="none" stroke="black" cx="706" cy="-90" rx="63.63" ry="18"/>
<text text-anchor="middle" x="706" y="-84.95" font-family="Times,serif" font-size="14.00">:core:database</text>
</g>
<!-- :core:data&#45;&gt;:core:database -->
<g id="edge11" class="edge">
<title>:core:data&#45;&gt;:core:database</title>
<path fill="none" stroke="red" stroke-width="2" d="M666.32,-144.41C672.39,-136.25 679.84,-126.22 686.64,-117.07"/>
<polygon fill="red" stroke="red" stroke-width="2" points="688.45,-120.5 691.6,-110.39 682.83,-116.33 688.45,-120.5"/>
</g>
<!-- :core:model -->
<g id="node10" class="node">
<title>:core:model</title>
<ellipse fill="none" stroke="black" cx="706" cy="-18" rx="55.45" ry="18"/>
<text text-anchor="middle" x="706" y="-12.95" font-family="Times,serif" font-size="14.00">:core:model</text>
</g>
<!-- :core:data&#45;&gt;:core:model -->
<g id="edge12" class="edge">
<title>:core:data&#45;&gt;:core:model</title>
<path fill="none" stroke="black" d="M697.74,-154.89C726.12,-148.4 761.04,-135.12 779,-108 787.83,-94.66 786.27,-86.25 779,-72 772.03,-58.32 759.69,-47.35 747.13,-39.02"/>
<polygon fill="black" stroke="black" points="749.2,-36.18 738.84,-33.95 745.55,-42.15 749.2,-36.18"/>
</g>
<!-- :core:network -->
<g id="node11" class="node">
<title>:core:network</title>
<ellipse fill="none" stroke="black" cx="562" cy="-90" rx="62.1" ry="18"/>
<text text-anchor="middle" x="562" y="-84.95" font-family="Times,serif" font-size="14.00">:core:network</text>
</g>
<!-- :core:data&#45;&gt;:core:network -->
<g id="edge13" class="edge">
<title>:core:data&#45;&gt;:core:network</title>
<path fill="none" stroke="black" d="M633.58,-145.46C621.45,-136.24 605.84,-124.36 592.3,-114.05"/>
<polygon fill="black" stroke="black" points="594.6,-111.41 584.52,-108.14 590.36,-116.98 594.6,-111.41"/>
</g>
<!-- :core:domain&#45;&gt;:core:data -->
<g id="edge17" class="edge">
<title>:core:domain&#45;&gt;:core:data</title>
<path fill="none" stroke="red" stroke-width="2" d="M654,-215.7C654,-208.41 654,-199.73 654,-191.54"/>
<polygon fill="red" stroke="red" stroke-width="2" points="657.5,-193.13 654,-183.13 650.5,-193.13 657.5,-193.13"/>
</g>
<!-- :features:ui&#45;setting&#45;&gt;:core:common -->
<g id="edge18" class="edge">
<title>:features:ui&#45;setting&#45;&gt;:core:common</title>
<path fill="none" stroke="black" d="M457.85,-287.54C446.46,-239.66 414.67,-105.95 400.72,-47.24"/>
<polygon fill="black" stroke="black" points="404.17,-46.62 398.45,-37.7 397.36,-48.24 404.17,-46.62"/>
</g>
<!-- :features:ui&#45;setting&#45;&gt;:core:common&#45;android -->
<g id="edge19" class="edge">
<title>:features:ui&#45;setting&#45;&gt;:core:common&#45;android</title>
<path fill="none" stroke="black" d="M427.89,-289.29C406.48,-279.43 378.63,-266.61 355.37,-255.9"/>
<polygon fill="black" stroke="black" points="356.97,-252.78 346.43,-251.78 354.05,-259.14 356.97,-252.78"/>
</g>
<!-- :features:ui&#45;setting&#45;&gt;:core:compose&#45;core -->
<g id="edge20" class="edge">
<title>:features:ui&#45;setting&#45;&gt;:core:compose&#45;core</title>
<path fill="none" stroke="black" d="M403.81,-293.36C343.17,-281.23 248.1,-262.22 183.06,-249.21"/>
<polygon fill="black" stroke="black" points="184.06,-245.84 173.57,-247.31 182.69,-252.71 184.06,-245.84"/>
</g>
<!-- :features:ui&#45;setting&#45;&gt;:core:data -->
<g id="edge21" class="edge">
<title>:features:ui&#45;setting&#45;&gt;:core:data</title>
<path fill="none" stroke="black" d="M490.9,-288.94C507.8,-279.07 529.25,-265.72 547,-252 565.41,-237.77 567.31,-231.11 585,-216 597.36,-205.45 611.51,-194.41 623.78,-185.15"/>
<polygon fill="black" stroke="black" points="625.6,-188.15 631.51,-179.36 621.41,-182.55 625.6,-188.15"/>
</g>
<!-- :features:ui&#45;setting&#45;&gt;:core:domain -->
<g id="edge22" class="edge">
<title>:features:ui&#45;setting&#45;&gt;:core:domain</title>
<path fill="none" stroke="red" stroke-width="2" d="M502.72,-290.15C533.08,-279.09 574.63,-263.94 606.51,-252.31"/>
<polygon fill="red" stroke="red" stroke-width="2" points="605.88,-256.27 614.07,-249.56 603.48,-249.69 605.88,-256.27"/>
</g>
<!-- :shared -->
<g id="node12" class="node">
<title>:shared</title>
<ellipse fill="none" stroke="black" cx="500" cy="-234" rx="37.53" ry="18"/>
<text text-anchor="middle" x="500" y="-228.95" font-family="Times,serif" font-size="14.00">:shared</text>
</g>
<!-- :features:ui&#45;setting&#45;&gt;:shared -->
<g id="edge23" class="edge">
<title>:features:ui&#45;setting&#45;&gt;:shared</title>
<path fill="none" stroke="black" d="M471.39,-287.7C475.64,-279.87 480.76,-270.44 485.49,-261.73"/>
<polygon fill="black" stroke="black" points="488.56,-263.41 490.25,-252.95 482.41,-260.07 488.56,-263.41"/>
</g>
<!-- :core:database&#45;&gt;:core:model -->
<g id="edge14" class="edge">
<title>:core:database&#45;&gt;:core:model</title>
<path fill="none" stroke="red" stroke-width="2" d="M706,-71.7C706,-64.41 706,-55.73 706,-47.54"/>
<polygon fill="red" stroke="red" stroke-width="2" points="709.5,-49.13 706,-39.13 702.5,-49.13 709.5,-49.13"/>
</g>
<!-- :core:network&#45;&gt;:core:common -->
<g id="edge15" class="edge">
<title>:core:network&#45;&gt;:core:common</title>
<path fill="none" stroke="black" d="M527.6,-74.67C502.06,-64.03 467,-49.41 439.2,-37.83"/>
<polygon fill="black" stroke="black" points="440.91,-34.75 430.33,-34.14 438.22,-41.21 440.91,-34.75"/>
</g>
<!-- :core:network&#45;&gt;:core:model -->
<g id="edge16" class="edge">
<title>:core:network&#45;&gt;:core:model</title>
<path fill="none" stroke="black" d="M592.89,-73.98C614.25,-63.6 642.86,-49.69 665.96,-38.46"/>
<polygon fill="black" stroke="black" points="667.32,-41.69 674.78,-34.17 664.26,-35.4 667.32,-41.69"/>
</g>
</g>
</svg>
