<?xml version="1.0" encoding="UTF-8" standalone="no"?>
<!DOCTYPE svg PUBLIC "-//W3C//DTD SVG 1.1//EN"
 "http://www.w3.org/Graphics/SVG/1.1/DTD/svg11.dtd">
<!-- Generated by graphviz version 12.0.0 (20240704.0754)
 -->
<!-- Title: G Pages: 1 -->
<svg width="900pt" height="404pt"
 viewBox="0.00 0.00 900.29 404.00" xmlns="http://www.w3.org/2000/svg" xmlns:xlink="http://www.w3.org/1999/xlink">
<g id="graph0" class="graph" transform="scale(1 1) rotate(0) translate(4 400)">
<title>G</title>
<polygon fill="white" stroke="none" points="-4,4 -4,-400 896.29,-400 896.29,4 -4,4"/>
<!-- :app&#45;cnubus -->
<g id="node1" class="node">
<title>:app&#45;cnubus</title>
<ellipse fill="none" stroke="black" cx="418" cy="-378" rx="55.96" ry="18"/>
<text text-anchor="middle" x="418" y="-372.95" font-family="Times,serif" font-size="14.00">:app&#45;cnubus</text>
</g>
<!-- :core:common -->
<g id="node2" class="node">
<title>:core:common</title>
<ellipse fill="none" stroke="black" cx="462" cy="-18" rx="65.17" ry="18"/>
<text text-anchor="middle" x="462" y="-12.95" font-family="Times,serif" font-size="14.00">:core:common</text>
</g>
<!-- :app&#45;cnubus&#45;&gt;:core:common -->
<g id="edge1" class="edge">
<title>:app&#45;cnubus&#45;&gt;:core:common</title>
<path fill="none" stroke="black" d="M366.74,-370.59C255.13,-355.2 0,-311.64 0,-235 0,-235 0,-235 0,-161 0,-80.46 259.76,-40.87 389.72,-26.09"/>
<polygon fill="black" stroke="black" points="390.07,-29.58 399.62,-24.99 389.3,-22.62 390.07,-29.58"/>
</g>
<!-- :core:common&#45;android -->
<g id="node3" class="node">
<title>:core:common&#45;android</title>
<ellipse fill="none" stroke="black" cx="124" cy="-234" rx="96.39" ry="18"/>
<text text-anchor="middle" x="124" y="-228.95" font-family="Times,serif" font-size="14.00">:core:common&#45;android</text>
</g>
<!-- :app&#45;cnubus&#45;&gt;:core:common&#45;android -->
<g id="edge2" class="edge">
<title>:app&#45;cnubus&#45;&gt;:core:common&#45;android</title>
<path fill="none" stroke="black" d="M369.51,-368.56C331.21,-360.61 277.19,-346.5 234,-324 201.64,-307.14 169.8,-279.88 148.77,-259.97"/>
<polygon fill="black" stroke="black" points="151.44,-257.68 141.81,-253.25 146.58,-262.72 151.44,-257.68"/>
</g>
<!-- :core:compose&#45;core -->
<g id="node4" class="node">
<title>:core:compose&#45;core</title>
<ellipse fill="none" stroke="black" cx="360" cy="-234" rx="84.11" ry="18"/>
<text text-anchor="middle" x="360" y="-228.95" font-family="Times,serif" font-size="14.00">:core:compose&#45;core</text>
</g>
<!-- :app&#45;cnubus&#45;&gt;:core:compose&#45;core -->
<g id="edge3" class="edge">
<title>:app&#45;cnubus&#45;&gt;:core:compose&#45;core</title>
<path fill="none" stroke="black" d="M404.8,-360.17C397.48,-350.15 388.73,-336.9 383,-324 374.37,-304.59 368.5,-281.31 364.85,-263.43"/>
<polygon fill="black" stroke="black" points="368.32,-262.94 363,-253.78 361.44,-264.26 368.32,-262.94"/>
</g>
<!-- :core:data -->
<g id="node5" class="node">
<title>:core:data</title>
<ellipse fill="none" stroke="black" cx="636" cy="-162" rx="47.26" ry="18"/>
<text text-anchor="middle" x="636" y="-156.95" font-family="Times,serif" font-size="14.00">:core:data</text>
</g>
<!-- :app&#45;cnubus&#45;&gt;:core:data -->
<g id="edge4" class="edge">
<title>:app&#45;cnubus&#45;&gt;:core:data</title>
<path fill="none" stroke="black" d="M471.73,-372.53C541.37,-363.4 659.3,-335.72 705,-252 712.67,-237.96 712.07,-230.35 705,-216 698.31,-202.42 686.28,-191.35 674.12,-182.91"/>
<polygon fill="black" stroke="black" points="676.03,-179.97 665.72,-177.52 672.25,-185.86 676.03,-179.97"/>
</g>
<!-- :shared -->
<g id="node6" class="node">
<title>:shared</title>
<ellipse fill="none" stroke="black" cx="248" cy="-162" rx="37.53" ry="18"/>
<text text-anchor="middle" x="248" y="-156.95" font-family="Times,serif" font-size="14.00">:shared</text>
</g>
<!-- :app&#45;cnubus&#45;&gt;:shared -->
<g id="edge5" class="edge">
<title>:app&#45;cnubus&#45;&gt;:shared</title>
<path fill="none" stroke="black" d="M390.3,-361.98C355.74,-341.73 297.51,-302.35 267,-252 255.97,-233.8 251.29,-210.11 249.33,-191.75"/>
<polygon fill="black" stroke="black" points="252.82,-191.48 248.5,-181.8 245.84,-192.05 252.82,-191.48"/>
</g>
<!-- :core:domain -->
<g id="node7" class="node">
<title>:core:domain</title>
<ellipse fill="none" stroke="black" cx="636" cy="-234" rx="60.05" ry="18"/>
<text text-anchor="middle" x="636" y="-228.95" font-family="Times,serif" font-size="14.00">:core:domain</text>
</g>
<!-- :app&#45;cnubus&#45;&gt;:core:domain -->
<g id="edge6" class="edge">
<title>:app&#45;cnubus&#45;&gt;:core:domain</title>
<path fill="none" stroke="black" d="M462.74,-366.81C492.46,-358.57 531.33,-344.86 561,-324 584.9,-307.2 605.72,-280.99 619.33,-261.36"/>
<polygon fill="black" stroke="black" points="622.07,-263.55 624.74,-253.3 616.25,-259.65 622.07,-263.55"/>
</g>
<!-- :features:ui&#45;labs -->
<g id="node8" class="node">
<title>:features:ui&#45;labs</title>
<ellipse fill="none" stroke="black" cx="822" cy="-306" rx="70.29" ry="18"/>
<text text-anchor="middle" x="822" y="-300.95" font-family="Times,serif" font-size="14.00">:features:ui&#45;labs</text>
</g>
<!-- :app&#45;cnubus&#45;&gt;:features:ui&#45;labs -->
<g id="edge7" class="edge">
<title>:app&#45;cnubus&#45;&gt;:features:ui&#45;labs</title>
<path fill="none" stroke="black" d="M467.71,-369.33C530.71,-359.48 642.6,-341.55 738,-324 744.37,-322.83 751.01,-321.56 757.64,-320.27"/>
<polygon fill="black" stroke="black" points="758.11,-323.74 767.25,-318.37 756.76,-316.87 758.11,-323.74"/>
</g>
<!-- :features:ui&#45;setting -->
<g id="node9" class="node">
<title>:features:ui&#45;setting</title>
<ellipse fill="none" stroke="black" cx="472" cy="-306" rx="80.01" ry="18"/>
<text text-anchor="middle" x="472" y="-300.95" font-family="Times,serif" font-size="14.00">:features:ui&#45;setting</text>
</g>
<!-- :app&#45;cnubus&#45;&gt;:features:ui&#45;setting -->
<g id="edge8" class="edge">
<title>:app&#45;cnubus&#45;&gt;:features:ui&#45;setting</title>
<path fill="none" stroke="red" stroke-width="2" d="M431.07,-360.05C437.37,-351.89 445.07,-341.91 452.08,-332.82"/>
<polygon fill="red" stroke="red" stroke-width="2" points="453.86,-336.24 457.2,-326.19 448.32,-331.97 453.86,-336.24"/>
</g>
<!-- :core:common&#45;android&#45;&gt;:core:common -->
<g id="edge9" class="edge">
<title>:core:common&#45;android&#45;&gt;:core:common</title>
<path fill="none" stroke="black" d="M135.62,-215.72C149.38,-196.27 173.88,-164.71 201,-144 266.7,-93.84 355.76,-56.52 411.01,-36.26"/>
<polygon fill="black" stroke="black" points="411.96,-39.64 420.17,-32.95 409.58,-33.05 411.96,-39.64"/>
</g>
<!-- :core:common&#45;android&#45;&gt;:shared -->
<g id="edge10" class="edge">
<title>:core:common&#45;android&#45;&gt;:shared</title>
<path fill="none" stroke="black" d="M153.39,-216.41C171.72,-206.06 195.37,-192.71 214.44,-181.94"/>
<polygon fill="black" stroke="black" points="215.92,-185.13 222.9,-177.17 212.48,-179.04 215.92,-185.13"/>
</g>
<!-- :core:compose&#45;core&#45;&gt;:core:common -->
<g id="edge11" class="edge">
<title>:core:compose&#45;core&#45;&gt;:core:common</title>
<path fill="none" stroke="black" d="M368.17,-215.85C385.82,-178.83 427.6,-91.18 448.95,-46.39"/>
<polygon fill="black" stroke="black" points="451.99,-48.13 453.14,-37.6 445.67,-45.12 451.99,-48.13"/>
</g>
<!-- :core:data&#45;&gt;:core:common -->
<g id="edge12" class="edge">
<title>:core:data&#45;&gt;:core:common</title>
<path fill="none" stroke="black" d="M614.57,-145.62C600.33,-135.24 581.31,-121.1 565,-108 550.42,-96.28 514.47,-65.01 489.17,-42.86"/>
<polygon fill="black" stroke="black" points="491.68,-40.41 481.85,-36.45 487.07,-45.67 491.68,-40.41"/>
</g>
<!-- :core:database -->
<g id="node10" class="node">
<title>:core:database</title>
<ellipse fill="none" stroke="black" cx="780" cy="-90" rx="63.63" ry="18"/>
<text text-anchor="middle" x="780" y="-84.95" font-family="Times,serif" font-size="14.00">:core:database</text>
</g>
<!-- :core:data&#45;&gt;:core:database -->
<g id="edge13" class="edge">
<title>:core:data&#45;&gt;:core:database</title>
<path fill="none" stroke="red" stroke-width="2" d="M664.45,-147.17C685.66,-136.86 714.93,-122.63 738.71,-111.07"/>
<polygon fill="red" stroke="red" stroke-width="2" points="738.68,-114.98 746.14,-107.46 735.62,-108.68 738.68,-114.98"/>
</g>
<!-- :core:model -->
<g id="node11" class="node">
<title>:core:model</title>
<ellipse fill="none" stroke="black" cx="780" cy="-18" rx="55.45" ry="18"/>
<text text-anchor="middle" x="780" y="-12.95" font-family="Times,serif" font-size="14.00">:core:model</text>
</g>
<!-- :core:data&#45;&gt;:core:model -->
<g id="edge14" class="edge">
<title>:core:data&#45;&gt;:core:model</title>
<path fill="none" stroke="black" d="M681.13,-156.46C738.33,-149.66 832.04,-134.69 853,-108 862.88,-95.42 860.27,-86.25 853,-72 846.03,-58.32 833.69,-47.35 821.13,-39.02"/>
<polygon fill="black" stroke="black" points="823.2,-36.18 812.84,-33.95 819.55,-42.15 823.2,-36.18"/>
</g>
<!-- :core:network -->
<g id="node12" class="node">
<title>:core:network</title>
<ellipse fill="none" stroke="black" cx="636" cy="-90" rx="62.1" ry="18"/>
<text text-anchor="middle" x="636" y="-84.95" font-family="Times,serif" font-size="14.00">:core:network</text>
</g>
<!-- :core:data&#45;&gt;:core:network -->
<g id="edge15" class="edge">
<title>:core:data&#45;&gt;:core:network</title>
<path fill="none" stroke="black" d="M636,-143.7C636,-136.41 636,-127.73 636,-119.54"/>
<polygon fill="black" stroke="black" points="639.5,-119.62 636,-109.62 632.5,-119.62 639.5,-119.62"/>
</g>
<!-- :core:domain&#45;&gt;:core:data -->
<g id="edge19" class="edge">
<title>:core:domain&#45;&gt;:core:data</title>
<path fill="none" stroke="red" stroke-width="2" d="M636,-215.7C636,-208.41 636,-199.73 636,-191.54"/>
<polygon fill="red" stroke="red" stroke-width="2" points="639.5,-193.13 636,-183.13 632.5,-193.13 639.5,-193.13"/>
</g>
<!-- :features:ui&#45;setting&#45;&gt;:core:common -->
<g id="edge20" class="edge">
<title>:features:ui&#45;setting&#45;&gt;:core:common</title>
<path fill="none" stroke="black" d="M473.22,-287.82C473.89,-277.46 474.66,-263.98 475,-252 477.09,-178.15 469.61,-91.28 465.13,-47.42"/>
<polygon fill="black" stroke="black" points="468.64,-47.32 464.11,-37.74 461.67,-48.05 468.64,-47.32"/>
</g>
<!-- :features:ui&#45;setting&#45;&gt;:core:common&#45;android -->
<g id="edge21" class="edge">
<title>:features:ui&#45;setting&#45;&gt;:core:common&#45;android</title>
<path fill="none" stroke="black" d="M413.75,-293.28C354.8,-281.42 263.39,-263.04 199.04,-250.09"/>
<polygon fill="black" stroke="black" points="199.73,-246.66 189.23,-248.12 198.35,-253.53 199.73,-246.66"/>
</g>
<!-- :features:ui&#45;setting&#45;&gt;:core:compose&#45;core -->
<g id="edge22" class="edge">
<title>:features:ui&#45;setting&#45;&gt;:core:compose&#45;core</title>
<path fill="none" stroke="black" d="M445.74,-288.59C430.96,-279.35 412.29,-267.68 396.15,-257.59"/>
<polygon fill="black" stroke="black" points="398.1,-254.69 387.77,-252.35 394.39,-260.62 398.1,-254.69"/>
</g>
<!-- :features:ui&#45;setting&#45;&gt;:core:data -->
<g id="edge23" class="edge">
<title>:features:ui&#45;setting&#45;&gt;:core:data</title>
<path fill="none" stroke="black" d="M489.04,-288.07C507.7,-269.77 538.75,-239.99 567,-216 579.39,-205.48 593.55,-194.45 605.81,-185.18"/>
<polygon fill="black" stroke="black" points="607.63,-188.19 613.53,-179.39 603.43,-182.59 607.63,-188.19"/>
</g>
<!-- :features:ui&#45;setting&#45;&gt;:shared -->
<g id="edge25" class="edge">
<title>:features:ui&#45;setting&#45;&gt;:shared</title>
<path fill="none" stroke="black" d="M473.31,-287.83C473.84,-267.89 471.47,-235.28 453,-216 431.5,-193.56 348.96,-177.64 295.4,-169.42"/>
<polygon fill="black" stroke="black" points="296.02,-165.97 285.61,-167.96 294.99,-172.9 296.02,-165.97"/>
</g>
<!-- :features:ui&#45;setting&#45;&gt;:core:domain -->
<g id="edge24" class="edge">
<title>:features:ui&#45;setting&#45;&gt;:core:domain</title>
<path fill="none" stroke="red" stroke-width="2" d="M507.99,-289.64C532.69,-279.1 565.61,-265.04 591.89,-253.83"/>
<polygon fill="red" stroke="red" stroke-width="2" points="591.72,-257.7 599.55,-250.56 588.98,-251.27 591.72,-257.7"/>
</g>
<!-- :core:database&#45;&gt;:core:model -->
<g id="edge16" class="edge">
<title>:core:database&#45;&gt;:core:model</title>
<path fill="none" stroke="red" stroke-width="2" d="M780,-71.7C780,-64.41 780,-55.73 780,-47.54"/>
<polygon fill="red" stroke="red" stroke-width="2" points="783.5,-49.13 780,-39.13 776.5,-49.13 783.5,-49.13"/>
</g>
<!-- :core:network&#45;&gt;:core:common -->
<g id="edge17" class="edge">
<title>:core:network&#45;&gt;:core:common</title>
<path fill="none" stroke="black" d="M600.79,-74.83C574.08,-64.09 537.13,-49.22 508.07,-37.53"/>
<polygon fill="black" stroke="black" points="509.74,-34.43 499.16,-33.95 507.13,-40.93 509.74,-34.43"/>
</g>
<!-- :core:network&#45;&gt;:core:model -->
<g id="edge18" class="edge">
<title>:core:network&#45;&gt;:core:model</title>
<path fill="none" stroke="black" d="M666.89,-73.98C688.25,-63.6 716.86,-49.69 739.96,-38.46"/>
<polygon fill="black" stroke="black" points="741.32,-41.69 748.78,-34.17 738.26,-35.4 741.32,-41.69"/>
</g>
</g>
</svg>
