<?xml version="1.0" encoding="UTF-8" standalone="no"?>
<!DOCTYPE svg PUBLIC "-//W3C//DTD SVG 1.1//EN"
 "http://www.w3.org/Graphics/SVG/1.1/DTD/svg11.dtd">
<!-- Generated by graphviz version 10.0.1 (20240210.2158)
 -->
<!-- Title: G Pages: 1 -->
<svg width="913pt" height="332pt"
 viewBox="0.00 0.00 912.96 332.00" xmlns="http://www.w3.org/2000/svg" xmlns:xlink="http://www.w3.org/1999/xlink">
<g id="graph0" class="graph" transform="scale(1 1) rotate(0) translate(4 328)">
<title>G</title>
<polygon fill="white" stroke="none" points="-4,4 -4,-328 908.96,-328 908.96,4 -4,4"/>
<!-- :app&#45;cnubus -->
<g id="node1" class="node">
<title>:app&#45;cnubus</title>
<ellipse fill="none" stroke="black" cx="447.67" cy="-306" rx="55.96" ry="18"/>
<text text-anchor="middle" x="447.67" y="-300.95" font-family="Times,serif" font-size="14.00">:app&#45;cnubus</text>
</g>
<!-- :core:common -->
<g id="node2" class="node">
<title>:core:common</title>
<ellipse fill="none" stroke="black" cx="316.67" cy="-18" rx="65.17" ry="18"/>
<text text-anchor="middle" x="316.67" y="-12.95" font-family="Times,serif" font-size="14.00">:core:common</text>
</g>
<!-- :app&#45;cnubus&#45;&gt;:core:common -->
<g id="edge1" class="edge">
<title>:app&#45;cnubus&#45;&gt;:core:common</title>
<path fill="none" stroke="black" d="M396.81,-298.13C292.29,-282.85 59.35,-242.4 13.67,-180 -51.99,-90.28 139.15,-45.81 247.55,-28.29"/>
<polygon fill="black" stroke="black" points="247.9,-31.78 257.23,-26.77 246.81,-24.87 247.9,-31.78"/>
</g>
<!-- :core:common&#45;android -->
<g id="node3" class="node">
<title>:core:common&#45;android</title>
<ellipse fill="none" stroke="black" cx="118.67" cy="-162" rx="96.39" ry="18"/>
<text text-anchor="middle" x="118.67" y="-156.95" font-family="Times,serif" font-size="14.00">:core:common&#45;android</text>
</g>
<!-- :app&#45;cnubus&#45;&gt;:core:common&#45;android -->
<g id="edge2" class="edge">
<title>:app&#45;cnubus&#45;&gt;:core:common&#45;android</title>
<path fill="none" stroke="black" d="M415.23,-291C356.91,-265.82 234.13,-212.83 166.27,-183.54"/>
<polygon fill="black" stroke="black" points="167.83,-180.4 157.26,-179.66 165.06,-186.83 167.83,-180.4"/>
</g>
<!-- :core:compose&#45;core -->
<g id="node4" class="node">
<title>:core:compose&#45;core</title>
<ellipse fill="none" stroke="black" cx="316.67" cy="-162" rx="84.11" ry="18"/>
<text text-anchor="middle" x="316.67" y="-156.95" font-family="Times,serif" font-size="14.00">:core:compose&#45;core</text>
</g>
<!-- :app&#45;cnubus&#45;&gt;:core:compose&#45;core -->
<g id="edge3" class="edge">
<title>:app&#45;cnubus&#45;&gt;:core:compose&#45;core</title>
<path fill="none" stroke="black" d="M414.35,-291.07C396.05,-282.08 374.03,-268.91 358.67,-252 342.79,-234.51 331.81,-209.94 325.07,-191.05"/>
<polygon fill="black" stroke="black" points="328.39,-189.94 321.9,-181.57 321.75,-192.16 328.39,-189.94"/>
</g>
<!-- :core:data -->
<g id="node5" class="node">
<title>:core:data</title>
<ellipse fill="none" stroke="black" cx="575.67" cy="-90" rx="47.26" ry="18"/>
<text text-anchor="middle" x="575.67" y="-84.95" font-family="Times,serif" font-size="14.00">:core:data</text>
</g>
<!-- :app&#45;cnubus&#45;&gt;:core:data -->
<g id="edge4" class="edge">
<title>:app&#45;cnubus&#45;&gt;:core:data</title>
<path fill="none" stroke="black" d="M498.77,-298.22C562.98,-286.64 670.49,-256.35 717.67,-180 726.08,-166.39 726.8,-157.14 717.67,-144 698.56,-116.47 663.32,-103.21 632.73,-96.84"/>
<polygon fill="black" stroke="black" points="633.67,-93.46 623.2,-95.07 632.39,-100.34 633.67,-93.46"/>
</g>
<!-- :core:domain -->
<g id="node6" class="node">
<title>:core:domain</title>
<ellipse fill="none" stroke="black" cx="648.67" cy="-162" rx="60.05" ry="18"/>
<text text-anchor="middle" x="648.67" y="-156.95" font-family="Times,serif" font-size="14.00">:core:domain</text>
</g>
<!-- :app&#45;cnubus&#45;&gt;:core:domain -->
<g id="edge5" class="edge">
<title>:app&#45;cnubus&#45;&gt;:core:domain</title>
<path fill="none" stroke="black" d="M475.14,-289.92C493.04,-279.78 516.69,-265.79 536.67,-252 566.67,-231.29 599.09,-205.07 621.29,-186.47"/>
<polygon fill="black" stroke="black" points="623.31,-189.35 628.69,-180.22 618.79,-183.99 623.31,-189.35"/>
</g>
<!-- :features:ui&#45;labs -->
<g id="node7" class="node">
<title>:features:ui&#45;labs</title>
<ellipse fill="none" stroke="black" cx="834.67" cy="-234" rx="70.29" ry="18"/>
<text text-anchor="middle" x="834.67" y="-228.95" font-family="Times,serif" font-size="14.00">:features:ui&#45;labs</text>
</g>
<!-- :app&#45;cnubus&#45;&gt;:features:ui&#45;labs -->
<g id="edge6" class="edge">
<title>:app&#45;cnubus&#45;&gt;:features:ui&#45;labs</title>
<path fill="none" stroke="black" d="M496.55,-296.86C556.5,-286.78 661.2,-268.88 750.67,-252 757.04,-250.8 763.68,-249.51 770.3,-248.21"/>
<polygon fill="black" stroke="black" points="770.78,-251.68 779.91,-246.3 769.42,-244.82 770.78,-251.68"/>
</g>
<!-- :features:ui&#45;setting -->
<g id="node8" class="node">
<title>:features:ui&#45;setting</title>
<ellipse fill="none" stroke="black" cx="447.67" cy="-234" rx="80.01" ry="18"/>
<text text-anchor="middle" x="447.67" y="-228.95" font-family="Times,serif" font-size="14.00">:features:ui&#45;setting</text>
</g>
<!-- :app&#45;cnubus&#45;&gt;:features:ui&#45;setting -->
<g id="edge7" class="edge">
<title>:app&#45;cnubus&#45;&gt;:features:ui&#45;setting</title>
<path fill="none" stroke="red" stroke-width="2" d="M447.67,-287.7C447.67,-280.41 447.67,-271.73 447.67,-263.54"/>
<polygon fill="red" stroke="red" stroke-width="2" points="451.17,-265.13 447.67,-255.13 444.17,-265.13 451.17,-265.13"/>
</g>
<!-- :core:common&#45;android&#45;&gt;:core:common -->
<g id="edge8" class="edge">
<title>:core:common&#45;android&#45;&gt;:core:common</title>
<path fill="none" stroke="black" d="M142.16,-144.15C177.65,-118.7 245.01,-70.39 284.86,-41.81"/>
<polygon fill="black" stroke="black" points="286.81,-44.72 292.9,-36.05 282.73,-39.04 286.81,-44.72"/>
</g>
<!-- :core:compose&#45;core&#45;&gt;:core:common -->
<g id="edge9" class="edge">
<title>:core:compose&#45;core&#45;&gt;:core:common</title>
<path fill="none" stroke="black" d="M316.67,-143.59C316.67,-119.61 316.67,-76.14 316.67,-47.42"/>
<polygon fill="black" stroke="black" points="320.17,-47.62 316.67,-37.62 313.17,-47.62 320.17,-47.62"/>
</g>
<!-- :core:data&#45;&gt;:core:common -->
<g id="edge10" class="edge">
<title>:core:data&#45;&gt;:core:common</title>
<path fill="none" stroke="red" stroke-width="2" d="M538.01,-78.82C494.71,-67.12 423.18,-47.78 373.19,-34.27"/>
<polygon fill="red" stroke="red" stroke-width="2" points="375.73,-31.33 365.16,-32.1 373.9,-38.09 375.73,-31.33"/>
</g>
<!-- :core:domain&#45;&gt;:core:data -->
<g id="edge11" class="edge">
<title>:core:domain&#45;&gt;:core:data</title>
<path fill="none" stroke="red" stroke-width="2" d="M631.37,-144.41C622.22,-135.63 610.8,-124.69 600.7,-115"/>
<polygon fill="red" stroke="red" stroke-width="2" points="604.42,-113.72 594.78,-109.32 599.58,-118.77 604.42,-113.72"/>
</g>
<!-- :features:ui&#45;setting&#45;&gt;:core:common -->
<g id="edge12" class="edge">
<title>:features:ui&#45;setting&#45;&gt;:core:common</title>
<path fill="none" stroke="black" d="M441.67,-215.7C434.99,-197.33 423.32,-167.74 409.67,-144 388.64,-107.4 358.69,-68.97 338.51,-44.54"/>
<polygon fill="black" stroke="black" points="341.36,-42.49 332.26,-37.06 335.99,-46.98 341.36,-42.49"/>
</g>
<!-- :features:ui&#45;setting&#45;&gt;:core:common&#45;android -->
<g id="edge13" class="edge">
<title>:features:ui&#45;setting&#45;&gt;:core:common&#45;android</title>
<path fill="none" stroke="black" d="M391.12,-220.97C335.94,-209.23 251.76,-191.32 191.59,-178.51"/>
<polygon fill="black" stroke="black" points="192.63,-175.16 182.12,-176.5 191.17,-182 192.63,-175.16"/>
</g>
<!-- :features:ui&#45;setting&#45;&gt;:core:compose&#45;core -->
<g id="edge14" class="edge">
<title>:features:ui&#45;setting&#45;&gt;:core:compose&#45;core</title>
<path fill="none" stroke="black" d="M417.62,-216.94C399.69,-207.36 376.69,-195.07 357.18,-184.64"/>
<polygon fill="black" stroke="black" points="358.85,-181.57 348.38,-179.94 355.55,-187.74 358.85,-181.57"/>
</g>
<!-- :features:ui&#45;setting&#45;&gt;:core:data -->
<g id="edge15" class="edge">
<title>:features:ui&#45;setting&#45;&gt;:core:data</title>
<path fill="none" stroke="black" d="M451.54,-215.85C456.62,-196.53 467.15,-165.07 485.67,-144 498.76,-129.11 517.08,-117.27 533.78,-108.6"/>
<polygon fill="black" stroke="black" points="535.13,-111.84 542.55,-104.27 532.03,-105.56 535.13,-111.84"/>
</g>
<!-- :features:ui&#45;setting&#45;&gt;:core:domain -->
<g id="edge16" class="edge">
<title>:features:ui&#45;setting&#45;&gt;:core:domain</title>
<path fill="none" stroke="red" stroke-width="2" d="M489.81,-218.33C522.01,-207.11 566.44,-191.64 600.13,-179.9"/>
<polygon fill="red" stroke="red" stroke-width="2" points="599.51,-183.83 607.81,-177.23 597.21,-177.22 599.51,-183.83"/>
</g>
<!-- :shared -->
<g id="node9" class="node">
<title>:shared</title>
<ellipse fill="none" stroke="black" cx="532.67" cy="-162" rx="37.53" ry="18"/>
<text text-anchor="middle" x="532.67" y="-156.95" font-family="Times,serif" font-size="14.00">:shared</text>
</g>
<!-- :features:ui&#45;setting&#45;&gt;:shared -->
<g id="edge17" class="edge">
<title>:features:ui&#45;setting&#45;&gt;:shared</title>
<path fill="none" stroke="black" d="M467.82,-216.41C479.19,-207.04 493.56,-195.21 505.88,-185.07"/>
<polygon fill="black" stroke="black" points="507.75,-188.06 513.24,-179 503.3,-182.66 507.75,-188.06"/>
</g>
</g>
</svg>
