<svg xmlns="http://www.w3.org/2000/svg" width="1153pt" height="332pt" viewBox="0 0 1153.36 332">
    <g class="graph">
        <path fill="#fff" d="M0 332V0h1153.36v332z"/>
        <g class="node" transform="translate(4 328)">
            <ellipse cx="792.81" cy="-306" fill="none" stroke="#000" rx="55.96" ry="18"/>
            <text x="792.81" y="-300.95" font-family="Times,serif" font-size="14" text-anchor="middle">:app-cnubus</text>
        </g>
        <g class="node" transform="translate(4 328)">
            <ellipse cx="510.81" cy="-90" fill="none" stroke="#000" rx="65.17" ry="18"/>
            <text x="510.81" y="-84.95" font-family="Times,serif" font-size="14" text-anchor="middle">:core:common</text>
        </g>
        <g stroke="#000" class="edge">
            <path fill="none" d="M742.45 26.99C697.99 32.45 635.13 45.39 588.81 76c-33.6 22.2-38.17 35.42-55 72-8.79 19.1-13.58 42.39-16.15 60.36"/>
            <path d="m521.16 208.58-4.73 9.48-2.21-10.36z"/>
        </g>
        <g class="node" transform="translate(4 328)">
            <ellipse cx="674.81" cy="-162" fill="none" stroke="#000" rx="96.39" ry="18"/>
            <text x="674.81" y="-156.95" font-family="Times,serif" font-size="14" text-anchor="middle">:core:common-android</text>
        </g>
        <g stroke="#000" class="edge">
            <path fill="none" d="M792.64 40.32c-5.3 19.19-15.98 50.25-33.83 71.68-10.22 12.26-23.98 22.76-37.21 31.11"/>
            <path d="m723.79 145.87-10.38 2.15 6.78-8.15z"/>
        </g>
        <g class="node" transform="translate(4 328)">
            <ellipse cx="677.81" cy="-90" fill="none" stroke="#000" rx="84.11" ry="18"/>
            <text x="677.81" y="-84.95" font-family="Times,serif" font-size="14" text-anchor="middle">:core:compose-core</text>
        </g>
        <g stroke="#000" class="edge">
            <path fill="none" d="M810.26 39.72c19.7 24.32 54.87 67.12 62.55 72.28 42.35 28.45 79.11-5.35 109 36 9.37 12.97 10.29 23.76 0 36-30.06 35.73-161.04 27.8-207 36-6.37 1.14-12.98 2.32-19.61 3.52"/>
            <path d="m756.03 226.93-10.47-1.66 9.22-5.23z"/>
        </g>
        <g class="node" transform="translate(4 328)">
            <ellipse cx="332.81" cy="-162" fill="none" stroke="#000" rx="47.26" ry="18"/>
            <text x="332.81" y="-156.95" font-family="Times,serif" font-size="14" text-anchor="middle">:core:data</text>
        </g>
        <g stroke="#000" class="edge">
            <path fill="none" d="M741.19 25.12C621.77 30.24 349.36 45.2 321.81 76c-14.83 16.58-8.61 42.13-.12 61.61"/>
            <path d="m324.85 136.09 1.16 10.53-7.47-7.5z"/>
        </g>
        <g class="node" transform="translate(4 328)">
            <ellipse cx="897.81" cy="-162" fill="none" stroke="#000" rx="70.8" ry="18"/>
            <text x="897.81" y="-156.95" font-family="Times,serif" font-size="14" text-anchor="middle">:core:navigation</text>
        </g>
        <g stroke="#000" class="edge">
            <path fill="none" d="M802.69 40.24c6.96 18.85 19.83 49.34 37.12 71.76 8.36 10.84 19.24 21.05 29.56 29.57"/>
            <path d="m871.36 138.68 5.66 8.96-10.01-3.48z"/>
        </g>
        <g class="node" transform="translate(4 328)">
            <ellipse cx="817.81" cy="-90" fill="none" stroke="#000" rx="37.53" ry="18"/>
            <text x="817.81" y="-84.95" font-family="Times,serif" font-size="14" text-anchor="middle">:shared</text>
        </g>
        <g stroke="#000" class="edge">
            <path fill="none" d="M850.24 27.86c60.41 6.72 153.18 21.21 174.57 48.14 14.04 17.68 2.82 93.39-10 108-19.09 21.74-95.01 37.63-145.75 46.07"/>
            <path d="m869.62 233.53-10.43-1.86 9.31-5.05z"/>
        </g>
        <g class="node" transform="translate(4 328)">
            <ellipse cx="386.81" cy="-234" fill="none" stroke="#000" rx="60.05" ry="18"/>
            <text x="386.81" y="-228.95" font-family="Times,serif" font-size="14" text-anchor="middle">:core:domain</text>
        </g>
        <g stroke="red" stroke-width="2" class="edge">
            <path fill="none" d="M746 30.02C680.7 39.3 563.93 56.73 464.81 76a831 831 0 0 0-17.23 3.55"/>
            <path fill="red" d="m449.97 82.6-10.52-1.26 9.01-5.57z"/>
        </g>
        <g class="node" transform="translate(4 328)">
            <ellipse cx="944.81" cy="-234" fill="none" stroke="#000" rx="66.71" ry="18"/>
            <text x="944.81" y="-228.95" font-family="Times,serif" font-size="14" text-anchor="middle">:feature:ui-labs</text>
        </g>
        <g stroke="#000" class="edge">
            <path fill="none" d="M827.93 37.33c22.5 10.36 53.16 24.49 77.98 35.92"/>
            <path d="m907.15 69.96 7.62 7.37-10.55-1.01z"/>
        </g>
        <g class="node" transform="translate(4 328)">
            <ellipse cx="669.81" cy="-234" fill="none" stroke="#000" rx="76.43" ry="18"/>
            <text x="669.81" y="-228.95" font-family="Times,serif" font-size="14" text-anchor="middle">:feature:ui-setting</text>
        </g>
        <g stroke="#000" class="edge">
            <path fill="none" d="M770.12 38.19c-17.01 9.68-39.32 22.37-58.18 33.11"/>
            <path d="m713.89 74.21-10.42 1.91 6.96-7.99z"/>
        </g>
        <g class="node" transform="translate(4 328)">
            <ellipse cx="1106.81" cy="-234" fill="none" stroke="#000" rx="38.56" ry="18"/>
            <text x="1106.81" y="-228.95" font-family="Times,serif" font-size="14" text-anchor="middle">:widget</text>
        </g>
        <g stroke="#000" class="edge">
            <path fill="none" d="M845.28 31.19c52.68 9.29 139.16 25.66 212.53 44.81 3.8.99 7.74 2.1 11.67 3.26"/>
            <path d="m1070.45 75.9 8.53 6.28-10.59.41z"/>
        </g>
        <g stroke="#000" class="edge">
            <path fill="none" d="M641.59 182.88c-24.42 10.43-56.48 24.11-82.26 35.11"/>
            <path d="m561.04 221.07-10.57.71 7.82-7.15z"/>
        </g>
        <g stroke="#000" class="edge">
            <path fill="none" d="m679.55 184.3 1.03 24.16"/>
            <path d="m684.08 208.24-3.07 10.14-3.93-9.84z"/>
        </g>
        <g stroke="#000" class="edge">
            <path fill="none" d="M711.97 183.24c22.23 10.87 51.46 25.19 74.18 36.31"/>
            <path d="m787.6 216.36 7.45 7.54-10.52-1.25z"/>
        </g>
        <g stroke="#000" class="edge">
            <path fill="none" d="M368.63 179.51c27.55 10.84 67.78 26.66 99.06 38.96"/>
            <path d="m468.91 215.19 8.03 6.92-10.59-.4z"/>
        </g>
        <g class="node" transform="translate(4 328)">
            <ellipse cx="79.81" cy="-90" fill="none" stroke="#000" rx="63.63" ry="18"/>
            <text x="79.81" y="-84.95" font-family="Times,serif" font-size="14" text-anchor="middle">:core:database</text>
        </g>
        <g stroke="red" stroke-width="2" class="edge">
            <path fill="none" d="M299.2 177.4c-42.4 11.73-111.73 30.92-160.25 44.34"/>
            <path fill="red" d="m141.5 224.67-10.57-.71 8.7-6.04z"/>
        </g>
        <g class="node" transform="translate(4 328)">
            <ellipse cx="365.81" cy="-90" fill="none" stroke="#000" rx="61.59" ry="18"/>
            <text x="365.81" y="-84.95" font-family="Times,serif" font-size="14" text-anchor="middle">:core:data-api</text>
        </g>
        <g stroke="#000" class="edge">
            <path fill="none" d="M344.79 183.95c3.6 7.62 7.94 16.82 11.98 25.4"/>
            <path d="m359.92 207.82 1.1 10.54-7.43-7.56z"/>
        </g>
        <g class="node" transform="translate(4 328)">
            <ellipse cx="79.81" cy="-18" fill="none" stroke="#000" rx="55.45" ry="18"/>
            <text x="79.81" y="-12.95" font-family="Times,serif" font-size="14" text-anchor="middle">:core:model</text>
        </g>
        <g stroke="#000" class="edge">
            <path fill="none" d="M289.37 167.49C207.72 169.46 46.01 178.62 10.81 220c-10.37 12.19-7.27 21.75 0 36 6.97 13.68 19.3 24.65 31.87 32.98"/>
            <path d="m44.26 285.85 6.7 8.2-10.35-2.23z"/>
        </g>
        <g class="node" transform="translate(4 328)">
            <ellipse cx="223.81" cy="-90" fill="none" stroke="#000" rx="62.1" ry="18"/>
            <text x="223.81" y="-84.95" font-family="Times,serif" font-size="14" text-anchor="middle">:core:network</text>
        </g>
        <g stroke="#000" class="edge">
            <path fill="none" d="M313.42 182.02c-14.95 9.6-34.61 22.22-51.32 32.95"/>
            <path d="m264.25 217.76-10.31 2.46 6.52-8.35z"/>
        </g>
        <g stroke="red" stroke-width="2" class="edge">
            <path fill="none" d="M377.73 111.95c-6.3 8.16-13.99 18.14-21 27.23"/>
            <path fill="red" d="m360.49 140.03-8.88 5.78 3.33-10.05z"/>
        </g>
        <g stroke="#000" class="edge">
            <path fill="none" d="M629.56 109.06c-21.75 8.6-47.21 21.37-65.75 38.94-17.99 17.03-30.99 42.16-39.06 61.38"/>
            <path d="m528.07 210.5-6.94 8 .44-10.59z"/>
        </g>
        <g stroke="#000" class="edge">
            <path fill="none" d="M675.04 112.3c.52 7.29 1.14 15.97 1.73 24.16"/>
            <path d="m680.25 136.16-2.77 10.23-4.21-9.73z"/>
        </g>
        <g stroke="#000" class="edge">
            <path fill="none" d="M625.77 108.33c-19.69 8.09-40.52 20.65-51.96 39.67-8.25 13.71-8.47 22.42 0 36 10.11 16.23 26.8 27.62 44.06 35.57"/>
            <path d="m618.81 216.17 7.86 7.11-10.58-.66z"/>
        </g>
        <g stroke="#000" class="edge">
            <path fill="none" d="M617.78 106.64c-63.78 13.25-167.14 34.71-229.13 47.59"/>
            <path d="m389.56 157.62-10.5-1.4 9.08-5.46z"/>
        </g>
        <g stroke="#000" class="edge">
            <path fill="none" d="M719.12 108.91c36.72 11.28 88.6 27.2 127.7 39.21"/>
            <path d="m847.76 144.74 8.53 6.29-10.59.41z"/>
        </g>
        <g stroke="#000" class="edge">
            <path fill="none" d="M719.9 108.73c21.69 8.4 46.55 21.11 63.91 39.27 16.14 16.9 25.96 41.72 31.56 60.85"/>
            <path d="m818.74 207.89-.8 10.56-5.96-8.75z"/>
        </g>
        <g stroke="red" stroke-width="2" class="edge">
            <path fill="none" d="M83.81 256.3v24.16"/>
            <path fill="red" d="m87.31 278.87-3.5 10-3.5-10z"/>
        </g>
        <g stroke="#000" class="edge">
            <path fill="none" d="M323.54 250.32c-50.63 12.4-131.7 32.24-185.34 45.37"/>
            <path d="m139.21 299.04-10.54-1.02 8.88-5.78z"/>
        </g>
    </g>
</svg>
