<svg xmlns="http://www.w3.org/2000/svg" width="866pt" height="332pt" viewBox="0 0 866.17 332">
    <g class="graph">
        <path fill="#fff" d="M0 332V0h866.17v332z"/>
        <g class="node" transform="translate(4 328)">
            <ellipse cx="485.63" cy="-306" fill="none" stroke="#000" rx="55.96" ry="18"/>
            <text x="485.63" y="-300.95" font-family="Times,serif" font-size="14" text-anchor="middle">:app-cnubus</text>
        </g>
        <g class="node" transform="translate(4 328)">
            <ellipse cx="717.63" cy="-162" fill="none" stroke="#000" rx="96.39" ry="18"/>
            <text x="717.63" y="-156.95" font-family="Times,serif" font-size="14" text-anchor="middle">:core:common-android</text>
        </g>
        <g stroke="#000" class="edge">
            <path fill="none" d="M542.24 28.5c58.69 7.3 148.31 22.28 170.39 47.5 14.24 16.26 15.66 41.13 13.99 60.45"/>
            <path d="m730.12 136.63-4.67 9.51-2.28-10.35z"/>
        </g>
        <g class="node" transform="translate(4 328)">
            <ellipse cx="512.63" cy="-90" fill="none" stroke="#000" rx="84.11" ry="18"/>
            <text x="512.63" y="-84.95" font-family="Times,serif" font-size="14" text-anchor="middle">:core:compose-core</text>
        </g>
        <g stroke="#000" class="edge">
            <path fill="none" d="M437.4 28.79c-30.18 6.32-65.81 19.55-84.77 47.21-9.04 13.2-6.81 21.52 0 36 23.23 49.36 76.91 84.25 116.57 104.4"/>
            <path d="m470.67 213.23 7.43 7.55-10.52-1.27z"/>
        </g>
        <g class="node" transform="translate(4 328)">
            <ellipse cx="221.63" cy="-162" fill="none" stroke="#000" rx="47.26" ry="18"/>
            <text x="221.63" y="-156.95" font-family="Times,serif" font-size="14" text-anchor="middle">:core:data</text>
        </g>
        <g stroke="#000" class="edge">
            <path fill="none" d="M441.8 31.8c-35.45 7.93-84.03 21.85-122.17 44.2-15.54 9.11-48.48 41.71-70.93 64.81"/>
            <path d="m251.47 142.98-9.46 4.76 4.43-9.62z"/>
        </g>
        <g class="node" transform="translate(4 328)">
            <ellipse cx="532.63" cy="-162" fill="none" stroke="#000" rx="70.8" ry="18"/>
            <text x="532.63" y="-156.95" font-family="Times,serif" font-size="14" text-anchor="middle">:core:navigation</text>
        </g>
        <g stroke="#000" class="edge">
            <path fill="none" d="M502.5 39.75c7.04 10 15.29 23.25 20.13 36.25 7.23 19.41 10.73 42.56 12.42 60.38"/>
            <path d="m538.53 136-2.69 10.25-4.29-9.69z"/>
        </g>
        <g class="node" transform="translate(4 328)">
            <ellipse cx="203.63" cy="-234" fill="none" stroke="#000" rx="60.05" ry="18"/>
            <text x="203.63" y="-228.95" font-family="Times,serif" font-size="14" text-anchor="middle">:core:domain</text>
        </g>
        <g stroke="red" stroke-width="2" class="edge">
            <path fill="none" d="M446.19 33.78C397.15 45.96 317.23 65.8 263.56 79.12"/>
            <path fill="red" d="m266.01 82.11-10.54-.98 8.86-5.81z"/>
        </g>
        <g class="node" transform="translate(4 328)">
            <ellipse cx="632.63" cy="-234" fill="none" stroke="#000" rx="66.71" ry="18"/>
            <text x="632.63" y="-228.95" font-family="Times,serif" font-size="14" text-anchor="middle">:feature:ui-labs</text>
        </g>
        <g stroke="#000" class="edge">
            <path fill="none" d="M520.09 37.5c21.54 10.26 50.69 24.14 74.45 35.45"/>
            <path d="m595.8 69.68 7.52 7.46L592.79 76z"/>
        </g>
        <g class="node" transform="translate(4 328)">
            <ellipse cx="433.63" cy="-234" fill="none" stroke="#000" rx="76.43" ry="18"/>
            <text x="433.63" y="-228.95" font-family="Times,serif" font-size="14" text-anchor="middle">:feature:ui-setting</text>
        </g>
        <g stroke="#000" class="edge">
            <path fill="none" d="M477.05 39.95c-6.07 8.16-13.48 18.14-20.23 27.23"/>
            <path d="M459.78 69.06 451.01 75l3.15-10.12z"/>
        </g>
        <g class="node" transform="translate(4 328)">
            <ellipse cx="794.63" cy="-234" fill="none" stroke="#000" rx="38.56" ry="18"/>
            <text x="794.63" y="-228.95" font-family="Times,serif" font-size="14" text-anchor="middle">:widget</text>
        </g>
        <g stroke="#000" class="edge">
            <path fill="none" d="M538.12 31.45C589.87 40.84 674.09 57.18 745.63 76c3.76.99 7.65 2.09 11.53 3.23"/>
            <path d="m757.99 75.83 8.53 6.28-10.58.41z"/>
        </g>
        <g stroke="#000" class="edge">
            <path fill="none" d="M676.65 182.36c-31.14 10.63-72.73 24.84-105.71 36.1"/>
            <path d="m572.14 221.75-10.6-.08 8.34-6.55z"/>
        </g>
        <g class="node" transform="translate(4 328)">
            <ellipse cx="699.63" cy="-90" fill="none" stroke="#000" rx="65.17" ry="18"/>
            <text x="699.63" y="-84.95" font-family="Times,serif" font-size="14" text-anchor="middle">:core:common</text>
        </g>
        <g stroke="#000" class="edge">
            <path fill="none" d="M717.19 184.3c-1.9 7.38-4.16 16.18-6.29 24.45"/>
            <path d="m714.29 209.62-5.88 8.81-.9-10.56z"/>
        </g>
        <g class="node" transform="translate(4 328)">
            <ellipse cx="820.63" cy="-90" fill="none" stroke="#000" rx="37.53" ry="18"/>
            <text x="820.63" y="-84.95" font-family="Times,serif" font-size="14" text-anchor="middle">:shared</text>
        </g>
        <g stroke="#000" class="edge">
            <path fill="none" d="M746.31 183.77c14.49 9.84 32.91 22.36 48.24 32.79"/>
            <path d="m796.09 213.37 6.3 8.51-10.24-2.72z"/>
        </g>
        <g class="node" transform="translate(4 328)">
            <ellipse cx="63.63" cy="-90" fill="none" stroke="#000" rx="63.63" ry="18"/>
            <text x="63.63" y="-84.95" font-family="Times,serif" font-size="14" text-anchor="middle">:core:database</text>
        </g>
        <g stroke="red" stroke-width="2" class="edge">
            <path fill="none" d="M195.54 180.33c-23.87 10.58-57.56 25.5-84.37 37.38"/>
            <path fill="red" d="m114.22 220.19-10.56.85 7.72-7.25z"/>
        </g>
        <g class="node" transform="translate(4 328)">
            <ellipse cx="206.63" cy="-90" fill="none" stroke="#000" rx="61.59" ry="18"/>
            <text x="206.63" y="-84.95" font-family="Times,serif" font-size="14" text-anchor="middle">:core:data-api</text>
        </g>
        <g stroke="#000" class="edge">
            <path fill="none" d="M221.93 184.3c-1.58 7.38-3.47 16.18-5.24 24.45"/>
            <path d="m220.13 209.37-5.51 9.05-1.33-10.52z"/>
        </g>
        <g class="node" transform="translate(4 328)">
            <ellipse cx="348.63" cy="-90" fill="none" stroke="#000" rx="62.1" ry="18"/>
            <text x="348.63" y="-84.95" font-family="Times,serif" font-size="14" text-anchor="middle">:core:network</text>
        </g>
        <g stroke="#000" class="edge">
            <path fill="none" d="M251.64 181.33c18.25 10.06 42.94 23.67 63.34 34.92"/>
            <path d="m316.51 213.09 7.07 7.89-10.45-1.76z"/>
        </g>
        <g stroke="red" stroke-width="2" class="edge">
            <path fill="none" d="M212.08 112.3c1.9 7.38 4.16 16.18 6.29 24.45"/>
            <path fill="red" d="m221.38 134.41-.9 10.55-5.88-8.81z"/>
        </g>
        <g stroke="#000" class="edge">
            <path fill="none" d="M489.07 107.68c46.21 11.39 114.4 28.19 165 40.67"/>
            <path d="m654.89 144.94 8.87 5.8-10.54 1z"/>
        </g>
        <g stroke="#000" class="edge">
            <path fill="none" d="M438.14 112.21c1.25 18.82 5.34 49.28 18.49 71.79 6.5 11.12 16.15 21.13 25.83 29.38"/>
            <path d="m484.47 210.51 5.6 8.98-9.99-3.53z"/>
        </g>
        <g stroke="#000" class="edge">
            <path fill="none" d="M394.48 109.25c-35.77 11.81-86.48 28.55-122.97 40.6"/>
            <path d="m272.7 153.15-10.6-.19 8.4-6.46z"/>
        </g>
        <g stroke="#000" class="edge">
            <path fill="none" d="M461.1 111.59c12.82 9.07 28.9 20.44 42.93 30.35"/>
            <path d="m505.96 139.03 6.15 8.63-10.19-2.92z"/>
        </g>
        <g class="node" transform="translate(4 328)">
            <ellipse cx="134.63" cy="-18" fill="none" stroke="#000" rx="55.45" ry="18"/>
            <text x="134.63" y="-12.95" font-family="Times,serif" font-size="14" text-anchor="middle">:core:model</text>
        </g>
        <g stroke="red" stroke-width="2" class="edge">
            <path fill="none" d="M84.46 255.59c8.75 8.63 19.63 19.35 29.33 28.91"/>
            <path fill="red" d="m115.11 280.89 4.66 9.51-9.57-4.52z"/>
        </g>
        <g stroke="#000" class="edge">
            <path fill="none" d="M193.57 255.59c-8.96 8.72-20.12 19.56-30.04 29.2"/>
            <path d="m166.27 287.01-9.61 4.46 4.73-9.48z"/>
        </g>
    </g>
</svg>
