<svg xmlns="http://www.w3.org/2000/svg" width="766pt" height="260pt" viewBox="0 0 765.56 260">
    <g class="graph">
        <path fill="#fff" d="M0 260V0h765.56v260z"/>
        <g class="node" transform="translate(4 256)">
            <ellipse cx="382.11" cy="-234" fill="none" stroke="#000" rx="57.49" ry="18"/>
            <text x="382.11" y="-228.95" font-family="Times,serif" font-size="14" text-anchor="middle">:app-comssa</text>
        </g>
        <g class="node" transform="translate(4 256)">
            <ellipse cx="313.11" cy="-18" fill="none" stroke="#000" rx="65.17" ry="18"/>
            <text x="313.11" y="-12.95" font-family="Times,serif" font-size="14" text-anchor="middle">:core:common</text>
        </g>
        <g stroke="#000" class="edge">
            <path fill="none" d="M328.99 24.71C291.16 29.19 244.08 41.88 219.11 76c-34.24 46.79 25.87 105.94 66.12 137.93"/>
            <path d="m287.26 211.07 5.77 8.89-10.05-3.35z"/>
        </g>
        <g class="node" transform="translate(4 256)">
            <ellipse cx="320.11" cy="-162" fill="none" stroke="#000" rx="96.39" ry="18"/>
            <text x="320.11" y="-156.95" font-family="Times,serif" font-size="14" text-anchor="middle">:core:common-android</text>
        </g>
        <g stroke="#000" class="edge">
            <path fill="none" d="M371.41 39.59c-7.38 8.33-16.48 18.61-24.73 27.92"/>
            <path d="m349.38 69.75-9.25 5.16 4.01-9.81z"/>
        </g>
        <g class="node" transform="translate(4 256)">
            <ellipse cx="84.11" cy="-90" fill="none" stroke="#000" rx="84.11" ry="18"/>
            <text x="84.11" y="-84.95" font-family="Times,serif" font-size="14" text-anchor="middle">:core:compose-core</text>
        </g>
        <g stroke="#000" class="edge">
            <path fill="none" d="M333.86 29.85C291.95 36.95 232.65 50.68 186.11 76c-29.9 16.26-58 43.49-76.38 63.56"/>
            <path d="m112.52 141.69-9.28 5.12 4.06-9.79z"/>
        </g>
        <g class="node" transform="translate(4 256)">
            <ellipse cx="679.11" cy="-162" fill="none" stroke="#000" rx="47.26" ry="18"/>
            <text x="679.11" y="-156.95" font-family="Times,serif" font-size="14" text-anchor="middle">:core:data</text>
        </g>
        <g stroke="red" stroke-width="2" class="edge">
            <path fill="none" d="M433.93 32.37C482.74 42.2 560.58 58.62 627.11 76c3.13.82 6.35 1.7 9.59 2.61"/>
            <path fill="red" d="m636.14 74.8 8.63 6.15-10.58.57z"/>
        </g>
        <g class="node" transform="translate(4 256)">
            <ellipse cx="543.11" cy="-162" fill="none" stroke="#000" rx="70.8" ry="18"/>
            <text x="543.11" y="-156.95" font-family="Times,serif" font-size="14" text-anchor="middle">:core:navigation</text>
        </g>
        <g stroke="#000" class="edge">
            <path fill="none" d="M418.69 37.17c23.9 10.39 56.67 24.64 83.12 36.14"/>
            <path d="m503.18 70.09 7.78 7.19-10.57-.77z"/>
        </g>
        <g class="node" transform="translate(4 256)">
            <ellipse cx="379.11" cy="-90" fill="none" stroke="#000" rx="37.53" ry="18"/>
            <text x="379.11" y="-84.95" font-family="Times,serif" font-size="14" text-anchor="middle">:shared</text>
        </g>
        <g stroke="#000" class="edge">
            <path fill="none" d="M404.25 39.24c9.37 9.63 19.87 22.69 24.86 36.76 5.35 15.08 5.59 21.01 0 36-4.12 11.01-11.66 21.25-19.47 29.74"/>
            <path d="m412.13 144.19-9.52 4.64 4.55-9.57z"/>
        </g>
        <g stroke="#000" class="edge">
            <path fill="none" d="M323.25 112.41c-1.18 23.98-3.33 67.45-4.74 96.17"/>
            <path d="m322.01 208.56-3.98 9.82-3.01-10.16z"/>
        </g>
        <g stroke="#000" class="edge">
            <path fill="none" d="M338.39 111.95c7.24 8.58 16.15 19.16 24.12 28.61"/>
            <path d="m365.02 138.11 3.77 9.9-9.12-5.39z"/>
        </g>
        <g stroke="#000" class="edge">
            <path fill="none" d="M135 181.33c37.36 11.42 89.67 27.42 128.65 39.33"/>
            <path d="m264.54 217.27 8.54 6.27-10.59.42z"/>
        </g>
        <g stroke="#000" class="edge">
            <path fill="none" d="M647.37 106.27c-6.71 1.99-13.68 3.99-20.26 5.73-70.05 18.54-95.09 1.87-159 36-20.52 10.96-18.78 22.89-38 36-19.97 13.62-44 25.43-64.75 34.43"/>
            <path d="m366.81 221.61-10.57.67 7.85-7.11z"/>
        </g>
        <g class="node" transform="translate(4 256)">
            <ellipse cx="679.11" cy="-90" fill="none" stroke="#000" rx="63.63" ry="18"/>
            <text x="679.11" y="-84.95" font-family="Times,serif" font-size="14" text-anchor="middle">:core:database</text>
        </g>
        <g stroke="red" stroke-width="2" class="edge">
            <path fill="none" d="M683.11 112.3v24.16"/>
            <path fill="red" d="m686.61 134.87-3.5 10-3.5-10z"/>
        </g>
        <g class="node" transform="translate(4 256)">
            <ellipse cx="679.11" cy="-18" fill="none" stroke="#000" rx="55.45" ry="18"/>
            <text x="679.11" y="-12.95" font-family="Times,serif" font-size="14" text-anchor="middle">:core:model</text>
        </g>
        <g stroke="#000" class="edge">
            <path fill="none" d="M713.15 108.31c15.89 8.79 33.92 21.97 42.96 39.69 7.26 14.25 7.26 21.75 0 36-6.97 13.68-19.31 24.65-31.88 32.98"/>
            <path d="m726.31 219.82-10.36 2.23 6.7-8.2z"/>
        </g>
        <g class="node" transform="translate(4 256)">
            <ellipse cx="535.11" cy="-90" fill="none" stroke="#000" rx="62.1" ry="18"/>
            <text x="535.11" y="-84.95" font-family="Times,serif" font-size="14" text-anchor="middle">:core:network</text>
        </g>
        <g stroke="#000" class="edge">
            <path fill="none" d="M654.66 108.83c-21.28 10.34-50.68 24.64-74.51 36.22"/>
            <path d="m581.88 148.1-10.53 1.23 7.47-7.52z"/>
        </g>
        <g stroke="red" stroke-width="2" class="edge">
            <path fill="none" d="M683.11 184.3v24.16"/>
            <path fill="red" d="m686.61 206.87-3.5 10-3.5-10z"/>
        </g>
        <g stroke="#000" class="edge">
            <path fill="none" d="M498.13 179.92c-36.11 11.39-88.93 28.04-128.21 40.43"/>
            <path d="m371.01 223.67-10.59-.33 8.48-6.34z"/>
        </g>
        <g stroke="#000" class="edge">
            <path fill="none" d="M570 182.02c21.35 10.38 49.97 24.29 73.07 35.52"/>
            <path d="m644.43 214.31 7.46 7.52-10.52-1.23z"/>
        </g>
    </g>
</svg>
