<?xml version="1.0" encoding="UTF-8" standalone="no"?>
<!DOCTYPE svg PUBLIC "-//W3C//DTD SVG 1.1//EN"
 "http://www.w3.org/Graphics/SVG/1.1/DTD/svg11.dtd">
<!-- Generated by graphviz version 10.0.1 (20240210.2158)
 -->
<!-- Title: G Pages: 1 -->
<svg width="517pt" height="188pt"
 viewBox="0.00 0.00 516.83 188.00" xmlns="http://www.w3.org/2000/svg" xmlns:xlink="http://www.w3.org/1999/xlink">
<g id="graph0" class="graph" transform="scale(1 1) rotate(0) translate(4 184)">
<title>G</title>
<polygon fill="white" stroke="none" points="-4,4 -4,-184 512.83,-184 512.83,4 -4,4"/>
<!-- :app&#45;comssa -->
<g id="node1" class="node">
<title>:app&#45;comssa</title>
<ellipse fill="none" stroke="black" cx="213.57" cy="-162" rx="57.49" ry="18"/>
<text text-anchor="middle" x="213.57" y="-156.95" font-family="Times,serif" font-size="14.00">:app&#45;comssa</text>
</g>
<!-- :core:common -->
<g id="node2" class="node">
<title>:core:common</title>
<ellipse fill="none" stroke="black" cx="213.57" cy="-18" rx="65.17" ry="18"/>
<text text-anchor="middle" x="213.57" y="-12.95" font-family="Times,serif" font-size="14.00">:core:common</text>
</g>
<!-- :app&#45;comssa&#45;&gt;:core:common -->
<g id="edge1" class="edge">
<title>:app&#45;comssa&#45;&gt;:core:common</title>
<path fill="none" stroke="black" d="M160.58,-154.58C106.49,-146.81 27.93,-131.74 9.57,-108 -29.61,-57.34 67.45,-34.97 140.77,-25.5"/>
<polygon fill="black" stroke="black" points="140.85,-29.01 150.34,-24.32 139.99,-22.07 140.85,-29.01"/>
</g>
<!-- :core:common&#45;android -->
<g id="node3" class="node">
<title>:core:common&#45;android</title>
<ellipse fill="none" stroke="black" cx="114.57" cy="-90" rx="96.39" ry="18"/>
<text text-anchor="middle" x="114.57" y="-84.95" font-family="Times,serif" font-size="14.00">:core:common&#45;android</text>
</g>
<!-- :app&#45;comssa&#45;&gt;:core:common&#45;android -->
<g id="edge2" class="edge">
<title>:app&#45;comssa&#45;&gt;:core:common&#45;android</title>
<path fill="none" stroke="red" stroke-width="2" d="M191.11,-145.12C178.19,-135.98 161.73,-124.35 147.39,-114.2"/>
<polygon fill="red" stroke="red" stroke-width="2" points="150.98,-112.46 140.8,-109.54 146.94,-118.18 150.98,-112.46"/>
</g>
<!-- :core:compose&#45;core -->
<g id="node4" class="node">
<title>:core:compose&#45;core</title>
<ellipse fill="none" stroke="black" cx="312.57" cy="-90" rx="84.11" ry="18"/>
<text text-anchor="middle" x="312.57" y="-84.95" font-family="Times,serif" font-size="14.00">:core:compose&#45;core</text>
</g>
<!-- :app&#45;comssa&#45;&gt;:core:compose&#45;core -->
<g id="edge3" class="edge">
<title>:app&#45;comssa&#45;&gt;:core:compose&#45;core</title>
<path fill="none" stroke="black" d="M236.04,-145.12C249.05,-135.92 265.65,-124.18 280.07,-113.98"/>
<polygon fill="black" stroke="black" points="281.78,-117.06 287.93,-108.43 277.74,-111.34 281.78,-117.06"/>
</g>
<!-- :core:data -->
<g id="node5" class="node">
<title>:core:data</title>
<ellipse fill="none" stroke="black" cx="461.57" cy="-90" rx="47.26" ry="18"/>
<text text-anchor="middle" x="461.57" y="-84.95" font-family="Times,serif" font-size="14.00">:core:data</text>
</g>
<!-- :app&#45;comssa&#45;&gt;:core:data -->
<g id="edge4" class="edge">
<title>:app&#45;comssa&#45;&gt;:core:data</title>
<path fill="none" stroke="black" d="M256.36,-149.52C295.33,-138.99 354.42,-122.82 405.57,-108 408.64,-107.11 411.79,-106.19 414.97,-105.24"/>
<polygon fill="black" stroke="black" points="415.73,-108.67 424.31,-102.45 413.73,-101.96 415.73,-108.67"/>
</g>
<!-- :core:common&#45;android&#45;&gt;:core:common -->
<g id="edge5" class="edge">
<title>:core:common&#45;android&#45;&gt;:core:common</title>
<path fill="none" stroke="red" stroke-width="2" d="M138.28,-72.23C151.21,-63.1 167.38,-51.66 181.42,-41.73"/>
<polygon fill="red" stroke="red" stroke-width="2" points="182.12,-45.53 188.26,-36.9 178.08,-39.81 182.12,-45.53"/>
</g>
<!-- :core:compose&#45;core&#45;&gt;:core:common -->
<g id="edge6" class="edge">
<title>:core:compose&#45;core&#45;&gt;:core:common</title>
<path fill="none" stroke="black" d="M289.11,-72.41C276.19,-63.28 259.97,-51.81 245.88,-41.84"/>
<polygon fill="black" stroke="black" points="247.94,-39.02 237.76,-36.1 243.9,-44.73 247.94,-39.02"/>
</g>
<!-- :core:data&#45;&gt;:core:common -->
<g id="edge7" class="edge">
<title>:core:data&#45;&gt;:core:common</title>
<path fill="none" stroke="black" d="M425.76,-77.98C419.06,-75.96 412.11,-73.89 405.57,-72 360.08,-58.82 308.3,-44.57 269.98,-34.17"/>
<polygon fill="black" stroke="black" points="271.08,-30.84 260.51,-31.6 269.25,-37.59 271.08,-30.84"/>
</g>
</g>
</svg>
