<svg xmlns="http://www.w3.org/2000/svg" width="812" height="260pt" viewBox="0 0 608.74 260">
    <g class="graph">
        <path fill="#fff" d="M0 260V0h608.74v260z"/>
        <g class="node" transform="translate(4 256)">
            <ellipse cx="241.92" cy="-234" fill="none" stroke="#000" rx="57.49" ry="18"/>
            <text x="241.92" y="-228.95" font-family="Times,serif" font-size="14" text-anchor="middle">:app-comssa</text>
        </g>
        <g class="node" transform="translate(4 256)">
            <ellipse cx="249.92" cy="-18" fill="none" stroke="#000" rx="65.17" ry="18"/>
            <text x="249.92" y="-12.95" font-family="Times,serif" font-size="14" text-anchor="middle">:core:common</text>
        </g>
        <g stroke="#000" class="edge">
            <path fill="none" d="M191.18 27.94C130.48 34.68 38.28 49.13 16.92 76c-56.85 71.51 89.83 123.27 177.28 146.82"/>
            <path d="m194.84 219.37 8.77 5.93-10.56.84z"/>
        </g>
        <g class="node" transform="translate(4 256)">
            <ellipse cx="117.92" cy="-162" fill="none" stroke="#000" rx="96.39" ry="18"/>
            <text x="117.92" y="-156.95" font-family="Times,serif" font-size="14" text-anchor="middle">:core:common-android</text>
        </g>
        <g stroke="#000" class="edge">
            <path fill="none" d="M219.01 38.19c-17.02 9.61-39.31 22.19-58.24 32.88"/>
            <path d="m162.68 74.01-10.43 1.87 6.99-7.97z"/>
        </g>
        <g class="node" transform="translate(4 256)">
            <ellipse cx="353.92" cy="-162" fill="none" stroke="#000" rx="84.11" ry="18"/>
            <text x="353.92" y="-156.95" font-family="Times,serif" font-size="14" text-anchor="middle">:core:compose-core</text>
        </g>
        <g stroke="#000" class="edge">
            <path fill="none" d="M270.78 38.54c15.08 9.42 34.59 21.61 51.32 32.07"/>
            <path d="m323.66 67.46 6.63 8.27-10.34-2.33z"/>
        </g>
        <g class="node" transform="translate(4 256)">
            <ellipse cx="502.92" cy="-162" fill="none" stroke="#000" rx="47.26" ry="18"/>
            <text x="502.92" y="-156.95" font-family="Times,serif" font-size="14" text-anchor="middle">:core:data</text>
        </g>
        <g stroke="red" stroke-width="2" class="edge">
            <path fill="none" d="M290.05 33.84C331.66 44.2 395.71 60.49 450.92 76c3.07.86 6.23 1.77 9.42 2.7"/>
            <path fill="red" d="m459.64 74.84 8.59 6.2-10.58.51z"/>
        </g>
        <g class="node" transform="translate(4 256)">
            <ellipse cx="183.92" cy="-90" fill="none" stroke="#000" rx="37.53" ry="18"/>
            <text x="183.92" y="-84.95" font-family="Times,serif" font-size="14" text-anchor="middle">:shared</text>
        </g>
        <g stroke="#000" class="edge">
            <path fill="none" d="M244.4 40.4c-2.11 18.45-6.92 48.11-17.48 71.6-4.42 9.84-10.89 19.64-17.29 28.08"/>
            <path d="m212.45 142.15-8.97 5.63 3.5-10z"/>
        </g>
        <g stroke="#000" class="edge">
            <path fill="none" d="M121.26 112.3c.16 19.46 3.25 51.04 19.66 71.7 13.77 17.33 34.54 29.27 54.53 37.36"/>
            <path d="m196.56 218.04 8.13 6.79-10.59-.24z"/>
        </g>
        <g stroke="#000" class="edge">
            <path fill="none" d="M137.9 111.95c8.18 8.67 18.27 19.38 27.25 28.9"/>
            <path d="m167.64 138.39 4.32 9.68-9.41-4.88z"/>
        </g>
        <g stroke="#000" class="edge">
            <path fill="none" d="M323.26 110.7c-15.95 8.85-33.84 21.35-45.34 37.3-12.74 17.68-18.72 41.73-21.52 60.38"/>
            <path d="m259.88 208.74-4.72 9.48-2.23-10.35z"/>
        </g>
        <g stroke="#000" class="edge">
            <path fill="none" d="M471.14 106.11c-6.71 2.01-13.67 4.05-20.22 5.89-61.86 17.34-87.95-1.66-140 36-21.32 15.43-36.64 41.51-46 61.46"/>
            <path d="m268.2 210.7-7.25 7.72.85-10.56z"/>
        </g>
        <g class="node" transform="translate(4 256)">
            <ellipse cx="521.92" cy="-90" fill="none" stroke="#000" rx="63.63" ry="18"/>
            <text x="521.92" y="-84.95" font-family="Times,serif" font-size="14" text-anchor="middle">:core:database</text>
        </g>
        <g stroke="red" stroke-width="2" class="edge">
            <path fill="none" d="M511.62 112.3c2.02 7.46 4.44 16.38 6.71 24.73"/>
            <path fill="red" d="m521.24 134.41-.76 10.56-5.99-8.73z"/>
        </g>
        <g class="node" transform="translate(4 256)">
            <ellipse cx="521.92" cy="-18" fill="none" stroke="#000" rx="55.45" ry="18"/>
            <text x="521.92" y="-12.95" font-family="Times,serif" font-size="14" text-anchor="middle">:core:model</text>
        </g>
        <g stroke="#000" class="edge">
            <path fill="none" d="M543.13 105.8c20.26 8.11 43.8 21.45 55.79 42.2 8.01 13.85 7.27 21.75 0 36-6.97 13.68-19.31 24.65-31.87 32.98"/>
            <path d="m569.12 219.82-10.36 2.23 6.71-8.2z"/>
        </g>
        <g class="node" transform="translate(4 256)">
            <ellipse cx="377.92" cy="-90" fill="none" stroke="#000" rx="62.1" ry="18"/>
            <text x="377.92" y="-84.95" font-family="Times,serif" font-size="14" text-anchor="middle">:core:network</text>
        </g>
        <g stroke="#000" class="edge">
            <path fill="none" d="M481.02 109.5c-17.78 9.96-41.67 23.34-61.53 34.46"/>
            <path d="m421.28 146.97-10.44 1.83 7.02-7.94z"/>
        </g>
        <g stroke="red" stroke-width="2" class="edge">
            <path fill="none" d="M525.92 184.3v24.16"/>
            <path fill="red" d="m529.42 206.87-3.5 10-3.5-10z"/>
        </g>
        <g stroke="#000" class="edge">
            <path fill="none" d="M353.83 182.36c-18.05 9.87-41.73 22.82-61.51 33.64"/>
            <path d="m294.17 218.98-10.46 1.73 7.1-7.87z"/>
        </g>
        <g stroke="#000" class="edge">
            <path fill="none" d="M412.81 182.02c21.36 10.38 49.97 24.29 73.07 35.52"/>
            <path d="m487.24 214.31 7.46 7.52-10.52-1.23z"/>
        </g>
    </g>
</svg>
