<?xml version="1.0" encoding="UTF-8" standalone="no"?>
<!DOCTYPE svg PUBLIC "-//W3C//DTD SVG 1.1//EN"
 "http://www.w3.org/Graphics/SVG/1.1/DTD/svg11.dtd">
<!-- Generated by graphviz version 12.0.0 (20240704.0754)
 -->
<!-- Title: G Pages: 1 -->
<svg width="609pt" height="260pt"
 viewBox="0.00 0.00 608.74 260.00" xmlns="http://www.w3.org/2000/svg" xmlns:xlink="http://www.w3.org/1999/xlink">
<g id="graph0" class="graph" transform="scale(1 1) rotate(0) translate(4 256)">
<title>G</title>
<polygon fill="white" stroke="none" points="-4,4 -4,-256 604.74,-256 604.74,4 -4,4"/>
<!-- :app&#45;comssa -->
<g id="node1" class="node">
<title>:app&#45;comssa</title>
<ellipse fill="none" stroke="black" cx="241.92" cy="-234" rx="57.49" ry="18"/>
<text text-anchor="middle" x="241.92" y="-228.95" font-family="Times,serif" font-size="14.00">:app&#45;comssa</text>
</g>
<!-- :core:common -->
<g id="node2" class="node">
<title>:core:common</title>
<ellipse fill="none" stroke="black" cx="249.92" cy="-18" rx="65.17" ry="18"/>
<text text-anchor="middle" x="249.92" y="-12.95" font-family="Times,serif" font-size="14.00">:core:common</text>
</g>
<!-- :app&#45;comssa&#45;&gt;:core:common -->
<g id="edge1" class="edge">
<title>:app&#45;comssa&#45;&gt;:core:common</title>
<path fill="none" stroke="black" d="M187.18,-228.06C126.48,-221.32 34.28,-206.87 12.92,-180 -43.93,-108.49 102.75,-56.73 190.2,-33.18"/>
<polygon fill="black" stroke="black" points="190.84,-36.63 199.61,-30.7 189.05,-29.86 190.84,-36.63"/>
</g>
<!-- :core:common&#45;android -->
<g id="node3" class="node">
<title>:core:common&#45;android</title>
<ellipse fill="none" stroke="black" cx="117.92" cy="-162" rx="96.39" ry="18"/>
<text text-anchor="middle" x="117.92" y="-156.95" font-family="Times,serif" font-size="14.00">:core:common&#45;android</text>
</g>
<!-- :app&#45;comssa&#45;&gt;:core:common&#45;android -->
<g id="edge2" class="edge">
<title>:app&#45;comssa&#45;&gt;:core:common&#45;android</title>
<path fill="none" stroke="black" d="M215.01,-217.81C197.99,-208.2 175.7,-195.62 156.77,-184.93"/>
<polygon fill="black" stroke="black" points="158.68,-181.99 148.25,-180.12 155.24,-188.09 158.68,-181.99"/>
</g>
<!-- :core:compose&#45;core -->
<g id="node4" class="node">
<title>:core:compose&#45;core</title>
<ellipse fill="none" stroke="black" cx="353.92" cy="-162" rx="84.11" ry="18"/>
<text text-anchor="middle" x="353.92" y="-156.95" font-family="Times,serif" font-size="14.00">:core:compose&#45;core</text>
</g>
<!-- :app&#45;comssa&#45;&gt;:core:compose&#45;core -->
<g id="edge3" class="edge">
<title>:app&#45;comssa&#45;&gt;:core:compose&#45;core</title>
<path fill="none" stroke="black" d="M266.78,-217.46C281.86,-208.04 301.37,-195.85 318.1,-185.39"/>
<polygon fill="black" stroke="black" points="319.66,-188.54 326.29,-180.27 315.95,-182.6 319.66,-188.54"/>
</g>
<!-- :core:data -->
<g id="node5" class="node">
<title>:core:data</title>
<ellipse fill="none" stroke="black" cx="502.92" cy="-162" rx="47.26" ry="18"/>
<text text-anchor="middle" x="502.92" y="-156.95" font-family="Times,serif" font-size="14.00">:core:data</text>
</g>
<!-- :app&#45;comssa&#45;&gt;:core:data -->
<g id="edge4" class="edge">
<title>:app&#45;comssa&#45;&gt;:core:data</title>
<path fill="none" stroke="red" stroke-width="2" d="M286.05,-222.16C327.66,-211.8 391.71,-195.51 446.92,-180 449.99,-179.14 453.15,-178.23 456.34,-177.3"/>
<polygon fill="red" stroke="red" stroke-width="2" points="455.64,-181.16 464.23,-174.96 453.65,-174.45 455.64,-181.16"/>
</g>
<!-- :shared -->
<g id="node6" class="node">
<title>:shared</title>
<ellipse fill="none" stroke="black" cx="183.92" cy="-90" rx="37.53" ry="18"/>
<text text-anchor="middle" x="183.92" y="-84.95" font-family="Times,serif" font-size="14.00">:shared</text>
</g>
<!-- :app&#45;comssa&#45;&gt;:shared -->
<g id="edge5" class="edge">
<title>:app&#45;comssa&#45;&gt;:shared</title>
<path fill="none" stroke="black" d="M240.4,-215.6C238.29,-197.15 233.48,-167.49 222.92,-144 218.5,-134.16 212.03,-124.36 205.63,-115.92"/>
<polygon fill="black" stroke="black" points="208.45,-113.85 199.48,-108.22 202.98,-118.22 208.45,-113.85"/>
</g>
<!-- :core:common&#45;android&#45;&gt;:core:common -->
<g id="edge6" class="edge">
<title>:core:common&#45;android&#45;&gt;:core:common</title>
<path fill="none" stroke="black" d="M117.26,-143.7C117.42,-124.24 120.51,-92.66 136.92,-72 150.69,-54.67 171.46,-42.73 191.45,-34.64"/>
<polygon fill="black" stroke="black" points="192.56,-37.96 200.69,-31.17 190.1,-31.41 192.56,-37.96"/>
</g>
<!-- :core:common&#45;android&#45;&gt;:shared -->
<g id="edge7" class="edge">
<title>:core:common&#45;android&#45;&gt;:shared</title>
<path fill="none" stroke="black" d="M133.9,-144.05C142.08,-135.38 152.17,-124.67 161.15,-115.15"/>
<polygon fill="black" stroke="black" points="163.64,-117.61 167.96,-107.93 158.55,-112.81 163.64,-117.61"/>
</g>
<!-- :core:compose&#45;core&#45;&gt;:core:common -->
<g id="edge8" class="edge">
<title>:core:compose&#45;core&#45;&gt;:core:common</title>
<path fill="none" stroke="black" d="M319.26,-145.3C303.31,-136.45 285.42,-123.95 273.92,-108 261.18,-90.32 255.2,-66.27 252.4,-47.62"/>
<polygon fill="black" stroke="black" points="255.88,-47.26 251.16,-37.78 248.93,-48.13 255.88,-47.26"/>
</g>
<!-- :core:data&#45;&gt;:core:common -->
<g id="edge9" class="edge">
<title>:core:data&#45;&gt;:core:common</title>
<path fill="none" stroke="black" d="M467.14,-149.89C460.43,-147.88 453.47,-145.84 446.92,-144 385.06,-126.66 358.97,-145.66 306.92,-108 285.6,-92.57 270.28,-66.49 260.92,-46.54"/>
<polygon fill="black" stroke="black" points="264.2,-45.3 256.95,-37.58 257.8,-48.14 264.2,-45.3"/>
</g>
<!-- :core:database -->
<g id="node7" class="node">
<title>:core:database</title>
<ellipse fill="none" stroke="black" cx="521.92" cy="-90" rx="63.63" ry="18"/>
<text text-anchor="middle" x="521.92" y="-84.95" font-family="Times,serif" font-size="14.00">:core:database</text>
</g>
<!-- :core:data&#45;&gt;:core:database -->
<g id="edge10" class="edge">
<title>:core:data&#45;&gt;:core:database</title>
<path fill="none" stroke="red" stroke-width="2" d="M507.62,-143.7C509.64,-136.24 512.06,-127.32 514.33,-118.97"/>
<polygon fill="red" stroke="red" stroke-width="2" points="517.24,-121.59 516.48,-111.03 510.49,-119.76 517.24,-121.59"/>
</g>
<!-- :core:model -->
<g id="node8" class="node">
<title>:core:model</title>
<ellipse fill="none" stroke="black" cx="521.92" cy="-18" rx="55.45" ry="18"/>
<text text-anchor="middle" x="521.92" y="-12.95" font-family="Times,serif" font-size="14.00">:core:model</text>
</g>
<!-- :core:data&#45;&gt;:core:model -->
<g id="edge11" class="edge">
<title>:core:data&#45;&gt;:core:model</title>
<path fill="none" stroke="black" d="M539.13,-150.2C559.39,-142.09 582.93,-128.75 594.92,-108 602.93,-94.15 602.19,-86.25 594.92,-72 587.95,-58.32 575.61,-47.35 563.05,-39.02"/>
<polygon fill="black" stroke="black" points="565.12,-36.18 554.76,-33.95 561.47,-42.15 565.12,-36.18"/>
</g>
<!-- :core:network -->
<g id="node9" class="node">
<title>:core:network</title>
<ellipse fill="none" stroke="black" cx="377.92" cy="-90" rx="62.1" ry="18"/>
<text text-anchor="middle" x="377.92" y="-84.95" font-family="Times,serif" font-size="14.00">:core:network</text>
</g>
<!-- :core:data&#45;&gt;:core:network -->
<g id="edge12" class="edge">
<title>:core:data&#45;&gt;:core:network</title>
<path fill="none" stroke="black" d="M477.02,-146.5C459.24,-136.54 435.35,-123.16 415.49,-112.04"/>
<polygon fill="black" stroke="black" points="417.28,-109.03 406.84,-107.2 413.86,-115.14 417.28,-109.03"/>
</g>
<!-- :core:database&#45;&gt;:core:model -->
<g id="edge13" class="edge">
<title>:core:database&#45;&gt;:core:model</title>
<path fill="none" stroke="red" stroke-width="2" d="M521.92,-71.7C521.92,-64.41 521.92,-55.73 521.92,-47.54"/>
<polygon fill="red" stroke="red" stroke-width="2" points="525.42,-49.13 521.92,-39.13 518.42,-49.13 525.42,-49.13"/>
</g>
<!-- :core:network&#45;&gt;:core:common -->
<g id="edge14" class="edge">
<title>:core:network&#45;&gt;:core:common</title>
<path fill="none" stroke="black" d="M349.83,-73.64C331.78,-63.77 308.1,-50.82 288.32,-40"/>
<polygon fill="black" stroke="black" points="290.17,-37.02 279.71,-35.29 286.81,-43.16 290.17,-37.02"/>
</g>
<!-- :core:network&#45;&gt;:core:model -->
<g id="edge15" class="edge">
<title>:core:network&#45;&gt;:core:model</title>
<path fill="none" stroke="black" d="M408.81,-73.98C430.17,-63.6 458.78,-49.69 481.88,-38.46"/>
<polygon fill="black" stroke="black" points="483.24,-41.69 490.7,-34.17 480.18,-35.4 483.24,-41.69"/>
</g>
</g>
</svg>
