<?xml version="1.0" encoding="UTF-8" standalone="no"?>
<!DOCTYPE svg PUBLIC "-//W3C//DTD SVG 1.1//EN"
 "http://www.w3.org/Graphics/SVG/1.1/DTD/svg11.dtd">
<!-- Generated by graphviz version 10.0.1 (20240210.2158)
 -->
<!-- Title: G Pages: 1 -->
<svg width="600pt" height="260pt"
 viewBox="0.00 0.00 600.42 260.00" xmlns="http://www.w3.org/2000/svg" xmlns:xlink="http://www.w3.org/1999/xlink">
<g id="graph0" class="graph" transform="scale(1 1) rotate(0) translate(4 256)">
<title>G</title>
<polygon fill="white" stroke="none" points="-4,4 -4,-256 596.42,-256 596.42,4 -4,4"/>
<!-- :app&#45;comssa -->
<g id="node1" class="node">
<title>:app&#45;comssa</title>
<ellipse fill="none" stroke="black" cx="172.85" cy="-234" rx="57.49" ry="18"/>
<text text-anchor="middle" x="172.85" y="-228.95" font-family="Times,serif" font-size="14.00">:app&#45;comssa</text>
</g>
<!-- :core:common -->
<g id="node2" class="node">
<title>:core:common</title>
<ellipse fill="none" stroke="black" cx="240.85" cy="-18" rx="65.17" ry="18"/>
<text text-anchor="middle" x="240.85" y="-12.95" font-family="Times,serif" font-size="14.00">:core:common</text>
</g>
<!-- :app&#45;comssa&#45;&gt;:core:common -->
<g id="edge1" class="edge">
<title>:app&#45;comssa&#45;&gt;:core:common</title>
<path fill="none" stroke="black" d="M139.31,-219.19C79.39,-192.58 -35.5,-131.56 11.85,-72 31.23,-47.62 108.93,-33.47 168.51,-26.02"/>
<polygon fill="black" stroke="black" points="168.77,-29.51 178.27,-24.84 167.93,-22.56 168.77,-29.51"/>
</g>
<!-- :core:common&#45;android -->
<g id="node3" class="node">
<title>:core:common&#45;android</title>
<ellipse fill="none" stroke="black" cx="116.85" cy="-90" rx="96.39" ry="18"/>
<text text-anchor="middle" x="116.85" y="-84.95" font-family="Times,serif" font-size="14.00">:core:common&#45;android</text>
</g>
<!-- :app&#45;comssa&#45;&gt;:core:common&#45;android -->
<g id="edge2" class="edge">
<title>:app&#45;comssa&#45;&gt;:core:common&#45;android</title>
<path fill="none" stroke="black" d="M158.64,-216.38C150.82,-206.42 141.57,-193.17 135.85,-180 127.47,-160.72 122.67,-137.43 119.99,-119.52"/>
<polygon fill="black" stroke="black" points="123.49,-119.3 118.69,-109.85 116.55,-120.23 123.49,-119.3"/>
</g>
<!-- :core:compose&#45;core -->
<g id="node4" class="node">
<title>:core:compose&#45;core</title>
<ellipse fill="none" stroke="black" cx="228.85" cy="-162" rx="84.11" ry="18"/>
<text text-anchor="middle" x="228.85" y="-156.95" font-family="Times,serif" font-size="14.00">:core:compose&#45;core</text>
</g>
<!-- :app&#45;comssa&#45;&gt;:core:compose&#45;core -->
<g id="edge3" class="edge">
<title>:app&#45;comssa&#45;&gt;:core:compose&#45;core</title>
<path fill="none" stroke="black" d="M186.41,-216.05C193.01,-207.8 201.09,-197.7 208.42,-188.54"/>
<polygon fill="black" stroke="black" points="210.96,-190.97 214.47,-180.97 205.49,-186.59 210.96,-190.97"/>
</g>
<!-- :core:data -->
<g id="node5" class="node">
<title>:core:data</title>
<ellipse fill="none" stroke="black" cx="377.85" cy="-162" rx="47.26" ry="18"/>
<text text-anchor="middle" x="377.85" y="-156.95" font-family="Times,serif" font-size="14.00">:core:data</text>
</g>
<!-- :app&#45;comssa&#45;&gt;:core:data -->
<g id="edge4" class="edge">
<title>:app&#45;comssa&#45;&gt;:core:data</title>
<path fill="none" stroke="red" stroke-width="2" d="M210.45,-220.16C244.91,-208.39 296.01,-190.95 332.67,-178.43"/>
<polygon fill="red" stroke="red" stroke-width="2" points="332.36,-182.23 340.69,-175.69 330.1,-175.61 332.36,-182.23"/>
</g>
<!-- :core:common&#45;android&#45;&gt;:core:common -->
<g id="edge5" class="edge">
<title>:core:common&#45;android&#45;&gt;:core:common</title>
<path fill="none" stroke="black" d="M146.24,-72.41C163.4,-62.72 185.22,-50.4 203.58,-40.04"/>
<polygon fill="black" stroke="black" points="205.07,-43.22 212.06,-35.25 201.63,-37.12 205.07,-43.22"/>
</g>
<!-- :core:compose&#45;core&#45;&gt;:core:common -->
<g id="edge6" class="edge">
<title>:core:compose&#45;core&#45;&gt;:core:common</title>
<path fill="none" stroke="black" d="M230.32,-143.59C232.35,-119.61 236.02,-76.14 238.45,-47.42"/>
<polygon fill="black" stroke="black" points="241.92,-47.88 239.28,-37.62 234.95,-47.29 241.92,-47.88"/>
</g>
<!-- :core:data&#45;&gt;:core:common -->
<g id="edge7" class="edge">
<title>:core:data&#45;&gt;:core:common</title>
<path fill="none" stroke="black" d="M350.96,-146.99C334.38,-137.48 313.4,-123.79 297.85,-108 279.9,-89.77 264.6,-65 254.38,-46.22"/>
<polygon fill="black" stroke="black" points="257.57,-44.77 249.81,-37.56 251.38,-48.04 257.57,-44.77"/>
</g>
<!-- :core:database -->
<g id="node6" class="node">
<title>:core:database</title>
<ellipse fill="none" stroke="black" cx="512.85" cy="-90" rx="63.63" ry="18"/>
<text text-anchor="middle" x="512.85" y="-84.95" font-family="Times,serif" font-size="14.00">:core:database</text>
</g>
<!-- :core:data&#45;&gt;:core:database -->
<g id="edge8" class="edge">
<title>:core:data&#45;&gt;:core:database</title>
<path fill="none" stroke="red" stroke-width="2" d="M405.17,-146.83C424.72,-136.7 451.35,-122.89 473.24,-111.54"/>
<polygon fill="red" stroke="red" stroke-width="2" points="473.27,-115.46 480.54,-107.75 470.05,-109.25 473.27,-115.46"/>
</g>
<!-- :core:model -->
<g id="node7" class="node">
<title>:core:model</title>
<ellipse fill="none" stroke="black" cx="512.85" cy="-18" rx="55.45" ry="18"/>
<text text-anchor="middle" x="512.85" y="-12.95" font-family="Times,serif" font-size="14.00">:core:model</text>
</g>
<!-- :core:data&#45;&gt;:core:model -->
<g id="edge9" class="edge">
<title>:core:data&#45;&gt;:core:model</title>
<path fill="none" stroke="black" d="M422.55,-155.99C477.52,-148.8 566.01,-133.53 585.85,-108 595.67,-95.37 593.12,-86.25 585.85,-72 578.88,-58.32 566.54,-47.35 553.98,-39.02"/>
<polygon fill="black" stroke="black" points="556.05,-36.18 545.69,-33.95 552.39,-42.15 556.05,-36.18"/>
</g>
<!-- :core:network -->
<g id="node8" class="node">
<title>:core:network</title>
<ellipse fill="none" stroke="black" cx="368.85" cy="-90" rx="62.1" ry="18"/>
<text text-anchor="middle" x="368.85" y="-84.95" font-family="Times,serif" font-size="14.00">:core:network</text>
</g>
<!-- :core:data&#45;&gt;:core:network -->
<g id="edge10" class="edge">
<title>:core:data&#45;&gt;:core:network</title>
<path fill="none" stroke="black" d="M375.62,-143.7C374.68,-136.32 373.55,-127.52 372.48,-119.25"/>
<polygon fill="black" stroke="black" points="375.99,-119.08 371.24,-109.61 369.05,-119.97 375.99,-119.08"/>
</g>
<!-- :core:database&#45;&gt;:core:model -->
<g id="edge11" class="edge">
<title>:core:database&#45;&gt;:core:model</title>
<path fill="none" stroke="red" stroke-width="2" d="M512.85,-71.7C512.85,-64.41 512.85,-55.73 512.85,-47.54"/>
<polygon fill="red" stroke="red" stroke-width="2" points="516.35,-49.13 512.85,-39.13 509.35,-49.13 516.35,-49.13"/>
</g>
<!-- :core:network&#45;&gt;:core:common -->
<g id="edge12" class="edge">
<title>:core:network&#45;&gt;:core:common</title>
<path fill="none" stroke="black" d="M340.76,-73.64C322.71,-63.77 299.03,-50.82 279.25,-40"/>
<polygon fill="black" stroke="black" points="281.1,-37.02 270.64,-35.29 277.74,-43.16 281.1,-37.02"/>
</g>
<!-- :core:network&#45;&gt;:core:model -->
<g id="edge13" class="edge">
<title>:core:network&#45;&gt;:core:model</title>
<path fill="none" stroke="black" d="M399.74,-73.98C421.1,-63.6 449.71,-49.69 472.81,-38.46"/>
<polygon fill="black" stroke="black" points="474.17,-41.69 481.63,-34.17 471.11,-35.4 474.17,-41.69"/>
</g>
</g>
</svg>
