<svg xmlns="http://www.w3.org/2000/svg" width="847pt" height="260pt" viewBox="0 0 847.21 260">
    <g class="graph">
        <path fill="#fff" d="M0 260V0h847.21v260z"/>
        <g class="node" transform="translate(4 256)">
            <ellipse cx="382.11" cy="-234" fill="none" stroke="#000" rx="57.49" ry="18"/>
            <text x="382.11" y="-228.95" font-family="Times,serif" font-size="14" text-anchor="middle">:app-comssa</text>
        </g>
        <g class="node" transform="translate(4 256)">
            <ellipse cx="345.11" cy="-90" fill="none" stroke="#000" rx="65.17" ry="18"/>
            <text x="345.11" y="-84.95" font-family="Times,serif" font-size="14" text-anchor="middle">:core:common</text>
        </g>
        <g stroke="#000" class="edge">
            <path fill="none" d="M381.57 40.41c-6.28 24.09-17.67 67.84-25.16 96.56"/>
            <path d="m359.86 137.63-5.91 8.79-.87-10.55z"/>
        </g>
        <g class="node" transform="translate(4 256)">
            <ellipse cx="220.11" cy="-162" fill="none" stroke="#000" rx="96.39" ry="18"/>
            <text x="220.11" y="-156.95" font-family="Times,serif" font-size="14" text-anchor="middle">:core:common-android</text>
        </g>
        <g stroke="#000" class="edge">
            <path fill="none" d="M353.32 37.17c-23.48 10.14-55.47 23.96-81.74 35.32"/>
            <path d="m273.04 75.67-10.56.75 7.79-7.18z"/>
        </g>
        <g class="node" transform="translate(4 256)">
            <ellipse cx="84.11" cy="-90" fill="none" stroke="#000" rx="84.11" ry="18"/>
            <text x="84.11" y="-84.95" font-family="Times,serif" font-size="14" text-anchor="middle">:core:compose-core</text>
        </g>
        <g stroke="#000" class="edge">
            <path fill="none" d="M331.02 27.53C262.33 34.23 150.13 49.02 119.11 76c-17.47 15.19-25.1 40.76-28.43 60.61"/>
            <path d="m94.18 136.87-4.83 9.43-2.1-10.39z"/>
        </g>
        <g class="node" transform="translate(4 256)">
            <ellipse cx="457.11" cy="-162" fill="none" stroke="#000" rx="47.26" ry="18"/>
            <text x="457.11" y="-156.95" font-family="Times,serif" font-size="14" text-anchor="middle">:core:data</text>
        </g>
        <g stroke="red" stroke-width="2" class="edge">
            <path fill="none" d="M403.88 39.59c9.41 8.78 21.13 19.72 31.51 29.41"/>
            <path fill="red" d="m436.58 65.32 4.93 9.39-9.7-4.27z"/>
        </g>
        <g class="node" transform="translate(4 256)">
            <ellipse cx="593.11" cy="-162" fill="none" stroke="#000" rx="70.8" ry="18"/>
            <text x="593.11" y="-156.95" font-family="Times,serif" font-size="14" text-anchor="middle">:core:navigation</text>
        </g>
        <g stroke="#000" class="edge">
            <path fill="none" d="M424.32 35.68c33.61 11.15 82.87 27.49 120.2 39.87"/>
            <path d="m545.38 72.15 8.39 6.47-10.6.17z"/>
        </g>
        <g class="node" transform="translate(4 256)">
            <ellipse cx="224.11" cy="-90" fill="none" stroke="#000" rx="37.53" ry="18"/>
            <text x="224.11" y="-84.95" font-family="Times,serif" font-size="14" text-anchor="middle">:shared</text>
        </g>
        <g stroke="#000" class="edge">
            <path fill="none" d="M378.42 40.28c-9.35 19.44-26.73 51.01-49.31 71.72-17.69 16.22-41.27 28.97-61.2 37.89"/>
            <path d="m269.53 153-10.57.73 7.81-7.16z"/>
        </g>
        <g class="node" transform="translate(4 256)">
            <ellipse cx="720.11" cy="-162" fill="none" stroke="#000" rx="38.56" ry="18"/>
            <text x="720.11" y="-156.95" font-family="Times,serif" font-size="14" text-anchor="middle">:widget</text>
        </g>
        <g stroke="#000" class="edge">
            <path fill="none" d="M438.47 29.85C497.18 38.14 594.93 53.82 677.11 76c2.41.65 4.88 1.37 7.36 2.14"/>
            <path d="m685.44 74.77 8.39 6.47-10.59.18z"/>
        </g>
        <g stroke="#000" class="edge">
            <path fill="none" d="M253.73 111.59c17.3 9.69 39.3 22.01 57.81 32.37"/>
            <path d="m313.07 140.81 7.02 7.94-10.44-1.83z"/>
        </g>
        <g stroke="#000" class="edge">
            <path fill="none" d="M192.22 111.41c-18.72 9.64-42.58 21.92-62.74 32.29"/>
            <path d="m131.16 146.78-10.49 1.46 7.29-7.69z"/>
        </g>
        <g stroke="#000" class="edge">
            <path fill="none" d="M225.1 112.3c.41 7.29.91 15.97 1.38 24.16"/>
            <path d="m229.97 136.2-2.93 10.18-4.06-9.78z"/>
        </g>
        <g stroke="#000" class="edge">
            <path fill="none" d="M437.35 109.85c-15.6 9.75-36.27 22.67-53.68 33.55"/>
            <path d="m386 146.07-10.33 2.33 6.62-8.27z"/>
        </g>
        <g class="node" transform="translate(4 256)">
            <ellipse cx="492.11" cy="-90" fill="none" stroke="#000" rx="63.63" ry="18"/>
            <text x="492.11" y="-84.95" font-family="Times,serif" font-size="14" text-anchor="middle">:core:database</text>
        </g>
        <g stroke="red" stroke-width="2" class="edge">
            <path fill="none" d="M469.58 111.95c3.85 7.7 8.51 17.02 12.85 25.69"/>
            <path fill="red" d="m484.77 134.51 1.35 10.51-7.61-7.38z"/>
        </g>
        <g class="node" transform="translate(4 256)">
            <ellipse cx="635.11" cy="-90" fill="none" stroke="#000" rx="61.59" ry="18"/>
            <text x="635.11" y="-84.95" font-family="Times,serif" font-size="14" text-anchor="middle">:core:data-api</text>
        </g>
        <g stroke="#000" class="edge">
            <path fill="none" d="M492.93 107.51c27.73 10.91 68.3 26.87 99.67 39.2"/>
            <path d="m593.84 143.44 8.03 6.92-10.59-.41z"/>
        </g>
        <g class="node" transform="translate(4 256)">
            <ellipse cx="777.11" cy="-90" fill="none" stroke="#000" rx="62.1" ry="18"/>
            <text x="777.11" y="-84.95" font-family="Times,serif" font-size="14" text-anchor="middle">:core:network</text>
        </g>
        <g stroke="#000" class="edge">
            <path fill="none" d="M496.49 106.39c6.81 2 13.91 3.97 20.62 5.61 84.76 20.7 107.65 17.84 193 36 4.53.96 9.22 2 13.92 3.07"/>
            <path d="m724.54 147.59 8.96 5.66-10.53 1.16z"/>
        </g>
        <g class="node" transform="translate(4 256)">
            <ellipse cx="563.11" cy="-18" fill="none" stroke="#000" rx="55.45" ry="18"/>
            <text x="563.11" y="-12.95" font-family="Times,serif" font-size="14" text-anchor="middle">:core:model</text>
        </g>
        <g stroke="red" stroke-width="2" class="edge">
            <path fill="none" d="M512.93 183.59c8.76 8.63 19.63 19.35 29.33 28.91"/>
            <path fill="red" d="m543.58 208.89 4.67 9.51-9.58-4.52z"/>
        </g>
        <g stroke="#000" class="edge">
            <path fill="none" d="M622.04 183.59c-8.96 8.72-20.12 19.56-30.03 29.2"/>
            <path d="m594.74 215.01-9.61 4.46 4.73-9.48z"/>
        </g>
    </g>
</svg>
