<svg xmlns="http://www.w3.org/2000/svg" width="701pt" height="188pt" viewBox="0 0 701 188">
    <g class="graph" transform="translate(4 184)">
        <title>G</title>
        <path fill="#fff" d="M-4 4v-188h701.27V4z"/>
        <g class="node">
            <title>:core:common-android</title>
            <ellipse cx="372.17" cy="-162" fill="none" stroke="#000" rx="96.39" ry="18"/>
            <text xml:space="preserve" x="372.17" y="-156.95" font-family="Times,serif" font-size="14" text-anchor="middle">:core:common-android</text>
        </g>
        <g class="node">
            <title>:core:common</title>
            <ellipse cx="65.17" cy="-90" fill="none" stroke="#000" rx="65.17" ry="18"/>
            <text xml:space="preserve" x="65.17" y="-84.95" font-family="Times,serif" font-size="14" text-anchor="middle">:core:common</text>
        </g>
        <g class="edge">
            <title>:core:common-android-&gt;:core:common</title>
            <path fill="none" stroke="#000" d="M312.79-147.53C265.7-136.84 198.21-121.5 139.17-108c-4.55 1.04-9.26 2.12-14 3.21"/>
            <path stroke="#000" d="m126.13-101.42-10.53-1.18 8.97-5.65z"/>
        </g>
        <g class="node">
            <title>:core:compose-core</title>
            <ellipse cx="232.17" cy="-90" fill="none" stroke="#000" rx="84.11" ry="18"/>
            <text xml:space="preserve" x="232.17" y="-84.95" font-family="Times,serif" font-size="14" text-anchor="middle">:core:compose-core</text>
        </g>
        <g class="edge">
            <title>:core:common-android-&gt;:core:compose-core</title>
            <path fill="none" stroke="red" stroke-width="2" d="M339.7-144.76c-19.49 9.74-44.48 22.24-65.47 32.73"/>
            <path fill="red" stroke="red" stroke-width="2" d="m277.2-109.6-10.51 1.34 7.38-7.6z"/>
        </g>
        <g class="node">
            <title>:shared</title>
            <ellipse cx="372.17" cy="-90" fill="none" stroke="#000" rx="37.53" ry="18"/>
            <text xml:space="preserve" x="372.17" y="-84.95" font-family="Times,serif" font-size="14" text-anchor="middle">:shared</text>
        </g>
        <g class="edge">
            <title>:core:common-android-&gt;:shared</title>
            <path fill="none" stroke="#000" d="M372.17-143.7v24.16"/>
            <path stroke="#000" d="m375.67-119.62-3.5 10-3.5-10z"/>
        </g>
        <g class="node">
            <title>:core:data-api</title>
            <ellipse cx="489.17" cy="-90" fill="none" stroke="#000" rx="61.59" ry="18"/>
            <text xml:space="preserve" x="489.17" y="-84.95" font-family="Times,serif" font-size="14" text-anchor="middle">:core:data-api</text>
        </g>
        <g class="edge">
            <title>:core:common-android-&gt;:core:data-api</title>
            <path fill="none" stroke="#000" d="M399.9-144.41c15.93 9.53 36.11 21.61 53.26 31.86"/>
            <path stroke="#000" d="m454.76-115.66 6.79 8.13-10.38-2.13z"/>
        </g>
        <g class="node">
            <title>:core:network</title>
            <ellipse cx="631.17" cy="-90" fill="none" stroke="#000" rx="62.1" ry="18"/>
            <text xml:space="preserve" x="631.17" y="-84.95" font-family="Times,serif" font-size="14" text-anchor="middle">:core:network</text>
        </g>
        <g class="edge">
            <title>:core:common-android-&gt;:core:network</title>
            <path fill="none" stroke="#000" d="M425.52-146.58c43.96 11.88 106.07 28.67 150.51 40.68"/>
            <path stroke="#000" d="m576.73-109.34 8.74 5.99-10.57.77z"/>
        </g>
        <g class="node">
            <title>:core:component</title>
            <ellipse cx="232.17" cy="-18" fill="none" stroke="#000" rx="73.36" ry="18"/>
            <text xml:space="preserve" x="232.17" y="-12.95" font-family="Times,serif" font-size="14" text-anchor="middle">:core:component</text>
        </g>
        <g class="edge">
            <title>:core:compose-core-&gt;:core:component</title>
            <path fill="none" stroke="red" stroke-width="2" d="M232.17-71.7v24.16"/>
            <path fill="red" stroke="red" stroke-width="2" d="m235.67-49.13-3.5 10-3.5-10z"/>
        </g>
        <g class="node">
            <title>:core:model</title>
            <ellipse cx="489.17" cy="-18" fill="none" stroke="#000" rx="55.45" ry="18"/>
            <text xml:space="preserve" x="489.17" y="-12.95" font-family="Times,serif" font-size="14" text-anchor="middle">:core:model</text>
        </g>
        <g class="edge">
            <title>:core:data-api-&gt;:core:model</title>
            <path fill="none" stroke="#000" d="M489.17-71.7v24.16"/>
            <path stroke="#000" d="m492.67-47.62-3.5 10-3.5-10z"/>
        </g>
    </g>
</svg>
