<svg xmlns="http://www.w3.org/2000/svg" width="418pt" height="116pt" viewBox="0 0 418 116">
    <g class="graph">
        <path fill="#fff" d="M0 116V0h417.7v116z"/>
        <g class="node" transform="translate(4 112)">
            <ellipse cx="232.17" cy="-90" fill="none" stroke="#000" rx="96.39" ry="18"/>
            <text xml:space="preserve" x="232.17" y="-84.95" font-family="Times,serif" font-size="14" text-anchor="middle">:core:common-android</text>
        </g>
        <g class="node" transform="translate(4 112)">
            <ellipse cx="65.17" cy="-18" fill="none" stroke="#000" rx="65.17" ry="18"/>
            <text xml:space="preserve" x="65.17" y="-12.95" font-family="Times,serif" font-size="14" text-anchor="middle">:core:common</text>
        </g>
        <g stroke="red" stroke-width="2" class="edge">
            <path fill="none" d="M198.28 38.88c-24.87 10.43-57.52 24.11-83.77 35.11"/>
            <path fill="red" d="m117.44 76.56-10.58.64 7.87-7.09z"/>
        </g>
        <g class="node" transform="translate(4 112)">
            <ellipse cx="232.17" cy="-18" fill="none" stroke="#000" rx="84.11" ry="18"/>
            <text xml:space="preserve" x="232.17" y="-12.95" font-family="Times,serif" font-size="14" text-anchor="middle">:core:compose-core</text>
        </g>
        <g stroke="#000" class="edge">
            <path fill="none" d="M236.17 40.3v24.16"/>
            <path d="m239.67 64.38-3.5 10-3.5-10z"/>
        </g>
        <g class="node" transform="translate(4 112)">
            <ellipse cx="372.17" cy="-18" fill="none" stroke="#000" rx="37.53" ry="18"/>
            <text xml:space="preserve" x="372.17" y="-12.95" font-family="Times,serif" font-size="14" text-anchor="middle">:shared</text>
        </g>
        <g stroke="#000" class="edge">
            <path fill="none" d="M268.64 39.24c21.62 10.8 50.01 25 72.2 36.09"/>
            <path d="m342.13 72.06 7.37 7.61-10.51-1.34z"/>
        </g>
    </g>
</svg>
