<svg xmlns="http://www.w3.org/2000/svg" width="418pt" height="116pt" viewBox="0 0 418.28 116">
    <g class="graph">
        <path fill="#fff" d="M0 116V0h418.28v116z"/>
        <g class="node" transform="translate(4 112)">
            <ellipse cx="186.17" cy="-90" fill="none" stroke="#000" rx="96.39" ry="18"/>
            <text x="186.17" y="-84.95" font-family="Times,serif" font-size="14" text-anchor="middle">:core:common-android</text>
        </g>
        <g class="node" transform="translate(4 112)">
            <ellipse cx="65.17" cy="-18" fill="none" stroke="#000" rx="65.17" ry="18"/>
            <text x="65.17" y="-12.95" font-family="Times,serif" font-size="14" text-anchor="middle">:core:common</text>
        </g>
        <g stroke="red" stroke-width="2" class="edge">
            <path fill="none" d="M161.49 39.59c-16.62 9.62-37.74 21.83-55.57 32.15"/>
            <path fill="red" d="m109.42 73.76-10.41 1.98 6.91-8.04z"/>
        </g>
        <g class="node" transform="translate(4 112)">
            <ellipse cx="186.17" cy="-18" fill="none" stroke="#000" rx="37.53" ry="18"/>
            <text x="186.17" y="-12.95" font-family="Times,serif" font-size="14" text-anchor="middle">:shared</text>
        </g>
        <g stroke="#000" class="edge">
            <path fill="none" d="M190.17 40.3v24.16"/>
            <path d="m193.67 64.38-3.5 10-3.5-10z"/>
        </g>
        <g class="node" transform="translate(4 112)">
            <ellipse cx="326.17" cy="-18" fill="none" stroke="#000" rx="84.11" ry="18"/>
            <text x="326.17" y="-12.95" font-family="Times,serif" font-size="14" text-anchor="middle">:core:compose-core</text>
        </g>
        <g stroke="#000" class="edge">
            <path fill="none" d="M222.64 39.24c19.49 9.74 44.48 22.24 65.47 32.73"/>
            <path d="m289.63 68.81 7.37 7.61-10.5-1.34z"/>
        </g>
    </g>
</svg>
