<svg xmlns="http://www.w3.org/2000/svg" width="1085pt" height="332pt" viewBox="0 0 1085 332">
    <g class="graph" transform="translate(4 328)">
        <title>G</title>
        <path fill="#fff" d="M-4 4v-332h1085.17V4z"/>
        <g class="node">
            <title>:feature:settings-lab</title>
            <ellipse cx="417.96" cy="-306" fill="none" stroke="#000" rx="84.11" ry="18"/>
            <text xml:space="preserve" x="417.96" y="-300.95" font-family="Times,serif" font-size="14" text-anchor="middle">:feature:settings-lab</text>
        </g>
        <g class="node">
            <title>:core:common-android</title>
            <ellipse cx="506.96" cy="-234" fill="none" stroke="#000" rx="96.39" ry="18"/>
            <text xml:space="preserve" x="506.96" y="-228.95" font-family="Times,serif" font-size="14" text-anchor="middle">:core:common-android</text>
        </g>
        <g class="edge">
            <title>:feature:settings-lab-&gt;:core:common-android</title>
            <path fill="none" stroke="red" stroke-width="2" d="M439.05-288.41c11.14 8.76 25.02 19.68 37.32 29.35"/>
            <path fill="red" stroke="red" stroke-width="2" d="m477.32-262.76 5.7 8.93-10.02-3.43z"/>
        </g>
        <g class="node">
            <title>:core:common</title>
            <ellipse cx="79.96" cy="-90" fill="none" stroke="#000" rx="65.17" ry="18"/>
            <text xml:space="preserve" x="79.96" y="-84.95" font-family="Times,serif" font-size="14" text-anchor="middle">:core:common</text>
        </g>
        <g class="edge">
            <title>:feature:settings-lab-&gt;:core:common</title>
            <path fill="none" stroke="#000" d="M340.43-298.67C264.61-287.89 152.92-258.75 98.96-180c-12.16 17.75-16.76 41.8-18.4 60.42"/>
            <path stroke="#000" d="m84.06-119.52-4.11 9.77-2.88-10.2z"/>
        </g>
        <g class="node">
            <title>:core:component</title>
            <ellipse cx="180.96" cy="-162" fill="none" stroke="#000" rx="73.36" ry="18"/>
            <text xml:space="preserve" x="180.96" y="-156.95" font-family="Times,serif" font-size="14" text-anchor="middle">:core:component</text>
        </g>
        <g class="edge">
            <title>:feature:settings-lab-&gt;:core:component</title>
            <path fill="none" stroke="#000" d="M351.01-294.74c-33.83 7.64-74.14 20.7-105.05 42.74-22.32 15.91-40.01 41.89-51.27 61.68"/>
            <path stroke="#000" d="m197.84-188.78-7.86 7.11 1.71-10.46z"/>
        </g>
        <g class="node">
            <title>:core:model</title>
            <ellipse cx="626.96" cy="-18" fill="none" stroke="#000" rx="55.45" ry="18"/>
            <text xml:space="preserve" x="626.96" y="-12.95" font-family="Times,serif" font-size="14" text-anchor="middle">:core:model</text>
        </g>
        <g class="edge">
            <title>:feature:settings-lab-&gt;:core:model</title>
            <path fill="none" stroke="#000" d="M499.64-301.43C579-292.83 693.53-265.4 735.96-180c21.76 43.79 8.83 69.26-21 108-11.25 14.6-27.76 26.06-43.45 34.52"/>
            <path stroke="#000" d="m673.23-34.43-10.5 1.4 7.34-7.64z"/>
        </g>
        <g class="node">
            <title>:core:resource</title>
            <ellipse cx="328.96" cy="-234" fill="none" stroke="#000" rx="63.12" ry="18"/>
            <text xml:space="preserve" x="328.96" y="-228.95" font-family="Times,serif" font-size="14" text-anchor="middle">:core:resource</text>
        </g>
        <g class="edge">
            <title>:feature:settings-lab-&gt;:core:resource</title>
            <path fill="none" stroke="#000" d="M396.87-288.41c-11.5 9.04-25.92 20.38-38.5 30.28"/>
            <path stroke="#000" d="m360.8-255.6-10.02 3.44 5.7-8.94z"/>
        </g>
        <g class="node">
            <title>:shared</title>
            <ellipse cx="191.96" cy="-18" fill="none" stroke="#000" rx="37.53" ry="18"/>
            <text xml:space="preserve" x="191.96" y="-12.95" font-family="Times,serif" font-size="14" text-anchor="middle">:shared</text>
        </g>
        <g class="edge">
            <title>:feature:settings-lab-&gt;:shared</title>
            <path fill="none" stroke="#000" d="M333.78-304.14c-60.31 3.96-141.54 16.4-203.82 52.14-73.26 42.03-94.61 64.82-124 144-5.57 15-9.64 23.23 0 36 16.75 22.19 89.66 37.85 139.06 46.14"/>
            <path stroke="#000" d="m145.3-29.36 9.31 5.06-10.43 1.85z"/>
        </g>
        <g class="node">
            <title>:core:data</title>
            <ellipse cx="394.96" cy="-162" fill="none" stroke="#000" rx="47.26" ry="18"/>
            <text xml:space="preserve" x="394.96" y="-156.95" font-family="Times,serif" font-size="14" text-anchor="middle">:core:data</text>
        </g>
        <g class="edge">
            <title>:feature:settings-lab-&gt;:core:data</title>
            <path fill="none" stroke="#000" d="M340.36-298.81c-31.15 6.75-64.17 20.23-83.4 46.81-9.38 12.96-9.06 22.81 0 36 18.3 26.63 51.98 39.89 81.49 46.48"/>
            <path stroke="#000" d="m338.91-172.99 9.12 5.39-10.5 1.47z"/>
        </g>
        <g class="node">
            <title>:core:domain</title>
            <ellipse cx="666.96" cy="-162" fill="none" stroke="#000" rx="60.05" ry="18"/>
            <text xml:space="preserve" x="666.96" y="-156.95" font-family="Times,serif" font-size="14" text-anchor="middle">:core:domain</text>
        </g>
        <g class="edge">
            <title>:feature:settings-lab-&gt;:core:domain</title>
            <path fill="none" stroke="#000" d="M493.26-297.69c38.55 6.84 84.44 20.08 118.7 45.69 20.77 15.53 35.48 41.42 44.43 61.28"/>
            <path stroke="#000" d="m659.61-192.09.68 10.57-7.13-7.84z"/>
        </g>
        <g class="node">
            <title>:core:navigation</title>
            <ellipse cx="853.96" cy="-234" fill="none" stroke="#000" rx="70.8" ry="18"/>
            <text xml:space="preserve" x="853.96" y="-228.95" font-family="Times,serif" font-size="14" text-anchor="middle">:core:navigation</text>
        </g>
        <g class="edge">
            <title>:feature:settings-lab-&gt;:core:navigation</title>
            <path fill="none" stroke="#000" d="M487.38-295.51c70.92 9.93 184.15 26.42 281.58 43.51 6.71 1.18 13.71 2.47 20.68 3.8"/>
            <path stroke="#000" d="m789.89-251.72 9.15 5.34-10.48 1.54z"/>
        </g>
        <g class="node">
            <title>:feature:ui-web</title>
            <ellipse cx="1009.96" cy="-234" fill="none" stroke="#000" rx="67.22" ry="18"/>
            <text xml:space="preserve" x="1009.96" y="-228.95" font-family="Times,serif" font-size="14" text-anchor="middle">:feature:ui-web</text>
        </g>
        <g class="edge">
            <title>:feature:settings-lab-&gt;:feature:ui-web</title>
            <path fill="none" stroke="#000" d="M497.46-299.75c101.66 7.38 282.95 22.78 436.5 47.75 5.31.86 10.8 1.87 16.29 2.95"/>
            <path stroke="#000" d="m950.9-252.49 9.09 5.45-10.5 1.41z"/>
        </g>
        <g class="edge">
            <title>:core:common-android-&gt;:core:common</title>
            <path fill="none" stroke="#000" d="M434.4-221.85c-39.51 8-88.38 21.12-128.44 41.85-22.14 11.45-21 24.28-43 36-21.53 11.47-79 27.32-123.85 38.69"/>
            <path stroke="#000" d="m140.03-101.93-10.55-.96 8.84-5.83z"/>
        </g>
        <g class="edge">
            <title>:core:common-android-&gt;:core:component</title>
            <path fill="none" stroke="#000" d="M445.26-219.75c-56.94 12.22-141.19 30.32-199.19 42.77"/>
            <path stroke="#000" d="m246.83-173.56-10.51-1.33 9.04-5.52z"/>
        </g>
        <g class="edge">
            <title>:core:common-android-&gt;:core:model</title>
            <path fill="none" stroke="#000" d="M526.42-215.99c11.46 10.2 26.09 23.56 38.54 35.99 15.36 15.34 14.93 23.97 33 36 39.32 26.17 72.84-2.65 100 36 9.2 13.09 7.17 21.7 0 36-6.69 13.35-18.52 24.19-30.62 32.51"/>
            <path stroke="#000" d="m669.27-36.57-10.32 2.4 6.57-8.31z"/>
        </g>
        <g class="edge">
            <title>:core:common-android-&gt;:shared</title>
            <path fill="none" stroke="#000" d="M444.08-219.96c-32.73 8.44-72.59 21.37-105.12 39.96-20.77 11.87-19.56 23.58-40 36-38.95 23.65-67.79.21-96 36-13.27 16.83-15.45 41.29-14.63 60.31"/>
            <path stroke="#000" d="m191.81-48.13-2.74 10.23-4.24-9.7z"/>
        </g>
        <g class="edge">
            <title>:core:common-android-&gt;:core:data</title>
            <path fill="none" stroke="red" stroke-width="2" d="M480.13-216.23c-15.58 9.73-35.34 22.08-51.9 32.44"/>
            <path fill="red" stroke="red" stroke-width="2" d="m431.8-181.9-10.33 2.33 6.62-8.27z"/>
        </g>
        <g class="edge">
            <title>:core:common-android-&gt;:core:domain</title>
            <path fill="none" stroke="#000" d="M543.66-216.94c23.82 10.42 54.96 24.04 79.98 34.99"/>
            <path stroke="#000" d="m624.81-185.26 7.76 7.22-10.56-.81z"/>
        </g>
        <g class="node">
            <title>:core:data-api</title>
            <ellipse cx="626.96" cy="-90" fill="none" stroke="#000" rx="61.59" ry="18"/>
            <text xml:space="preserve" x="626.96" y="-84.95" font-family="Times,serif" font-size="14" text-anchor="middle">:core:data-api</text>
        </g>
        <g class="edge">
            <title>:core:common-android-&gt;:core:data-api</title>
            <path fill="none" stroke="#000" d="M516.12-215.93c10.47 18.7 28.76 49.06 48.84 71.93 9.25 10.53 20.61 20.85 31.08 29.54"/>
            <path stroke="#000" d="m598.17-117.24 5.58 9-9.98-3.56z"/>
        </g>
        <g class="node">
            <title>:core:network</title>
            <ellipse cx="484.96" cy="-90" fill="none" stroke="#000" rx="62.1" ry="18"/>
            <text xml:space="preserve" x="484.96" y="-84.95" font-family="Times,serif" font-size="14" text-anchor="middle">:core:network</text>
        </g>
        <g class="edge">
            <title>:core:common-android-&gt;:core:network</title>
            <path fill="none" stroke="#000" d="M504.26-215.59c-3.71 23.98-10.45 67.45-14.9 96.17"/>
            <path stroke="#000" d="m492.83-118.95-4.99 9.34-1.93-10.41z"/>
        </g>
        <g class="edge">
            <title>:core:data-&gt;:core:common</title>
            <path fill="none" stroke="#000" d="M354.74-152.06c-54.21 12.04-151.2 33.6-214.25 47.61"/>
            <path stroke="#000" d="m141.51-101.09-10.52-1.25 9.01-5.59z"/>
        </g>
        <g class="edge">
            <title>:core:data-&gt;:core:model</title>
            <path fill="none" stroke="#000" d="M393.62-143.8c-.56 19.97 1.78 52.61 20.34 71.8 20.75 21.46 95.91 36.51 151.09 44.95"/>
            <path stroke="#000" d="m565.27-30.55 9.38 4.93-10.41 1.99z"/>
        </g>
        <g class="edge">
            <title>:core:data-&gt;:shared</title>
            <path fill="none" stroke="#000" d="M358.52-150.13c-47.08 14.16-123.66 37.66-128.56 42.13-17.46 15.91-27.21 41.2-32.44 60.75"/>
            <path stroke="#000" d="m200.96-46.6-5.74 8.9-1.07-10.54z"/>
        </g>
        <g class="edge">
            <title>:core:data-&gt;:core:data-api</title>
            <path fill="none" stroke="red" stroke-width="2" d="M431.21-150.06c38.33 11.56 99.19 29.93 142.88 43.11"/>
            <path fill="red" stroke="red" stroke-width="2" d="m573.62-110.75 8.56 6.24-10.58.46z"/>
        </g>
        <g class="edge">
            <title>:core:data-&gt;:core:network</title>
            <path fill="none" stroke="#000" d="M414.93-145.46c11.87 9.22 27.14 21.1 40.39 31.41"/>
            <path stroke="#000" d="m457.16-117.05 5.75 8.9-10.05-3.38z"/>
        </g>
        <g class="node">
            <title>:core:database</title>
            <ellipse cx="302.96" cy="-90" fill="none" stroke="#000" rx="63.63" ry="18"/>
            <text xml:space="preserve" x="302.96" y="-84.95" font-family="Times,serif" font-size="14" text-anchor="middle">:core:database</text>
        </g>
        <g class="edge">
            <title>:core:data-&gt;:core:database</title>
            <path fill="none" stroke="#000" d="M374.54-145.46c-12.13 9.22-27.74 21.1-41.28 31.41"/>
            <path stroke="#000" d="m335.56-111.41-10.08 3.27 5.84-8.84z"/>
        </g>
        <g class="edge">
            <title>:core:data-api-&gt;:core:model</title>
            <path fill="none" stroke="red" stroke-width="2" d="M626.96-71.7v24.16"/>
            <path fill="red" stroke="red" stroke-width="2" d="m630.46-49.13-3.5 10-3.5-10z"/>
        </g>
        <g class="edge">
            <title>:core:database-&gt;:core:model</title>
            <path fill="none" stroke="#000" d="M352.05-78.28c9.59 2.09 19.56 4.25 28.91 6.28 64.96 14.08 139.6 30.14 189.46 40.86"/>
            <path stroke="#000" d="m571.09-34.58 9.04 5.53-10.51 1.32z"/>
        </g>
        <g class="edge">
            <title>:core:database-&gt;:shared</title>
            <path fill="none" stroke="#000" d="M277.77-73.12C261.73-63 240.81-49.81 223.65-38.99"/>
            <path stroke="#000" d="m225.65-36.11-10.33 2.38 6.59-8.3z"/>
        </g>
    </g>
</svg>
