<svg xmlns="http://www.w3.org/2000/svg" width="1128" height="260pt" viewBox="0 0 846.27 260">
    <g class="graph">
        <path fill="#fff" d="M0 260V0h846.27v260z"/>
        <g class="node" transform="translate(4 256)">
            <ellipse cx="536.17" cy="-234" fill="none" stroke="#000" rx="76.43" ry="18"/>
            <text x="536.17" y="-228.95" font-family="Times,serif" font-size="14" text-anchor="middle">:feature:ui-setting</text>
        </g>
        <g class="node" transform="translate(4 256)">
            <ellipse cx="326.17" cy="-162" fill="none" stroke="#000" rx="96.39" ry="18"/>
            <text x="326.17" y="-156.95" font-family="Times,serif" font-size="14" text-anchor="middle">:core:common-android</text>
        </g>
        <g stroke="#000" class="edge">
            <path fill="none" d="M497.17 37.33c-31.97 10.66-75.89 25.3-110.67 36.89"/>
            <path d="m388.06 77.39-10.6-.15 8.38-6.49z"/>
        </g>
        <g class="node" transform="translate(4 256)">
            <ellipse cx="536.17" cy="-162" fill="none" stroke="#000" rx="47.26" ry="18"/>
            <text x="536.17" y="-156.95" font-family="Times,serif" font-size="14" text-anchor="middle">:core:data</text>
        </g>
        <g stroke="red" stroke-width="2" class="edge">
            <path fill="none" d="M540.17 40.3v24.16"/>
            <path fill="red" d="m543.67 62.87-3.5 10-3.5-10z"/>
        </g>
        <g class="node" transform="translate(4 256)">
            <ellipse cx="672.17" cy="-162" fill="none" stroke="#000" rx="70.8" ry="18"/>
            <text x="672.17" y="-156.95" font-family="Times,serif" font-size="14" text-anchor="middle">:core:navigation</text>
        </g>
        <g stroke="#000" class="edge">
            <path fill="none" d="M571.03 38.88c19.18 9.87 44.03 22.67 64.76 33.34"/>
            <path d="m637.26 69.04 7.29 7.69-10.49-1.47z"/>
        </g>
        <g class="node" transform="translate(4 256)">
            <ellipse cx="65.17" cy="-90" fill="none" stroke="#000" rx="65.17" ry="18"/>
            <text x="65.17" y="-84.95" font-family="Times,serif" font-size="14" text-anchor="middle">:core:common</text>
        </g>
        <g stroke="#000" class="edge">
            <path fill="none" d="M276.72 109.33c-43.99 11.8-106.19 28.49-151.01 40.51"/>
            <path d="m126.73 153.18-10.56-.79 8.75-5.97z"/>
        </g>
        <g class="node" transform="translate(4 256)">
            <ellipse cx="232.17" cy="-90" fill="none" stroke="#000" rx="84.11" ry="18"/>
            <text x="232.17" y="-84.95" font-family="Times,serif" font-size="14" text-anchor="middle">:core:compose-core</text>
        </g>
        <g stroke="#000" class="edge">
            <path fill="none" d="M307.42 111.95c-11.9 8.85-26.64 19.83-39.63 29.5"/>
            <path d="m270.04 144.14-10.11 3.17 5.93-8.78z"/>
        </g>
        <g class="node" transform="translate(4 256)">
            <ellipse cx="372.17" cy="-90" fill="none" stroke="#000" rx="37.53" ry="18"/>
            <text x="372.17" y="-84.95" font-family="Times,serif" font-size="14" text-anchor="middle">:shared</text>
        </g>
        <g stroke="#000" class="edge">
            <path fill="none" d="M341.54 112.3c5.26 8 11.62 17.68 17.44 26.55"/>
            <path d="m361.85 136.83 2.57 10.28-8.42-6.43z"/>
        </g>
        <g class="node" transform="translate(4 256)">
            <ellipse cx="491.17" cy="-90" fill="none" stroke="#000" rx="63.63" ry="18"/>
            <text x="491.17" y="-84.95" font-family="Times,serif" font-size="14" text-anchor="middle">:core:database</text>
        </g>
        <g stroke="red" stroke-width="2" class="edge">
            <path fill="none" d="M529.28 111.95c-5.14 7.99-11.4 17.72-17.14 26.65"/>
            <path fill="red" d="m515.95 139.15-8.35 6.51 2.46-10.3z"/>
        </g>
        <g class="node" transform="translate(4 256)">
            <ellipse cx="634.17" cy="-90" fill="none" stroke="#000" rx="61.59" ry="18"/>
            <text x="634.17" y="-84.95" font-family="Times,serif" font-size="14" text-anchor="middle">:core:data-api</text>
        </g>
        <g stroke="#000" class="edge">
            <path fill="none" d="M561.43 110.19c13.12 9.37 30.19 21.56 44.89 32.06"/>
            <path d="m608.25 139.33 6.1 8.66-10.17-2.97z"/>
        </g>
        <g class="node" transform="translate(4 256)">
            <ellipse cx="776.17" cy="-90" fill="none" stroke="#000" rx="62.1" ry="18"/>
            <text x="776.17" y="-84.95" font-family="Times,serif" font-size="14" text-anchor="middle">:core:network</text>
        </g>
        <g stroke="#000" class="edge">
            <path fill="none" d="M576.3 106.05c6.6 2 13.44 4.05 19.87 5.95 43.62 12.9 93.19 27.16 129.87 37.63"/>
            <path d="m726.88 146.23 8.66 6.11-10.58.62z"/>
        </g>
        <g class="node" transform="translate(4 256)">
            <ellipse cx="562.17" cy="-18" fill="none" stroke="#000" rx="55.45" ry="18"/>
            <text x="562.17" y="-12.95" font-family="Times,serif" font-size="14" text-anchor="middle">:core:model</text>
        </g>
        <g stroke="red" stroke-width="2" class="edge">
            <path fill="none" d="M512 183.59c8.75 8.63 19.62 19.35 29.32 28.91"/>
            <path fill="red" d="m542.65 208.89 4.66 9.51-9.58-4.52z"/>
        </g>
        <g stroke="#000" class="edge">
            <path fill="none" d="M621.11 183.59c-8.97 8.72-20.13 19.56-30.04 29.2"/>
            <path d="m593.81 215.01-9.61 4.46 4.73-9.48z"/>
        </g>
    </g>
</svg>
