<svg xmlns="http://www.w3.org/2000/svg" width="1128" height="260pt" viewBox="0 0 846.21 260">
    <g class="graph">
        <path fill="#fff" d="M0 260V0h846.21v260z"/>
        <g class="node" transform="translate(4 256)">
            <ellipse cx="410.11" cy="-234" fill="none" stroke="#000" rx="76.43" ry="18"/>
            <text x="410.11" y="-228.95" font-family="Times,serif" font-size="14" text-anchor="middle">:feature:ui-setting</text>
        </g>
        <g class="node" transform="translate(4 256)">
            <ellipse cx="290.11" cy="-162" fill="none" stroke="#000" rx="96.39" ry="18"/>
            <text x="290.11" y="-156.95" font-family="Times,serif" font-size="14" text-anchor="middle">:core:common-android</text>
        </g>
        <g stroke="#000" class="edge">
            <path fill="none" d="M386.28 39.24c-15.98 9.31-36.27 21.15-53.75 31.35"/>
            <path d="m334.33 73.59-10.4 2.01 6.87-8.06z"/>
        </g>
        <g class="node" transform="translate(4 256)">
            <ellipse cx="84.11" cy="-90" fill="none" stroke="#000" rx="84.11" ry="18"/>
            <text x="84.11" y="-84.95" font-family="Times,serif" font-size="14" text-anchor="middle">:core:compose-core</text>
        </g>
        <g stroke="#000" class="edge">
            <path fill="none" d="M345.62 30.28C299.4 37.26 238.13 50.67 189.11 76c-30.75 15.88-59.72 43.17-78.68 63.36"/>
            <path d="m113.05 141.67-9.33 5 4.17-9.73z"/>
        </g>
        <g class="node" transform="translate(4 256)">
            <ellipse cx="491.11" cy="-162" fill="none" stroke="#000" rx="47.26" ry="18"/>
            <text x="491.11" y="-156.95" font-family="Times,serif" font-size="14" text-anchor="middle">:core:data</text>
        </g>
        <g stroke="red" stroke-width="2" class="edge">
            <path fill="none" d="M433.3 39.59c10.34 8.93 23.26 20.1 34.62 29.91"/>
            <path fill="red" d="m469.04 65.85 5.28 9.18-9.86-3.89z"/>
        </g>
        <g class="node" transform="translate(4 256)">
            <ellipse cx="627.11" cy="-162" fill="none" stroke="#000" rx="70.8" ry="18"/>
            <text x="627.11" y="-156.95" font-family="Times,serif" font-size="14" text-anchor="middle">:core:navigation</text>
        </g>
        <g stroke="#000" class="edge">
            <path fill="none" d="M458.02 37.17c34.6 11.16 82.99 26.77 119.81 38.64"/>
            <path d="m578.49 72.35 8.44 6.4-10.59.26z"/>
        </g>
        <g stroke="#000" class="edge">
            <path fill="none" d="M248.9 110.36c-31.39 10.67-73.37 24.93-106.56 36.21"/>
            <path d="m143.47 149.88-10.59-.09 8.34-6.53z"/>
        </g>
        <g class="node" transform="translate(4 256)">
            <ellipse cx="251.11" cy="-90" fill="none" stroke="#000" rx="65.17" ry="18"/>
            <text x="251.11" y="-84.95" font-family="Times,serif" font-size="14" text-anchor="middle">:core:common</text>
        </g>
        <g stroke="#000" class="edge">
            <path fill="none" d="M284.47 112.3c-4.3 7.72-9.47 16.99-14.26 25.59"/>
            <path d="m273.3 139.54-7.93 7.03 1.81-10.44z"/>
        </g>
        <g class="node" transform="translate(4 256)">
            <ellipse cx="372.11" cy="-90" fill="none" stroke="#000" rx="37.53" ry="18"/>
            <text x="372.11" y="-84.95" font-family="Times,serif" font-size="14" text-anchor="middle">:shared</text>
        </g>
        <g stroke="#000" class="edge">
            <path fill="none" d="M313.96 111.95c10.8 9.22 24.3 20.74 35.95 30.69"/>
            <path d="m351.91 139.74 5.33 9.16-9.88-3.83z"/>
        </g>
        <g class="node" transform="translate(4 256)">
            <ellipse cx="491.11" cy="-90" fill="none" stroke="#000" rx="63.63" ry="18"/>
            <text x="491.11" y="-84.95" font-family="Times,serif" font-size="14" text-anchor="middle">:core:database</text>
        </g>
        <g stroke="red" stroke-width="2" class="edge">
            <path fill="none" d="M495.11 112.3v24.16"/>
            <path fill="red" d="m498.61 134.87-3.5 10-3.5-10z"/>
        </g>
        <g class="node" transform="translate(4 256)">
            <ellipse cx="634.11" cy="-90" fill="none" stroke="#000" rx="61.59" ry="18"/>
            <text x="634.11" y="-84.95" font-family="Times,serif" font-size="14" text-anchor="middle">:core:data-api</text>
        </g>
        <g stroke="#000" class="edge">
            <path fill="none" d="M523.36 108.83c21.13 10.34 50.33 24.64 73.98 36.22"/>
            <path d="m598.64 141.78 7.44 7.54-10.52-1.25z"/>
        </g>
        <g class="node" transform="translate(4 256)">
            <ellipse cx="776.11" cy="-90" fill="none" stroke="#000" rx="62.1" ry="18"/>
            <text x="776.11" y="-84.95" font-family="Times,serif" font-size="14" text-anchor="middle">:core:network</text>
        </g>
        <g stroke="#000" class="edge">
            <path fill="none" d="M530.85 106.26c6.71 2 13.68 3.99 20.26 5.74 69.61 18.47 87.86 19.61 158 36 4.32 1.01 8.78 2.06 13.27 3.12"/>
            <path d="m723.14 147.7 8.92 5.72-10.54 1.1z"/>
        </g>
        <g class="node" transform="translate(4 256)">
            <ellipse cx="562.11" cy="-18" fill="none" stroke="#000" rx="55.45" ry="18"/>
            <text x="562.11" y="-12.95" font-family="Times,serif" font-size="14" text-anchor="middle">:core:model</text>
        </g>
        <g stroke="red" stroke-width="2" class="edge">
            <path fill="none" d="M511.93 183.59c8.76 8.63 19.63 19.35 29.33 28.91"/>
            <path fill="red" d="m542.58 208.89 4.67 9.51-9.58-4.52z"/>
        </g>
        <g stroke="#000" class="edge">
            <path fill="none" d="M621.04 183.59c-8.96 8.72-20.12 19.56-30.03 29.2"/>
            <path d="m593.74 215.01-9.61 4.46 4.73-9.48z"/>
        </g>
    </g>
</svg>
