<svg xmlns="http://www.w3.org/2000/svg" width="847pt" height="260pt" viewBox="0 0 847.21 260">
    <g class="graph">
        <path fill="#fff" d="M0 260V0h847.21v260z"/>
        <g class="node" transform="translate(4 256)">
            <ellipse cx="348.11" cy="-234" fill="none" stroke="#000" rx="76.43" ry="18"/>
            <text x="348.11" y="-228.95" font-family="Times,serif" font-size="14" text-anchor="middle">:feature:ui-setting</text>
        </g>
        <g class="node" transform="translate(4 256)">
            <ellipse cx="345.11" cy="-90" fill="none" stroke="#000" rx="65.17" ry="18"/>
            <text x="345.11" y="-84.95" font-family="Times,serif" font-size="14" text-anchor="middle">:core:common</text>
        </g>
        <g stroke="#000" class="edge">
            <path fill="none" d="M351.74 40.41c-.51 23.98-1.43 67.45-2.03 96.17"/>
            <path d="m353.21 136.45-3.71 9.93-3.29-10.08z"/>
        </g>
        <g class="node" transform="translate(4 256)">
            <ellipse cx="224.11" cy="-162" fill="none" stroke="#000" rx="96.39" ry="18"/>
            <text x="224.11" y="-156.95" font-family="Times,serif" font-size="14" text-anchor="middle">:core:common-android</text>
        </g>
        <g stroke="#000" class="edge">
            <path fill="none" d="M323.66 39.06c-16.77 9.47-38.23 21.58-56.56 31.93"/>
            <path d="m269.03 73.92-10.43 1.87 6.99-7.97z"/>
        </g>
        <g class="node" transform="translate(4 256)">
            <ellipse cx="84.11" cy="-90" fill="none" stroke="#000" rx="84.11" ry="18"/>
            <text x="84.11" y="-84.95" font-family="Times,serif" font-size="14" text-anchor="middle">:core:compose-core</text>
        </g>
        <g stroke="#000" class="edge">
            <path fill="none" d="M285.89 31.38C227.23 40.03 147.25 55.18 123.11 76c-17.79 15.34-26.6 40.9-30.93 60.7"/>
            <path d="m95.65 137.2-5.3 9.17-1.58-10.48z"/>
        </g>
        <g class="node" transform="translate(4 256)">
            <ellipse cx="457.11" cy="-162" fill="none" stroke="#000" rx="47.26" ry="18"/>
            <text x="457.11" y="-156.95" font-family="Times,serif" font-size="14" text-anchor="middle">:core:data</text>
        </g>
        <g stroke="red" stroke-width="2" class="edge">
            <path fill="none" d="M377.66 39.41c15.11 9.71 34.41 22.1 50.64 32.52"/>
            <path fill="red" d="m428.87 68.14 6.52 8.35-10.3-2.46z"/>
        </g>
        <g class="node" transform="translate(4 256)">
            <ellipse cx="593.11" cy="-162" fill="none" stroke="#000" rx="70.8" ry="18"/>
            <text x="593.11" y="-156.95" font-family="Times,serif" font-size="14" text-anchor="middle">:core:navigation</text>
        </g>
        <g stroke="#000" class="edge">
            <path fill="none" d="M399.35 36.5c40.29 11.51 98.32 28.09 141.1 40.31"/>
            <path d="m541.15 73.37 8.65 6.11-10.57.62z"/>
        </g>
        <g stroke="#000" class="edge">
            <path fill="none" d="m256.78 111.59 55.58 32.15"/>
            <path d="m313.67 140.46 6.9 8.03-10.4-1.97z"/>
        </g>
        <g stroke="#000" class="edge">
            <path fill="none" d="M195.64 111.24c-19.49 9.74-44.49 22.24-65.47 32.73"/>
            <path d="m131.78 147.08-10.51 1.34 7.38-7.61z"/>
        </g>
        <g class="node" transform="translate(4 256)">
            <ellipse cx="224.11" cy="-90" fill="none" stroke="#000" rx="37.53" ry="18"/>
            <text x="224.11" y="-84.95" font-family="Times,serif" font-size="14" text-anchor="middle">:shared</text>
        </g>
        <g stroke="#000" class="edge">
            <path fill="none" d="M228.11 112.3v24.16"/>
            <path d="m231.61 136.38-3.5 10-3.5-10z"/>
        </g>
        <g stroke="#000" class="edge">
            <path fill="none" d="M437.35 109.85c-15.6 9.75-36.27 22.67-53.68 33.55"/>
            <path d="m386 146.07-10.33 2.33 6.62-8.27z"/>
        </g>
        <g class="node" transform="translate(4 256)">
            <ellipse cx="492.11" cy="-90" fill="none" stroke="#000" rx="63.63" ry="18"/>
            <text x="492.11" y="-84.95" font-family="Times,serif" font-size="14" text-anchor="middle">:core:database</text>
        </g>
        <g stroke="red" stroke-width="2" class="edge">
            <path fill="none" d="M469.58 111.95c3.85 7.7 8.51 17.02 12.85 25.69"/>
            <path fill="red" d="m484.77 134.51 1.35 10.51-7.61-7.38z"/>
        </g>
        <g class="node" transform="translate(4 256)">
            <ellipse cx="635.11" cy="-90" fill="none" stroke="#000" rx="61.59" ry="18"/>
            <text x="635.11" y="-84.95" font-family="Times,serif" font-size="14" text-anchor="middle">:core:data-api</text>
        </g>
        <g stroke="#000" class="edge">
            <path fill="none" d="M492.93 107.51c27.73 10.91 68.3 26.87 99.67 39.2"/>
            <path d="m593.84 143.44 8.03 6.92-10.59-.41z"/>
        </g>
        <g class="node" transform="translate(4 256)">
            <ellipse cx="777.11" cy="-90" fill="none" stroke="#000" rx="62.1" ry="18"/>
            <text x="777.11" y="-84.95" font-family="Times,serif" font-size="14" text-anchor="middle">:core:network</text>
        </g>
        <g stroke="#000" class="edge">
            <path fill="none" d="M496.49 106.39c6.81 2 13.91 3.97 20.62 5.61 84.76 20.7 107.65 17.84 193 36 4.53.96 9.22 2 13.92 3.07"/>
            <path d="m724.54 147.59 8.96 5.66-10.53 1.16z"/>
        </g>
        <g class="node" transform="translate(4 256)">
            <ellipse cx="563.11" cy="-18" fill="none" stroke="#000" rx="55.45" ry="18"/>
            <text x="563.11" y="-12.95" font-family="Times,serif" font-size="14" text-anchor="middle">:core:model</text>
        </g>
        <g stroke="red" stroke-width="2" class="edge">
            <path fill="none" d="M512.93 183.59c8.76 8.63 19.63 19.35 29.33 28.91"/>
            <path fill="red" d="m543.58 208.89 4.67 9.51-9.58-4.52z"/>
        </g>
        <g stroke="#000" class="edge">
            <path fill="none" d="M622.04 183.59c-8.96 8.72-20.12 19.56-30.03 29.2"/>
            <path d="m594.74 215.01-9.61 4.46 4.73-9.48z"/>
        </g>
    </g>
</svg>
