<?xml version="1.0" encoding="UTF-8" standalone="no"?>
<!DOCTYPE svg PUBLIC "-//W3C//DTD SVG 1.1//EN"
 "http://www.w3.org/Graphics/SVG/1.1/DTD/svg11.dtd">
<!-- Generated by graphviz version 12.0.0 (20240704.0754)
 -->
<!-- Title: G Pages: 1 -->
<svg width="424pt" height="260pt"
 viewBox="0.00 0.00 423.96 260.00" xmlns="http://www.w3.org/2000/svg" xmlns:xlink="http://www.w3.org/1999/xlink">
<g id="graph0" class="graph" transform="scale(1 1) rotate(0) translate(4 256)">
<title>G</title>
<polygon fill="white" stroke="none" points="-4,4 -4,-256 419.96,-256 419.96,4 -4,4"/>
<!-- :app&#45;arducon -->
<g id="node1" class="node">
<title>:app&#45;arducon</title>
<ellipse fill="none" stroke="black" cx="101.6" cy="-234" rx="59.54" ry="18"/>
<text text-anchor="middle" x="101.6" y="-228.95" font-family="Times,serif" font-size="14.00">:app&#45;arducon</text>
</g>
<!-- :core:common -->
<g id="node2" class="node">
<title>:core:common</title>
<ellipse fill="none" stroke="black" cx="83.6" cy="-18" rx="65.17" ry="18"/>
<text text-anchor="middle" x="83.6" y="-12.95" font-family="Times,serif" font-size="14.00">:core:common</text>
</g>
<!-- :app&#45;arducon&#45;&gt;:core:common -->
<g id="edge1" class="edge">
<title>:app&#45;arducon&#45;&gt;:core:common</title>
<path fill="none" stroke="black" d="M60.71,-220.55C41.29,-212.35 19.9,-199.44 8.6,-180 -18.42,-133.5 26.19,-75.63 57.37,-43.47"/>
<polygon fill="black" stroke="black" points="59.68,-46.1 64.27,-36.56 54.73,-41.15 59.68,-46.1"/>
</g>
<!-- :core:compose&#45;core -->
<g id="node3" class="node">
<title>:core:compose&#45;core</title>
<ellipse fill="none" stroke="black" cx="101.6" cy="-162" rx="84.11" ry="18"/>
<text text-anchor="middle" x="101.6" y="-156.95" font-family="Times,serif" font-size="14.00">:core:compose&#45;core</text>
</g>
<!-- :app&#45;arducon&#45;&gt;:core:compose&#45;core -->
<g id="edge2" class="edge">
<title>:app&#45;arducon&#45;&gt;:core:compose&#45;core</title>
<path fill="none" stroke="black" d="M101.6,-215.7C101.6,-208.41 101.6,-199.73 101.6,-191.54"/>
<polygon fill="black" stroke="black" points="105.1,-191.62 101.6,-181.62 98.1,-191.62 105.1,-191.62"/>
</g>
<!-- :core:data -->
<g id="node4" class="node">
<title>:core:data</title>
<ellipse fill="none" stroke="black" cx="250.6" cy="-162" rx="47.26" ry="18"/>
<text text-anchor="middle" x="250.6" y="-156.95" font-family="Times,serif" font-size="14.00">:core:data</text>
</g>
<!-- :app&#45;arducon&#45;&gt;:core:data -->
<g id="edge3" class="edge">
<title>:app&#45;arducon&#45;&gt;:core:data</title>
<path fill="none" stroke="red" stroke-width="2" d="M132.83,-218.33C155.73,-207.57 186.97,-192.89 211.52,-181.36"/>
<polygon fill="red" stroke="red" stroke-width="2" points="211.63,-185.18 219.19,-177.76 208.65,-178.84 211.63,-185.18"/>
</g>
<!-- :core:compose&#45;core&#45;&gt;:core:common -->
<g id="edge4" class="edge">
<title>:core:compose&#45;core&#45;&gt;:core:common</title>
<path fill="none" stroke="black" d="M96.57,-143.97C93.74,-133.66 90.42,-120.18 88.6,-108 85.62,-88.07 84.38,-65.4 83.88,-47.92"/>
<polygon fill="black" stroke="black" points="87.38,-47.93 83.66,-38 80.38,-48.08 87.38,-47.93"/>
</g>
<!-- :core:data&#45;&gt;:core:common -->
<g id="edge5" class="edge">
<title>:core:data&#45;&gt;:core:common</title>
<path fill="none" stroke="black" d="M214.97,-149.76C181.75,-138.69 135.3,-121.52 121.6,-108 104.88,-91.51 95.09,-66.49 89.65,-47.18"/>
<polygon fill="black" stroke="black" points="93.11,-46.58 87.23,-37.76 86.32,-48.32 93.11,-46.58"/>
</g>
<!-- :core:database -->
<g id="node5" class="node">
<title>:core:database</title>
<ellipse fill="none" stroke="black" cx="336.6" cy="-90" rx="63.63" ry="18"/>
<text text-anchor="middle" x="336.6" y="-84.95" font-family="Times,serif" font-size="14.00">:core:database</text>
</g>
<!-- :core:data&#45;&gt;:core:database -->
<g id="edge6" class="edge">
<title>:core:data&#45;&gt;:core:database</title>
<path fill="none" stroke="red" stroke-width="2" d="M270.11,-145.12C281.28,-136.03 295.49,-124.46 307.91,-114.35"/>
<polygon fill="red" stroke="red" stroke-width="2" points="308.67,-118.25 314.22,-109.22 304.25,-112.82 308.67,-118.25"/>
</g>
<!-- :core:model -->
<g id="node6" class="node">
<title>:core:model</title>
<ellipse fill="none" stroke="black" cx="336.6" cy="-18" rx="55.45" ry="18"/>
<text text-anchor="middle" x="336.6" y="-12.95" font-family="Times,serif" font-size="14.00">:core:model</text>
</g>
<!-- :core:data&#45;&gt;:core:model -->
<g id="edge7" class="edge">
<title>:core:data&#45;&gt;:core:model</title>
<path fill="none" stroke="black" d="M297.8,-159.36C334.88,-155.27 384.33,-143.05 409.6,-108 418.95,-95.02 416.87,-86.25 409.6,-72 402.63,-58.32 390.29,-47.35 377.72,-39.02"/>
<polygon fill="black" stroke="black" points="379.8,-36.18 369.44,-33.95 376.14,-42.15 379.8,-36.18"/>
</g>
<!-- :core:network -->
<g id="node7" class="node">
<title>:core:network</title>
<ellipse fill="none" stroke="black" cx="192.6" cy="-90" rx="62.1" ry="18"/>
<text text-anchor="middle" x="192.6" y="-84.95" font-family="Times,serif" font-size="14.00">:core:network</text>
</g>
<!-- :core:data&#45;&gt;:core:network -->
<g id="edge8" class="edge">
<title>:core:data&#45;&gt;:core:network</title>
<path fill="none" stroke="black" d="M236.85,-144.41C230.02,-136.16 221.61,-126.01 213.96,-116.78"/>
<polygon fill="black" stroke="black" points="216.69,-114.59 207.61,-109.12 211.3,-119.05 216.69,-114.59"/>
</g>
<!-- :core:database&#45;&gt;:core:model -->
<g id="edge9" class="edge">
<title>:core:database&#45;&gt;:core:model</title>
<path fill="none" stroke="red" stroke-width="2" d="M336.6,-71.7C336.6,-64.41 336.6,-55.73 336.6,-47.54"/>
<polygon fill="red" stroke="red" stroke-width="2" points="340.1,-49.13 336.6,-39.13 333.1,-49.13 340.1,-49.13"/>
</g>
<!-- :core:network&#45;&gt;:core:common -->
<g id="edge10" class="edge">
<title>:core:network&#45;&gt;:core:common</title>
<path fill="none" stroke="black" d="M167.86,-73.12C153.2,-63.7 134.38,-51.61 118.25,-41.25"/>
<polygon fill="black" stroke="black" points="120.19,-38.34 109.89,-35.88 116.41,-44.23 120.19,-38.34"/>
</g>
<!-- :core:network&#45;&gt;:core:model -->
<g id="edge11" class="edge">
<title>:core:network&#45;&gt;:core:model</title>
<path fill="none" stroke="black" d="M223.49,-73.98C244.85,-63.6 273.46,-49.69 296.56,-38.46"/>
<polygon fill="black" stroke="black" points="297.92,-41.69 305.38,-34.17 294.86,-35.4 297.92,-41.69"/>
</g>
</g>
</svg>
