<svg xmlns="http://www.w3.org/2000/svg" width="1174pt" height="260pt" viewBox="0 0 1174 260">
    <g class="graph" transform="translate(4 256)">
        <title>G</title>
        <path fill="#fff" d="M-4 4v-260h1174.08V4z"/>
        <g class="node">
            <title>:app-arducon</title>
            <ellipse cx="761.53" cy="-234" fill="none" stroke="#000" rx="59.54" ry="18"/>
            <text xml:space="preserve" x="761.53" y="-228.95" font-family="Times,serif" font-size="14" text-anchor="middle">:app-arducon</text>
        </g>
        <g class="node">
            <title>:core:common-android</title>
            <ellipse cx="485.53" cy="-162" fill="none" stroke="#000" rx="96.39" ry="18"/>
            <text xml:space="preserve" x="485.53" y="-156.95" font-family="Times,serif" font-size="14" text-anchor="middle">:core:common-android</text>
        </g>
        <g class="edge">
            <title>:app-arducon-&gt;:core:common-android</title>
            <path fill="none" stroke="red" stroke-width="2" d="M716.88-221.68c-44.63 11.32-113.79 28.86-164.87 41.82"/>
            <path fill="red" stroke="red" stroke-width="2" d="m554.56-176.9-10.56-.93 8.84-5.85z"/>
        </g>
        <g class="node">
            <title>:feature:ui-web</title>
            <ellipse cx="844.53" cy="-162" fill="none" stroke="#000" rx="67.22" ry="18"/>
            <text xml:space="preserve" x="844.53" y="-156.95" font-family="Times,serif" font-size="14" text-anchor="middle">:feature:ui-web</text>
        </g>
        <g class="edge">
            <title>:app-arducon-&gt;:feature:ui-web</title>
            <path fill="none" stroke="#000" d="M780.78-216.76c10.53 8.88 23.78 20.05 35.46 29.91"/>
            <path stroke="#000" d="m818.26-189.73 5.39 9.12-9.9-3.77z"/>
        </g>
        <g class="node">
            <title>:core:data</title>
            <ellipse cx="261.53" cy="-162" fill="none" stroke="#000" rx="47.26" ry="18"/>
            <text xml:space="preserve" x="261.53" y="-156.95" font-family="Times,serif" font-size="14" text-anchor="middle">:core:data</text>
        </g>
        <g class="edge">
            <title>:app-arducon-&gt;:core:data</title>
            <path fill="none" stroke="#000" d="M708.2-225.64c-73.69 10.17-210.79 29.16-327.67 45.64-20.92 2.95-43.89 6.22-64.03 9.1"/>
            <path stroke="#000" d="m317.22-167.46-10.4-2.05 9.4-4.88z"/>
        </g>
        <g class="node">
            <title>:core:navigation</title>
            <ellipse cx="1000.53" cy="-162" fill="none" stroke="#000" rx="70.8" ry="18"/>
            <text xml:space="preserve" x="1000.53" y="-156.95" font-family="Times,serif" font-size="14" text-anchor="middle">:core:navigation</text>
        </g>
        <g class="edge">
            <title>:app-arducon-&gt;:core:navigation</title>
            <path fill="none" stroke="#000" d="M803.16-220.81c39.12 11.46 97.97 28.7 141.23 41.37"/>
            <path stroke="#000" d="m945.24-182.84 8.62 6.17-10.58.55z"/>
        </g>
        <g class="node">
            <title>:feature:ui-scheme</title>
            <ellipse cx="679.53" cy="-162" fill="none" stroke="#000" rx="80.01" ry="18"/>
            <text xml:space="preserve" x="679.53" y="-156.95" font-family="Times,serif" font-size="14" text-anchor="middle">:feature:ui-scheme</text>
        </g>
        <g class="edge">
            <title>:app-arducon-&gt;:feature:ui-scheme</title>
            <path fill="none" stroke="#000" d="M742.51-216.76c-10.33 8.81-23.3 19.89-34.79 29.69"/>
            <path stroke="#000" d="m710.33-184.69-9.88 3.83 5.33-9.16z"/>
        </g>
        <g class="node">
            <title>:widget</title>
            <ellipse cx="1127.53" cy="-162" fill="none" stroke="#000" rx="38.56" ry="18"/>
            <text xml:space="preserve" x="1127.53" y="-156.95" font-family="Times,serif" font-size="14" text-anchor="middle">:widget</text>
        </g>
        <g class="edge">
            <title>:app-arducon-&gt;:widget</title>
            <path fill="none" stroke="#000" d="M816.92-226.91c64.14 7.77 172.63 23.11 263.61 46.91 2.42.63 4.89 1.34 7.37 2.09"/>
            <path stroke="#000" d="m1088.86-181.28 8.41 6.45-10.6.21z"/>
        </g>
        <g class="node">
            <title>:core:common</title>
            <ellipse cx="548.53" cy="-90" fill="none" stroke="#000" rx="65.17" ry="18"/>
            <text xml:space="preserve" x="548.53" y="-84.95" font-family="Times,serif" font-size="14" text-anchor="middle">:core:common</text>
        </g>
        <g class="edge">
            <title>:core:common-android-&gt;:core:common</title>
            <path fill="none" stroke="#000" d="M500.78-144.05c7.5 8.34 16.71 18.56 25.02 27.8"/>
            <path stroke="#000" d="m528.32-118.69 4.09 9.78-9.3-5.1z"/>
        </g>
        <g class="node">
            <title>:core:compose-core</title>
            <ellipse cx="753.53" cy="-90" fill="none" stroke="#000" rx="84.11" ry="18"/>
            <text xml:space="preserve" x="753.53" y="-84.95" font-family="Times,serif" font-size="14" text-anchor="middle">:core:compose-core</text>
        </g>
        <g class="edge">
            <title>:core:common-android-&gt;:core:compose-core</title>
            <path fill="none" stroke="red" stroke-width="2" d="M540.08-146.75c43.69 11.41 105.02 27.43 150.73 39.37"/>
            <path fill="red" stroke="red" stroke-width="2" d="m690.06-111.2 8.79 5.92-10.56.86z"/>
        </g>
        <g class="node">
            <title>:shared</title>
            <ellipse cx="180.53" cy="-18" fill="none" stroke="#000" rx="37.53" ry="18"/>
            <text xml:space="preserve" x="180.53" y="-12.95" font-family="Times,serif" font-size="14" text-anchor="middle">:shared</text>
        </g>
        <g class="edge">
            <title>:core:common-android-&gt;:shared</title>
            <path fill="none" stroke="#000" d="M558.29-149.94c24.55 7.59 49.46 20.38 64.24 41.94 9.04 13.2 10.62 24.03 0 36-25.77 29.04-283.37 45.14-393.02 50.73"/>
            <path stroke="#000" d="m229.81-17.78-10.16-3 9.81-3.99z"/>
        </g>
        <g class="node">
            <title>:core:data-api</title>
            <ellipse cx="261.53" cy="-90" fill="none" stroke="#000" rx="61.59" ry="18"/>
            <text xml:space="preserve" x="261.53" y="-84.95" font-family="Times,serif" font-size="14" text-anchor="middle">:core:data-api</text>
        </g>
        <g class="edge">
            <title>:core:common-android-&gt;:core:data-api</title>
            <path fill="none" stroke="#000" d="M437.47-145.98c-36.62 11.44-86.96 27.17-124.41 38.88"/>
            <path stroke="#000" d="m314.4-103.86-10.59-.35 8.51-6.33z"/>
        </g>
        <g class="node">
            <title>:core:network</title>
            <ellipse cx="403.53" cy="-90" fill="none" stroke="#000" rx="62.1" ry="18"/>
            <text xml:space="preserve" x="403.53" y="-84.95" font-family="Times,serif" font-size="14" text-anchor="middle">:core:network</text>
        </g>
        <g class="edge">
            <title>:core:common-android-&gt;:core:network</title>
            <path fill="none" stroke="#000" d="M465.68-144.05c-10.25 8.74-22.93 19.56-34.15 29.15"/>
            <path stroke="#000" d="m433.94-112.36-9.88 3.83 5.34-9.15z"/>
        </g>
        <g class="edge">
            <title>:core:data-&gt;:core:common</title>
            <path fill="none" stroke="#000" d="M300.53-151.49c48.86 11.92 133 32.44 189.56 46.24"/>
            <path stroke="#000" d="m490.66-108.72 8.88 5.77-10.54 1.03z"/>
        </g>
        <g class="edge">
            <title>:core:data-&gt;:shared</title>
            <path fill="none" stroke="#000" d="M233.37-147.31c-15.3 8.98-33.05 22.23-42.84 39.31-10.42 18.17-12.65 41.86-12.41 60.23"/>
            <path stroke="#000" d="m181.61-47.95-3.09 10.13-3.9-9.85z"/>
        </g>
        <g class="edge">
            <title>:core:data-&gt;:core:data-api</title>
            <path fill="none" stroke="#000" d="M261.53-143.7v24.16"/>
            <path stroke="#000" d="m265.03-119.62-3.5 10-3.5-10z"/>
        </g>
        <g class="edge">
            <title>:core:data-&gt;:core:network</title>
            <path fill="none" stroke="#000" d="M289.58-147.17c20.98 10.34 49.98 24.64 73.47 36.22"/>
            <path stroke="#000" d="m364.29-114.24 7.43 7.56-10.52-1.28z"/>
        </g>
        <g class="node">
            <title>:core:model</title>
            <ellipse cx="69.53" cy="-18" fill="none" stroke="#000" rx="55.45" ry="18"/>
            <text xml:space="preserve" x="69.53" y="-12.95" font-family="Times,serif" font-size="14" text-anchor="middle">:core:model</text>
        </g>
        <g class="edge">
            <title>:core:data-&gt;:core:model</title>
            <path fill="none" stroke="#000" d="M215.07-158.17C148.81-153.06 32.32-139.7 6.53-108c-10.1 12.41-6.75 21.49 0 36 5.78 12.43 16.08 22.98 26.69 31.32"/>
            <path stroke="#000" d="m35.26-43.52 6.03 8.7-10.15-3.04z"/>
        </g>
        <g class="node">
            <title>:core:database</title>
            <ellipse cx="79.53" cy="-90" fill="none" stroke="#000" rx="63.63" ry="18"/>
            <text xml:space="preserve" x="79.53" y="-84.95" font-family="Times,serif" font-size="14" text-anchor="middle">:core:database</text>
        </g>
        <g class="edge">
            <title>:core:data-&gt;:core:database</title>
            <path fill="none" stroke="#000" d="M228.99-148.49c-28.48 10.96-70.2 27-102.33 39.36"/>
            <path stroke="#000" d="m128.17-105.96-10.59.33 8.07-6.86z"/>
        </g>
        <g class="edge">
            <title>:feature:ui-scheme-&gt;:core:common</title>
            <path fill="none" stroke="#000" d="M649.47-144.94c-18.39 9.83-42.13 22.51-61.96 33.11"/>
            <path stroke="#000" d="m589.35-108.84-10.47 1.62 7.17-7.8z"/>
        </g>
        <g class="edge">
            <title>:feature:ui-scheme-&gt;:core:compose-core</title>
            <path fill="none" stroke="#000" d="M697.44-144.05c8.93 8.44 19.91 18.83 29.78 28.16"/>
            <path stroke="#000" d="m729.56-118.49 4.86 9.42-9.67-4.33z"/>
        </g>
        <g class="node">
            <title>:core:component</title>
            <ellipse cx="753.53" cy="-18" fill="none" stroke="#000" rx="73.36" ry="18"/>
            <text xml:space="preserve" x="753.53" y="-12.95" font-family="Times,serif" font-size="14" text-anchor="middle">:core:component</text>
        </g>
        <g class="edge">
            <title>:core:compose-core-&gt;:core:component</title>
            <path fill="none" stroke="red" stroke-width="2" d="M753.53-71.7v24.16"/>
            <path fill="red" stroke="red" stroke-width="2" d="m757.03-49.13-3.5 10-3.5-10z"/>
        </g>
        <g class="edge">
            <title>:core:data-api-&gt;:core:model</title>
            <path fill="none" stroke="#000" d="M224.05-75.34c-30.88 11.26-74.84 27.29-107.98 39.37"/>
            <path stroke="#000" d="m117.3-32.69-10.59.13 8.19-6.71z"/>
        </g>
        <g class="edge">
            <title>:core:database-&gt;:shared</title>
            <path fill="none" stroke="#000" d="M102.7-72.94c14.28 9.89 32.72 22.68 48.07 33.32"/>
            <path stroke="#000" d="m152.39-42.76 6.23 8.58L148.41-37z"/>
        </g>
        <g class="edge">
            <title>:core:database-&gt;:core:model</title>
            <path fill="none" stroke="#000" d="M77.06-71.7c-1.06 7.38-2.31 16.18-3.5 24.45"/>
            <path stroke="#000" d="m77.06-47.01-4.87 9.41L70.13-48z"/>
        </g>
    </g>
</svg>
