<svg xmlns="http://www.w3.org/2000/svg" width="548pt" height="260pt" viewBox="0 0 547.53 260">
    <g class="graph">
        <path fill="#fff" d="M0 260V0h547.53v260z"/>
        <g class="node" transform="translate(4 256)">
            <ellipse cx="194.17" cy="-234" fill="none" stroke="#000" rx="59.54" ry="18"/>
            <text x="194.17" y="-228.95" font-family="Times,serif" font-size="14" text-anchor="middle">:app-arducon</text>
        </g>
        <g class="node" transform="translate(4 256)">
            <ellipse cx="65.17" cy="-18" fill="none" stroke="#000" rx="65.17" ry="18"/>
            <text x="65.17" y="-12.95" font-family="Times,serif" font-size="14" text-anchor="middle">:core:common</text>
        </g>
        <g stroke="#000" class="edge">
            <path fill="none" d="M139 24.96C101.54 29.65 55.69 42.49 31.17 76c-29.64 40.5-1.11 100.73 19.99 134.88"/>
            <path d="m53.86 208.61 2.45 10.3-8.34-6.53z"/>
        </g>
        <g class="node" transform="translate(4 256)">
            <ellipse cx="120.17" cy="-162" fill="none" stroke="#000" rx="84.11" ry="18"/>
            <text x="120.17" y="-156.95" font-family="Times,serif" font-size="14" text-anchor="middle">:core:compose-core</text>
        </g>
        <g stroke="#000" class="edge">
            <path fill="none" d="M180.63 39.59c-9.08 8.59-20.35 19.25-30.43 28.78"/>
            <path d="M152.86 70.67 143.19 75l4.86-9.41z"/>
        </g>
        <g class="node" transform="translate(4 256)">
            <ellipse cx="269.17" cy="-162" fill="none" stroke="#000" rx="47.26" ry="18"/>
            <text x="269.17" y="-156.95" font-family="Times,serif" font-size="14" text-anchor="middle">:core:data</text>
        </g>
        <g stroke="red" stroke-width="2" class="edge">
            <path fill="none" d="M215.94 39.59c9.41 8.78 21.14 19.72 31.52 29.41"/>
            <path fill="red" d="m248.65 65.32 4.92 9.39-9.7-4.27z"/>
        </g>
        <g class="node" transform="translate(4 256)">
            <ellipse cx="405.17" cy="-162" fill="none" stroke="#000" rx="70.8" ry="18"/>
            <text x="405.17" y="-156.95" font-family="Times,serif" font-size="14" text-anchor="middle">:core:navigation</text>
        </g>
        <g stroke="#000" class="edge">
            <path fill="none" d="M237.36 36c33.63 11.16 82.37 27.33 119.35 39.6"/>
            <path d="m357.47 72.16 8.39 6.47-10.59.17z"/>
        </g>
        <g stroke="#000" class="edge">
            <path fill="none" d="M102.43 111.71c-10.52 9.41-22.16 22.11-28.26 36.29-8.19 19.03-9.18 42.5-8.26 60.56"/>
            <path d="m69.38 208.07-2.74 10.23-4.24-9.71z"/>
        </g>
        <g stroke="#000" class="edge">
            <path fill="none" d="M237.43 106.01c-48.04 14.85-127.76 39.72-130.26 41.99-17.47 15.9-27.22 41.18-32.45 60.75"/>
            <path d="m78.17 209.39-5.74 8.91-1.07-10.54z"/>
        </g>
        <g class="node" transform="translate(4 256)">
            <ellipse cx="318.17" cy="-90" fill="none" stroke="#000" rx="63.63" ry="18"/>
            <text x="318.17" y="-84.95" font-family="Times,serif" font-size="14" text-anchor="middle">:core:database</text>
        </g>
        <g stroke="red" stroke-width="2" class="edge">
            <path fill="none" d="M284.78 111.59c5.66 8.07 12.59 17.98 18.94 27.06"/>
            <path fill="red" d="m305.7 135.36 2.86 10.2-8.6-6.18z"/>
        </g>
        <g class="node" transform="translate(4 256)">
            <ellipse cx="461.17" cy="-90" fill="none" stroke="#000" rx="61.59" ry="18"/>
            <text x="461.17" y="-84.95" font-family="Times,serif" font-size="14" text-anchor="middle">:core:data-api</text>
        </g>
        <g stroke="#000" class="edge">
            <path fill="none" d="M306.61 107.19c30.54 11.14 76.04 27.72 110.48 40.28"/>
            <path d="m418.23 144.16 8.19 6.71-10.59-.13z"/>
        </g>
        <g class="node" transform="translate(4 256)">
            <ellipse cx="389.17" cy="-18" fill="none" stroke="#000" rx="55.45" ry="18"/>
            <text x="389.17" y="-12.95" font-family="Times,serif" font-size="14" text-anchor="middle">:core:model</text>
        </g>
        <g stroke="#000" class="edge">
            <path fill="none" d="M308.24 106.36c6.9 2.04 14.11 4.02 20.93 5.64 45.42 10.8 176.95.27 207 36 10.3 12.24 9.14 22.87 0 36-17.9 25.73-49.82 38.99-78.97 45.82"/>
            <path d="m458.18 233.19-10.5-1.36 9.06-5.49z"/>
        </g>
        <g class="node" transform="translate(4 256)">
            <ellipse cx="174.17" cy="-90" fill="none" stroke="#000" rx="62.1" ry="18"/>
            <text x="174.17" y="-84.95" font-family="Times,serif" font-size="14" text-anchor="middle">:core:network</text>
        </g>
        <g stroke="#000" class="edge">
            <path fill="none" d="M252.09 110.54c-12.65 9.31-28.96 21.33-43.04 31.7"/>
            <path d="m211.53 144.77-10.13 3.11 5.98-8.75z"/>
        </g>
        <g stroke="red" stroke-width="2" class="edge">
            <path fill="none" d="M339 183.59c8.75 8.63 19.62 19.35 29.32 28.91"/>
            <path fill="red" d="m369.65 208.89 4.66 9.51-9.58-4.52z"/>
        </g>
        <g stroke="#000" class="edge">
            <path fill="none" d="M448.11 183.59c-8.97 8.72-20.13 19.56-30.04 29.2"/>
            <path d="m420.81 215.01-9.61 4.46 4.73-9.48z"/>
        </g>
        <g stroke="#000" class="edge">
            <path fill="none" d="M153.44 182.88c-14.67 9.42-33.49 21.51-49.62 31.87"/>
            <path d="m105.76 217.66-10.3 2.46 6.52-8.35z"/>
        </g>
        <g stroke="#000" class="edge">
            <path fill="none" d="M218.36 180.08c35.62 11.6 87.74 28.57 125.79 40.96"/>
            <path d="m345.12 217.68 8.43 6.42-10.6.23z"/>
        </g>
    </g>
</svg>
