<svg xmlns="http://www.w3.org/2000/svg" width="3912" height="476pt" viewBox="0 0 2934 476">
    <g class="graph" transform="translate(4 472)">
        <title>G</title>
        <path fill="#fff" d="M-4 4v-476h2933.56V4z"/>
        <g class="node">
            <title>:app-arducon</title>
            <ellipse cx="1469" cy="-450" fill="none" stroke="#000" rx="59.54" ry="18"/>
            <text xml:space="preserve" x="1469" y="-444.95" font-family="Times,serif" font-size="14" text-anchor="middle">:app-arducon</text>
        </g>
        <g class="node">
            <title>:core:common-android</title>
            <ellipse cx="1670" cy="-234" fill="none" stroke="#000" rx="96.39" ry="18"/>
            <text xml:space="preserve" x="1670" y="-228.95" font-family="Times,serif" font-size="14" text-anchor="middle">:core:common-android</text>
        </g>
        <g class="edge">
            <title>:app-arducon-&gt;:core:common-android</title>
            <path fill="none" stroke="#000" d="M1498.9-434.12c17.25 9.47 38.71 22.8 55.1 38.12 43.57 40.71 81.26 99.97 101.09 134.09"/>
            <path stroke="#000" d="m1657.98-263.91 1.93 10.42-8.01-6.94z"/>
        </g>
        <g class="node">
            <title>:core:common</title>
            <ellipse cx="1138" cy="-90" fill="none" stroke="#000" rx="65.17" ry="18"/>
            <text xml:space="preserve" x="1138" y="-84.95" font-family="Times,serif" font-size="14" text-anchor="middle">:core:common</text>
        </g>
        <g class="edge">
            <title>:app-arducon-&gt;:core:common</title>
            <path fill="none" stroke="#000" d="M1409.31-449.15C1187.42-449.3 417.88-446.19 321-396c-71.99 37.29-85.69 67.31-112 144-51.03 148.74 228.92 104.35 249 108 216.36 39.29 476.64 49.47 603.28 52.09"/>
            <path stroke="#000" d="m1061.3-95.41 9.93 3.7-10.07 3.3z"/>
        </g>
        <g class="node">
            <title>:core:component</title>
            <ellipse cx="799" cy="-162" fill="none" stroke="#000" rx="73.36" ry="18"/>
            <text xml:space="preserve" x="799" y="-156.95" font-family="Times,serif" font-size="14" text-anchor="middle">:core:component</text>
        </g>
        <g class="edge">
            <title>:app-arducon-&gt;:core:component</title>
            <path fill="none" stroke="#000" d="M1411.47-444.98C1226.83-431.52 658.1-385.34 605-324c-20.64 23.85 12.84 98.81 22 108 24.59 24.64 60.35 37.88 92.9 44.96"/>
            <path stroke="#000" d="m720.19-174.55 9.12 5.39-10.49 1.47z"/>
        </g>
        <g class="node">
            <title>:core:model</title>
            <ellipse cx="1622" cy="-18" fill="none" stroke="#000" rx="55.45" ry="18"/>
            <text xml:space="preserve" x="1622" y="-12.95" font-family="Times,serif" font-size="14" text-anchor="middle">:core:model</text>
        </g>
        <g class="edge">
            <title>:app-arducon-&gt;:core:model</title>
            <path fill="none" stroke="#000" d="M1409.14-449.6C1133.51-451.6 0-451.05 0-307v146c0 84.89 86.98 67.13 169 89 134.66 35.91 1118.29 49.3 1385.93 52.31"/>
            <path stroke="#000" d="m1554.91-23.19 9.96 3.61-10.03 3.39z"/>
        </g>
        <g class="node">
            <title>:shared</title>
            <ellipse cx="2432" cy="-18" fill="none" stroke="#000" rx="37.53" ry="18"/>
            <text xml:space="preserve" x="2432" y="-12.95" font-family="Times,serif" font-size="14" text-anchor="middle">:shared</text>
        </g>
        <g class="edge">
            <title>:app-arducon-&gt;:shared</title>
            <path fill="none" stroke="#000" d="M1528.79-449.09C1790.25-448.69 2820-438.78 2820-307v146c0 58.18-43.96 62.98-96 89-78.85 39.42-182.73 49.82-242.97 52.38"/>
            <path stroke="#000" d="m2481.22-16.12-10.12-3.14 9.87-3.86z"/>
        </g>
        <g class="node">
            <title>:feature:ui-web</title>
            <ellipse cx="1927" cy="-234" fill="none" stroke="#000" rx="67.22" ry="18"/>
            <text xml:space="preserve" x="1927" y="-228.95" font-family="Times,serif" font-size="14" text-anchor="middle">:feature:ui-web</text>
        </g>
        <g class="edge">
            <title>:app-arducon-&gt;:feature:ui-web</title>
            <path fill="none" stroke="#000" d="M1504.26-435.19c23.31 9.71 54.17 23.7 79.74 39.19 67.22 40.7 69.45 73.38 140 108 24.62 12.08 90.54 28.29 140.63 39.59"/>
            <path stroke="#000" d="m1865.23-251.86 9 5.6-10.53 1.23z"/>
        </g>
        <g class="node">
            <title>:core:data</title>
            <ellipse cx="2175" cy="-162" fill="none" stroke="#000" rx="47.26" ry="18"/>
            <text xml:space="preserve" x="2175" y="-156.95" font-family="Times,serif" font-size="14" text-anchor="middle">:core:data</text>
        </g>
        <g class="edge">
            <title>:app-arducon-&gt;:core:data</title>
            <path fill="none" stroke="#000" d="M1527.18-445.87C1726.53-434.58 2373.14-392.85 2433-324c32.17 37-37.6 102.63-45 108-45.34 32.92-108.87 45.51-154.73 50.26"/>
            <path stroke="#000" d="m2233.8-162.27-10.28-2.56 9.63-4.41z"/>
        </g>
        <g class="node">
            <title>:core:navigation</title>
            <ellipse cx="1151" cy="-234" fill="none" stroke="#000" rx="70.8" ry="18"/>
            <text xml:space="preserve" x="1151" y="-228.95" font-family="Times,serif" font-size="14" text-anchor="middle">:core:navigation</text>
        </g>
        <g class="edge">
            <title>:app-arducon-&gt;:core:navigation</title>
            <path fill="none" stroke="#000" d="M1431.85-435.54c-24.76 9.62-57.64 23.63-84.85 39.54-45.73 26.74-54.6 37.73-95 72-17.74 15.05-20.65 20.5-38 36-10.91 9.74-23.17 20.17-33.95 29.17"/>
            <path stroke="#000" d="m1182.5-256.31-9.93 3.69 5.45-9.08z"/>
        </g>
        <g class="node">
            <title>:core:resource</title>
            <ellipse cx="1303" cy="-234" fill="none" stroke="#000" rx="63.12" ry="18"/>
            <text xml:space="preserve" x="1303" y="-228.95" font-family="Times,serif" font-size="14" text-anchor="middle">:core:resource</text>
        </g>
        <g class="edge">
            <title>:app-arducon-&gt;:core:resource</title>
            <path fill="none" stroke="#000" d="M1439.15-434.06c-17.23 9.48-38.69 22.82-55.15 38.06-29.16 26.99-35.02 36.57-53 72-9.76 19.22-16.94 42.51-21.58 60.44"/>
            <path stroke="#000" d="m1312.82-262.73-5.79 8.88-1.01-10.55z"/>
        </g>
        <g class="node">
            <title>:feature:app-function</title>
            <ellipse cx="1822" cy="-378" fill="none" stroke="#000" rx="88.71" ry="18"/>
            <text xml:space="preserve" x="1822" y="-372.95" font-family="Times,serif" font-size="14" text-anchor="middle">:feature:app-function</text>
        </g>
        <g class="edge">
            <title>:app-arducon-&gt;:feature:app-function</title>
            <path fill="none" stroke="#000" d="M1517.71-439.34c59.84 11.87 161.92 32.11 231.18 45.84"/>
            <path stroke="#000" d="m1749.53-396.94 9.13 5.38-10.49 1.49z"/>
        </g>
        <g class="node">
            <title>:feature:ui-scheme</title>
            <ellipse cx="298" cy="-234" fill="none" stroke="#000" rx="80.01" ry="18"/>
            <text xml:space="preserve" x="298" y="-228.95" font-family="Times,serif" font-size="14" text-anchor="middle">:feature:ui-scheme</text>
        </g>
        <g class="edge">
            <title>:app-arducon-&gt;:feature:ui-scheme</title>
            <path fill="none" stroke="#000" d="M1409.68-448.01C1184.96-444.02 396.57-427.81 354-396c-41.6 31.09-52.48 95.22-55.21 132.48"/>
            <path stroke="#000" d="m302.31-263.74-4.06 9.78-2.93-10.18z"/>
        </g>
        <g class="node">
            <title>:feature:ui-setting</title>
            <ellipse cx="1469" cy="-378" fill="none" stroke="#000" rx="76.43" ry="18"/>
            <text xml:space="preserve" x="1469" y="-372.95" font-family="Times,serif" font-size="14" text-anchor="middle">:feature:ui-setting</text>
        </g>
        <g class="edge">
            <title>:app-arducon-&gt;:feature:ui-setting</title>
            <path fill="none" stroke="red" stroke-width="2" d="M1469-431.7v24.16"/>
            <path fill="red" stroke="red" stroke-width="2" d="m1472.5-409.13-3.5 10-3.5-10z"/>
        </g>
        <g class="node">
            <title>:widget</title>
            <ellipse cx="2887" cy="-378" fill="none" stroke="#000" rx="38.56" ry="18"/>
            <text xml:space="preserve" x="2887" y="-372.95" font-family="Times,serif" font-size="14" text-anchor="middle">:widget</text>
        </g>
        <g class="edge">
            <title>:app-arducon-&gt;:widget</title>
            <path fill="none" stroke="#000" d="M1528.7-448.83c228.7.97 1048.98 7.62 1305.3 52.83 4.15.73 8.41 1.71 12.65 2.82"/>
            <path stroke="#000" d="m2847.57-396.56 8.62 6.16-10.58.56z"/>
        </g>
        <g class="edge">
            <title>:core:common-android-&gt;:core:common</title>
            <path fill="none" stroke="#000" d="M1616.55-218.73c-100.92 26.94-318.68 85.06-421.98 112.63"/>
            <path stroke="#000" d="m1195.78-102.8-10.57-.8 8.76-5.96z"/>
        </g>
        <g class="edge">
            <title>:core:common-android-&gt;:core:component</title>
            <path fill="none" stroke="#000" d="M1585.76-225.05c-31.87 2.94-68.48 6.24-101.76 9.05-218.35 18.42-476.06 37.7-604.21 47.12"/>
            <path stroke="#000" d="m880.29-165.41-10.23-2.76 9.71-4.22z"/>
        </g>
        <g class="edge">
            <title>:core:common-android-&gt;:core:model</title>
            <path fill="none" stroke="#000" d="M1665.87-215.63c-5.72 24.12-16.3 69.14-24.87 107.63-4.49 20.17-9.36 42.97-13.04 60.44"/>
            <path stroke="#000" d="m1631.41-46.96-5.48 9.06-1.37-10.5z"/>
        </g>
        <g class="edge">
            <title>:core:common-android-&gt;:shared</title>
            <path fill="none" stroke="#000" d="M1684.7-215.77C1715.2-181.4 1789.26-104.8 1870-72c92.59 37.62 394.38 48.94 513.25 51.98"/>
            <path stroke="#000" d="m2383.07-23.52 9.92 3.74-10.09 3.26z"/>
        </g>
        <g class="edge">
            <title>:core:common-android-&gt;:core:data</title>
            <path fill="none" stroke="red" stroke-width="2" d="M1745.6-222.52c102.65 14.23 283.67 39.32 374.37 51.89"/>
            <path fill="red" stroke="red" stroke-width="2" d="m2118.67-174.34 9.43 4.84-10.39 2.09z"/>
        </g>
        <g class="node">
            <title>:core:data-api</title>
            <ellipse cx="1712" cy="-90" fill="none" stroke="#000" rx="61.59" ry="18"/>
            <text xml:space="preserve" x="1712" y="-84.95" font-family="Times,serif" font-size="14" text-anchor="middle">:core:data-api</text>
        </g>
        <g class="edge">
            <title>:core:common-android-&gt;:core:data-api</title>
            <path fill="none" stroke="#000" d="M1675.15-215.59c7.12 24.09 20.06 67.84 28.56 96.56"/>
            <path stroke="#000" d="m1707.03-120.14-.52 10.58-6.19-8.6z"/>
        </g>
        <g class="node">
            <title>:core:network</title>
            <ellipse cx="1941" cy="-90" fill="none" stroke="#000" rx="62.1" ry="18"/>
            <text xml:space="preserve" x="1941" y="-84.95" font-family="Times,serif" font-size="14" text-anchor="middle">:core:network</text>
        </g>
        <g class="edge">
            <title>:core:common-android-&gt;:core:network</title>
            <path fill="none" stroke="#000" d="M1723.31-218.57c28.56 8.92 63.72 21.88 92.69 38.57 21.6 12.44 22.94 21.21 43 36 14.74 10.87 31.65 22.01 46.27 31.25"/>
            <path stroke="#000" d="m1907.06-115.76 6.62 8.28-10.33-2.34z"/>
        </g>
        <g class="node">
            <title>:core:domain</title>
            <ellipse cx="1928" cy="-162" fill="none" stroke="#000" rx="60.05" ry="18"/>
            <text xml:space="preserve" x="1928" y="-156.95" font-family="Times,serif" font-size="14" text-anchor="middle">:core:domain</text>
        </g>
        <g class="edge">
            <title>:core:common-android-&gt;:core:domain</title>
            <path fill="none" stroke="#000" d="M1723.14-218.58c44.06 11.95 106.44 28.88 150.76 40.9"/>
            <path stroke="#000" d="m1874.56-181.13 8.73 6-10.56.76z"/>
        </g>
        <g class="edge">
            <title>:core:data-&gt;:core:common</title>
            <path fill="none" stroke="#000" d="M2139.49-149.7c-8.29 2.24-17.14 4.33-25.49 5.7-172.79 28.42-701.34 45.46-899.71 51"/>
            <path stroke="#000" d="m1214.44-89.5-10.09-3.22 9.9-3.78z"/>
        </g>
        <g class="edge">
            <title>:core:data-&gt;:core:model</title>
            <path fill="none" stroke="#000" d="M2153.25-145.72C2123.06-125.34 2066.06-89.76 2012-72c-109.67 36.03-244.44 47.59-323.42 51.28"/>
            <path stroke="#000" d="m1689-17.23-10.14-3.06 9.83-3.94z"/>
        </g>
        <g class="edge">
            <title>:core:data-&gt;:shared</title>
            <path fill="none" stroke="#000" d="M2222.17-159.24c72.8 3.83 207.27 15.65 236.83 51.24 14.94 17.98 4.35 44.09-7.68 63.38"/>
            <path stroke="#000" d="m2454.35-42.85-8.48 6.36 2.66-10.26z"/>
        </g>
        <g class="edge">
            <title>:core:data-&gt;:core:data-api</title>
            <path fill="none" stroke="red" stroke-width="2" d="M2138.75-150c-8.09 2.21-16.67 4.35-24.75 6-62.28 12.72-236.76 33.87-334.13 45.23"/>
            <path fill="red" stroke="red" stroke-width="2" d="m1782.02-95.5-10.34-2.32 9.53-4.63z"/>
        </g>
        <g class="edge">
            <title>:core:data-&gt;:core:network</title>
            <path fill="none" stroke="#000" d="M2138.69-150.14c-38.81 11.61-100.73 30.14-144.93 43.36"/>
            <path stroke="#000" d="m1994.97-103.49-10.59-.49 8.58-6.22z"/>
        </g>
        <g class="node">
            <title>:core:database</title>
            <ellipse cx="2386" cy="-90" fill="none" stroke="#000" rx="63.63" ry="18"/>
            <text xml:space="preserve" x="2386" y="-84.95" font-family="Times,serif" font-size="14" text-anchor="middle">:core:database</text>
        </g>
        <g class="edge">
            <title>:core:data-&gt;:core:database</title>
            <path fill="none" stroke="#000" d="M2209.84-149.44c34.13 11.32 86.52 28.7 125.3 41.57"/>
            <path stroke="#000" d="m2335.87-111.32 8.39 6.47-10.59.18z"/>
        </g>
        <g class="edge">
            <title>:feature:ui-scheme-&gt;:core:common</title>
            <path fill="none" stroke="#000" d="M343.84-218.84C376.01-208.66 419.91-194.26 458-180c38.81 14.53 45.78 26.04 86 36 181.69 44.99 403.01 52.87 517.37 53.61"/>
            <path stroke="#000" d="m1061.27-93.89 9.98 3.55-10.02 3.45z"/>
        </g>
        <g class="edge">
            <title>:feature:ui-scheme-&gt;:core:component</title>
            <path fill="none" stroke="#000" d="M357.85-221.72c11.33 2.01 23.09 4 34.15 5.72 114.83 17.85 248.52 34.46 330.45 44.18"/>
            <path stroke="#000" d="m722.63-175.33 9.52 4.65-10.34 2.3z"/>
        </g>
        <g class="edge">
            <title>:feature:ui-setting-&gt;:core:common-android</title>
            <path fill="none" stroke="#000" d="M1504.16-361.72c20.53 9.6 46.52 22.94 67.84 37.72 14.89 10.32 48.6 41.68 72.31 64.25"/>
            <path stroke="#000" d="m1646.63-262.37 4.81 9.44-9.64-4.38z"/>
        </g>
        <g class="edge">
            <title>:feature:ui-setting-&gt;:core:common</title>
            <path fill="none" stroke="#000" d="M1393.2-375.14C1187.41-369.72 631.82-352.51 605-324c-59.49 63.26.7 136.75 76 180 63.11 36.25 267.96 47.75 380.77 51.36"/>
            <path stroke="#000" d="m1061.65-96.14 9.89 3.8-10.1 3.2z"/>
        </g>
        <g class="edge">
            <title>:feature:ui-setting-&gt;:core:component</title>
            <path fill="none" stroke="#000" d="M1393.24-375.04C1190.34-369.44 648.21-351.9 622-324c-51.67 55 59.14 113.02 127.84 142.08"/>
            <path stroke="#000" d="m750.76-185.33 7.9 7.07-10.58-.6z"/>
        </g>
        <g class="edge">
            <title>:feature:ui-setting-&gt;:core:model</title>
            <path fill="none" stroke="#000" d="M1393.27-374.99C1239.57-370.36 880.11-356.72 580-324c-205.76 22.43-491.16-95.43-453 108 14.51 77.34 30.57 113.25 103 144 122.56 52.04 1064.39 53.77 1325.23 53.23"/>
            <path stroke="#000" d="m1554.88-22.27 10.01 3.48-9.99 3.52z"/>
        </g>
        <g class="edge">
            <title>:feature:ui-setting-&gt;:shared</title>
            <path fill="none" stroke="#000" d="M1541.53-371.86c51.02 3.54 120.9 8.24 182.47 11.86 113.98 6.69 1020 10.82 1020 125v74c0 114.2-175.29 136.98-263.09 141.23"/>
            <path stroke="#000" d="m2481.28-16.28-10.13-3.09 9.84-3.91z"/>
        </g>
        <g class="edge">
            <title>:feature:ui-setting-&gt;:feature:ui-web</title>
            <path fill="none" stroke="#000" d="M1508.4-362.13c27.45 10.44 64.86 24.87 97.6 38.13 38.03 15.4 45.94 23.45 85 36 16.45 5.28 109.33 25.69 173.54 39.58"/>
            <path stroke="#000" d="m1865.26-251.84 9.04 5.53-10.52 1.31z"/>
        </g>
        <g class="edge">
            <title>:feature:ui-setting-&gt;:core:data</title>
            <path fill="none" stroke="#000" d="M1541.53-371.89c51.02 3.53 120.91 8.23 182.47 11.89 38.21 2.27 661.65 8.24 688 36 65.53 69.04-99.34 124.83-186.77 148.6"/>
            <path stroke="#000" d="m2226.23-172.05-10.56-.8 8.76-5.96z"/>
        </g>
        <g class="edge">
            <title>:feature:ui-setting-&gt;:core:navigation</title>
            <path fill="none" stroke="#000" d="M1428.14-362.44c-27.68 10.14-64.94 24.33-97.14 38.44-49.12 21.52-104.19 49.31-140.33 68.07"/>
            <path stroke="#000" d="m1192.37-252.87-10.49 1.51 7.25-7.72z"/>
        </g>
        <g class="edge">
            <title>:feature:ui-setting-&gt;:core:resource</title>
            <path fill="none" stroke="#000" d="M1430.11-362.3c-20.53 9-45.28 21.95-64.11 38.3-20.14 17.49-37.2 42.69-48.46 61.81"/>
            <path stroke="#000" d="m1320.63-260.55-7.99 6.96 1.91-10.42z"/>
        </g>
        <g class="edge">
            <title>:feature:ui-setting-&gt;:core:domain</title>
            <path fill="none" stroke="#000" d="M1541.53-371.92c51.02 3.52 120.91 8.21 182.47 11.92 37.21 2.24 644.36 8.94 670 36 11.01 11.61 9.18 22.89 0 36-45.75 65.32-281.24 102.62-398.91 117.45"/>
            <path stroke="#000" d="m1995.59-167.08-10.35-2.25 9.49-4.7z"/>
        </g>
        <g class="node">
            <title>:feature:settings-core</title>
            <ellipse cx="1116" cy="-306" fill="none" stroke="#000" rx="88.71" ry="18"/>
            <text xml:space="preserve" x="1116" y="-300.95" font-family="Times,serif" font-size="14" text-anchor="middle">:feature:settings-core</text>
        </g>
        <g class="edge">
            <title>:feature:ui-setting-&gt;:feature:settings-core</title>
            <path fill="none" stroke="red" stroke-width="2" d="M1411.89-365.68c-60.68 12.04-156.82 31.1-222.95 44.22"/>
            <path fill="red" stroke="red" stroke-width="2" d="m1191.23-318.35-10.48-1.49 9.12-5.38z"/>
        </g>
        <g class="node">
            <title>:feature:settings-theme</title>
            <ellipse cx="2289" cy="-306" fill="none" stroke="#000" rx="95.88" ry="18"/>
            <text xml:space="preserve" x="2289" y="-300.95" font-family="Times,serif" font-size="14" text-anchor="middle">:feature:settings-theme</text>
        </g>
        <g class="edge">
            <title>:feature:ui-setting-&gt;:feature:settings-theme</title>
            <path fill="none" stroke="#000" d="M1541.43-371.99c169.03 11.75 579.99 40.62 642.57 47.99 8.22.97 16.79 2.12 25.33 3.36"/>
            <path stroke="#000" d="m2209.63-324.13 9.37 4.94-10.41 1.98z"/>
        </g>
        <g class="node">
            <title>:feature:settings-notification</title>
            <ellipse cx="2060" cy="-306" fill="none" stroke="#000" rx="115.33" ry="18"/>
            <text xml:space="preserve" x="2060" y="-300.95" font-family="Times,serif" font-size="14" text-anchor="middle">:feature:settings-notification</text>
        </g>
        <g class="edge">
            <title>:feature:ui-setting-&gt;:feature:settings-notification</title>
            <path fill="none" stroke="#000" d="M1537.51-369.73c91.07 9.78 257.01 28.01 398.49 45.73 9.48 1.19 19.36 2.47 29.22 3.78"/>
            <path stroke="#000" d="m1965.38-323.73 9.44 4.79-10.37 2.14z"/>
        </g>
        <g class="node">
            <title>:feature:settings-alarm</title>
            <ellipse cx="1469" cy="-306" fill="none" stroke="#000" rx="94.34" ry="18"/>
            <text xml:space="preserve" x="1469" y="-300.95" font-family="Times,serif" font-size="14" text-anchor="middle">:feature:settings-alarm</text>
        </g>
        <g class="edge">
            <title>:feature:ui-setting-&gt;:feature:settings-alarm</title>
            <path fill="none" stroke="#000" d="M1469-359.7v24.16"/>
            <path stroke="#000" d="m1472.5-335.62-3.5 10-3.5-10z"/>
        </g>
        <g class="node">
            <title>:feature:settings-device</title>
            <ellipse cx="1830" cy="-306" fill="none" stroke="#000" rx="96.9" ry="18"/>
            <text xml:space="preserve" x="1830" y="-300.95" font-family="Times,serif" font-size="14" text-anchor="middle">:feature:settings-device</text>
        </g>
        <g class="edge">
            <title>:feature:ui-setting-&gt;:feature:settings-device</title>
            <path fill="none" stroke="#000" d="M1526.6-365.83c61.47 11.92 159.16 30.86 227.02 44.02"/>
            <path stroke="#000" d="m1754.03-325.3 9.15 5.34-10.49 1.54z"/>
        </g>
        <g class="node">
            <title>:feature:settings-admin</title>
            <ellipse cx="727" cy="-306" fill="none" stroke="#000" rx="96.39" ry="18"/>
            <text xml:space="preserve" x="727" y="-300.95" font-family="Times,serif" font-size="14" text-anchor="middle">:feature:settings-admin</text>
        </g>
        <g class="edge">
            <title>:feature:ui-setting-&gt;:feature:settings-admin</title>
            <path fill="none" stroke="#000" d="M1395.73-372.76C1277.04-365.47 1035.5-348.9 832-324c-8 .98-16.33 2.12-24.64 3.34"/>
            <path stroke="#000" d="m807.99-317.22-10.41-1.97 9.36-4.95z"/>
        </g>
        <g class="node">
            <title>:feature:settings-lab</title>
            <ellipse cx="925" cy="-306" fill="none" stroke="#000" rx="84.11" ry="18"/>
            <text xml:space="preserve" x="925" y="-300.95" font-family="Times,serif" font-size="14" text-anchor="middle">:feature:settings-lab</text>
        </g>
        <g class="edge">
            <title>:feature:ui-setting-&gt;:feature:settings-lab</title>
            <path fill="none" stroke="#000" d="M1399.28-370.2c-88.77 8.98-246.79 26.03-381.28 46.2-6.68 1-13.62 2.12-20.56 3.3"/>
            <path stroke="#000" d="m998.13-317.27-10.45-1.75 9.26-5.15z"/>
        </g>
        <g class="edge">
            <title>:core:data-api-&gt;:core:model</title>
            <path fill="none" stroke="red" stroke-width="2" d="M1691.13-72.76c-11.7 9.1-26.49 20.6-39.39 30.63"/>
            <path fill="red" stroke="red" stroke-width="2" d="m1655.19-40.38-10.04 3.37 5.74-8.9z"/>
        </g>
        <g class="edge">
            <title>:core:database-&gt;:core:model</title>
            <path fill="none" stroke="#000" d="M2338.76-77.61c-10.11 2.13-20.75 4.14-30.76 5.61-225.83 33.17-496.74 46.35-619.61 50.9"/>
            <path stroke="#000" d="m1688.61-17.6-10.12-3.14 9.86-3.86z"/>
        </g>
        <g class="edge">
            <title>:core:database-&gt;:shared</title>
            <path fill="none" stroke="#000" d="M2397.14-72.05c5.38 8.2 11.97 18.22 17.96 27.34"/>
            <path stroke="#000" d="m2417.89-46.85 2.56 10.28-8.41-6.44z"/>
        </g>
        <g class="edge">
            <title>:feature:settings-core-&gt;:core:common-android</title>
            <path fill="none" stroke="red" stroke-width="2" d="M1189.85-295.67c101.01 12.76 282.05 35.64 390.65 49.36"/>
            <path fill="red" stroke="red" stroke-width="2" d="m1579.26-249.99 9.48 4.72-10.36 2.22z"/>
        </g>
        <g class="edge">
            <title>:feature:settings-core-&gt;:core:common</title>
            <path fill="none" stroke="#000" d="M1057.29-292.24c-38.49 9.68-83.75 24.07-95.29 40.24-9.29 13.03-7.34 21.78 0 36 26.71 51.73 85.8 86.7 128.15 106.21"/>
            <path stroke="#000" d="m1091.44-113.05 7.7 7.27-10.55-.87z"/>
        </g>
        <g class="edge">
            <title>:feature:settings-core-&gt;:core:component</title>
            <path fill="none" stroke="#000" d="M1054.49-292.69C991.47-279.78 900.69-260.25 886-252c-27.81 15.62-52.48 42.82-68.38 63.05"/>
            <path stroke="#000" d="m820.51-186.97-8.84 5.83 3.28-10.07z"/>
        </g>
        <g class="edge">
            <title>:feature:settings-core-&gt;:core:model</title>
            <path fill="none" stroke="#000" d="M1051.18-293.34C975.28-279.58 857.29-257.83 837-252c-175.37 50.41-495.03 48.05-369 180 37.71 39.49 846.61 50.15 1087.13 52.45"/>
            <path stroke="#000" d="m1555-23.05 9.97 3.59-10.03 3.41z"/>
        </g>
        <g class="edge">
            <title>:feature:settings-core-&gt;:shared</title>
            <path fill="none" stroke="#000" d="M1072.18-289.95c-17.27 8.33-35.32 20.6-45.18 37.95-7.91 13.91-9.86 23.4 0 36 81.81 104.61 448.76 123.66 580 144 291.92 45.24 647.73 51.99 775.99 52.9"/>
            <path stroke="#000" d="m2382.83-22.6 9.98 3.56-10.02 3.44z"/>
        </g>
        <g class="edge">
            <title>:feature:settings-core-&gt;:feature:ui-web</title>
            <path fill="none" stroke="#000" d="M1198.78-299.17c124.95 8.98 369.14 27.27 576.22 47.17 26.13 2.51 54.75 5.62 80.03 8.49"/>
            <path stroke="#000" d="m1855.35-247 9.54 4.61-10.33 2.34z"/>
        </g>
        <g class="edge">
            <title>:feature:settings-core-&gt;:core:data</title>
            <path fill="none" stroke="#000" d="M1096.56-288.11c-20.04 19.37-45.72 51.15-25.56 72.11 35.69 37.1 874.63 32.55 926 36 40.77 2.74 86.67 7.15 121.65 10.8"/>
            <path stroke="#000" d="m2118.98-172.69 9.58 4.53-10.31 2.44z"/>
        </g>
        <g class="edge">
            <title>:feature:settings-core-&gt;:core:navigation</title>
            <path fill="none" stroke="#000" d="M1124.65-287.7c3.82 7.63 8.39 16.78 12.65 25.3"/>
            <path stroke="#000" d="m1140.43-263.97 1.34 10.51-7.6-7.38z"/>
        </g>
        <g class="edge">
            <title>:feature:settings-core-&gt;:core:resource</title>
            <path fill="none" stroke="#000" d="M1157.04-289.64c28.92 10.83 67.73 25.36 98.07 36.71"/>
            <path stroke="#000" d="m1256.31-256.22 8.14 6.79-10.6-.23z"/>
        </g>
        <g class="edge">
            <title>:feature:settings-core-&gt;:core:domain</title>
            <path fill="none" stroke="#000" d="M1078.69-289.39c-15.53 8.58-31.96 20.9-40.69 37.39-7.49 14.14-10.97 24.35 0 36 27.95 29.66 612.47 46.39 818.72 51.39"/>
            <path stroke="#000" d="m1856.58-168.11 9.91 3.74-10.08 3.26z"/>
        </g>
        <g class="edge">
            <title>:feature:settings-theme-&gt;:core:common-android</title>
            <path fill="none" stroke="#000" d="M2219.61-293.19c-11.86 1.86-24.08 3.66-35.61 5.19-78.45 10.39-292.89 31.63-418.63 43.83"/>
            <path stroke="#000" d="m1766.04-240.72-10.29-2.51 9.61-4.45z"/>
        </g>
        <g class="edge">
            <title>:feature:settings-theme-&gt;:core:common</title>
            <path fill="none" stroke="#000" d="M2266.95-288.13C2216.85-250.16 2095.1-160.08 2047-144c-77.9 26.04-628.47 44.73-832.86 50.84"/>
            <path stroke="#000" d="m1214.24-89.66-10.1-3.2 9.89-3.79z"/>
        </g>
        <g class="edge">
            <title>:feature:settings-theme-&gt;:core:component</title>
            <path fill="none" stroke="#000" d="M2248.9-289.39c-60.56 23.31-172.76 65.31-214.9 73.39-220.98 42.35-908.55 50.88-1150.08 52.58"/>
            <path stroke="#000" d="m883.96-159.92-10.03-3.43 9.98-3.57z"/>
        </g>
        <g class="edge">
            <title>:feature:settings-theme-&gt;:core:model</title>
            <path fill="none" stroke="#000" d="M2365.9-294.97c25.98 7.47 52.36 20.46 68.1 42.97 9.17 13.11 7.26 21.74 0 36-26.51 52.07-164.41 126.01-220 144-96.23 31.15-392.23 45.67-525.61 50.77"/>
            <path stroke="#000" d="m1688.78-17.75-10.12-3.12 9.86-3.87z"/>
        </g>
        <g class="edge">
            <title>:feature:settings-theme-&gt;:shared</title>
            <path fill="none" stroke="#000" d="M2384.55-304.26c93.5 2.99 226.55 14.08 259.45 52.26 46.89 54.42 27.3 87.86-76 180-25.46 22.71-61.75 36.19-90.45 43.87"/>
            <path stroke="#000" d="m2478.59-24.78-10.55-.96 8.85-5.83z"/>
        </g>
        <g class="edge">
            <title>:feature:settings-theme-&gt;:feature:ui-web</title>
            <path fill="none" stroke="#000" d="M2223.86-292.4c-65.81 12.72-166.87 32.26-232.43 44.94"/>
            <path stroke="#000" d="m1992.39-244.08-10.48-1.54 9.15-5.33z"/>
        </g>
        <g class="edge">
            <title>:feature:settings-theme-&gt;:core:data</title>
            <path fill="none" stroke="#000" d="M2356.25-292.78c22.88 7.72 46.11 20.3 59.75 40.78 8.87 13.32 10.03 23.53 0 36-22.6 28.11-119.74 42.17-183.58 48.5"/>
            <path stroke="#000" d="m2233.1-164.05-10.29-2.53 9.62-4.43z"/>
        </g>
        <g class="edge">
            <title>:feature:settings-theme-&gt;:core:navigation</title>
            <path fill="none" stroke="#000" d="M2221.66-292.84c-12.48 1.89-25.44 3.62-37.66 4.84-421.78 41.95-532.37-16.24-953 36-6.08.75-12.38 1.74-18.65 2.85"/>
            <path stroke="#000" d="m1213.1-245.73-10.48-1.58 9.18-5.3z"/>
        </g>
        <g class="edge">
            <title>:feature:settings-theme-&gt;:core:resource</title>
            <path fill="none" stroke="#000" d="M2221.08-292.96c-12.31 1.88-25.06 3.64-37.08 4.96-273.93 30.06-343.94 19.08-619 36-64.11 3.94-137.02 8.7-189.62 12.17"/>
            <path stroke="#000" d="m1375.86-236.35-10.21-2.83 9.74-4.16z"/>
        </g>
        <g class="edge">
            <title>:feature:settings-theme-&gt;:core:domain</title>
            <path fill="none" stroke="#000" d="M2267.66-288.07c-26.24 20.02-72.83 53.01-117.66 72.07-50.93 21.65-112.37 35.45-157.68 43.53"/>
            <path stroke="#000" d="m1993.1-169.06-10.45-1.74 9.26-5.16z"/>
        </g>
        <g class="edge">
            <title>:feature:settings-notification-&gt;:core:common-android</title>
            <path fill="none" stroke="#000" d="M1986.19-291.75c-67.78 12.16-167.92 30.14-237.26 42.58"/>
            <path stroke="#000" d="m1749.59-245.73-10.46-1.68 9.23-5.21z"/>
        </g>
        <g class="edge">
            <title>:feature:settings-notification-&gt;:core:common</title>
            <path fill="none" stroke="#000" d="M2061.66-287.53c2.12 33.77 1.3 107.81-41.66 143.53-30.77 25.58-597.44 44.68-805.89 50.86"/>
            <path stroke="#000" d="m1214.29-89.64-10.1-3.21 9.9-3.79z"/>
        </g>
        <g class="edge">
            <title>:feature:settings-notification-&gt;:core:component</title>
            <path fill="none" stroke="#000" d="M2054.45-287.63c-7.77 21.12-24.1 55.88-51.45 71.63-48.37 27.86-853.12 46.11-1119.29 51.4"/>
            <path stroke="#000" d="m883.78-161.1-10.06-3.3 9.93-3.7z"/>
        </g>
        <g class="edge">
            <title>:feature:settings-notification-&gt;:core:model</title>
            <path fill="none" stroke="#000" d="M2142-293.05c85.78 12.89 209 32.69 216 41.05 10.28 12.26 7.39 21.81 0 36-51.62 99.06-101.25 105.19-206 144-83.37 30.89-340.54 45.28-463.37 50.53"/>
            <path stroke="#000" d="m1688.83-17.98-10.14-3.08 9.85-3.91z"/>
        </g>
        <g class="edge">
            <title>:feature:settings-notification-&gt;:shared</title>
            <path fill="none" stroke="#000" d="M2143.68-293.3c13.48 1.82 27.28 3.64 40.32 5.3 68.36 8.68 255.95-9.16 308 36 61.76 53.58 79.86 109.77 38 180-11.92 20-34.3 32.91-54.66 40.97"/>
            <path stroke="#000" d="m2476.64-27.78-10.59.13 8.2-6.71z"/>
        </g>
        <g class="edge">
            <title>:feature:settings-notification-&gt;:feature:ui-web</title>
            <path fill="none" stroke="#000" d="M2028.14-288.23c-18.5 9.73-41.96 22.08-61.63 32.44"/>
            <path stroke="#000" d="m1968.14-252.7-10.48 1.56 7.22-7.75z"/>
        </g>
        <g class="edge">
            <title>:feature:settings-notification-&gt;:core:data</title>
            <path fill="none" stroke="#000" d="M2139.25-292.53c80.5 13.05 194.26 32.7 200.75 40.53 35.48 42.82-49.91 68.13-110.62 80.23"/>
            <path stroke="#000" d="m2230.33-168.39-10.48-1.56 9.16-5.32z"/>
        </g>
        <g class="edge">
            <title>:feature:settings-notification-&gt;:core:navigation</title>
            <path fill="none" stroke="#000" d="M1978.74-292.85c-14.22 1.84-28.89 3.55-42.74 4.85-312.37 29.33-393.91-4.73-705 36-5.98.78-12.19 1.78-18.37 2.88"/>
            <path stroke="#000" d="m1213.54-245.73-10.48-1.56 9.17-5.31z"/>
        </g>
        <g class="edge">
            <title>:feature:settings-notification-&gt;:core:resource</title>
            <path fill="none" stroke="#000" d="M1977.37-293.05c-13.8 1.81-27.98 3.57-41.37 5.05-202.88 22.39-443.28 40.11-560.9 48.21"/>
            <path stroke="#000" d="m1375.49-236.31-10.21-2.81 9.73-4.18z"/>
        </g>
        <g class="edge">
            <title>:feature:settings-notification-&gt;:core:domain</title>
            <path fill="none" stroke="#000" d="M2069.5-287.62c9.09 19.25 19.4 50.36 4.5 71.62-17.77 25.36-48.98 38.63-77.99 45.56"/>
            <path stroke="#000" d="m1997.03-167.08-10.51-1.32 9.04-5.52z"/>
        </g>
        <g class="edge">
            <title>:feature:settings-alarm-&gt;:core:common-android</title>
            <path fill="none" stroke="#000" d="M1513.11-289.64c30.01 10.45 69.93 24.35 101.99 35.52"/>
            <path stroke="#000" d="m1615.92-257.54 8.3 6.6-10.6.01z"/>
        </g>
        <g class="edge">
            <title>:feature:settings-alarm-&gt;:core:common</title>
            <path fill="none" stroke="#000" d="M1460.85-287.88c-10.06 19.58-28.82 51.56-52.85 71.88-64.49 54.51-156.7 90.37-214.95 109.18"/>
            <path stroke="#000" d="m1194.26-103.54-10.59-.32 8.48-6.35z"/>
        </g>
        <g class="edge">
            <title>:feature:settings-alarm-&gt;:core:component</title>
            <path fill="none" stroke="#000" d="M1452.31-288.05c-24.41 24.63-67.99 67.83-77.31 72.05-85.49 38.68-353.09 49.13-491.38 51.95"/>
            <path stroke="#000" d="m883.85-160.55-10.07-3.3 9.93-3.7z"/>
        </g>
        <g class="edge">
            <title>:feature:settings-alarm-&gt;:core:model</title>
            <path fill="none" stroke="#000" d="M1474.13-287.54c12.34 40.31 46.39 142.03 95.87 215.54 6.98 10.37 16.14 20.49 24.82 29.07"/>
            <path stroke="#000" d="m1596.98-45.71 4.83 9.43-9.65-4.36z"/>
        </g>
        <g class="edge">
            <title>:feature:settings-alarm-&gt;:shared</title>
            <path fill="none" stroke="#000" d="M1481.2-287.66C1518.51-234.72 1629.29-78.41 1641-72c64.95 35.56 579.71 48.79 742.1 52.1"/>
            <path stroke="#000" d="m2382.73-23.41 9.93 3.7-10.07 3.3z"/>
        </g>
        <g class="edge">
            <title>:feature:settings-alarm-&gt;:feature:ui-web</title>
            <path fill="none" stroke="#000" d="M1547.22-295.56C1623.64-285.97 1743.13-270 1846-252c6.35 1.11 12.96 2.35 19.54 3.65"/>
            <path stroke="#000" d="m1865.95-251.84 9.11 5.41-10.49 1.45z"/>
        </g>
        <g class="edge">
            <title>:feature:settings-alarm-&gt;:core:data</title>
            <path fill="none" stroke="#000" d="M1546.29-295.31c93.19 12.05 240.27 32.35 263.71 43.31 21.97 10.27 19.07 25.64 41 36 46.3 21.87 187.19 39.15 267.1 47.51"/>
            <path stroke="#000" d="m2118.34-171.99 9.59 4.51-10.31 2.46z"/>
        </g>
        <g class="edge">
            <title>:feature:settings-alarm-&gt;:core:navigation</title>
            <path fill="none" stroke="#000" d="M1408.81-291.75c-55.62 12.24-137.97 30.37-194.55 42.83"/>
            <path stroke="#000" d="m1215.3-245.57-10.52-1.27 9.01-5.57z"/>
        </g>
        <g class="edge">
            <title>:feature:settings-alarm-&gt;:core:resource</title>
            <path fill="none" stroke="#000" d="M1431.33-289.12c-24.8 10.46-57.39 24.21-83.52 35.23"/>
            <path stroke="#000" d="m1349.38-250.76-10.58.66 7.86-7.11z"/>
        </g>
        <g class="edge">
            <title>:feature:settings-alarm-&gt;:core:domain</title>
            <path fill="none" stroke="#000" d="M1542.36-294.34c83.73 12.49 211.85 32.7 232.64 42.34 22.61 10.49 22.06 22.49 43 36 20.48 13.21 44.75 25.25 65.27 34.5"/>
            <path stroke="#000" d="m1884.51-184.78 7.73 7.24-10.56-.84z"/>
        </g>
        <g class="edge">
            <title>:feature:settings-device-&gt;:core:common-android</title>
            <path fill="none" stroke="#000" d="M1793.29-288.94c-22.58 9.88-51.75 22.64-76.05 33.27"/>
            <path stroke="#000" d="m1718.76-252.51-10.56.8 7.76-7.22z"/>
        </g>
        <g class="edge">
            <title>:feature:settings-device-&gt;:core:common</title>
            <path fill="none" stroke="#000" d="M1903.26-293.88c47.18 8.83 102.3 22.86 116.74 41.88 19.94 26.26-16.67 103.07-23 108-30.66 23.88-578.92 43.95-783.16 50.63"/>
            <path stroke="#000" d="m1214.26-89.88-10.11-3.17 9.88-3.83z"/>
        </g>
        <g class="edge">
            <title>:feature:settings-device-&gt;:core:component</title>
            <path fill="none" stroke="#000" d="M1764.28-292.39c-53.69 10.43-131.5 25.84-199.28 40.39-69.99 15.02-86.28 24.87-157 36-186.69 29.38-408.32 43.53-525.95 49.42"/>
            <path stroke="#000" d="m882.32-163.08-10.16-3.01 9.81-3.99z"/>
        </g>
        <g class="edge">
            <title>:feature:settings-device-&gt;:core:model</title>
            <path fill="none" stroke="#000" d="M1900.95-293.35c11.7 1.84 23.71 3.69 35.05 5.35 60.11 8.81 224.17-2.7 271 36 37.91 31.32 50.98 66.89 24 108-59.17 90.16-397.07 115.73-542.47 122.61"/>
            <path stroke="#000" d="m1688.81-17.9-10.15-3.04 9.83-3.95z"/>
        </g>
        <g class="edge">
            <title>:feature:settings-device-&gt;:shared</title>
            <path fill="none" stroke="#000" d="M1900.64-293.27c11.8 1.84 23.92 3.67 35.36 5.27 132.99 18.64 172.91-7.39 300 36 118.08 40.32 179.42 35.48 241 144 12.34 21.74-3.55 47.27-19.76 65.39"/>
            <path stroke="#000" d="m2459.86-40.28-9.43 4.83 4.36-9.65z"/>
        </g>
        <g class="edge">
            <title>:feature:settings-device-&gt;:feature:ui-web</title>
            <path fill="none" stroke="#000" d="M1853.48-288.05c12.57 9.07 28.24 20.37 41.87 30.21"/>
            <path stroke="#000" d="m1897.11-260.88 6.07 8.69-10.16-3.02z"/>
        </g>
        <g class="edge">
            <title>:feature:settings-device-&gt;:core:data</title>
            <path fill="none" stroke="#000" d="M1901.25-293.4c11.61 1.84 23.51 3.7 34.75 5.4 55.93 8.48 214.94-6.73 252 36 14.52 16.74 8.94 42.28 1.09 61.71"/>
            <path stroke="#000" d="m2192.36-189.03-7.27 7.71.88-10.56z"/>
        </g>
        <g class="edge">
            <title>:feature:settings-device-&gt;:core:navigation</title>
            <path fill="none" stroke="#000" d="M1741.1-298.46c-142.11 10.67-414.21 32.08-510.1 46.46-5.88.88-11.98 1.93-18.06 3.07"/>
            <path stroke="#000" d="m1214.02-245.58-10.49-1.52 9.15-5.35z"/>
        </g>
        <g class="edge">
            <title>:feature:settings-device-&gt;:core:resource</title>
            <path fill="none" stroke="#000" d="M1752.81-294.75c-103.13 13.7-284.21 37.75-382.22 50.77"/>
            <path stroke="#000" d="m1371.23-240.53-10.38-2.15 9.45-4.79z"/>
        </g>
        <g class="edge">
            <title>:feature:settings-device-&gt;:core:domain</title>
            <path fill="none" stroke="#000" d="M1897.71-292.81c42.78 9.24 92.36 23.32 105.29 40.81 9.51 12.86 7.36 21.79 0 36-7.07 13.65-19.45 24.54-32.14 32.81"/>
            <path stroke="#000" d="m1972.84-180.31-10.37 2.15 6.77-8.15z"/>
        </g>
        <g class="edge">
            <title>:feature:settings-admin-&gt;:core:common-android</title>
            <path fill="none" stroke="#000" d="M795.49-292.93c12.14 1.86 24.67 3.6 36.51 4.93 71.3 8.01 528.56 35.05 735.97 47.11"/>
            <path stroke="#000" d="m1567.87-244.41 9.78 4.08-10.19 2.91z"/>
        </g>
        <g class="edge">
            <title>:feature:settings-admin-&gt;:core:common</title>
            <path fill="none" stroke="#000" d="M716.31-287.99C697.49-255.66 663.72-184.94 700-144c23.62 26.66 244.14 42.56 362.96 49.26"/>
            <path stroke="#000" d="m1062.83-98.25 9.79 4.04-10.17 2.94z"/>
        </g>
        <g class="edge">
            <title>:feature:settings-admin-&gt;:core:component</title>
            <path fill="none" stroke="#000" d="M712.7-287.99c-13.82 18.63-30.76 48.94-16.7 71.99 9.98 16.36 26.8 27.88 43.99 35.91"/>
            <path stroke="#000" d="m740.9-183.51 7.81 7.15-10.57-.72z"/>
        </g>
        <g class="edge">
            <title>:feature:settings-admin-&gt;:core:model</title>
            <path fill="none" stroke="#000" d="M635.57-299.98C474.27-290.69 154.54-270.09 138-252c-10.79 11.81-6.93 21.58 0 36 44.83 93.28 85.77 108.54 183 144 116.15 42.37 983.95 51.03 1233.85 52.65"/>
            <path stroke="#000" d="m1554.79-22.85 9.97 3.56-10.02 3.44z"/>
        </g>
        <g class="edge">
            <title>:feature:settings-admin-&gt;:shared</title>
            <path fill="none" stroke="#000" d="M637.48-298.94C493.03-288.73 223.16-267.68 209-252c-10.72 11.88-9.7 23.28 0 36C355.72-23.61 494.75-108.03 734-72c83.56 12.58 1378.78 45.12 1648.88 51.79"/>
            <path stroke="#000" d="m2382.81-23.71 9.91 3.75-10.08 3.25z"/>
        </g>
        <g class="edge">
            <title>:feature:settings-admin-&gt;:feature:ui-web</title>
            <path fill="none" stroke="#000" d="M794.62-292.8c12.4 1.88 25.25 3.59 37.38 4.8 417.35 41.59 524.76 4.67 943 36 26.64 2 55.82 5.05 81.43 8.02"/>
            <path stroke="#000" d="m1856.51-247.49 9.53 4.64-10.35 2.31z"/>
        </g>
        <g class="edge">
            <title>:feature:settings-admin-&gt;:core:data</title>
            <path fill="none" stroke="#000" d="M762.98-289.01C812.66-267.82 905.61-231.31 989-216c220.46 40.48 784.34 21.34 1008 36 40.77 2.67 86.67 7.09 121.65 10.75"/>
            <path stroke="#000" d="m2118.99-172.73 9.57 4.53-10.31 2.43z"/>
        </g>
        <g class="edge">
            <title>:feature:settings-admin-&gt;:core:navigation</title>
            <path fill="none" stroke="#000" d="M797.49-293.36c78.89 13.02 205.9 33.99 284.28 46.93"/>
            <path stroke="#000" d="m1082.18-249.91 9.29 5.08-10.43 1.83z"/>
        </g>
        <g class="edge">
            <title>:feature:settings-admin-&gt;:core:resource</title>
            <path fill="none" stroke="#000" d="M796.09-293.1c11.95 1.85 24.28 3.64 35.91 5.1 176.66 22.24 223.25 7.47 399 36 4.98.81 10.14 1.77 15.28 2.82"/>
            <path stroke="#000" d="m1246.97-252.61 9.04 5.52-10.51 1.32z"/>
        </g>
        <g class="edge">
            <title>:feature:settings-admin-&gt;:core:domain</title>
            <path fill="none" stroke="#000" d="M730.28-287.77c5 20.98 16.72 55.59 41.72 71.77 45.64 29.53 840.43 47.01 1084.98 51.71"/>
            <path stroke="#000" d="m1856.76-167.8 9.93 3.69-10.06 3.31z"/>
        </g>
        <g class="edge">
            <title>:feature:settings-lab-&gt;:core:common-android</title>
            <path fill="none" stroke="#000" d="M985.39-293.06c10.83 1.89 22.03 3.67 32.61 5.06 192.91 25.41 419.64 40.55 548.52 47.78"/>
            <path stroke="#000" d="m1566.61-243.72 9.79 4.05-10.18 2.94z"/>
        </g>
        <g class="edge">
            <title>:feature:settings-lab-&gt;:core:common</title>
            <path fill="none" stroke="#000" d="M877.37-290.79C799.75-265.33 660.06-208.56 717-144c22.49 25.5 231.46 41.78 346.27 48.88"/>
            <path stroke="#000" d="m1063.14-98.63 9.77 4.1-10.19 2.88z"/>
        </g>
        <g class="edge">
            <title>:feature:settings-lab-&gt;:core:component</title>
            <path fill="none" stroke="#000" d="M869.67-292.11c-21.95 7.94-45.34 20.5-59.67 40.11-12.58 17.22-14.85 41.5-14.24 60.35"/>
            <path stroke="#000" d="m799.26-191.89-2.85 10.2-4.14-9.75z"/>
        </g>
        <g class="edge">
            <title>:feature:settings-lab-&gt;:core:model</title>
            <path fill="none" stroke="#000" d="M865.13-292.94c-10.98 1.9-22.37 3.65-33.13 4.94-68.85 8.25-575.41-14.42-623 36-10.98 11.64-7.75 22 0 36 58.42 105.51 114.86 108.12 230 144 106.46 33.18 882.18 48.19 1116.29 51.99"/>
            <path stroke="#000" d="m1555.22-23.51 9.94 3.66-10.05 3.34z"/>
        </g>
        <g class="edge">
            <title>:feature:settings-lab-&gt;:shared</title>
            <path fill="none" stroke="#000" d="M866.88-292.63C811.36-280.34 734.59-261.94 724-252c-35.86 33.64-55.21 70.01-24 108 104.69 127.42 200.22 52.75 364 72 263.24 30.94 1106.15 48.2 1318.88 52.13"/>
            <path stroke="#000" d="m2382.82-23.37 9.93 3.68-10.06 3.32z"/>
        </g>
        <g class="edge">
            <title>:feature:settings-lab-&gt;:feature:ui-web</title>
            <path fill="none" stroke="#000" d="M984.36-292.93c11.14 1.92 22.71 3.68 33.64 4.93 334.63 38.37 421.24 9.27 757 36 26.4 2.1 55.29 5.15 80.74 8.08"/>
            <path stroke="#000" d="m1856.14-247.4 9.52 4.64-10.34 2.31z"/>
        </g>
        <g class="edge">
            <title>:feature:settings-lab-&gt;:core:data</title>
            <path fill="none" stroke="#000" d="M943.36-288.05c24.48 21.37 70.13 57.12 116.64 72.05 99.2 31.85 833.04 29.04 937 36 40.77 2.73 86.67 7.14 121.65 10.79"/>
            <path stroke="#000" d="m2118.98-172.69 9.58 4.53-10.31 2.43z"/>
        </g>
        <g class="edge">
            <title>:feature:settings-lab-&gt;:core:navigation</title>
            <path fill="none" stroke="#000" d="M971.55-290.58c36.23 11.22 86.58 26.81 124.73 38.63"/>
            <path stroke="#000" d="m1097.23-255.32 8.52 6.3-10.59.39z"/>
        </g>
        <g class="edge">
            <title>:feature:settings-lab-&gt;:core:resource</title>
            <path fill="none" stroke="#000" d="M987.26-293.5c10.27 1.86 20.8 3.75 30.74 5.5 94.56 16.63 118.9 16.96 213 36 4.6.93 9.36 1.94 14.13 2.99"/>
            <path stroke="#000" d="m1245.77-252.45 8.99 5.61-10.53 1.22z"/>
        </g>
        <g class="edge">
            <title>:feature:settings-lab-&gt;:core:domain</title>
            <path fill="none" stroke="#000" d="M918.5-287.71c-6.28 20.05-12.47 52.76 5.5 71.71 32.05 33.78 708.41 48.07 932.55 51.89"/>
            <path stroke="#000" d="m1856.38-167.61 9.94 3.67-10.06 3.33z"/>
        </g>
    </g>
</svg>
