<svg xmlns="http://www.w3.org/2000/svg" width="533pt" height="260pt" viewBox="0 0 533.05 260">
    <g class="graph">
        <path fill="#fff" d="M0 260V0h533.05v260z"/>
        <g class="node" transform="translate(4 256)">
            <ellipse cx="173.27" cy="-234" fill="none" stroke="#000" rx="59.54" ry="18"/>
            <text x="173.27" y="-228.95" font-family="Times,serif" font-size="14" text-anchor="middle">:app-arducon</text>
        </g>
        <g class="node" transform="translate(4 256)">
            <ellipse cx="155.27" cy="-18" fill="none" stroke="#000" rx="65.17" ry="18"/>
            <text x="155.27" y="-12.95" font-family="Times,serif" font-size="14" text-anchor="middle">:core:common</text>
        </g>
        <g stroke="#000" class="edge">
            <path fill="none" d="M143.08 37.04C102.81 55.67 37.91 92.78 10.27 148c-7.16 14.31-9.22 22.93 0 36 17.55 24.86 47.83 38.13 76.54 45.19"/>
            <path d="m87.21 225.69 9.01 5.58-10.52 1.26z"/>
        </g>
        <g class="node" transform="translate(4 256)">
            <ellipse cx="99.27" cy="-90" fill="none" stroke="#000" rx="84.11" ry="18"/>
            <text x="99.27" y="-84.95" font-family="Times,serif" font-size="14" text-anchor="middle">:core:compose-core</text>
        </g>
        <g stroke="#000" class="edge">
            <path fill="none" d="M168.35 40.13c-12.61 24.2-35.78 68.66-50.8 97.48"/>
            <path d="m120.66 139.22-7.73 7.25 1.52-10.49z"/>
        </g>
        <g class="node" transform="translate(4 256)">
            <ellipse cx="256.27" cy="-162" fill="none" stroke="#000" rx="47.26" ry="18"/>
            <text x="256.27" y="-156.95" font-family="Times,serif" font-size="14" text-anchor="middle">:core:data</text>
        </g>
        <g stroke="red" stroke-width="2" class="edge">
            <path fill="none" d="M196.52 39.24c10.77 9.07 24.36 20.54 36.23 30.55"/>
            <path fill="red" d="m233.71 66.02 5.39 9.12-9.9-3.77z"/>
        </g>
        <g class="node" transform="translate(4 256)">
            <ellipse cx="392.27" cy="-162" fill="none" stroke="#000" rx="70.8" ry="18"/>
            <text x="392.27" y="-156.95" font-family="Times,serif" font-size="14" text-anchor="middle">:core:navigation</text>
        </g>
        <g stroke="#000" class="edge">
            <path fill="none" d="M217.19 35.76c35.18 11.24 86.73 27.72 125.5 40.11"/>
            <path d="m343.36 72.41 8.46 6.38-10.59.29z"/>
        </g>
        <g stroke="#000" class="edge">
            <path fill="none" d="M116.83 183.95c6.6 8.25 14.68 18.35 22.01 27.51"/>
            <path d="m141.38 209.03 3.52 10-8.98-5.62z"/>
        </g>
        <g stroke="#000" class="edge">
            <path fill="none" d="M248.29 111.85c-17.46 24.55-50.06 70.38-70.59 99.24"/>
            <path d="m180.77 212.82-8.65 6.12 2.94-10.18z"/>
        </g>
        <g class="node" transform="translate(4 256)">
            <ellipse cx="445.27" cy="-90" fill="none" stroke="#000" rx="63.63" ry="18"/>
            <text x="445.27" y="-84.95" font-family="Times,serif" font-size="14" text-anchor="middle">:core:database</text>
        </g>
        <g stroke="red" stroke-width="2" class="edge">
            <path fill="none" d="M293.2 107.19c29.87 11.07 74.28 27.51 108.09 40.04"/>
            <path fill="red" d="m400.87 143.34 8.16 6.76-10.59-.2z"/>
        </g>
        <g class="node" transform="translate(4 256)">
            <ellipse cx="445.27" cy="-18" fill="none" stroke="#000" rx="55.45" ry="18"/>
            <text x="445.27" y="-12.95" font-family="Times,serif" font-size="14" text-anchor="middle">:core:model</text>
        </g>
        <g stroke="#000" class="edge">
            <path fill="none" d="M295.35 106.36c6.89 2.03 14.1 4.02 20.92 5.64 45.21 10.77 176.11.42 206 36 10.3 12.25 7.27 21.75 0 36-6.97 13.68-19.3 24.65-31.87 32.98"/>
            <path d="m492.47 219.82-10.35 2.23 6.7-8.2z"/>
        </g>
        <g class="node" transform="translate(4 256)">
            <ellipse cx="301.27" cy="-90" fill="none" stroke="#000" rx="62.1" ry="18"/>
            <text x="301.27" y="-84.95" font-family="Times,serif" font-size="14" text-anchor="middle">:core:network</text>
        </g>
        <g stroke="#000" class="edge">
            <path fill="none" d="M271.17 111.95c5.14 7.99 11.39 17.72 17.13 26.65"/>
            <path d="m291.2 136.63 2.46 10.31-8.35-6.52z"/>
        </g>
        <g stroke="red" stroke-width="2" class="edge">
            <path fill="none" d="M449.27 184.3v24.16"/>
            <path fill="red" d="m452.77 206.87-3.5 10-3.5-10z"/>
        </g>
        <g stroke="#000" class="edge">
            <path fill="none" d="M273.95 182.02c-21.29 10.2-49.69 23.82-72.9 34.95"/>
            <path d="m202.69 220.07-10.53 1.16 7.5-7.48z"/>
        </g>
        <g stroke="#000" class="edge">
            <path fill="none" d="M336.17 182.02c21.35 10.38 49.96 24.29 73.07 35.52"/>
            <path d="m410.59 214.31 7.47 7.52-10.53-1.23z"/>
        </g>
    </g>
</svg>
