<svg xmlns="http://www.w3.org/2000/svg" width="424pt" height="260pt" viewBox="0 0 423.96 260">
    <g class="graph">
        <path fill="#fff" d="M0 260V0h423.96v260z"/>
        <g class="node" transform="translate(4 256)">
            <ellipse cx="101.6" cy="-234" fill="none" stroke="#000" rx="59.54" ry="18"/>
            <text x="101.6" y="-228.95" font-family="Times,serif" font-size="14" text-anchor="middle">:app-arducon</text>
        </g>
        <g class="node" transform="translate(4 256)">
            <ellipse cx="83.6" cy="-18" fill="none" stroke="#000" rx="65.17" ry="18"/>
            <text x="83.6" y="-12.95" font-family="Times,serif" font-size="14" text-anchor="middle">:core:common</text>
        </g>
        <g stroke="#000" class="edge">
            <path fill="none" d="M64.71 35.45C45.29 43.65 23.9 56.56 12.6 76c-27.02 46.5 17.59 104.37 48.77 136.53"/>
            <path d="m63.68 209.9 4.59 9.54-9.54-4.59z"/>
        </g>
        <g class="node" transform="translate(4 256)">
            <ellipse cx="101.6" cy="-162" fill="none" stroke="#000" rx="84.11" ry="18"/>
            <text x="101.6" y="-156.95" font-family="Times,serif" font-size="14" text-anchor="middle">:core:compose-core</text>
        </g>
        <g stroke="#000" class="edge">
            <path fill="none" d="M105.6 40.3v24.16"/>
            <path d="m109.1 64.38-3.5 10-3.5-10z"/>
        </g>
        <g class="node" transform="translate(4 256)">
            <ellipse cx="250.6" cy="-162" fill="none" stroke="#000" rx="47.26" ry="18"/>
            <text x="250.6" y="-156.95" font-family="Times,serif" font-size="14" text-anchor="middle">:core:data</text>
        </g>
        <g stroke="red" stroke-width="2" class="edge">
            <path fill="none" d="M136.83 37.67c22.9 10.76 54.14 25.44 78.69 36.97"/>
            <path fill="red" d="m215.63 70.82 7.56 7.42-10.54-1.08z"/>
        </g>
        <g stroke="#000" class="edge">
            <path fill="none" d="M100.57 112.03c-2.83 10.31-6.15 23.79-7.97 35.97-2.98 19.93-4.22 42.6-4.72 60.08"/>
            <path d="M91.38 208.07 87.66 218l-3.28-10.08z"/>
        </g>
        <g stroke="#000" class="edge">
            <path fill="none" d="M218.97 106.24c-33.22 11.07-79.67 28.24-93.37 41.76-16.72 16.49-26.51 41.51-31.95 60.82"/>
            <path d="m97.11 209.42-5.88 8.82-.91-10.56z"/>
        </g>
        <g class="node" transform="translate(4 256)">
            <ellipse cx="336.6" cy="-90" fill="none" stroke="#000" rx="63.63" ry="18"/>
            <text x="336.6" y="-84.95" font-family="Times,serif" font-size="14" text-anchor="middle">:core:database</text>
        </g>
        <g stroke="red" stroke-width="2" class="edge">
            <path fill="none" d="M274.11 110.88c11.17 9.09 25.38 20.66 37.8 30.77"/>
            <path fill="red" d="m312.67 137.75 5.55 9.03-9.97-3.6z"/>
        </g>
        <g class="node" transform="translate(4 256)">
            <ellipse cx="336.6" cy="-18" fill="none" stroke="#000" rx="55.45" ry="18"/>
            <text x="336.6" y="-12.95" font-family="Times,serif" font-size="14" text-anchor="middle">:core:model</text>
        </g>
        <g stroke="#000" class="edge">
            <path fill="none" d="M301.8 96.64c37.08 4.09 86.53 16.31 111.8 51.36 9.35 12.98 7.27 21.75 0 36-6.97 13.68-19.31 24.65-31.88 32.98"/>
            <path d="m383.8 219.82-10.36 2.23 6.7-8.2z"/>
        </g>
        <g class="node" transform="translate(4 256)">
            <ellipse cx="192.6" cy="-90" fill="none" stroke="#000" rx="62.1" ry="18"/>
            <text x="192.6" y="-84.95" font-family="Times,serif" font-size="14" text-anchor="middle">:core:network</text>
        </g>
        <g stroke="#000" class="edge">
            <path fill="none" d="M240.85 111.59c-6.83 8.25-15.24 18.4-22.89 27.63"/>
            <path d="m220.69 141.41-9.08 5.47 3.69-9.93z"/>
        </g>
        <g stroke="red" stroke-width="2" class="edge">
            <path fill="none" d="M340.6 184.3v24.16"/>
            <path fill="red" d="m344.1 206.87-3.5 10-3.5-10z"/>
        </g>
        <g stroke="#000" class="edge">
            <path fill="none" d="M171.86 182.88c-14.66 9.42-33.48 21.51-49.61 31.87"/>
            <path d="m124.19 217.66-10.3 2.46 6.52-8.35z"/>
        </g>
        <g stroke="#000" class="edge">
            <path fill="none" d="M227.49 182.02c21.36 10.38 49.97 24.29 73.07 35.52"/>
            <path d="m301.92 214.31 7.46 7.52-10.52-1.23z"/>
        </g>
    </g>
</svg>
