<svg xmlns="http://www.w3.org/2000/svg" width="1128" height="260pt" viewBox="0 0 846.21 260">
    <g class="graph">
        <path fill="#fff" d="M0 260V0h846.21v260z"/>
        <g class="node" transform="translate(4 256)">
            <ellipse cx="491.11" cy="-234" fill="none" stroke="#000" rx="59.54" ry="18"/>
            <text x="491.11" y="-228.95" font-family="Times,serif" font-size="14" text-anchor="middle">:app-arducon</text>
        </g>
        <g class="node" transform="translate(4 256)">
            <ellipse cx="290.11" cy="-162" fill="none" stroke="#000" rx="96.39" ry="18"/>
            <text x="290.11" y="-156.95" font-family="Times,serif" font-size="14" text-anchor="middle">:core:common-android</text>
        </g>
        <g stroke="#000" class="edge">
            <path fill="none" d="M457.3 36.17c-30.48 10.61-73.76 25.68-108.09 37.64"/>
            <path d="m350.43 77.09-10.6-.01 8.29-6.6z"/>
        </g>
        <g class="node" transform="translate(4 256)">
            <ellipse cx="84.11" cy="-90" fill="none" stroke="#000" rx="84.11" ry="18"/>
            <text x="84.11" y="-84.95" font-family="Times,serif" font-size="14" text-anchor="middle">:core:compose-core</text>
        </g>
        <g stroke="#000" class="edge">
            <path fill="none" d="M435.55 23.82c-63.86 3-166.83 14.02-246.44 52.18-31.4 15.05-60.45 42.71-79.26 63.22"/>
            <path d="m112.48 141.54-9.27 5.12 4.04-9.79z"/>
        </g>
        <g class="node" transform="translate(4 256)">
            <ellipse cx="491.11" cy="-162" fill="none" stroke="#000" rx="47.26" ry="18"/>
            <text x="491.11" y="-156.95" font-family="Times,serif" font-size="14" text-anchor="middle">:core:data</text>
        </g>
        <g stroke="red" stroke-width="2" class="edge">
            <path fill="none" d="M495.11 40.3v24.16"/>
            <path fill="red" d="m498.61 62.87-3.5 10-3.5-10z"/>
        </g>
        <g class="node" transform="translate(4 256)">
            <ellipse cx="627.11" cy="-162" fill="none" stroke="#000" rx="70.8" ry="18"/>
            <text x="627.11" y="-156.95" font-family="Times,serif" font-size="14" text-anchor="middle">:core:navigation</text>
        </g>
        <g stroke="#000" class="edge">
            <path fill="none" d="M524.28 38.02c19.45 10.01 45.28 23.3 66.66 34.31"/>
            <path d="m592.4 69.14 7.29 7.69-10.49-1.46z"/>
        </g>
        <g class="node" transform="translate(4 256)">
            <ellipse cx="754.11" cy="-162" fill="none" stroke="#000" rx="38.56" ry="18"/>
            <text x="754.11" y="-156.95" font-family="Times,serif" font-size="14" text-anchor="middle">:widget</text>
        </g>
        <g stroke="#000" class="edge">
            <path fill="none" d="M542.69 33.15C586.72 42.89 653.82 58.67 711.11 76c2.36.71 4.78 1.48 7.21 2.28"/>
            <path d="m719.17 74.87 8.33 6.54-10.59.08z"/>
        </g>
        <g stroke="#000" class="edge">
            <path fill="none" d="M248.9 110.36c-31.39 10.67-73.37 24.93-106.56 36.21"/>
            <path d="m143.47 149.88-10.59-.09 8.34-6.53z"/>
        </g>
        <g class="node" transform="translate(4 256)">
            <ellipse cx="251.11" cy="-90" fill="none" stroke="#000" rx="65.17" ry="18"/>
            <text x="251.11" y="-84.95" font-family="Times,serif" font-size="14" text-anchor="middle">:core:common</text>
        </g>
        <g stroke="#000" class="edge">
            <path fill="none" d="M284.47 112.3c-4.3 7.72-9.47 16.99-14.26 25.59"/>
            <path d="m273.3 139.54-7.93 7.03 1.81-10.44z"/>
        </g>
        <g class="node" transform="translate(4 256)">
            <ellipse cx="372.11" cy="-90" fill="none" stroke="#000" rx="37.53" ry="18"/>
            <text x="372.11" y="-84.95" font-family="Times,serif" font-size="14" text-anchor="middle">:shared</text>
        </g>
        <g stroke="#000" class="edge">
            <path fill="none" d="M313.96 111.95c10.8 9.22 24.3 20.74 35.95 30.69"/>
            <path d="m351.91 139.74 5.33 9.16-9.88-3.83z"/>
        </g>
        <g class="node" transform="translate(4 256)">
            <ellipse cx="491.11" cy="-90" fill="none" stroke="#000" rx="63.63" ry="18"/>
            <text x="491.11" y="-84.95" font-family="Times,serif" font-size="14" text-anchor="middle">:core:database</text>
        </g>
        <g stroke="red" stroke-width="2" class="edge">
            <path fill="none" d="M495.11 112.3v24.16"/>
            <path fill="red" d="m498.61 134.87-3.5 10-3.5-10z"/>
        </g>
        <g class="node" transform="translate(4 256)">
            <ellipse cx="634.11" cy="-90" fill="none" stroke="#000" rx="61.59" ry="18"/>
            <text x="634.11" y="-84.95" font-family="Times,serif" font-size="14" text-anchor="middle">:core:data-api</text>
        </g>
        <g stroke="#000" class="edge">
            <path fill="none" d="M523.36 108.83c21.13 10.34 50.33 24.64 73.98 36.22"/>
            <path d="m598.64 141.78 7.44 7.54-10.52-1.25z"/>
        </g>
        <g class="node" transform="translate(4 256)">
            <ellipse cx="776.11" cy="-90" fill="none" stroke="#000" rx="62.1" ry="18"/>
            <text x="776.11" y="-84.95" font-family="Times,serif" font-size="14" text-anchor="middle">:core:network</text>
        </g>
        <g stroke="#000" class="edge">
            <path fill="none" d="M530.85 106.26c6.71 2 13.68 3.99 20.26 5.74 69.61 18.47 87.86 19.61 158 36 4.32 1.01 8.78 2.06 13.27 3.12"/>
            <path d="m723.14 147.7 8.92 5.72-10.54 1.1z"/>
        </g>
        <g class="node" transform="translate(4 256)">
            <ellipse cx="562.11" cy="-18" fill="none" stroke="#000" rx="55.45" ry="18"/>
            <text x="562.11" y="-12.95" font-family="Times,serif" font-size="14" text-anchor="middle">:core:model</text>
        </g>
        <g stroke="red" stroke-width="2" class="edge">
            <path fill="none" d="M511.93 183.59c8.76 8.63 19.63 19.35 29.33 28.91"/>
            <path fill="red" d="m542.58 208.89 4.67 9.51-9.58-4.52z"/>
        </g>
        <g stroke="#000" class="edge">
            <path fill="none" d="M621.04 183.59c-8.96 8.72-20.12 19.56-30.03 29.2"/>
            <path d="m593.74 215.01-9.61 4.46 4.73-9.48z"/>
        </g>
    </g>
</svg>
