<svg xmlns="http://www.w3.org/2000/svg" width="829pt" height="260pt" viewBox="0 0 829 260">
    <g class="graph">
        <path fill="#fff" d="M0 260V0h829.27v260z"/>
        <g class="node" transform="translate(4 256)">
            <ellipse cx="542.17" cy="-234" fill="none" stroke="#000" rx="59.54" ry="18"/>
            <text xml:space="preserve" x="542.17" y="-228.95" font-family="Times,serif" font-size="14" text-anchor="middle">:app-arducon</text>
        </g>
        <g class="node" transform="translate(4 256)">
            <ellipse cx="272.17" cy="-162" fill="none" stroke="#000" rx="96.39" ry="18"/>
            <text xml:space="preserve" x="272.17" y="-156.95" font-family="Times,serif" font-size="14" text-anchor="middle">:core:common-android</text>
        </g>
        <g stroke="#000" class="edge">
            <path fill="none" d="M501.89 34.48c-43.54 11.29-110.5 28.65-160.19 41.53"/>
            <path d="m342.76 79.35-10.56-.88 8.8-5.89z"/>
        </g>
        <g class="node" transform="translate(4 256)">
            <ellipse cx="474.17" cy="-162" fill="none" stroke="#000" rx="47.26" ry="18"/>
            <text xml:space="preserve" x="474.17" y="-156.95" font-family="Times,serif" font-size="14" text-anchor="middle">:core:data</text>
        </g>
        <g stroke="red" stroke-width="2" class="edge">
            <path fill="none" d="M530.06 39.59c-8.51 8.75-19.1 19.66-28.5 29.33"/>
            <path fill="red" d="m505.29 70.11-9.48 4.73 4.46-9.61z"/>
        </g>
        <g class="node" transform="translate(4 256)">
            <ellipse cx="610.17" cy="-162" fill="none" stroke="#000" rx="70.8" ry="18"/>
            <text xml:space="preserve" x="610.17" y="-156.95" font-family="Times,serif" font-size="14" text-anchor="middle">:core:navigation</text>
        </g>
        <g stroke="#000" class="edge">
            <path fill="none" d="M562.29 39.59c8.17 8.42 18.28 18.83 27.4 28.21"/>
            <path d="m592.19 65.35 4.45 9.61-9.47-4.74z"/>
        </g>
        <g class="node" transform="translate(4 256)">
            <ellipse cx="737.17" cy="-162" fill="none" stroke="#000" rx="38.56" ry="18"/>
            <text xml:space="preserve" x="737.17" y="-156.95" font-family="Times,serif" font-size="14" text-anchor="middle">:widget</text>
        </g>
        <g stroke="#000" class="edge">
            <path fill="none" d="M583.59 36.36c29.93 10.7 72.96 26.1 110.58 39.64 2.08.75 4.22 1.52 6.37 2.29"/>
            <path d="m701.7 74.99 8.22 6.69-10.6-.1z"/>
        </g>
        <g class="node" transform="translate(4 256)">
            <ellipse cx="65.17" cy="-90" fill="none" stroke="#000" rx="65.17" ry="18"/>
            <text xml:space="preserve" x="65.17" y="-84.95" font-family="Times,serif" font-size="14" text-anchor="middle">:core:common</text>
        </g>
        <g stroke="#000" class="edge">
            <path fill="none" d="m231 110.28-111.02 37.54"/>
            <path d="m121.37 151.04-10.59-.11 8.35-6.52z"/>
        </g>
        <g class="node" transform="translate(4 256)">
            <ellipse cx="232.17" cy="-90" fill="none" stroke="#000" rx="84.11" ry="18"/>
            <text xml:space="preserve" x="232.17" y="-84.95" font-family="Times,serif" font-size="14" text-anchor="middle">:core:compose-core</text>
        </g>
        <g stroke="#000" class="edge">
            <path fill="none" d="M266.28 112.3c-4.45 7.8-9.82 17.19-14.78 25.87"/>
            <path d="m254.7 139.64-8 6.94 1.92-10.42z"/>
        </g>
        <g class="node" transform="translate(4 256)">
            <ellipse cx="382.17" cy="-18" fill="none" stroke="#000" rx="37.53" ry="18"/>
            <text xml:space="preserve" x="382.17" y="-12.95" font-family="Times,serif" font-size="14" text-anchor="middle">:shared</text>
        </g>
        <g stroke="#000" class="edge">
            <path fill="none" d="M295.09 112c10.6 9.98 23.72 23.12 34.08 36 15.86 19.72 31.18 44.02 41.93 62.25"/>
            <path d="m374.13 208.48 1.99 10.41-8.05-6.89z"/>
        </g>
        <g stroke="#000" class="edge">
            <path fill="none" d="M449.87 108.9c-15.52 9.04-33.77 22.29-44.7 39.1-11.66 17.93-16.3 41.78-18.09 60.28"/>
            <path d="m390.59 208.31-4.2 9.72-2.78-10.22z"/>
        </g>
        <g class="node" transform="translate(4 256)">
            <ellipse cx="474.17" cy="-90" fill="none" stroke="#000" rx="63.63" ry="18"/>
            <text xml:space="preserve" x="474.17" y="-84.95" font-family="Times,serif" font-size="14" text-anchor="middle">:core:database</text>
        </g>
        <g stroke="red" stroke-width="2" class="edge">
            <path fill="none" d="M478.17 112.3v24.16"/>
            <path fill="red" d="m481.67 134.87-3.5 10-3.5-10z"/>
        </g>
        <g class="node" transform="translate(4 256)">
            <ellipse cx="617.17" cy="-90" fill="none" stroke="#000" rx="61.59" ry="18"/>
            <text xml:space="preserve" x="617.17" y="-84.95" font-family="Times,serif" font-size="14" text-anchor="middle">:core:data-api</text>
        </g>
        <g stroke="#000" class="edge">
            <path fill="none" d="M506.42 108.83c21.13 10.34 50.33 24.64 73.99 36.22"/>
            <path d="m581.7 141.78 7.44 7.54-10.52-1.25z"/>
        </g>
        <g class="node" transform="translate(4 256)">
            <ellipse cx="759.17" cy="-90" fill="none" stroke="#000" rx="62.1" ry="18"/>
            <text xml:space="preserve" x="759.17" y="-84.95" font-family="Times,serif" font-size="14" text-anchor="middle">:core:network</text>
        </g>
        <g stroke="#000" class="edge">
            <path fill="none" d="M513.91 106.26c6.71 2 13.68 3.99 20.26 5.74 69.61 18.47 87.87 19.61 158 36 4.32 1.01 8.79 2.06 13.28 3.12"/>
            <path d="m706.2 147.7 8.92 5.72-10.54 1.1z"/>
        </g>
        <g stroke="#000" class="edge">
            <path fill="none" d="M456.83 183.24c-12.59 9.58-28.69 21.82-42.33 32.21"/>
            <path d="m416.79 218.1-10.07 3.27 5.84-8.84z"/>
        </g>
        <g class="node" transform="translate(4 256)">
            <ellipse cx="555.17" cy="-18" fill="none" stroke="#000" rx="55.45" ry="18"/>
            <text xml:space="preserve" x="555.17" y="-12.95" font-family="Times,serif" font-size="14" text-anchor="middle">:core:model</text>
        </g>
        <g stroke="red" stroke-width="2" class="edge">
            <path fill="none" d="M497.37 183.59c10.26 8.87 23.07 19.94 34.37 29.7"/>
            <path fill="red" d="m532.82 209.61 5.28 9.18-9.85-3.89z"/>
        </g>
        <g stroke="#000" class="edge">
            <path fill="none" d="M606.16 183.95c-7.39 8.34-16.44 18.56-24.62 27.8"/>
            <path d="m584.29 213.91-9.25 5.17 4.01-9.81z"/>
        </g>
    </g>
</svg>
